M48
METRIC
T1C0.650
T2C1.750
T3C3.988
%
G90
G05
T1
X81.248Y-38.358
X87.027Y-38.358
T2
X50.482Y-82.55
X60.642Y-82.55
X221.932Y-63.5
X232.093Y-63.5
X221.932Y-44.45
X232.093Y-44.45
X88.582Y-63.5
X98.742Y-63.5
X145.732Y-82.55
X155.892Y-82.55
X221.932Y-101.6
X232.093Y-101.6
X260.032Y-82.55
X270.192Y-82.55
X145.732Y-44.45
X155.892Y-44.45
X69.532Y-101.6
X79.692Y-101.6
X240.982Y-44.45
X251.142Y-44.45
X126.682Y-82.55
X136.843Y-82.55
X107.632Y-63.5
X117.792Y-63.5
X50.482Y-101.6
X60.642Y-101.6
X240.982Y-101.6
X251.142Y-101.6
X88.582Y-44.45
X98.742Y-44.45
X202.882Y-82.55
X213.042Y-82.55
X145.732Y-63.5
X155.892Y-63.5
X164.782Y-44.45
X174.942Y-44.45
X221.932Y-82.55
X232.093Y-82.55
X107.632Y-44.45
X117.792Y-44.45
X260.032Y-44.45
X270.192Y-44.45
X50.482Y-44.45
X60.642Y-44.45
X260.032Y-101.6
X270.192Y-101.6
X145.732Y-101.6
X155.892Y-101.6
X126.682Y-101.6
X136.843Y-101.6
X126.682Y-63.5
X136.843Y-63.5
X183.832Y-44.45
X193.992Y-44.45
X240.982Y-82.55
X251.142Y-82.55
X69.532Y-82.55
X79.692Y-82.55
X107.632Y-101.6
X117.792Y-101.6
X50.482Y-63.5
X60.642Y-63.5
X202.882Y-63.5
X213.042Y-63.5
X183.832Y-63.5
X193.992Y-63.5
X69.532Y-44.45
X79.692Y-44.45
X183.832Y-101.6
X193.992Y-101.6
X164.782Y-63.5
X174.942Y-63.5
X260.032Y-63.5
X270.192Y-63.5
X88.582Y-82.55
X98.742Y-82.55
X126.682Y-44.45
X136.843Y-44.45
X240.982Y-63.5
X251.142Y-63.5
X88.582Y-101.6
X98.742Y-101.6
X107.632Y-82.55
X117.792Y-82.55
X202.882Y-44.45
X213.042Y-44.45
X164.782Y-101.6
X174.942Y-101.6
X69.532Y-63.5
X79.692Y-63.5
X183.832Y-82.55
X193.992Y-82.55
X164.782Y-82.55
X174.942Y-82.55
X202.882Y-101.6
X213.042Y-101.6
T3
X93.662Y-82.55
X131.762Y-44.45
X246.062Y-63.5
X93.662Y-101.6
X112.712Y-82.55
X207.962Y-44.45
X169.862Y-101.6
X74.612Y-63.5
X188.912Y-82.55
X169.862Y-82.55
X207.962Y-101.6
X55.562Y-82.55
X227.012Y-63.5
X227.012Y-44.45
X93.662Y-63.5
X150.812Y-82.55
X227.012Y-101.6
X265.113Y-82.55
X150.812Y-44.45
X74.612Y-101.6
X246.062Y-44.45
X131.762Y-82.55
X112.712Y-63.5
X55.562Y-101.6
X246.062Y-101.6
X93.662Y-44.45
X207.962Y-82.55
X150.812Y-63.5
X169.862Y-44.45
X227.012Y-82.55
X112.712Y-44.45
X265.113Y-44.45
X55.562Y-44.45
X265.113Y-101.6
X150.812Y-101.6
X131.762Y-101.6
X131.762Y-63.5
X188.912Y-44.45
X246.062Y-82.55
X74.612Y-82.55
X112.712Y-101.6
X55.562Y-63.5
X207.962Y-63.5
X188.912Y-63.5
X74.612Y-44.45
X188.912Y-101.6
X169.862Y-63.5
X265.113Y-63.5
T0
M30
