G04 #@! TF.GenerationSoftware,KiCad,Pcbnew,(5.1.2-1)-1*
G04 #@! TF.CreationDate,2019-11-24T06:11:25-06:00*
G04 #@! TF.ProjectId,therick_THT,74686572-6963-46b5-9f54-48542e6b6963,rev?*
G04 #@! TF.SameCoordinates,Original*
G04 #@! TF.FileFunction,Paste,Bot*
G04 #@! TF.FilePolarity,Positive*
%FSLAX46Y46*%
G04 Gerber Fmt 4.6, Leading zero omitted, Abs format (unit mm)*
G04 Created by KiCad (PCBNEW (5.1.2-1)-1) date 2019-11-24 06:11:25*
%MOMM*%
%LPD*%
G04 APERTURE LIST*
%ADD10C,0.100000*%
%ADD11C,0.600000*%
%ADD12C,0.300000*%
%ADD13R,1.100000X1.800000*%
G04 APERTURE END LIST*
D10*
G36*
X86752203Y-38959347D02*
G01*
X86766764Y-38961507D01*
X86781043Y-38965084D01*
X86794903Y-38970043D01*
X86808210Y-38976337D01*
X86820836Y-38983905D01*
X86832659Y-38992673D01*
X86843566Y-39002559D01*
X86853452Y-39013466D01*
X86862220Y-39025289D01*
X86869788Y-39037915D01*
X86876082Y-39051222D01*
X86881041Y-39065082D01*
X86884618Y-39079361D01*
X86886778Y-39093922D01*
X86887500Y-39108625D01*
X86887500Y-40258625D01*
X86886778Y-40273328D01*
X86884618Y-40287889D01*
X86881041Y-40302168D01*
X86876082Y-40316028D01*
X86869788Y-40329335D01*
X86862220Y-40341961D01*
X86853452Y-40353784D01*
X86843566Y-40364691D01*
X86832659Y-40374577D01*
X86820836Y-40383345D01*
X86808210Y-40390913D01*
X86794903Y-40397207D01*
X86781043Y-40402166D01*
X86766764Y-40405743D01*
X86752203Y-40407903D01*
X86737500Y-40408625D01*
X86437500Y-40408625D01*
X86422797Y-40407903D01*
X86408236Y-40405743D01*
X86393957Y-40402166D01*
X86380097Y-40397207D01*
X86366790Y-40390913D01*
X86354164Y-40383345D01*
X86342341Y-40374577D01*
X86331434Y-40364691D01*
X86321548Y-40353784D01*
X86312780Y-40341961D01*
X86305212Y-40329335D01*
X86298918Y-40316028D01*
X86293959Y-40302168D01*
X86290382Y-40287889D01*
X86288222Y-40273328D01*
X86287500Y-40258625D01*
X86287500Y-39108625D01*
X86288222Y-39093922D01*
X86290382Y-39079361D01*
X86293959Y-39065082D01*
X86298918Y-39051222D01*
X86305212Y-39037915D01*
X86312780Y-39025289D01*
X86321548Y-39013466D01*
X86331434Y-39002559D01*
X86342341Y-38992673D01*
X86354164Y-38983905D01*
X86366790Y-38976337D01*
X86380097Y-38970043D01*
X86393957Y-38965084D01*
X86408236Y-38961507D01*
X86422797Y-38959347D01*
X86437500Y-38958625D01*
X86737500Y-38958625D01*
X86752203Y-38959347D01*
X86752203Y-38959347D01*
G37*
D11*
X86587500Y-39683625D03*
D10*
G36*
X87552203Y-38959347D02*
G01*
X87566764Y-38961507D01*
X87581043Y-38965084D01*
X87594903Y-38970043D01*
X87608210Y-38976337D01*
X87620836Y-38983905D01*
X87632659Y-38992673D01*
X87643566Y-39002559D01*
X87653452Y-39013466D01*
X87662220Y-39025289D01*
X87669788Y-39037915D01*
X87676082Y-39051222D01*
X87681041Y-39065082D01*
X87684618Y-39079361D01*
X87686778Y-39093922D01*
X87687500Y-39108625D01*
X87687500Y-40258625D01*
X87686778Y-40273328D01*
X87684618Y-40287889D01*
X87681041Y-40302168D01*
X87676082Y-40316028D01*
X87669788Y-40329335D01*
X87662220Y-40341961D01*
X87653452Y-40353784D01*
X87643566Y-40364691D01*
X87632659Y-40374577D01*
X87620836Y-40383345D01*
X87608210Y-40390913D01*
X87594903Y-40397207D01*
X87581043Y-40402166D01*
X87566764Y-40405743D01*
X87552203Y-40407903D01*
X87537500Y-40408625D01*
X87237500Y-40408625D01*
X87222797Y-40407903D01*
X87208236Y-40405743D01*
X87193957Y-40402166D01*
X87180097Y-40397207D01*
X87166790Y-40390913D01*
X87154164Y-40383345D01*
X87142341Y-40374577D01*
X87131434Y-40364691D01*
X87121548Y-40353784D01*
X87112780Y-40341961D01*
X87105212Y-40329335D01*
X87098918Y-40316028D01*
X87093959Y-40302168D01*
X87090382Y-40287889D01*
X87088222Y-40273328D01*
X87087500Y-40258625D01*
X87087500Y-39108625D01*
X87088222Y-39093922D01*
X87090382Y-39079361D01*
X87093959Y-39065082D01*
X87098918Y-39051222D01*
X87105212Y-39037915D01*
X87112780Y-39025289D01*
X87121548Y-39013466D01*
X87131434Y-39002559D01*
X87142341Y-38992673D01*
X87154164Y-38983905D01*
X87166790Y-38976337D01*
X87180097Y-38970043D01*
X87193957Y-38965084D01*
X87208236Y-38961507D01*
X87222797Y-38959347D01*
X87237500Y-38958625D01*
X87537500Y-38958625D01*
X87552203Y-38959347D01*
X87552203Y-38959347D01*
G37*
D11*
X87387500Y-39683625D03*
D10*
G36*
X81852203Y-38959347D02*
G01*
X81866764Y-38961507D01*
X81881043Y-38965084D01*
X81894903Y-38970043D01*
X81908210Y-38976337D01*
X81920836Y-38983905D01*
X81932659Y-38992673D01*
X81943566Y-39002559D01*
X81953452Y-39013466D01*
X81962220Y-39025289D01*
X81969788Y-39037915D01*
X81976082Y-39051222D01*
X81981041Y-39065082D01*
X81984618Y-39079361D01*
X81986778Y-39093922D01*
X81987500Y-39108625D01*
X81987500Y-40258625D01*
X81986778Y-40273328D01*
X81984618Y-40287889D01*
X81981041Y-40302168D01*
X81976082Y-40316028D01*
X81969788Y-40329335D01*
X81962220Y-40341961D01*
X81953452Y-40353784D01*
X81943566Y-40364691D01*
X81932659Y-40374577D01*
X81920836Y-40383345D01*
X81908210Y-40390913D01*
X81894903Y-40397207D01*
X81881043Y-40402166D01*
X81866764Y-40405743D01*
X81852203Y-40407903D01*
X81837500Y-40408625D01*
X81537500Y-40408625D01*
X81522797Y-40407903D01*
X81508236Y-40405743D01*
X81493957Y-40402166D01*
X81480097Y-40397207D01*
X81466790Y-40390913D01*
X81454164Y-40383345D01*
X81442341Y-40374577D01*
X81431434Y-40364691D01*
X81421548Y-40353784D01*
X81412780Y-40341961D01*
X81405212Y-40329335D01*
X81398918Y-40316028D01*
X81393959Y-40302168D01*
X81390382Y-40287889D01*
X81388222Y-40273328D01*
X81387500Y-40258625D01*
X81387500Y-39108625D01*
X81388222Y-39093922D01*
X81390382Y-39079361D01*
X81393959Y-39065082D01*
X81398918Y-39051222D01*
X81405212Y-39037915D01*
X81412780Y-39025289D01*
X81421548Y-39013466D01*
X81431434Y-39002559D01*
X81442341Y-38992673D01*
X81454164Y-38983905D01*
X81466790Y-38976337D01*
X81480097Y-38970043D01*
X81493957Y-38965084D01*
X81508236Y-38961507D01*
X81522797Y-38959347D01*
X81537500Y-38958625D01*
X81837500Y-38958625D01*
X81852203Y-38959347D01*
X81852203Y-38959347D01*
G37*
D11*
X81687500Y-39683625D03*
D10*
G36*
X84469851Y-38958986D02*
G01*
X84477132Y-38960066D01*
X84484271Y-38961854D01*
X84491201Y-38964334D01*
X84497855Y-38967481D01*
X84504168Y-38971265D01*
X84510079Y-38975649D01*
X84515533Y-38980592D01*
X84520476Y-38986046D01*
X84524860Y-38991957D01*
X84528644Y-38998270D01*
X84531791Y-39004924D01*
X84534271Y-39011854D01*
X84536059Y-39018993D01*
X84537139Y-39026274D01*
X84537500Y-39033625D01*
X84537500Y-40333625D01*
X84537139Y-40340976D01*
X84536059Y-40348257D01*
X84534271Y-40355396D01*
X84531791Y-40362326D01*
X84528644Y-40368980D01*
X84524860Y-40375293D01*
X84520476Y-40381204D01*
X84515533Y-40386658D01*
X84510079Y-40391601D01*
X84504168Y-40395985D01*
X84497855Y-40399769D01*
X84491201Y-40402916D01*
X84484271Y-40405396D01*
X84477132Y-40407184D01*
X84469851Y-40408264D01*
X84462500Y-40408625D01*
X84312500Y-40408625D01*
X84305149Y-40408264D01*
X84297868Y-40407184D01*
X84290729Y-40405396D01*
X84283799Y-40402916D01*
X84277145Y-40399769D01*
X84270832Y-40395985D01*
X84264921Y-40391601D01*
X84259467Y-40386658D01*
X84254524Y-40381204D01*
X84250140Y-40375293D01*
X84246356Y-40368980D01*
X84243209Y-40362326D01*
X84240729Y-40355396D01*
X84238941Y-40348257D01*
X84237861Y-40340976D01*
X84237500Y-40333625D01*
X84237500Y-39033625D01*
X84237861Y-39026274D01*
X84238941Y-39018993D01*
X84240729Y-39011854D01*
X84243209Y-39004924D01*
X84246356Y-38998270D01*
X84250140Y-38991957D01*
X84254524Y-38986046D01*
X84259467Y-38980592D01*
X84264921Y-38975649D01*
X84270832Y-38971265D01*
X84277145Y-38967481D01*
X84283799Y-38964334D01*
X84290729Y-38961854D01*
X84297868Y-38960066D01*
X84305149Y-38958986D01*
X84312500Y-38958625D01*
X84462500Y-38958625D01*
X84469851Y-38958986D01*
X84469851Y-38958986D01*
G37*
D12*
X84387500Y-39683625D03*
D10*
G36*
X84969851Y-38958986D02*
G01*
X84977132Y-38960066D01*
X84984271Y-38961854D01*
X84991201Y-38964334D01*
X84997855Y-38967481D01*
X85004168Y-38971265D01*
X85010079Y-38975649D01*
X85015533Y-38980592D01*
X85020476Y-38986046D01*
X85024860Y-38991957D01*
X85028644Y-38998270D01*
X85031791Y-39004924D01*
X85034271Y-39011854D01*
X85036059Y-39018993D01*
X85037139Y-39026274D01*
X85037500Y-39033625D01*
X85037500Y-40333625D01*
X85037139Y-40340976D01*
X85036059Y-40348257D01*
X85034271Y-40355396D01*
X85031791Y-40362326D01*
X85028644Y-40368980D01*
X85024860Y-40375293D01*
X85020476Y-40381204D01*
X85015533Y-40386658D01*
X85010079Y-40391601D01*
X85004168Y-40395985D01*
X84997855Y-40399769D01*
X84991201Y-40402916D01*
X84984271Y-40405396D01*
X84977132Y-40407184D01*
X84969851Y-40408264D01*
X84962500Y-40408625D01*
X84812500Y-40408625D01*
X84805149Y-40408264D01*
X84797868Y-40407184D01*
X84790729Y-40405396D01*
X84783799Y-40402916D01*
X84777145Y-40399769D01*
X84770832Y-40395985D01*
X84764921Y-40391601D01*
X84759467Y-40386658D01*
X84754524Y-40381204D01*
X84750140Y-40375293D01*
X84746356Y-40368980D01*
X84743209Y-40362326D01*
X84740729Y-40355396D01*
X84738941Y-40348257D01*
X84737861Y-40340976D01*
X84737500Y-40333625D01*
X84737500Y-39033625D01*
X84737861Y-39026274D01*
X84738941Y-39018993D01*
X84740729Y-39011854D01*
X84743209Y-39004924D01*
X84746356Y-38998270D01*
X84750140Y-38991957D01*
X84754524Y-38986046D01*
X84759467Y-38980592D01*
X84764921Y-38975649D01*
X84770832Y-38971265D01*
X84777145Y-38967481D01*
X84783799Y-38964334D01*
X84790729Y-38961854D01*
X84797868Y-38960066D01*
X84805149Y-38958986D01*
X84812500Y-38958625D01*
X84962500Y-38958625D01*
X84969851Y-38958986D01*
X84969851Y-38958986D01*
G37*
D12*
X84887500Y-39683625D03*
D10*
G36*
X85469851Y-38958986D02*
G01*
X85477132Y-38960066D01*
X85484271Y-38961854D01*
X85491201Y-38964334D01*
X85497855Y-38967481D01*
X85504168Y-38971265D01*
X85510079Y-38975649D01*
X85515533Y-38980592D01*
X85520476Y-38986046D01*
X85524860Y-38991957D01*
X85528644Y-38998270D01*
X85531791Y-39004924D01*
X85534271Y-39011854D01*
X85536059Y-39018993D01*
X85537139Y-39026274D01*
X85537500Y-39033625D01*
X85537500Y-40333625D01*
X85537139Y-40340976D01*
X85536059Y-40348257D01*
X85534271Y-40355396D01*
X85531791Y-40362326D01*
X85528644Y-40368980D01*
X85524860Y-40375293D01*
X85520476Y-40381204D01*
X85515533Y-40386658D01*
X85510079Y-40391601D01*
X85504168Y-40395985D01*
X85497855Y-40399769D01*
X85491201Y-40402916D01*
X85484271Y-40405396D01*
X85477132Y-40407184D01*
X85469851Y-40408264D01*
X85462500Y-40408625D01*
X85312500Y-40408625D01*
X85305149Y-40408264D01*
X85297868Y-40407184D01*
X85290729Y-40405396D01*
X85283799Y-40402916D01*
X85277145Y-40399769D01*
X85270832Y-40395985D01*
X85264921Y-40391601D01*
X85259467Y-40386658D01*
X85254524Y-40381204D01*
X85250140Y-40375293D01*
X85246356Y-40368980D01*
X85243209Y-40362326D01*
X85240729Y-40355396D01*
X85238941Y-40348257D01*
X85237861Y-40340976D01*
X85237500Y-40333625D01*
X85237500Y-39033625D01*
X85237861Y-39026274D01*
X85238941Y-39018993D01*
X85240729Y-39011854D01*
X85243209Y-39004924D01*
X85246356Y-38998270D01*
X85250140Y-38991957D01*
X85254524Y-38986046D01*
X85259467Y-38980592D01*
X85264921Y-38975649D01*
X85270832Y-38971265D01*
X85277145Y-38967481D01*
X85283799Y-38964334D01*
X85290729Y-38961854D01*
X85297868Y-38960066D01*
X85305149Y-38958986D01*
X85312500Y-38958625D01*
X85462500Y-38958625D01*
X85469851Y-38958986D01*
X85469851Y-38958986D01*
G37*
D12*
X85387500Y-39683625D03*
D10*
G36*
X85969851Y-38958986D02*
G01*
X85977132Y-38960066D01*
X85984271Y-38961854D01*
X85991201Y-38964334D01*
X85997855Y-38967481D01*
X86004168Y-38971265D01*
X86010079Y-38975649D01*
X86015533Y-38980592D01*
X86020476Y-38986046D01*
X86024860Y-38991957D01*
X86028644Y-38998270D01*
X86031791Y-39004924D01*
X86034271Y-39011854D01*
X86036059Y-39018993D01*
X86037139Y-39026274D01*
X86037500Y-39033625D01*
X86037500Y-40333625D01*
X86037139Y-40340976D01*
X86036059Y-40348257D01*
X86034271Y-40355396D01*
X86031791Y-40362326D01*
X86028644Y-40368980D01*
X86024860Y-40375293D01*
X86020476Y-40381204D01*
X86015533Y-40386658D01*
X86010079Y-40391601D01*
X86004168Y-40395985D01*
X85997855Y-40399769D01*
X85991201Y-40402916D01*
X85984271Y-40405396D01*
X85977132Y-40407184D01*
X85969851Y-40408264D01*
X85962500Y-40408625D01*
X85812500Y-40408625D01*
X85805149Y-40408264D01*
X85797868Y-40407184D01*
X85790729Y-40405396D01*
X85783799Y-40402916D01*
X85777145Y-40399769D01*
X85770832Y-40395985D01*
X85764921Y-40391601D01*
X85759467Y-40386658D01*
X85754524Y-40381204D01*
X85750140Y-40375293D01*
X85746356Y-40368980D01*
X85743209Y-40362326D01*
X85740729Y-40355396D01*
X85738941Y-40348257D01*
X85737861Y-40340976D01*
X85737500Y-40333625D01*
X85737500Y-39033625D01*
X85737861Y-39026274D01*
X85738941Y-39018993D01*
X85740729Y-39011854D01*
X85743209Y-39004924D01*
X85746356Y-38998270D01*
X85750140Y-38991957D01*
X85754524Y-38986046D01*
X85759467Y-38980592D01*
X85764921Y-38975649D01*
X85770832Y-38971265D01*
X85777145Y-38967481D01*
X85783799Y-38964334D01*
X85790729Y-38961854D01*
X85797868Y-38960066D01*
X85805149Y-38958986D01*
X85812500Y-38958625D01*
X85962500Y-38958625D01*
X85969851Y-38958986D01*
X85969851Y-38958986D01*
G37*
D12*
X85887500Y-39683625D03*
D10*
G36*
X83965851Y-38958986D02*
G01*
X83973132Y-38960066D01*
X83980271Y-38961854D01*
X83987201Y-38964334D01*
X83993855Y-38967481D01*
X84000168Y-38971265D01*
X84006079Y-38975649D01*
X84011533Y-38980592D01*
X84016476Y-38986046D01*
X84020860Y-38991957D01*
X84024644Y-38998270D01*
X84027791Y-39004924D01*
X84030271Y-39011854D01*
X84032059Y-39018993D01*
X84033139Y-39026274D01*
X84033500Y-39033625D01*
X84033500Y-40333625D01*
X84033139Y-40340976D01*
X84032059Y-40348257D01*
X84030271Y-40355396D01*
X84027791Y-40362326D01*
X84024644Y-40368980D01*
X84020860Y-40375293D01*
X84016476Y-40381204D01*
X84011533Y-40386658D01*
X84006079Y-40391601D01*
X84000168Y-40395985D01*
X83993855Y-40399769D01*
X83987201Y-40402916D01*
X83980271Y-40405396D01*
X83973132Y-40407184D01*
X83965851Y-40408264D01*
X83958500Y-40408625D01*
X83808500Y-40408625D01*
X83801149Y-40408264D01*
X83793868Y-40407184D01*
X83786729Y-40405396D01*
X83779799Y-40402916D01*
X83773145Y-40399769D01*
X83766832Y-40395985D01*
X83760921Y-40391601D01*
X83755467Y-40386658D01*
X83750524Y-40381204D01*
X83746140Y-40375293D01*
X83742356Y-40368980D01*
X83739209Y-40362326D01*
X83736729Y-40355396D01*
X83734941Y-40348257D01*
X83733861Y-40340976D01*
X83733500Y-40333625D01*
X83733500Y-39033625D01*
X83733861Y-39026274D01*
X83734941Y-39018993D01*
X83736729Y-39011854D01*
X83739209Y-39004924D01*
X83742356Y-38998270D01*
X83746140Y-38991957D01*
X83750524Y-38986046D01*
X83755467Y-38980592D01*
X83760921Y-38975649D01*
X83766832Y-38971265D01*
X83773145Y-38967481D01*
X83779799Y-38964334D01*
X83786729Y-38961854D01*
X83793868Y-38960066D01*
X83801149Y-38958986D01*
X83808500Y-38958625D01*
X83958500Y-38958625D01*
X83965851Y-38958986D01*
X83965851Y-38958986D01*
G37*
D12*
X83883500Y-39683625D03*
D10*
G36*
X83469851Y-38958986D02*
G01*
X83477132Y-38960066D01*
X83484271Y-38961854D01*
X83491201Y-38964334D01*
X83497855Y-38967481D01*
X83504168Y-38971265D01*
X83510079Y-38975649D01*
X83515533Y-38980592D01*
X83520476Y-38986046D01*
X83524860Y-38991957D01*
X83528644Y-38998270D01*
X83531791Y-39004924D01*
X83534271Y-39011854D01*
X83536059Y-39018993D01*
X83537139Y-39026274D01*
X83537500Y-39033625D01*
X83537500Y-40333625D01*
X83537139Y-40340976D01*
X83536059Y-40348257D01*
X83534271Y-40355396D01*
X83531791Y-40362326D01*
X83528644Y-40368980D01*
X83524860Y-40375293D01*
X83520476Y-40381204D01*
X83515533Y-40386658D01*
X83510079Y-40391601D01*
X83504168Y-40395985D01*
X83497855Y-40399769D01*
X83491201Y-40402916D01*
X83484271Y-40405396D01*
X83477132Y-40407184D01*
X83469851Y-40408264D01*
X83462500Y-40408625D01*
X83312500Y-40408625D01*
X83305149Y-40408264D01*
X83297868Y-40407184D01*
X83290729Y-40405396D01*
X83283799Y-40402916D01*
X83277145Y-40399769D01*
X83270832Y-40395985D01*
X83264921Y-40391601D01*
X83259467Y-40386658D01*
X83254524Y-40381204D01*
X83250140Y-40375293D01*
X83246356Y-40368980D01*
X83243209Y-40362326D01*
X83240729Y-40355396D01*
X83238941Y-40348257D01*
X83237861Y-40340976D01*
X83237500Y-40333625D01*
X83237500Y-39033625D01*
X83237861Y-39026274D01*
X83238941Y-39018993D01*
X83240729Y-39011854D01*
X83243209Y-39004924D01*
X83246356Y-38998270D01*
X83250140Y-38991957D01*
X83254524Y-38986046D01*
X83259467Y-38980592D01*
X83264921Y-38975649D01*
X83270832Y-38971265D01*
X83277145Y-38967481D01*
X83283799Y-38964334D01*
X83290729Y-38961854D01*
X83297868Y-38960066D01*
X83305149Y-38958986D01*
X83312500Y-38958625D01*
X83462500Y-38958625D01*
X83469851Y-38958986D01*
X83469851Y-38958986D01*
G37*
D12*
X83387500Y-39683625D03*
D10*
G36*
X82969851Y-38958986D02*
G01*
X82977132Y-38960066D01*
X82984271Y-38961854D01*
X82991201Y-38964334D01*
X82997855Y-38967481D01*
X83004168Y-38971265D01*
X83010079Y-38975649D01*
X83015533Y-38980592D01*
X83020476Y-38986046D01*
X83024860Y-38991957D01*
X83028644Y-38998270D01*
X83031791Y-39004924D01*
X83034271Y-39011854D01*
X83036059Y-39018993D01*
X83037139Y-39026274D01*
X83037500Y-39033625D01*
X83037500Y-40333625D01*
X83037139Y-40340976D01*
X83036059Y-40348257D01*
X83034271Y-40355396D01*
X83031791Y-40362326D01*
X83028644Y-40368980D01*
X83024860Y-40375293D01*
X83020476Y-40381204D01*
X83015533Y-40386658D01*
X83010079Y-40391601D01*
X83004168Y-40395985D01*
X82997855Y-40399769D01*
X82991201Y-40402916D01*
X82984271Y-40405396D01*
X82977132Y-40407184D01*
X82969851Y-40408264D01*
X82962500Y-40408625D01*
X82812500Y-40408625D01*
X82805149Y-40408264D01*
X82797868Y-40407184D01*
X82790729Y-40405396D01*
X82783799Y-40402916D01*
X82777145Y-40399769D01*
X82770832Y-40395985D01*
X82764921Y-40391601D01*
X82759467Y-40386658D01*
X82754524Y-40381204D01*
X82750140Y-40375293D01*
X82746356Y-40368980D01*
X82743209Y-40362326D01*
X82740729Y-40355396D01*
X82738941Y-40348257D01*
X82737861Y-40340976D01*
X82737500Y-40333625D01*
X82737500Y-39033625D01*
X82737861Y-39026274D01*
X82738941Y-39018993D01*
X82740729Y-39011854D01*
X82743209Y-39004924D01*
X82746356Y-38998270D01*
X82750140Y-38991957D01*
X82754524Y-38986046D01*
X82759467Y-38980592D01*
X82764921Y-38975649D01*
X82770832Y-38971265D01*
X82777145Y-38967481D01*
X82783799Y-38964334D01*
X82790729Y-38961854D01*
X82797868Y-38960066D01*
X82805149Y-38958986D01*
X82812500Y-38958625D01*
X82962500Y-38958625D01*
X82969851Y-38958986D01*
X82969851Y-38958986D01*
G37*
D12*
X82887500Y-39683625D03*
D10*
G36*
X82469851Y-38958986D02*
G01*
X82477132Y-38960066D01*
X82484271Y-38961854D01*
X82491201Y-38964334D01*
X82497855Y-38967481D01*
X82504168Y-38971265D01*
X82510079Y-38975649D01*
X82515533Y-38980592D01*
X82520476Y-38986046D01*
X82524860Y-38991957D01*
X82528644Y-38998270D01*
X82531791Y-39004924D01*
X82534271Y-39011854D01*
X82536059Y-39018993D01*
X82537139Y-39026274D01*
X82537500Y-39033625D01*
X82537500Y-40333625D01*
X82537139Y-40340976D01*
X82536059Y-40348257D01*
X82534271Y-40355396D01*
X82531791Y-40362326D01*
X82528644Y-40368980D01*
X82524860Y-40375293D01*
X82520476Y-40381204D01*
X82515533Y-40386658D01*
X82510079Y-40391601D01*
X82504168Y-40395985D01*
X82497855Y-40399769D01*
X82491201Y-40402916D01*
X82484271Y-40405396D01*
X82477132Y-40407184D01*
X82469851Y-40408264D01*
X82462500Y-40408625D01*
X82312500Y-40408625D01*
X82305149Y-40408264D01*
X82297868Y-40407184D01*
X82290729Y-40405396D01*
X82283799Y-40402916D01*
X82277145Y-40399769D01*
X82270832Y-40395985D01*
X82264921Y-40391601D01*
X82259467Y-40386658D01*
X82254524Y-40381204D01*
X82250140Y-40375293D01*
X82246356Y-40368980D01*
X82243209Y-40362326D01*
X82240729Y-40355396D01*
X82238941Y-40348257D01*
X82237861Y-40340976D01*
X82237500Y-40333625D01*
X82237500Y-39033625D01*
X82237861Y-39026274D01*
X82238941Y-39018993D01*
X82240729Y-39011854D01*
X82243209Y-39004924D01*
X82246356Y-38998270D01*
X82250140Y-38991957D01*
X82254524Y-38986046D01*
X82259467Y-38980592D01*
X82264921Y-38975649D01*
X82270832Y-38971265D01*
X82277145Y-38967481D01*
X82283799Y-38964334D01*
X82290729Y-38961854D01*
X82297868Y-38960066D01*
X82305149Y-38958986D01*
X82312500Y-38958625D01*
X82462500Y-38958625D01*
X82469851Y-38958986D01*
X82469851Y-38958986D01*
G37*
D12*
X82387500Y-39683625D03*
D10*
G36*
X81052203Y-38959347D02*
G01*
X81066764Y-38961507D01*
X81081043Y-38965084D01*
X81094903Y-38970043D01*
X81108210Y-38976337D01*
X81120836Y-38983905D01*
X81132659Y-38992673D01*
X81143566Y-39002559D01*
X81153452Y-39013466D01*
X81162220Y-39025289D01*
X81169788Y-39037915D01*
X81176082Y-39051222D01*
X81181041Y-39065082D01*
X81184618Y-39079361D01*
X81186778Y-39093922D01*
X81187500Y-39108625D01*
X81187500Y-40258625D01*
X81186778Y-40273328D01*
X81184618Y-40287889D01*
X81181041Y-40302168D01*
X81176082Y-40316028D01*
X81169788Y-40329335D01*
X81162220Y-40341961D01*
X81153452Y-40353784D01*
X81143566Y-40364691D01*
X81132659Y-40374577D01*
X81120836Y-40383345D01*
X81108210Y-40390913D01*
X81094903Y-40397207D01*
X81081043Y-40402166D01*
X81066764Y-40405743D01*
X81052203Y-40407903D01*
X81037500Y-40408625D01*
X80737500Y-40408625D01*
X80722797Y-40407903D01*
X80708236Y-40405743D01*
X80693957Y-40402166D01*
X80680097Y-40397207D01*
X80666790Y-40390913D01*
X80654164Y-40383345D01*
X80642341Y-40374577D01*
X80631434Y-40364691D01*
X80621548Y-40353784D01*
X80612780Y-40341961D01*
X80605212Y-40329335D01*
X80598918Y-40316028D01*
X80593959Y-40302168D01*
X80590382Y-40287889D01*
X80588222Y-40273328D01*
X80587500Y-40258625D01*
X80587500Y-39108625D01*
X80588222Y-39093922D01*
X80590382Y-39079361D01*
X80593959Y-39065082D01*
X80598918Y-39051222D01*
X80605212Y-39037915D01*
X80612780Y-39025289D01*
X80621548Y-39013466D01*
X80631434Y-39002559D01*
X80642341Y-38992673D01*
X80654164Y-38983905D01*
X80666790Y-38976337D01*
X80680097Y-38970043D01*
X80693957Y-38965084D01*
X80708236Y-38961507D01*
X80722797Y-38959347D01*
X80737500Y-38958625D01*
X81037500Y-38958625D01*
X81052203Y-38959347D01*
X81052203Y-38959347D01*
G37*
D11*
X80887500Y-39683625D03*
D13*
X85987500Y-50875000D03*
X82287500Y-57075000D03*
X82287500Y-50875000D03*
X85987500Y-57075000D03*
M02*
