G04 #@! TF.GenerationSoftware,KiCad,Pcbnew,(5.1.2-1)-1*
G04 #@! TF.CreationDate,2019-11-15T22:16:25-06:00*
G04 #@! TF.ProjectId,therick_THT,74686572-6963-46b5-9f54-48542e6b6963,rev?*
G04 #@! TF.SameCoordinates,Original*
G04 #@! TF.FileFunction,Legend,Top*
G04 #@! TF.FilePolarity,Positive*
%FSLAX46Y46*%
G04 Gerber Fmt 4.6, Leading zero omitted, Abs format (unit mm)*
G04 Created by KiCad (PCBNEW (5.1.2-1)-1) date 2019-11-15 22:16:25*
%MOMM*%
%LPD*%
G04 APERTURE LIST*
%ADD10C,0.150000*%
%ADD11C,0.381000*%
G04 APERTURE END LIST*
D10*
X149288500Y-40640000D02*
X144208500Y-40640000D01*
X149288500Y-48006000D02*
X149288500Y-40640000D01*
X144208500Y-48006000D02*
X149288500Y-48006000D01*
X144208500Y-40640000D02*
X144208500Y-48006000D01*
X64658875Y-43957250D02*
X63134875Y-43957250D01*
X64658875Y-47513250D02*
X64658875Y-43449250D01*
X63134875Y-47513250D02*
X64658875Y-47513250D01*
X63134875Y-43449250D02*
X63134875Y-47513250D01*
X63134875Y-47513250D02*
X63134875Y-43449250D01*
X64658875Y-43449250D02*
X63134875Y-43449250D01*
X143241920Y-63007250D02*
X141717920Y-63007250D01*
X143241920Y-66563250D02*
X143241920Y-62499250D01*
X141717920Y-66563250D02*
X143241920Y-66563250D01*
X141717920Y-62499250D02*
X141717920Y-66563250D01*
X141717920Y-66563250D02*
X141717920Y-62499250D01*
X143241920Y-62499250D02*
X141717920Y-62499250D01*
X217061600Y-43449760D02*
X215537600Y-43449760D01*
X215537600Y-47513760D02*
X215537600Y-43449760D01*
X215537600Y-43449760D02*
X215537600Y-47513760D01*
X215537600Y-47513760D02*
X217061600Y-47513760D01*
X217061600Y-47513760D02*
X217061600Y-43449760D01*
X217061600Y-43957760D02*
X215537600Y-43957760D01*
X219442880Y-43449760D02*
X217918880Y-43449760D01*
X217918880Y-47513760D02*
X217918880Y-43449760D01*
X217918880Y-43449760D02*
X217918880Y-47513760D01*
X217918880Y-47513760D02*
X219442880Y-47513760D01*
X219442880Y-47513760D02*
X219442880Y-43449760D01*
X219442880Y-43957760D02*
X217918880Y-43957760D01*
D11*
X148272500Y-38100000D02*
X148272500Y-35560000D01*
X145732500Y-53340000D02*
X145732500Y-35560000D01*
X145732500Y-35560000D02*
X178752500Y-35560000D01*
X178752500Y-35560000D02*
X178752500Y-53340000D01*
X178752500Y-53340000D02*
X145732500Y-53340000D01*
D10*
G36*
X154161530Y-50294635D02*
G01*
X154261530Y-50294635D01*
X154261530Y-50794635D01*
X154161530Y-50794635D01*
X154161530Y-50294635D01*
G37*
X154161530Y-50294635D02*
X154261530Y-50294635D01*
X154261530Y-50794635D01*
X154161530Y-50794635D01*
X154161530Y-50294635D01*
G36*
X154161530Y-50294635D02*
G01*
X154461530Y-50294635D01*
X154461530Y-50394635D01*
X154161530Y-50394635D01*
X154161530Y-50294635D01*
G37*
X154161530Y-50294635D02*
X154461530Y-50294635D01*
X154461530Y-50394635D01*
X154161530Y-50394635D01*
X154161530Y-50294635D01*
G36*
X154761530Y-50294635D02*
G01*
X154961530Y-50294635D01*
X154961530Y-50394635D01*
X154761530Y-50394635D01*
X154761530Y-50294635D01*
G37*
X154761530Y-50294635D02*
X154961530Y-50294635D01*
X154961530Y-50394635D01*
X154761530Y-50394635D01*
X154761530Y-50294635D01*
G36*
X154161530Y-50694635D02*
G01*
X154961530Y-50694635D01*
X154961530Y-50794635D01*
X154161530Y-50794635D01*
X154161530Y-50694635D01*
G37*
X154161530Y-50694635D02*
X154961530Y-50694635D01*
X154961530Y-50794635D01*
X154161530Y-50794635D01*
X154161530Y-50694635D01*
G36*
X154561530Y-50494635D02*
G01*
X154661530Y-50494635D01*
X154661530Y-50594635D01*
X154561530Y-50594635D01*
X154561530Y-50494635D01*
G37*
X154561530Y-50494635D02*
X154661530Y-50494635D01*
X154661530Y-50594635D01*
X154561530Y-50594635D01*
X154561530Y-50494635D01*
D11*
X148272500Y-38100000D02*
X150812500Y-38100000D01*
X150812500Y-38100000D02*
X150812500Y-35560000D01*
D10*
X178961120Y-100600480D02*
X177437120Y-100600480D01*
X177437120Y-104664480D02*
X177437120Y-100600480D01*
X177437120Y-100600480D02*
X177437120Y-104664480D01*
X177437120Y-104664480D02*
X178961120Y-104664480D01*
X178961120Y-104664480D02*
X178961120Y-100600480D01*
X178961120Y-101108480D02*
X177437120Y-101108480D01*
X219442880Y-62499250D02*
X217918880Y-62499250D01*
X217918880Y-66563250D02*
X217918880Y-62499250D01*
X217918880Y-62499250D02*
X217918880Y-66563250D01*
X217918880Y-66563250D02*
X219442880Y-66563250D01*
X219442880Y-66563250D02*
X219442880Y-62499250D01*
X219442880Y-63007250D02*
X217918880Y-63007250D01*
X67040960Y-43449760D02*
X65516960Y-43449760D01*
X65516960Y-47513760D02*
X65516960Y-43449760D01*
X65516960Y-43449760D02*
X65516960Y-47513760D01*
X65516960Y-47513760D02*
X67040960Y-47513760D01*
X67040960Y-47513760D02*
X67040960Y-43449760D01*
X67040960Y-43957760D02*
X65516960Y-43957760D01*
X102760160Y-42699760D02*
X101236160Y-42699760D01*
X101236160Y-46763760D02*
X101236160Y-42699760D01*
X101236160Y-42699760D02*
X101236160Y-46763760D01*
X101236160Y-46763760D02*
X102760160Y-46763760D01*
X102760160Y-46763760D02*
X102760160Y-42699760D01*
X102760160Y-43207760D02*
X101236160Y-43207760D01*
X105141440Y-42699760D02*
X103617440Y-42699760D01*
X103617440Y-46763760D02*
X103617440Y-42699760D01*
X103617440Y-42699760D02*
X103617440Y-46763760D01*
X103617440Y-46763760D02*
X105141440Y-46763760D01*
X105141440Y-46763760D02*
X105141440Y-42699760D01*
X105141440Y-43207760D02*
X103617440Y-43207760D01*
X140860640Y-43449760D02*
X139336640Y-43449760D01*
X139336640Y-47513760D02*
X139336640Y-43449760D01*
X139336640Y-43449760D02*
X139336640Y-47513760D01*
X139336640Y-47513760D02*
X140860640Y-47513760D01*
X140860640Y-47513760D02*
X140860640Y-43449760D01*
X140860640Y-43957760D02*
X139336640Y-43957760D01*
X143241920Y-43449760D02*
X141717920Y-43449760D01*
X141717920Y-47513760D02*
X141717920Y-43449760D01*
X141717920Y-43449760D02*
X141717920Y-47513760D01*
X141717920Y-47513760D02*
X143241920Y-47513760D01*
X143241920Y-47513760D02*
X143241920Y-43449760D01*
X143241920Y-43957760D02*
X141717920Y-43957760D01*
X178961120Y-43390400D02*
X177437120Y-43390400D01*
X177437120Y-47454400D02*
X177437120Y-43390400D01*
X177437120Y-43390400D02*
X177437120Y-47454400D01*
X177437120Y-47454400D02*
X178961120Y-47454400D01*
X178961120Y-47454400D02*
X178961120Y-43390400D01*
X178961120Y-43898400D02*
X177437120Y-43898400D01*
X181342400Y-43390400D02*
X179818400Y-43390400D01*
X179818400Y-47454400D02*
X179818400Y-43390400D01*
X179818400Y-43390400D02*
X179818400Y-47454400D01*
X179818400Y-47454400D02*
X181342400Y-47454400D01*
X181342400Y-47454400D02*
X181342400Y-43390400D01*
X181342400Y-43898400D02*
X179818400Y-43898400D01*
X255162080Y-43449760D02*
X253638080Y-43449760D01*
X253638080Y-47513760D02*
X253638080Y-43449760D01*
X253638080Y-43449760D02*
X253638080Y-47513760D01*
X253638080Y-47513760D02*
X255162080Y-47513760D01*
X255162080Y-47513760D02*
X255162080Y-43449760D01*
X255162080Y-43957760D02*
X253638080Y-43957760D01*
X257543360Y-43449250D02*
X256019360Y-43449250D01*
X256019360Y-47513250D02*
X256019360Y-43449250D01*
X256019360Y-43449250D02*
X256019360Y-47513250D01*
X256019360Y-47513250D02*
X257543360Y-47513250D01*
X257543360Y-47513250D02*
X257543360Y-43449250D01*
X257543360Y-43957250D02*
X256019360Y-43957250D01*
X64659680Y-62499250D02*
X63135680Y-62499250D01*
X63135680Y-66563250D02*
X63135680Y-62499250D01*
X63135680Y-62499250D02*
X63135680Y-66563250D01*
X63135680Y-66563250D02*
X64659680Y-66563250D01*
X64659680Y-66563250D02*
X64659680Y-62499250D01*
X64659680Y-63007250D02*
X63135680Y-63007250D01*
X67040960Y-62500000D02*
X65516960Y-62500000D01*
X65516960Y-66564000D02*
X65516960Y-62500000D01*
X65516960Y-62500000D02*
X65516960Y-66564000D01*
X65516960Y-66564000D02*
X67040960Y-66564000D01*
X67040960Y-66564000D02*
X67040960Y-62500000D01*
X67040960Y-63008000D02*
X65516960Y-63008000D01*
X102760160Y-62500000D02*
X101236160Y-62500000D01*
X101236160Y-66564000D02*
X101236160Y-62500000D01*
X101236160Y-62500000D02*
X101236160Y-66564000D01*
X101236160Y-66564000D02*
X102760160Y-66564000D01*
X102760160Y-66564000D02*
X102760160Y-62500000D01*
X102760160Y-63008000D02*
X101236160Y-63008000D01*
X105141440Y-62500000D02*
X103617440Y-62500000D01*
X103617440Y-66564000D02*
X103617440Y-62500000D01*
X103617440Y-62500000D02*
X103617440Y-66564000D01*
X103617440Y-66564000D02*
X105141440Y-66564000D01*
X105141440Y-66564000D02*
X105141440Y-62500000D01*
X105141440Y-63008000D02*
X103617440Y-63008000D01*
X140860640Y-62499250D02*
X139336640Y-62499250D01*
X139336640Y-66563250D02*
X139336640Y-62499250D01*
X139336640Y-62499250D02*
X139336640Y-66563250D01*
X139336640Y-66563250D02*
X140860640Y-66563250D01*
X140860640Y-66563250D02*
X140860640Y-62499250D01*
X140860640Y-63007250D02*
X139336640Y-63007250D01*
X178961120Y-62499250D02*
X177437120Y-62499250D01*
X177437120Y-66563250D02*
X177437120Y-62499250D01*
X177437120Y-62499250D02*
X177437120Y-66563250D01*
X177437120Y-66563250D02*
X178961120Y-66563250D01*
X178961120Y-66563250D02*
X178961120Y-62499250D01*
X178961120Y-63007250D02*
X177437120Y-63007250D01*
X181342400Y-62500000D02*
X179818400Y-62500000D01*
X179818400Y-66564000D02*
X179818400Y-62500000D01*
X179818400Y-62500000D02*
X179818400Y-66564000D01*
X179818400Y-66564000D02*
X181342400Y-66564000D01*
X181342400Y-66564000D02*
X181342400Y-62500000D01*
X181342400Y-63008000D02*
X179818400Y-63008000D01*
X217061600Y-62468800D02*
X215537600Y-62468800D01*
X215537600Y-66532800D02*
X215537600Y-62468800D01*
X215537600Y-62468800D02*
X215537600Y-66532800D01*
X215537600Y-66532800D02*
X217061600Y-66532800D01*
X217061600Y-66532800D02*
X217061600Y-62468800D01*
X217061600Y-62976800D02*
X215537600Y-62976800D01*
X255162080Y-62500000D02*
X253638080Y-62500000D01*
X253638080Y-66564000D02*
X253638080Y-62500000D01*
X253638080Y-62500000D02*
X253638080Y-66564000D01*
X253638080Y-66564000D02*
X255162080Y-66564000D01*
X255162080Y-66564000D02*
X255162080Y-62500000D01*
X255162080Y-63008000D02*
X253638080Y-63008000D01*
X257543360Y-62499250D02*
X256019360Y-62499250D01*
X256019360Y-66563250D02*
X256019360Y-62499250D01*
X256019360Y-62499250D02*
X256019360Y-66563250D01*
X256019360Y-66563250D02*
X257543360Y-66563250D01*
X257543360Y-66563250D02*
X257543360Y-62499250D01*
X257543360Y-63007250D02*
X256019360Y-63007250D01*
X64659680Y-81550240D02*
X63135680Y-81550240D01*
X63135680Y-85614240D02*
X63135680Y-81550240D01*
X63135680Y-81550240D02*
X63135680Y-85614240D01*
X63135680Y-85614240D02*
X64659680Y-85614240D01*
X64659680Y-85614240D02*
X64659680Y-81550240D01*
X64659680Y-82058240D02*
X63135680Y-82058240D01*
X67040960Y-81550240D02*
X65516960Y-81550240D01*
X65516960Y-85614240D02*
X65516960Y-81550240D01*
X65516960Y-81550240D02*
X65516960Y-85614240D01*
X65516960Y-85614240D02*
X67040960Y-85614240D01*
X67040960Y-85614240D02*
X67040960Y-81550240D01*
X67040960Y-82058240D02*
X65516960Y-82058240D01*
X102760160Y-81550240D02*
X101236160Y-81550240D01*
X101236160Y-85614240D02*
X101236160Y-81550240D01*
X101236160Y-81550240D02*
X101236160Y-85614240D01*
X101236160Y-85614240D02*
X102760160Y-85614240D01*
X102760160Y-85614240D02*
X102760160Y-81550240D01*
X102760160Y-82058240D02*
X101236160Y-82058240D01*
X105141440Y-81550240D02*
X103617440Y-81550240D01*
X103617440Y-85614240D02*
X103617440Y-81550240D01*
X103617440Y-81550240D02*
X103617440Y-85614240D01*
X103617440Y-85614240D02*
X105141440Y-85614240D01*
X105141440Y-85614240D02*
X105141440Y-81550240D01*
X105141440Y-82058240D02*
X103617440Y-82058240D01*
X140860640Y-81550240D02*
X139336640Y-81550240D01*
X139336640Y-85614240D02*
X139336640Y-81550240D01*
X139336640Y-81550240D02*
X139336640Y-85614240D01*
X139336640Y-85614240D02*
X140860640Y-85614240D01*
X140860640Y-85614240D02*
X140860640Y-81550240D01*
X140860640Y-82058240D02*
X139336640Y-82058240D01*
X143241920Y-81549250D02*
X141717920Y-81549250D01*
X141717920Y-85613250D02*
X141717920Y-81549250D01*
X141717920Y-81549250D02*
X141717920Y-85613250D01*
X141717920Y-85613250D02*
X143241920Y-85613250D01*
X143241920Y-85613250D02*
X143241920Y-81549250D01*
X143241920Y-82057250D02*
X141717920Y-82057250D01*
X178961120Y-81550240D02*
X177437120Y-81550240D01*
X177437120Y-85614240D02*
X177437120Y-81550240D01*
X177437120Y-81550240D02*
X177437120Y-85614240D01*
X177437120Y-85614240D02*
X178961120Y-85614240D01*
X178961120Y-85614240D02*
X178961120Y-81550240D01*
X178961120Y-82058240D02*
X177437120Y-82058240D01*
X181342400Y-81550240D02*
X179818400Y-81550240D01*
X179818400Y-85614240D02*
X179818400Y-81550240D01*
X179818400Y-81550240D02*
X179818400Y-85614240D01*
X179818400Y-85614240D02*
X181342400Y-85614240D01*
X181342400Y-85614240D02*
X181342400Y-81550240D01*
X181342400Y-82058240D02*
X179818400Y-82058240D01*
X217061600Y-81550240D02*
X215537600Y-81550240D01*
X215537600Y-85614240D02*
X215537600Y-81550240D01*
X215537600Y-81550240D02*
X215537600Y-85614240D01*
X215537600Y-85614240D02*
X217061600Y-85614240D01*
X217061600Y-85614240D02*
X217061600Y-81550240D01*
X217061600Y-82058240D02*
X215537600Y-82058240D01*
X219442880Y-81550240D02*
X217918880Y-81550240D01*
X217918880Y-85614240D02*
X217918880Y-81550240D01*
X217918880Y-81550240D02*
X217918880Y-85614240D01*
X217918880Y-85614240D02*
X219442880Y-85614240D01*
X219442880Y-85614240D02*
X219442880Y-81550240D01*
X219442880Y-82058240D02*
X217918880Y-82058240D01*
X255162080Y-81550240D02*
X253638080Y-81550240D01*
X253638080Y-85614240D02*
X253638080Y-81550240D01*
X253638080Y-81550240D02*
X253638080Y-85614240D01*
X253638080Y-85614240D02*
X255162080Y-85614240D01*
X255162080Y-85614240D02*
X255162080Y-81550240D01*
X255162080Y-82058240D02*
X253638080Y-82058240D01*
X257543360Y-81550240D02*
X256019360Y-81550240D01*
X256019360Y-85614240D02*
X256019360Y-81550240D01*
X256019360Y-81550240D02*
X256019360Y-85614240D01*
X256019360Y-85614240D02*
X257543360Y-85614240D01*
X257543360Y-85614240D02*
X257543360Y-81550240D01*
X257543360Y-82058240D02*
X256019360Y-82058240D01*
X64659680Y-100600480D02*
X63135680Y-100600480D01*
X63135680Y-104664480D02*
X63135680Y-100600480D01*
X63135680Y-100600480D02*
X63135680Y-104664480D01*
X63135680Y-104664480D02*
X64659680Y-104664480D01*
X64659680Y-104664480D02*
X64659680Y-100600480D01*
X64659680Y-101108480D02*
X63135680Y-101108480D01*
X67040960Y-100600480D02*
X65516960Y-100600480D01*
X65516960Y-104664480D02*
X65516960Y-100600480D01*
X65516960Y-100600480D02*
X65516960Y-104664480D01*
X65516960Y-104664480D02*
X67040960Y-104664480D01*
X67040960Y-104664480D02*
X67040960Y-100600480D01*
X67040960Y-101108480D02*
X65516960Y-101108480D01*
X102760160Y-100600480D02*
X101236160Y-100600480D01*
X101236160Y-104664480D02*
X101236160Y-100600480D01*
X101236160Y-100600480D02*
X101236160Y-104664480D01*
X101236160Y-104664480D02*
X102760160Y-104664480D01*
X102760160Y-104664480D02*
X102760160Y-100600480D01*
X102760160Y-101108480D02*
X101236160Y-101108480D01*
X105141440Y-100600480D02*
X103617440Y-100600480D01*
X103617440Y-104664480D02*
X103617440Y-100600480D01*
X103617440Y-100600480D02*
X103617440Y-104664480D01*
X103617440Y-104664480D02*
X105141440Y-104664480D01*
X105141440Y-104664480D02*
X105141440Y-100600480D01*
X105141440Y-101108480D02*
X103617440Y-101108480D01*
X140860640Y-100600480D02*
X139336640Y-100600480D01*
X139336640Y-104664480D02*
X139336640Y-100600480D01*
X139336640Y-100600480D02*
X139336640Y-104664480D01*
X139336640Y-104664480D02*
X140860640Y-104664480D01*
X140860640Y-104664480D02*
X140860640Y-100600480D01*
X140860640Y-101108480D02*
X139336640Y-101108480D01*
X143241920Y-100600480D02*
X141717920Y-100600480D01*
X141717920Y-104664480D02*
X141717920Y-100600480D01*
X141717920Y-100600480D02*
X141717920Y-104664480D01*
X141717920Y-104664480D02*
X143241920Y-104664480D01*
X143241920Y-104664480D02*
X143241920Y-100600480D01*
X143241920Y-101108480D02*
X141717920Y-101108480D01*
X181342400Y-100600480D02*
X179818400Y-100600480D01*
X179818400Y-104664480D02*
X179818400Y-100600480D01*
X179818400Y-100600480D02*
X179818400Y-104664480D01*
X179818400Y-104664480D02*
X181342400Y-104664480D01*
X181342400Y-104664480D02*
X181342400Y-100600480D01*
X181342400Y-101108480D02*
X179818400Y-101108480D01*
X217061600Y-100599250D02*
X215537600Y-100599250D01*
X215537600Y-104663250D02*
X215537600Y-100599250D01*
X215537600Y-100599250D02*
X215537600Y-104663250D01*
X215537600Y-104663250D02*
X217061600Y-104663250D01*
X217061600Y-104663250D02*
X217061600Y-100599250D01*
X217061600Y-101107250D02*
X215537600Y-101107250D01*
X219442880Y-100599250D02*
X217918880Y-100599250D01*
X217918880Y-104663250D02*
X217918880Y-100599250D01*
X217918880Y-100599250D02*
X217918880Y-104663250D01*
X217918880Y-104663250D02*
X219442880Y-104663250D01*
X219442880Y-104663250D02*
X219442880Y-100599250D01*
X219442880Y-101107250D02*
X217918880Y-101107250D01*
X255162080Y-100600480D02*
X253638080Y-100600480D01*
X253638080Y-104664480D02*
X253638080Y-100600480D01*
X253638080Y-100600480D02*
X253638080Y-104664480D01*
X253638080Y-104664480D02*
X255162080Y-104664480D01*
X255162080Y-104664480D02*
X255162080Y-100600480D01*
X255162080Y-101108480D02*
X253638080Y-101108480D01*
X257543360Y-100600480D02*
X256019360Y-100600480D01*
X256019360Y-104664480D02*
X256019360Y-100600480D01*
X256019360Y-100600480D02*
X256019360Y-104664480D01*
X256019360Y-104664480D02*
X257543360Y-104664480D01*
X257543360Y-104664480D02*
X257543360Y-100600480D01*
X257543360Y-101108480D02*
X256019360Y-101108480D01*
X64258779Y-45997916D02*
X63458779Y-45997916D01*
X63458779Y-45831250D01*
X63496875Y-45731250D01*
X63573065Y-45664583D01*
X63649255Y-45631250D01*
X63801636Y-45597916D01*
X63915922Y-45597916D01*
X64068303Y-45631250D01*
X64144494Y-45664583D01*
X64220684Y-45731250D01*
X64258779Y-45831250D01*
X64258779Y-45997916D01*
X64258779Y-44931250D02*
X64258779Y-45331250D01*
X64258779Y-45131250D02*
X63458779Y-45131250D01*
X63573065Y-45197916D01*
X63649255Y-45264583D01*
X63687351Y-45331250D01*
X142841824Y-65381250D02*
X142041824Y-65381250D01*
X142041824Y-65214583D01*
X142079920Y-65114583D01*
X142156110Y-65047916D01*
X142232300Y-65014583D01*
X142384681Y-64981250D01*
X142498967Y-64981250D01*
X142651348Y-65014583D01*
X142727539Y-65047916D01*
X142803729Y-65114583D01*
X142841824Y-65214583D01*
X142841824Y-65381250D01*
X142841824Y-64314583D02*
X142841824Y-64714583D01*
X142841824Y-64514583D02*
X142041824Y-64514583D01*
X142156110Y-64581250D01*
X142232300Y-64647916D01*
X142270396Y-64714583D01*
X142384681Y-63914583D02*
X142346586Y-63981250D01*
X142308491Y-64014583D01*
X142232300Y-64047916D01*
X142194205Y-64047916D01*
X142118015Y-64014583D01*
X142079920Y-63981250D01*
X142041824Y-63914583D01*
X142041824Y-63781250D01*
X142079920Y-63714583D01*
X142118015Y-63681250D01*
X142194205Y-63647916D01*
X142232300Y-63647916D01*
X142308491Y-63681250D01*
X142346586Y-63714583D01*
X142384681Y-63781250D01*
X142384681Y-63914583D01*
X142422777Y-63981250D01*
X142460872Y-64014583D01*
X142537062Y-64047916D01*
X142689443Y-64047916D01*
X142765634Y-64014583D01*
X142803729Y-63981250D01*
X142841824Y-63914583D01*
X142841824Y-63781250D01*
X142803729Y-63714583D01*
X142765634Y-63681250D01*
X142689443Y-63647916D01*
X142537062Y-63647916D01*
X142460872Y-63681250D01*
X142422777Y-63714583D01*
X142384681Y-63781250D01*
X216661504Y-45998426D02*
X215861504Y-45998426D01*
X215861504Y-45831760D01*
X215899600Y-45731760D01*
X215975790Y-45665093D01*
X216051980Y-45631760D01*
X216204361Y-45598426D01*
X216318647Y-45598426D01*
X216471028Y-45631760D01*
X216547219Y-45665093D01*
X216623409Y-45731760D01*
X216661504Y-45831760D01*
X216661504Y-45998426D01*
X216661504Y-45265093D02*
X216661504Y-45131760D01*
X216623409Y-45065093D01*
X216585314Y-45031760D01*
X216471028Y-44965093D01*
X216318647Y-44931760D01*
X216013885Y-44931760D01*
X215937695Y-44965093D01*
X215899600Y-44998426D01*
X215861504Y-45065093D01*
X215861504Y-45198426D01*
X215899600Y-45265093D01*
X215937695Y-45298426D01*
X216013885Y-45331760D01*
X216204361Y-45331760D01*
X216280552Y-45298426D01*
X216318647Y-45265093D01*
X216356742Y-45198426D01*
X216356742Y-45065093D01*
X216318647Y-44998426D01*
X216280552Y-44965093D01*
X216204361Y-44931760D01*
X219042784Y-46331760D02*
X218242784Y-46331760D01*
X218242784Y-46165093D01*
X218280880Y-46065093D01*
X218357070Y-45998426D01*
X218433260Y-45965093D01*
X218585641Y-45931760D01*
X218699927Y-45931760D01*
X218852308Y-45965093D01*
X218928499Y-45998426D01*
X219004689Y-46065093D01*
X219042784Y-46165093D01*
X219042784Y-46331760D01*
X219042784Y-45265093D02*
X219042784Y-45665093D01*
X219042784Y-45465093D02*
X218242784Y-45465093D01*
X218357070Y-45531760D01*
X218433260Y-45598426D01*
X218471356Y-45665093D01*
X218242784Y-44831760D02*
X218242784Y-44765093D01*
X218280880Y-44698426D01*
X218318975Y-44665093D01*
X218395165Y-44631760D01*
X218547546Y-44598426D01*
X218738022Y-44598426D01*
X218890403Y-44631760D01*
X218966594Y-44665093D01*
X219004689Y-44698426D01*
X219042784Y-44765093D01*
X219042784Y-44831760D01*
X219004689Y-44898426D01*
X218966594Y-44931760D01*
X218890403Y-44965093D01*
X218738022Y-44998426D01*
X218547546Y-44998426D01*
X218395165Y-44965093D01*
X218318975Y-44931760D01*
X218280880Y-44898426D01*
X218242784Y-44831760D01*
X154278690Y-48956666D02*
X154240595Y-49070952D01*
X154240595Y-49261428D01*
X154278690Y-49337619D01*
X154316785Y-49375714D01*
X154392976Y-49413809D01*
X154469166Y-49413809D01*
X154545357Y-49375714D01*
X154583452Y-49337619D01*
X154621547Y-49261428D01*
X154659642Y-49109047D01*
X154697738Y-49032857D01*
X154735833Y-48994761D01*
X154812023Y-48956666D01*
X154888214Y-48956666D01*
X154964404Y-48994761D01*
X155002500Y-49032857D01*
X155040595Y-49109047D01*
X155040595Y-49299523D01*
X155002500Y-49413809D01*
X155040595Y-49642380D02*
X155040595Y-50099523D01*
X154240595Y-49870952D02*
X155040595Y-49870952D01*
X149980595Y-38687651D02*
X149980595Y-39144794D01*
X149180595Y-38916223D02*
X149980595Y-38916223D01*
X149980595Y-39335270D02*
X149180595Y-39868604D01*
X149980595Y-39868604D02*
X149180595Y-39335270D01*
X149980595Y-40325747D02*
X149980595Y-40401937D01*
X149942500Y-40478128D01*
X149904404Y-40516223D01*
X149828214Y-40554318D01*
X149675833Y-40592413D01*
X149485357Y-40592413D01*
X149332976Y-40554318D01*
X149256785Y-40516223D01*
X149218690Y-40478128D01*
X149180595Y-40401937D01*
X149180595Y-40325747D01*
X149218690Y-40249556D01*
X149256785Y-40211461D01*
X149332976Y-40173366D01*
X149485357Y-40135270D01*
X149675833Y-40135270D01*
X149828214Y-40173366D01*
X149904404Y-40211461D01*
X149942500Y-40249556D01*
X149980595Y-40325747D01*
X150018690Y-41506699D02*
X148990119Y-40820985D01*
X149180595Y-41773366D02*
X149980595Y-41773366D01*
X149980595Y-41963842D01*
X149942500Y-42078128D01*
X149866309Y-42154318D01*
X149790119Y-42192413D01*
X149637738Y-42230508D01*
X149523452Y-42230508D01*
X149371071Y-42192413D01*
X149294880Y-42154318D01*
X149218690Y-42078128D01*
X149180595Y-41963842D01*
X149180595Y-41773366D01*
X149980595Y-42497175D02*
X149980595Y-42992413D01*
X149675833Y-42725747D01*
X149675833Y-42840032D01*
X149637738Y-42916223D01*
X149599642Y-42954318D01*
X149523452Y-42992413D01*
X149332976Y-42992413D01*
X149256785Y-42954318D01*
X149218690Y-42916223D01*
X149180595Y-42840032D01*
X149180595Y-42611461D01*
X149218690Y-42535270D01*
X149256785Y-42497175D01*
X174999642Y-49587190D02*
X174961547Y-49701476D01*
X174923452Y-49739571D01*
X174847261Y-49777666D01*
X174732976Y-49777666D01*
X174656785Y-49739571D01*
X174618690Y-49701476D01*
X174580595Y-49625285D01*
X174580595Y-49320523D01*
X175380595Y-49320523D01*
X175380595Y-49587190D01*
X175342500Y-49663380D01*
X175304404Y-49701476D01*
X175228214Y-49739571D01*
X175152023Y-49739571D01*
X175075833Y-49701476D01*
X175037738Y-49663380D01*
X174999642Y-49587190D01*
X174999642Y-49320523D01*
X175304404Y-50082428D02*
X175342500Y-50120523D01*
X175380595Y-50196714D01*
X175380595Y-50387190D01*
X175342500Y-50463380D01*
X175304404Y-50501476D01*
X175228214Y-50539571D01*
X175152023Y-50539571D01*
X175037738Y-50501476D01*
X174580595Y-50044333D01*
X174580595Y-50539571D01*
X167379642Y-49644333D02*
X167379642Y-49377666D01*
X166960595Y-49377666D02*
X167760595Y-49377666D01*
X167760595Y-49758619D01*
X167760595Y-49987190D02*
X167760595Y-50520523D01*
X166960595Y-50177666D01*
X164839642Y-49644333D02*
X164839642Y-49377666D01*
X164420595Y-49377666D02*
X165220595Y-49377666D01*
X165220595Y-49758619D01*
X165220595Y-50406238D02*
X165220595Y-50253857D01*
X165182500Y-50177666D01*
X165144404Y-50139571D01*
X165030119Y-50063380D01*
X164877738Y-50025285D01*
X164572976Y-50025285D01*
X164496785Y-50063380D01*
X164458690Y-50101476D01*
X164420595Y-50177666D01*
X164420595Y-50330047D01*
X164458690Y-50406238D01*
X164496785Y-50444333D01*
X164572976Y-50482428D01*
X164763452Y-50482428D01*
X164839642Y-50444333D01*
X164877738Y-50406238D01*
X164915833Y-50330047D01*
X164915833Y-50177666D01*
X164877738Y-50101476D01*
X164839642Y-50063380D01*
X164763452Y-50025285D01*
X162299642Y-49644333D02*
X162299642Y-49377666D01*
X161880595Y-49377666D02*
X162680595Y-49377666D01*
X162680595Y-49758619D01*
X162680595Y-50444333D02*
X162680595Y-50063380D01*
X162299642Y-50025285D01*
X162337738Y-50063380D01*
X162375833Y-50139571D01*
X162375833Y-50330047D01*
X162337738Y-50406238D01*
X162299642Y-50444333D01*
X162223452Y-50482428D01*
X162032976Y-50482428D01*
X161956785Y-50444333D01*
X161918690Y-50406238D01*
X161880595Y-50330047D01*
X161880595Y-50139571D01*
X161918690Y-50063380D01*
X161956785Y-50025285D01*
X149180595Y-49358619D02*
X149561547Y-49091952D01*
X149180595Y-48901476D02*
X149980595Y-48901476D01*
X149980595Y-49206238D01*
X149942500Y-49282428D01*
X149904404Y-49320523D01*
X149828214Y-49358619D01*
X149713928Y-49358619D01*
X149637738Y-49320523D01*
X149599642Y-49282428D01*
X149561547Y-49206238D01*
X149561547Y-48901476D01*
X149409166Y-49663380D02*
X149409166Y-50044333D01*
X149180595Y-49587190D02*
X149980595Y-49853857D01*
X149180595Y-50120523D01*
X149980595Y-50311000D02*
X149180595Y-50501476D01*
X149752023Y-50653857D01*
X149180595Y-50806238D01*
X149980595Y-50996714D01*
X152482500Y-49301476D02*
X152520595Y-49225285D01*
X152520595Y-49111000D01*
X152482500Y-48996714D01*
X152406309Y-48920523D01*
X152330119Y-48882428D01*
X152177738Y-48844333D01*
X152063452Y-48844333D01*
X151911071Y-48882428D01*
X151834880Y-48920523D01*
X151758690Y-48996714D01*
X151720595Y-49111000D01*
X151720595Y-49187190D01*
X151758690Y-49301476D01*
X151796785Y-49339571D01*
X152063452Y-49339571D01*
X152063452Y-49187190D01*
X151720595Y-49682428D02*
X152520595Y-49682428D01*
X151720595Y-50139571D01*
X152520595Y-50139571D01*
X151720595Y-50520523D02*
X152520595Y-50520523D01*
X152520595Y-50711000D01*
X152482500Y-50825285D01*
X152406309Y-50901476D01*
X152330119Y-50939571D01*
X152177738Y-50977666D01*
X152063452Y-50977666D01*
X151911071Y-50939571D01*
X151834880Y-50901476D01*
X151758690Y-50825285D01*
X151720595Y-50711000D01*
X151720595Y-50520523D01*
X157600595Y-48844333D02*
X156800595Y-49111000D01*
X157600595Y-49377666D01*
X156876785Y-50101476D02*
X156838690Y-50063380D01*
X156800595Y-49949095D01*
X156800595Y-49872904D01*
X156838690Y-49758619D01*
X156914880Y-49682428D01*
X156991071Y-49644333D01*
X157143452Y-49606238D01*
X157257738Y-49606238D01*
X157410119Y-49644333D01*
X157486309Y-49682428D01*
X157562500Y-49758619D01*
X157600595Y-49872904D01*
X157600595Y-49949095D01*
X157562500Y-50063380D01*
X157524404Y-50101476D01*
X156876785Y-50901476D02*
X156838690Y-50863380D01*
X156800595Y-50749095D01*
X156800595Y-50672904D01*
X156838690Y-50558619D01*
X156914880Y-50482428D01*
X156991071Y-50444333D01*
X157143452Y-50406238D01*
X157257738Y-50406238D01*
X157410119Y-50444333D01*
X157486309Y-50482428D01*
X157562500Y-50558619D01*
X157600595Y-50672904D01*
X157600595Y-50749095D01*
X157562500Y-50863380D01*
X157524404Y-50901476D01*
X159759642Y-49644333D02*
X159759642Y-49377666D01*
X159340595Y-49377666D02*
X160140595Y-49377666D01*
X160140595Y-49758619D01*
X159873928Y-50406238D02*
X159340595Y-50406238D01*
X160178690Y-50215761D02*
X159607261Y-50025285D01*
X159607261Y-50520523D01*
X169919642Y-49587190D02*
X169881547Y-49701476D01*
X169843452Y-49739571D01*
X169767261Y-49777666D01*
X169652976Y-49777666D01*
X169576785Y-49739571D01*
X169538690Y-49701476D01*
X169500595Y-49625285D01*
X169500595Y-49320523D01*
X170300595Y-49320523D01*
X170300595Y-49587190D01*
X170262500Y-49663380D01*
X170224404Y-49701476D01*
X170148214Y-49739571D01*
X170072023Y-49739571D01*
X169995833Y-49701476D01*
X169957738Y-49663380D01*
X169919642Y-49587190D01*
X169919642Y-49320523D01*
X169500595Y-50539571D02*
X169500595Y-50082428D01*
X169500595Y-50311000D02*
X170300595Y-50311000D01*
X170186309Y-50234809D01*
X170110119Y-50158619D01*
X170072023Y-50082428D01*
X172459642Y-49587190D02*
X172421547Y-49701476D01*
X172383452Y-49739571D01*
X172307261Y-49777666D01*
X172192976Y-49777666D01*
X172116785Y-49739571D01*
X172078690Y-49701476D01*
X172040595Y-49625285D01*
X172040595Y-49320523D01*
X172840595Y-49320523D01*
X172840595Y-49587190D01*
X172802500Y-49663380D01*
X172764404Y-49701476D01*
X172688214Y-49739571D01*
X172612023Y-49739571D01*
X172535833Y-49701476D01*
X172497738Y-49663380D01*
X172459642Y-49587190D01*
X172459642Y-49320523D01*
X172840595Y-50044333D02*
X172840595Y-50539571D01*
X172535833Y-50272904D01*
X172535833Y-50387190D01*
X172497738Y-50463380D01*
X172459642Y-50501476D01*
X172383452Y-50539571D01*
X172192976Y-50539571D01*
X172116785Y-50501476D01*
X172078690Y-50463380D01*
X172040595Y-50387190D01*
X172040595Y-50158619D01*
X172078690Y-50082428D01*
X172116785Y-50044333D01*
X177539642Y-49587190D02*
X177501547Y-49701476D01*
X177463452Y-49739571D01*
X177387261Y-49777666D01*
X177272976Y-49777666D01*
X177196785Y-49739571D01*
X177158690Y-49701476D01*
X177120595Y-49625285D01*
X177120595Y-49320523D01*
X177920595Y-49320523D01*
X177920595Y-49587190D01*
X177882500Y-49663380D01*
X177844404Y-49701476D01*
X177768214Y-49739571D01*
X177692023Y-49739571D01*
X177615833Y-49701476D01*
X177577738Y-49663380D01*
X177539642Y-49587190D01*
X177539642Y-49320523D01*
X177920595Y-50463380D02*
X177920595Y-50311000D01*
X177882500Y-50234809D01*
X177844404Y-50196714D01*
X177730119Y-50120523D01*
X177577738Y-50082428D01*
X177272976Y-50082428D01*
X177196785Y-50120523D01*
X177158690Y-50158619D01*
X177120595Y-50234809D01*
X177120595Y-50387190D01*
X177158690Y-50463380D01*
X177196785Y-50501476D01*
X177272976Y-50539571D01*
X177463452Y-50539571D01*
X177539642Y-50501476D01*
X177577738Y-50463380D01*
X177615833Y-50387190D01*
X177615833Y-50234809D01*
X177577738Y-50158619D01*
X177539642Y-50120523D01*
X177463452Y-50082428D01*
X177539642Y-38665190D02*
X177501547Y-38779476D01*
X177463452Y-38817571D01*
X177387261Y-38855666D01*
X177272976Y-38855666D01*
X177196785Y-38817571D01*
X177158690Y-38779476D01*
X177120595Y-38703285D01*
X177120595Y-38398523D01*
X177920595Y-38398523D01*
X177920595Y-38665190D01*
X177882500Y-38741380D01*
X177844404Y-38779476D01*
X177768214Y-38817571D01*
X177692023Y-38817571D01*
X177615833Y-38779476D01*
X177577738Y-38741380D01*
X177539642Y-38665190D01*
X177539642Y-38398523D01*
X177920595Y-39579476D02*
X177920595Y-39198523D01*
X177539642Y-39160428D01*
X177577738Y-39198523D01*
X177615833Y-39274714D01*
X177615833Y-39465190D01*
X177577738Y-39541380D01*
X177539642Y-39579476D01*
X177463452Y-39617571D01*
X177272976Y-39617571D01*
X177196785Y-39579476D01*
X177158690Y-39541380D01*
X177120595Y-39465190D01*
X177120595Y-39274714D01*
X177158690Y-39198523D01*
X177196785Y-39160428D01*
X174999642Y-38665190D02*
X174961547Y-38779476D01*
X174923452Y-38817571D01*
X174847261Y-38855666D01*
X174732976Y-38855666D01*
X174656785Y-38817571D01*
X174618690Y-38779476D01*
X174580595Y-38703285D01*
X174580595Y-38398523D01*
X175380595Y-38398523D01*
X175380595Y-38665190D01*
X175342500Y-38741380D01*
X175304404Y-38779476D01*
X175228214Y-38817571D01*
X175152023Y-38817571D01*
X175075833Y-38779476D01*
X175037738Y-38741380D01*
X174999642Y-38665190D01*
X174999642Y-38398523D01*
X175113928Y-39541380D02*
X174580595Y-39541380D01*
X175418690Y-39350904D02*
X174847261Y-39160428D01*
X174847261Y-39655666D01*
X172459642Y-38436619D02*
X172459642Y-38703285D01*
X172040595Y-38817571D02*
X172040595Y-38436619D01*
X172840595Y-38436619D01*
X172840595Y-38817571D01*
X172840595Y-39503285D02*
X172840595Y-39350904D01*
X172802500Y-39274714D01*
X172764404Y-39236619D01*
X172650119Y-39160428D01*
X172497738Y-39122333D01*
X172192976Y-39122333D01*
X172116785Y-39160428D01*
X172078690Y-39198523D01*
X172040595Y-39274714D01*
X172040595Y-39427095D01*
X172078690Y-39503285D01*
X172116785Y-39541380D01*
X172192976Y-39579476D01*
X172383452Y-39579476D01*
X172459642Y-39541380D01*
X172497738Y-39503285D01*
X172535833Y-39427095D01*
X172535833Y-39274714D01*
X172497738Y-39198523D01*
X172459642Y-39160428D01*
X172383452Y-39122333D01*
X169500595Y-38398523D02*
X170300595Y-38398523D01*
X170300595Y-38589000D01*
X170262500Y-38703285D01*
X170186309Y-38779476D01*
X170110119Y-38817571D01*
X169957738Y-38855666D01*
X169843452Y-38855666D01*
X169691071Y-38817571D01*
X169614880Y-38779476D01*
X169538690Y-38703285D01*
X169500595Y-38589000D01*
X169500595Y-38398523D01*
X170300595Y-39122333D02*
X170300595Y-39655666D01*
X169500595Y-39312809D01*
X167036785Y-38855666D02*
X166998690Y-38817571D01*
X166960595Y-38703285D01*
X166960595Y-38627095D01*
X166998690Y-38512809D01*
X167074880Y-38436619D01*
X167151071Y-38398523D01*
X167303452Y-38360428D01*
X167417738Y-38360428D01*
X167570119Y-38398523D01*
X167646309Y-38436619D01*
X167722500Y-38512809D01*
X167760595Y-38627095D01*
X167760595Y-38703285D01*
X167722500Y-38817571D01*
X167684404Y-38855666D01*
X167760595Y-39541380D02*
X167760595Y-39389000D01*
X167722500Y-39312809D01*
X167684404Y-39274714D01*
X167570119Y-39198523D01*
X167417738Y-39160428D01*
X167112976Y-39160428D01*
X167036785Y-39198523D01*
X166998690Y-39236619D01*
X166960595Y-39312809D01*
X166960595Y-39465190D01*
X166998690Y-39541380D01*
X167036785Y-39579476D01*
X167112976Y-39617571D01*
X167303452Y-39617571D01*
X167379642Y-39579476D01*
X167417738Y-39541380D01*
X167455833Y-39465190D01*
X167455833Y-39312809D01*
X167417738Y-39236619D01*
X167379642Y-39198523D01*
X167303452Y-39160428D01*
X164420595Y-38398523D02*
X165220595Y-38398523D01*
X165220595Y-38589000D01*
X165182500Y-38703285D01*
X165106309Y-38779476D01*
X165030119Y-38817571D01*
X164877738Y-38855666D01*
X164763452Y-38855666D01*
X164611071Y-38817571D01*
X164534880Y-38779476D01*
X164458690Y-38703285D01*
X164420595Y-38589000D01*
X164420595Y-38398523D01*
X164953928Y-39541380D02*
X164420595Y-39541380D01*
X165258690Y-39350904D02*
X164687261Y-39160428D01*
X164687261Y-39655666D01*
X155022500Y-38379476D02*
X155060595Y-38303285D01*
X155060595Y-38189000D01*
X155022500Y-38074714D01*
X154946309Y-37998523D01*
X154870119Y-37960428D01*
X154717738Y-37922333D01*
X154603452Y-37922333D01*
X154451071Y-37960428D01*
X154374880Y-37998523D01*
X154298690Y-38074714D01*
X154260595Y-38189000D01*
X154260595Y-38265190D01*
X154298690Y-38379476D01*
X154336785Y-38417571D01*
X154603452Y-38417571D01*
X154603452Y-38265190D01*
X154260595Y-38760428D02*
X155060595Y-38760428D01*
X154260595Y-39217571D01*
X155060595Y-39217571D01*
X154260595Y-39598523D02*
X155060595Y-39598523D01*
X155060595Y-39789000D01*
X155022500Y-39903285D01*
X154946309Y-39979476D01*
X154870119Y-40017571D01*
X154717738Y-40055666D01*
X154603452Y-40055666D01*
X154451071Y-40017571D01*
X154374880Y-39979476D01*
X154298690Y-39903285D01*
X154260595Y-39789000D01*
X154260595Y-39598523D01*
X157562500Y-38379476D02*
X157600595Y-38303285D01*
X157600595Y-38189000D01*
X157562500Y-38074714D01*
X157486309Y-37998523D01*
X157410119Y-37960428D01*
X157257738Y-37922333D01*
X157143452Y-37922333D01*
X156991071Y-37960428D01*
X156914880Y-37998523D01*
X156838690Y-38074714D01*
X156800595Y-38189000D01*
X156800595Y-38265190D01*
X156838690Y-38379476D01*
X156876785Y-38417571D01*
X157143452Y-38417571D01*
X157143452Y-38265190D01*
X156800595Y-38760428D02*
X157600595Y-38760428D01*
X156800595Y-39217571D01*
X157600595Y-39217571D01*
X156800595Y-39598523D02*
X157600595Y-39598523D01*
X157600595Y-39789000D01*
X157562500Y-39903285D01*
X157486309Y-39979476D01*
X157410119Y-40017571D01*
X157257738Y-40055666D01*
X157143452Y-40055666D01*
X156991071Y-40017571D01*
X156914880Y-39979476D01*
X156838690Y-39903285D01*
X156800595Y-39789000D01*
X156800595Y-39598523D01*
X159340595Y-38398523D02*
X160140595Y-38398523D01*
X160140595Y-38589000D01*
X160102500Y-38703285D01*
X160026309Y-38779476D01*
X159950119Y-38817571D01*
X159797738Y-38855666D01*
X159683452Y-38855666D01*
X159531071Y-38817571D01*
X159454880Y-38779476D01*
X159378690Y-38703285D01*
X159340595Y-38589000D01*
X159340595Y-38398523D01*
X159340595Y-39617571D02*
X159340595Y-39160428D01*
X159340595Y-39389000D02*
X160140595Y-39389000D01*
X160026309Y-39312809D01*
X159950119Y-39236619D01*
X159912023Y-39160428D01*
X161880595Y-38398523D02*
X162680595Y-38398523D01*
X162680595Y-38589000D01*
X162642500Y-38703285D01*
X162566309Y-38779476D01*
X162490119Y-38817571D01*
X162337738Y-38855666D01*
X162223452Y-38855666D01*
X162071071Y-38817571D01*
X161994880Y-38779476D01*
X161918690Y-38703285D01*
X161880595Y-38589000D01*
X161880595Y-38398523D01*
X162680595Y-39350904D02*
X162680595Y-39427095D01*
X162642500Y-39503285D01*
X162604404Y-39541380D01*
X162528214Y-39579476D01*
X162375833Y-39617571D01*
X162185357Y-39617571D01*
X162032976Y-39579476D01*
X161956785Y-39541380D01*
X161918690Y-39503285D01*
X161880595Y-39427095D01*
X161880595Y-39350904D01*
X161918690Y-39274714D01*
X161956785Y-39236619D01*
X162032976Y-39198523D01*
X162185357Y-39160428D01*
X162375833Y-39160428D01*
X162528214Y-39198523D01*
X162604404Y-39236619D01*
X162642500Y-39274714D01*
X162680595Y-39350904D01*
X151720595Y-38398523D02*
X152520595Y-38398523D01*
X152520595Y-38589000D01*
X152482500Y-38703285D01*
X152406309Y-38779476D01*
X152330119Y-38817571D01*
X152177738Y-38855666D01*
X152063452Y-38855666D01*
X151911071Y-38817571D01*
X151834880Y-38779476D01*
X151758690Y-38703285D01*
X151720595Y-38589000D01*
X151720595Y-38398523D01*
X152444404Y-39160428D02*
X152482500Y-39198523D01*
X152520595Y-39274714D01*
X152520595Y-39465190D01*
X152482500Y-39541380D01*
X152444404Y-39579476D01*
X152368214Y-39617571D01*
X152292023Y-39617571D01*
X152177738Y-39579476D01*
X151720595Y-39122333D01*
X151720595Y-39617571D01*
X178561024Y-103482480D02*
X177761024Y-103482480D01*
X177761024Y-103315813D01*
X177799120Y-103215813D01*
X177875310Y-103149146D01*
X177951500Y-103115813D01*
X178103881Y-103082480D01*
X178218167Y-103082480D01*
X178370548Y-103115813D01*
X178446739Y-103149146D01*
X178522929Y-103215813D01*
X178561024Y-103315813D01*
X178561024Y-103482480D01*
X178027691Y-102482480D02*
X178561024Y-102482480D01*
X177722929Y-102649146D02*
X178294358Y-102815813D01*
X178294358Y-102382480D01*
X177761024Y-102182480D02*
X177761024Y-101749146D01*
X178065786Y-101982480D01*
X178065786Y-101882480D01*
X178103881Y-101815813D01*
X178141977Y-101782480D01*
X178218167Y-101749146D01*
X178408643Y-101749146D01*
X178484834Y-101782480D01*
X178522929Y-101815813D01*
X178561024Y-101882480D01*
X178561024Y-102082480D01*
X178522929Y-102149146D01*
X178484834Y-102182480D01*
X219042784Y-65381250D02*
X218242784Y-65381250D01*
X218242784Y-65214583D01*
X218280880Y-65114583D01*
X218357070Y-65047916D01*
X218433260Y-65014583D01*
X218585641Y-64981250D01*
X218699927Y-64981250D01*
X218852308Y-65014583D01*
X218928499Y-65047916D01*
X219004689Y-65114583D01*
X219042784Y-65214583D01*
X219042784Y-65381250D01*
X218318975Y-64714583D02*
X218280880Y-64681250D01*
X218242784Y-64614583D01*
X218242784Y-64447916D01*
X218280880Y-64381250D01*
X218318975Y-64347916D01*
X218395165Y-64314583D01*
X218471356Y-64314583D01*
X218585641Y-64347916D01*
X219042784Y-64747916D01*
X219042784Y-64314583D01*
X218318975Y-64047916D02*
X218280880Y-64014583D01*
X218242784Y-63947916D01*
X218242784Y-63781250D01*
X218280880Y-63714583D01*
X218318975Y-63681250D01*
X218395165Y-63647916D01*
X218471356Y-63647916D01*
X218585641Y-63681250D01*
X219042784Y-64081250D01*
X219042784Y-63647916D01*
X66640864Y-45998426D02*
X65840864Y-45998426D01*
X65840864Y-45831760D01*
X65878960Y-45731760D01*
X65955150Y-45665093D01*
X66031340Y-45631760D01*
X66183721Y-45598426D01*
X66298007Y-45598426D01*
X66450388Y-45631760D01*
X66526579Y-45665093D01*
X66602769Y-45731760D01*
X66640864Y-45831760D01*
X66640864Y-45998426D01*
X65917055Y-45331760D02*
X65878960Y-45298426D01*
X65840864Y-45231760D01*
X65840864Y-45065093D01*
X65878960Y-44998426D01*
X65917055Y-44965093D01*
X65993245Y-44931760D01*
X66069436Y-44931760D01*
X66183721Y-44965093D01*
X66640864Y-45365093D01*
X66640864Y-44931760D01*
X102360064Y-45248426D02*
X101560064Y-45248426D01*
X101560064Y-45081760D01*
X101598160Y-44981760D01*
X101674350Y-44915093D01*
X101750540Y-44881760D01*
X101902921Y-44848426D01*
X102017207Y-44848426D01*
X102169588Y-44881760D01*
X102245779Y-44915093D01*
X102321969Y-44981760D01*
X102360064Y-45081760D01*
X102360064Y-45248426D01*
X101560064Y-44615093D02*
X101560064Y-44181760D01*
X101864826Y-44415093D01*
X101864826Y-44315093D01*
X101902921Y-44248426D01*
X101941017Y-44215093D01*
X102017207Y-44181760D01*
X102207683Y-44181760D01*
X102283874Y-44215093D01*
X102321969Y-44248426D01*
X102360064Y-44315093D01*
X102360064Y-44515093D01*
X102321969Y-44581760D01*
X102283874Y-44615093D01*
X104741344Y-45248426D02*
X103941344Y-45248426D01*
X103941344Y-45081760D01*
X103979440Y-44981760D01*
X104055630Y-44915093D01*
X104131820Y-44881760D01*
X104284201Y-44848426D01*
X104398487Y-44848426D01*
X104550868Y-44881760D01*
X104627059Y-44915093D01*
X104703249Y-44981760D01*
X104741344Y-45081760D01*
X104741344Y-45248426D01*
X104208011Y-44248426D02*
X104741344Y-44248426D01*
X103903249Y-44415093D02*
X104474678Y-44581760D01*
X104474678Y-44148426D01*
X140460544Y-45998426D02*
X139660544Y-45998426D01*
X139660544Y-45831760D01*
X139698640Y-45731760D01*
X139774830Y-45665093D01*
X139851020Y-45631760D01*
X140003401Y-45598426D01*
X140117687Y-45598426D01*
X140270068Y-45631760D01*
X140346259Y-45665093D01*
X140422449Y-45731760D01*
X140460544Y-45831760D01*
X140460544Y-45998426D01*
X139660544Y-44965093D02*
X139660544Y-45298426D01*
X140041497Y-45331760D01*
X140003401Y-45298426D01*
X139965306Y-45231760D01*
X139965306Y-45065093D01*
X140003401Y-44998426D01*
X140041497Y-44965093D01*
X140117687Y-44931760D01*
X140308163Y-44931760D01*
X140384354Y-44965093D01*
X140422449Y-44998426D01*
X140460544Y-45065093D01*
X140460544Y-45231760D01*
X140422449Y-45298426D01*
X140384354Y-45331760D01*
X142841824Y-45998426D02*
X142041824Y-45998426D01*
X142041824Y-45831760D01*
X142079920Y-45731760D01*
X142156110Y-45665093D01*
X142232300Y-45631760D01*
X142384681Y-45598426D01*
X142498967Y-45598426D01*
X142651348Y-45631760D01*
X142727539Y-45665093D01*
X142803729Y-45731760D01*
X142841824Y-45831760D01*
X142841824Y-45998426D01*
X142041824Y-44998426D02*
X142041824Y-45131760D01*
X142079920Y-45198426D01*
X142118015Y-45231760D01*
X142232300Y-45298426D01*
X142384681Y-45331760D01*
X142689443Y-45331760D01*
X142765634Y-45298426D01*
X142803729Y-45265093D01*
X142841824Y-45198426D01*
X142841824Y-45065093D01*
X142803729Y-44998426D01*
X142765634Y-44965093D01*
X142689443Y-44931760D01*
X142498967Y-44931760D01*
X142422777Y-44965093D01*
X142384681Y-44998426D01*
X142346586Y-45065093D01*
X142346586Y-45198426D01*
X142384681Y-45265093D01*
X142422777Y-45298426D01*
X142498967Y-45331760D01*
X178561024Y-45939066D02*
X177761024Y-45939066D01*
X177761024Y-45772400D01*
X177799120Y-45672400D01*
X177875310Y-45605733D01*
X177951500Y-45572400D01*
X178103881Y-45539066D01*
X178218167Y-45539066D01*
X178370548Y-45572400D01*
X178446739Y-45605733D01*
X178522929Y-45672400D01*
X178561024Y-45772400D01*
X178561024Y-45939066D01*
X177761024Y-45305733D02*
X177761024Y-44839066D01*
X178561024Y-45139066D01*
X180942304Y-45939066D02*
X180142304Y-45939066D01*
X180142304Y-45772400D01*
X180180400Y-45672400D01*
X180256590Y-45605733D01*
X180332780Y-45572400D01*
X180485161Y-45539066D01*
X180599447Y-45539066D01*
X180751828Y-45572400D01*
X180828019Y-45605733D01*
X180904209Y-45672400D01*
X180942304Y-45772400D01*
X180942304Y-45939066D01*
X180485161Y-45139066D02*
X180447066Y-45205733D01*
X180408971Y-45239066D01*
X180332780Y-45272400D01*
X180294685Y-45272400D01*
X180218495Y-45239066D01*
X180180400Y-45205733D01*
X180142304Y-45139066D01*
X180142304Y-45005733D01*
X180180400Y-44939066D01*
X180218495Y-44905733D01*
X180294685Y-44872400D01*
X180332780Y-44872400D01*
X180408971Y-44905733D01*
X180447066Y-44939066D01*
X180485161Y-45005733D01*
X180485161Y-45139066D01*
X180523257Y-45205733D01*
X180561352Y-45239066D01*
X180637542Y-45272400D01*
X180789923Y-45272400D01*
X180866114Y-45239066D01*
X180904209Y-45205733D01*
X180942304Y-45139066D01*
X180942304Y-45005733D01*
X180904209Y-44939066D01*
X180866114Y-44905733D01*
X180789923Y-44872400D01*
X180637542Y-44872400D01*
X180561352Y-44905733D01*
X180523257Y-44939066D01*
X180485161Y-45005733D01*
X254761984Y-46331760D02*
X253961984Y-46331760D01*
X253961984Y-46165093D01*
X254000080Y-46065093D01*
X254076270Y-45998426D01*
X254152460Y-45965093D01*
X254304841Y-45931760D01*
X254419127Y-45931760D01*
X254571508Y-45965093D01*
X254647699Y-45998426D01*
X254723889Y-46065093D01*
X254761984Y-46165093D01*
X254761984Y-46331760D01*
X254761984Y-45265093D02*
X254761984Y-45665093D01*
X254761984Y-45465093D02*
X253961984Y-45465093D01*
X254076270Y-45531760D01*
X254152460Y-45598426D01*
X254190556Y-45665093D01*
X254761984Y-44598426D02*
X254761984Y-44998426D01*
X254761984Y-44798426D02*
X253961984Y-44798426D01*
X254076270Y-44865093D01*
X254152460Y-44931760D01*
X254190556Y-44998426D01*
X257143264Y-46331250D02*
X256343264Y-46331250D01*
X256343264Y-46164583D01*
X256381360Y-46064583D01*
X256457550Y-45997916D01*
X256533740Y-45964583D01*
X256686121Y-45931250D01*
X256800407Y-45931250D01*
X256952788Y-45964583D01*
X257028979Y-45997916D01*
X257105169Y-46064583D01*
X257143264Y-46164583D01*
X257143264Y-46331250D01*
X257143264Y-45264583D02*
X257143264Y-45664583D01*
X257143264Y-45464583D02*
X256343264Y-45464583D01*
X256457550Y-45531250D01*
X256533740Y-45597916D01*
X256571836Y-45664583D01*
X256419455Y-44997916D02*
X256381360Y-44964583D01*
X256343264Y-44897916D01*
X256343264Y-44731250D01*
X256381360Y-44664583D01*
X256419455Y-44631250D01*
X256495645Y-44597916D01*
X256571836Y-44597916D01*
X256686121Y-44631250D01*
X257143264Y-45031250D01*
X257143264Y-44597916D01*
X64259584Y-65381250D02*
X63459584Y-65381250D01*
X63459584Y-65214583D01*
X63497680Y-65114583D01*
X63573870Y-65047916D01*
X63650060Y-65014583D01*
X63802441Y-64981250D01*
X63916727Y-64981250D01*
X64069108Y-65014583D01*
X64145299Y-65047916D01*
X64221489Y-65114583D01*
X64259584Y-65214583D01*
X64259584Y-65381250D01*
X64259584Y-64314583D02*
X64259584Y-64714583D01*
X64259584Y-64514583D02*
X63459584Y-64514583D01*
X63573870Y-64581250D01*
X63650060Y-64647916D01*
X63688156Y-64714583D01*
X63459584Y-64081250D02*
X63459584Y-63647916D01*
X63764346Y-63881250D01*
X63764346Y-63781250D01*
X63802441Y-63714583D01*
X63840537Y-63681250D01*
X63916727Y-63647916D01*
X64107203Y-63647916D01*
X64183394Y-63681250D01*
X64221489Y-63714583D01*
X64259584Y-63781250D01*
X64259584Y-63981250D01*
X64221489Y-64047916D01*
X64183394Y-64081250D01*
X66640864Y-65382000D02*
X65840864Y-65382000D01*
X65840864Y-65215333D01*
X65878960Y-65115333D01*
X65955150Y-65048666D01*
X66031340Y-65015333D01*
X66183721Y-64982000D01*
X66298007Y-64982000D01*
X66450388Y-65015333D01*
X66526579Y-65048666D01*
X66602769Y-65115333D01*
X66640864Y-65215333D01*
X66640864Y-65382000D01*
X66640864Y-64315333D02*
X66640864Y-64715333D01*
X66640864Y-64515333D02*
X65840864Y-64515333D01*
X65955150Y-64582000D01*
X66031340Y-64648666D01*
X66069436Y-64715333D01*
X66107531Y-63715333D02*
X66640864Y-63715333D01*
X65802769Y-63882000D02*
X66374198Y-64048666D01*
X66374198Y-63615333D01*
X102360064Y-65382000D02*
X101560064Y-65382000D01*
X101560064Y-65215333D01*
X101598160Y-65115333D01*
X101674350Y-65048666D01*
X101750540Y-65015333D01*
X101902921Y-64982000D01*
X102017207Y-64982000D01*
X102169588Y-65015333D01*
X102245779Y-65048666D01*
X102321969Y-65115333D01*
X102360064Y-65215333D01*
X102360064Y-65382000D01*
X102360064Y-64315333D02*
X102360064Y-64715333D01*
X102360064Y-64515333D02*
X101560064Y-64515333D01*
X101674350Y-64582000D01*
X101750540Y-64648666D01*
X101788636Y-64715333D01*
X101560064Y-63682000D02*
X101560064Y-64015333D01*
X101941017Y-64048666D01*
X101902921Y-64015333D01*
X101864826Y-63948666D01*
X101864826Y-63782000D01*
X101902921Y-63715333D01*
X101941017Y-63682000D01*
X102017207Y-63648666D01*
X102207683Y-63648666D01*
X102283874Y-63682000D01*
X102321969Y-63715333D01*
X102360064Y-63782000D01*
X102360064Y-63948666D01*
X102321969Y-64015333D01*
X102283874Y-64048666D01*
X104741344Y-65382000D02*
X103941344Y-65382000D01*
X103941344Y-65215333D01*
X103979440Y-65115333D01*
X104055630Y-65048666D01*
X104131820Y-65015333D01*
X104284201Y-64982000D01*
X104398487Y-64982000D01*
X104550868Y-65015333D01*
X104627059Y-65048666D01*
X104703249Y-65115333D01*
X104741344Y-65215333D01*
X104741344Y-65382000D01*
X104741344Y-64315333D02*
X104741344Y-64715333D01*
X104741344Y-64515333D02*
X103941344Y-64515333D01*
X104055630Y-64582000D01*
X104131820Y-64648666D01*
X104169916Y-64715333D01*
X103941344Y-63715333D02*
X103941344Y-63848666D01*
X103979440Y-63915333D01*
X104017535Y-63948666D01*
X104131820Y-64015333D01*
X104284201Y-64048666D01*
X104588963Y-64048666D01*
X104665154Y-64015333D01*
X104703249Y-63982000D01*
X104741344Y-63915333D01*
X104741344Y-63782000D01*
X104703249Y-63715333D01*
X104665154Y-63682000D01*
X104588963Y-63648666D01*
X104398487Y-63648666D01*
X104322297Y-63682000D01*
X104284201Y-63715333D01*
X104246106Y-63782000D01*
X104246106Y-63915333D01*
X104284201Y-63982000D01*
X104322297Y-64015333D01*
X104398487Y-64048666D01*
X140460544Y-65381250D02*
X139660544Y-65381250D01*
X139660544Y-65214583D01*
X139698640Y-65114583D01*
X139774830Y-65047916D01*
X139851020Y-65014583D01*
X140003401Y-64981250D01*
X140117687Y-64981250D01*
X140270068Y-65014583D01*
X140346259Y-65047916D01*
X140422449Y-65114583D01*
X140460544Y-65214583D01*
X140460544Y-65381250D01*
X140460544Y-64314583D02*
X140460544Y-64714583D01*
X140460544Y-64514583D02*
X139660544Y-64514583D01*
X139774830Y-64581250D01*
X139851020Y-64647916D01*
X139889116Y-64714583D01*
X139660544Y-64081250D02*
X139660544Y-63614583D01*
X140460544Y-63914583D01*
X178561024Y-65381250D02*
X177761024Y-65381250D01*
X177761024Y-65214583D01*
X177799120Y-65114583D01*
X177875310Y-65047916D01*
X177951500Y-65014583D01*
X178103881Y-64981250D01*
X178218167Y-64981250D01*
X178370548Y-65014583D01*
X178446739Y-65047916D01*
X178522929Y-65114583D01*
X178561024Y-65214583D01*
X178561024Y-65381250D01*
X178561024Y-64314583D02*
X178561024Y-64714583D01*
X178561024Y-64514583D02*
X177761024Y-64514583D01*
X177875310Y-64581250D01*
X177951500Y-64647916D01*
X177989596Y-64714583D01*
X178561024Y-63981250D02*
X178561024Y-63847916D01*
X178522929Y-63781250D01*
X178484834Y-63747916D01*
X178370548Y-63681250D01*
X178218167Y-63647916D01*
X177913405Y-63647916D01*
X177837215Y-63681250D01*
X177799120Y-63714583D01*
X177761024Y-63781250D01*
X177761024Y-63914583D01*
X177799120Y-63981250D01*
X177837215Y-64014583D01*
X177913405Y-64047916D01*
X178103881Y-64047916D01*
X178180072Y-64014583D01*
X178218167Y-63981250D01*
X178256262Y-63914583D01*
X178256262Y-63781250D01*
X178218167Y-63714583D01*
X178180072Y-63681250D01*
X178103881Y-63647916D01*
X180942304Y-65382000D02*
X180142304Y-65382000D01*
X180142304Y-65215333D01*
X180180400Y-65115333D01*
X180256590Y-65048666D01*
X180332780Y-65015333D01*
X180485161Y-64982000D01*
X180599447Y-64982000D01*
X180751828Y-65015333D01*
X180828019Y-65048666D01*
X180904209Y-65115333D01*
X180942304Y-65215333D01*
X180942304Y-65382000D01*
X180218495Y-64715333D02*
X180180400Y-64682000D01*
X180142304Y-64615333D01*
X180142304Y-64448666D01*
X180180400Y-64382000D01*
X180218495Y-64348666D01*
X180294685Y-64315333D01*
X180370876Y-64315333D01*
X180485161Y-64348666D01*
X180942304Y-64748666D01*
X180942304Y-64315333D01*
X180142304Y-63882000D02*
X180142304Y-63815333D01*
X180180400Y-63748666D01*
X180218495Y-63715333D01*
X180294685Y-63682000D01*
X180447066Y-63648666D01*
X180637542Y-63648666D01*
X180789923Y-63682000D01*
X180866114Y-63715333D01*
X180904209Y-63748666D01*
X180942304Y-63815333D01*
X180942304Y-63882000D01*
X180904209Y-63948666D01*
X180866114Y-63982000D01*
X180789923Y-64015333D01*
X180637542Y-64048666D01*
X180447066Y-64048666D01*
X180294685Y-64015333D01*
X180218495Y-63982000D01*
X180180400Y-63948666D01*
X180142304Y-63882000D01*
X216661504Y-65350800D02*
X215861504Y-65350800D01*
X215861504Y-65184133D01*
X215899600Y-65084133D01*
X215975790Y-65017466D01*
X216051980Y-64984133D01*
X216204361Y-64950800D01*
X216318647Y-64950800D01*
X216471028Y-64984133D01*
X216547219Y-65017466D01*
X216623409Y-65084133D01*
X216661504Y-65184133D01*
X216661504Y-65350800D01*
X215937695Y-64684133D02*
X215899600Y-64650800D01*
X215861504Y-64584133D01*
X215861504Y-64417466D01*
X215899600Y-64350800D01*
X215937695Y-64317466D01*
X216013885Y-64284133D01*
X216090076Y-64284133D01*
X216204361Y-64317466D01*
X216661504Y-64717466D01*
X216661504Y-64284133D01*
X216661504Y-63617466D02*
X216661504Y-64017466D01*
X216661504Y-63817466D02*
X215861504Y-63817466D01*
X215975790Y-63884133D01*
X216051980Y-63950800D01*
X216090076Y-64017466D01*
X254761984Y-65382000D02*
X253961984Y-65382000D01*
X253961984Y-65215333D01*
X254000080Y-65115333D01*
X254076270Y-65048666D01*
X254152460Y-65015333D01*
X254304841Y-64982000D01*
X254419127Y-64982000D01*
X254571508Y-65015333D01*
X254647699Y-65048666D01*
X254723889Y-65115333D01*
X254761984Y-65215333D01*
X254761984Y-65382000D01*
X254038175Y-64715333D02*
X254000080Y-64682000D01*
X253961984Y-64615333D01*
X253961984Y-64448666D01*
X254000080Y-64382000D01*
X254038175Y-64348666D01*
X254114365Y-64315333D01*
X254190556Y-64315333D01*
X254304841Y-64348666D01*
X254761984Y-64748666D01*
X254761984Y-64315333D01*
X253961984Y-64082000D02*
X253961984Y-63648666D01*
X254266746Y-63882000D01*
X254266746Y-63782000D01*
X254304841Y-63715333D01*
X254342937Y-63682000D01*
X254419127Y-63648666D01*
X254609603Y-63648666D01*
X254685794Y-63682000D01*
X254723889Y-63715333D01*
X254761984Y-63782000D01*
X254761984Y-63982000D01*
X254723889Y-64048666D01*
X254685794Y-64082000D01*
X257143264Y-65381250D02*
X256343264Y-65381250D01*
X256343264Y-65214583D01*
X256381360Y-65114583D01*
X256457550Y-65047916D01*
X256533740Y-65014583D01*
X256686121Y-64981250D01*
X256800407Y-64981250D01*
X256952788Y-65014583D01*
X257028979Y-65047916D01*
X257105169Y-65114583D01*
X257143264Y-65214583D01*
X257143264Y-65381250D01*
X256419455Y-64714583D02*
X256381360Y-64681250D01*
X256343264Y-64614583D01*
X256343264Y-64447916D01*
X256381360Y-64381250D01*
X256419455Y-64347916D01*
X256495645Y-64314583D01*
X256571836Y-64314583D01*
X256686121Y-64347916D01*
X257143264Y-64747916D01*
X257143264Y-64314583D01*
X256609931Y-63714583D02*
X257143264Y-63714583D01*
X256305169Y-63881250D02*
X256876598Y-64047916D01*
X256876598Y-63614583D01*
X64259584Y-84432240D02*
X63459584Y-84432240D01*
X63459584Y-84265573D01*
X63497680Y-84165573D01*
X63573870Y-84098906D01*
X63650060Y-84065573D01*
X63802441Y-84032240D01*
X63916727Y-84032240D01*
X64069108Y-84065573D01*
X64145299Y-84098906D01*
X64221489Y-84165573D01*
X64259584Y-84265573D01*
X64259584Y-84432240D01*
X63535775Y-83765573D02*
X63497680Y-83732240D01*
X63459584Y-83665573D01*
X63459584Y-83498906D01*
X63497680Y-83432240D01*
X63535775Y-83398906D01*
X63611965Y-83365573D01*
X63688156Y-83365573D01*
X63802441Y-83398906D01*
X64259584Y-83798906D01*
X64259584Y-83365573D01*
X63459584Y-82732240D02*
X63459584Y-83065573D01*
X63840537Y-83098906D01*
X63802441Y-83065573D01*
X63764346Y-82998906D01*
X63764346Y-82832240D01*
X63802441Y-82765573D01*
X63840537Y-82732240D01*
X63916727Y-82698906D01*
X64107203Y-82698906D01*
X64183394Y-82732240D01*
X64221489Y-82765573D01*
X64259584Y-82832240D01*
X64259584Y-82998906D01*
X64221489Y-83065573D01*
X64183394Y-83098906D01*
X66640864Y-84432240D02*
X65840864Y-84432240D01*
X65840864Y-84265573D01*
X65878960Y-84165573D01*
X65955150Y-84098906D01*
X66031340Y-84065573D01*
X66183721Y-84032240D01*
X66298007Y-84032240D01*
X66450388Y-84065573D01*
X66526579Y-84098906D01*
X66602769Y-84165573D01*
X66640864Y-84265573D01*
X66640864Y-84432240D01*
X65917055Y-83765573D02*
X65878960Y-83732240D01*
X65840864Y-83665573D01*
X65840864Y-83498906D01*
X65878960Y-83432240D01*
X65917055Y-83398906D01*
X65993245Y-83365573D01*
X66069436Y-83365573D01*
X66183721Y-83398906D01*
X66640864Y-83798906D01*
X66640864Y-83365573D01*
X65840864Y-82765573D02*
X65840864Y-82898906D01*
X65878960Y-82965573D01*
X65917055Y-82998906D01*
X66031340Y-83065573D01*
X66183721Y-83098906D01*
X66488483Y-83098906D01*
X66564674Y-83065573D01*
X66602769Y-83032240D01*
X66640864Y-82965573D01*
X66640864Y-82832240D01*
X66602769Y-82765573D01*
X66564674Y-82732240D01*
X66488483Y-82698906D01*
X66298007Y-82698906D01*
X66221817Y-82732240D01*
X66183721Y-82765573D01*
X66145626Y-82832240D01*
X66145626Y-82965573D01*
X66183721Y-83032240D01*
X66221817Y-83065573D01*
X66298007Y-83098906D01*
X102360064Y-84432240D02*
X101560064Y-84432240D01*
X101560064Y-84265573D01*
X101598160Y-84165573D01*
X101674350Y-84098906D01*
X101750540Y-84065573D01*
X101902921Y-84032240D01*
X102017207Y-84032240D01*
X102169588Y-84065573D01*
X102245779Y-84098906D01*
X102321969Y-84165573D01*
X102360064Y-84265573D01*
X102360064Y-84432240D01*
X101636255Y-83765573D02*
X101598160Y-83732240D01*
X101560064Y-83665573D01*
X101560064Y-83498906D01*
X101598160Y-83432240D01*
X101636255Y-83398906D01*
X101712445Y-83365573D01*
X101788636Y-83365573D01*
X101902921Y-83398906D01*
X102360064Y-83798906D01*
X102360064Y-83365573D01*
X101560064Y-83132240D02*
X101560064Y-82665573D01*
X102360064Y-82965573D01*
X104741344Y-84432240D02*
X103941344Y-84432240D01*
X103941344Y-84265573D01*
X103979440Y-84165573D01*
X104055630Y-84098906D01*
X104131820Y-84065573D01*
X104284201Y-84032240D01*
X104398487Y-84032240D01*
X104550868Y-84065573D01*
X104627059Y-84098906D01*
X104703249Y-84165573D01*
X104741344Y-84265573D01*
X104741344Y-84432240D01*
X104017535Y-83765573D02*
X103979440Y-83732240D01*
X103941344Y-83665573D01*
X103941344Y-83498906D01*
X103979440Y-83432240D01*
X104017535Y-83398906D01*
X104093725Y-83365573D01*
X104169916Y-83365573D01*
X104284201Y-83398906D01*
X104741344Y-83798906D01*
X104741344Y-83365573D01*
X104284201Y-82965573D02*
X104246106Y-83032240D01*
X104208011Y-83065573D01*
X104131820Y-83098906D01*
X104093725Y-83098906D01*
X104017535Y-83065573D01*
X103979440Y-83032240D01*
X103941344Y-82965573D01*
X103941344Y-82832240D01*
X103979440Y-82765573D01*
X104017535Y-82732240D01*
X104093725Y-82698906D01*
X104131820Y-82698906D01*
X104208011Y-82732240D01*
X104246106Y-82765573D01*
X104284201Y-82832240D01*
X104284201Y-82965573D01*
X104322297Y-83032240D01*
X104360392Y-83065573D01*
X104436582Y-83098906D01*
X104588963Y-83098906D01*
X104665154Y-83065573D01*
X104703249Y-83032240D01*
X104741344Y-82965573D01*
X104741344Y-82832240D01*
X104703249Y-82765573D01*
X104665154Y-82732240D01*
X104588963Y-82698906D01*
X104436582Y-82698906D01*
X104360392Y-82732240D01*
X104322297Y-82765573D01*
X104284201Y-82832240D01*
X140460544Y-84432240D02*
X139660544Y-84432240D01*
X139660544Y-84265573D01*
X139698640Y-84165573D01*
X139774830Y-84098906D01*
X139851020Y-84065573D01*
X140003401Y-84032240D01*
X140117687Y-84032240D01*
X140270068Y-84065573D01*
X140346259Y-84098906D01*
X140422449Y-84165573D01*
X140460544Y-84265573D01*
X140460544Y-84432240D01*
X139736735Y-83765573D02*
X139698640Y-83732240D01*
X139660544Y-83665573D01*
X139660544Y-83498906D01*
X139698640Y-83432240D01*
X139736735Y-83398906D01*
X139812925Y-83365573D01*
X139889116Y-83365573D01*
X140003401Y-83398906D01*
X140460544Y-83798906D01*
X140460544Y-83365573D01*
X140460544Y-83032240D02*
X140460544Y-82898906D01*
X140422449Y-82832240D01*
X140384354Y-82798906D01*
X140270068Y-82732240D01*
X140117687Y-82698906D01*
X139812925Y-82698906D01*
X139736735Y-82732240D01*
X139698640Y-82765573D01*
X139660544Y-82832240D01*
X139660544Y-82965573D01*
X139698640Y-83032240D01*
X139736735Y-83065573D01*
X139812925Y-83098906D01*
X140003401Y-83098906D01*
X140079592Y-83065573D01*
X140117687Y-83032240D01*
X140155782Y-82965573D01*
X140155782Y-82832240D01*
X140117687Y-82765573D01*
X140079592Y-82732240D01*
X140003401Y-82698906D01*
X142841824Y-84431250D02*
X142041824Y-84431250D01*
X142041824Y-84264583D01*
X142079920Y-84164583D01*
X142156110Y-84097916D01*
X142232300Y-84064583D01*
X142384681Y-84031250D01*
X142498967Y-84031250D01*
X142651348Y-84064583D01*
X142727539Y-84097916D01*
X142803729Y-84164583D01*
X142841824Y-84264583D01*
X142841824Y-84431250D01*
X142041824Y-83797916D02*
X142041824Y-83364583D01*
X142346586Y-83597916D01*
X142346586Y-83497916D01*
X142384681Y-83431250D01*
X142422777Y-83397916D01*
X142498967Y-83364583D01*
X142689443Y-83364583D01*
X142765634Y-83397916D01*
X142803729Y-83431250D01*
X142841824Y-83497916D01*
X142841824Y-83697916D01*
X142803729Y-83764583D01*
X142765634Y-83797916D01*
X142041824Y-82931250D02*
X142041824Y-82864583D01*
X142079920Y-82797916D01*
X142118015Y-82764583D01*
X142194205Y-82731250D01*
X142346586Y-82697916D01*
X142537062Y-82697916D01*
X142689443Y-82731250D01*
X142765634Y-82764583D01*
X142803729Y-82797916D01*
X142841824Y-82864583D01*
X142841824Y-82931250D01*
X142803729Y-82997916D01*
X142765634Y-83031250D01*
X142689443Y-83064583D01*
X142537062Y-83097916D01*
X142346586Y-83097916D01*
X142194205Y-83064583D01*
X142118015Y-83031250D01*
X142079920Y-82997916D01*
X142041824Y-82931250D01*
X178561024Y-84432240D02*
X177761024Y-84432240D01*
X177761024Y-84265573D01*
X177799120Y-84165573D01*
X177875310Y-84098906D01*
X177951500Y-84065573D01*
X178103881Y-84032240D01*
X178218167Y-84032240D01*
X178370548Y-84065573D01*
X178446739Y-84098906D01*
X178522929Y-84165573D01*
X178561024Y-84265573D01*
X178561024Y-84432240D01*
X177761024Y-83798906D02*
X177761024Y-83365573D01*
X178065786Y-83598906D01*
X178065786Y-83498906D01*
X178103881Y-83432240D01*
X178141977Y-83398906D01*
X178218167Y-83365573D01*
X178408643Y-83365573D01*
X178484834Y-83398906D01*
X178522929Y-83432240D01*
X178561024Y-83498906D01*
X178561024Y-83698906D01*
X178522929Y-83765573D01*
X178484834Y-83798906D01*
X178561024Y-82698906D02*
X178561024Y-83098906D01*
X178561024Y-82898906D02*
X177761024Y-82898906D01*
X177875310Y-82965573D01*
X177951500Y-83032240D01*
X177989596Y-83098906D01*
X180942304Y-84432240D02*
X180142304Y-84432240D01*
X180142304Y-84265573D01*
X180180400Y-84165573D01*
X180256590Y-84098906D01*
X180332780Y-84065573D01*
X180485161Y-84032240D01*
X180599447Y-84032240D01*
X180751828Y-84065573D01*
X180828019Y-84098906D01*
X180904209Y-84165573D01*
X180942304Y-84265573D01*
X180942304Y-84432240D01*
X180142304Y-83798906D02*
X180142304Y-83365573D01*
X180447066Y-83598906D01*
X180447066Y-83498906D01*
X180485161Y-83432240D01*
X180523257Y-83398906D01*
X180599447Y-83365573D01*
X180789923Y-83365573D01*
X180866114Y-83398906D01*
X180904209Y-83432240D01*
X180942304Y-83498906D01*
X180942304Y-83698906D01*
X180904209Y-83765573D01*
X180866114Y-83798906D01*
X180218495Y-83098906D02*
X180180400Y-83065573D01*
X180142304Y-82998906D01*
X180142304Y-82832240D01*
X180180400Y-82765573D01*
X180218495Y-82732240D01*
X180294685Y-82698906D01*
X180370876Y-82698906D01*
X180485161Y-82732240D01*
X180942304Y-83132240D01*
X180942304Y-82698906D01*
X216661504Y-84432240D02*
X215861504Y-84432240D01*
X215861504Y-84265573D01*
X215899600Y-84165573D01*
X215975790Y-84098906D01*
X216051980Y-84065573D01*
X216204361Y-84032240D01*
X216318647Y-84032240D01*
X216471028Y-84065573D01*
X216547219Y-84098906D01*
X216623409Y-84165573D01*
X216661504Y-84265573D01*
X216661504Y-84432240D01*
X215861504Y-83798906D02*
X215861504Y-83365573D01*
X216166266Y-83598906D01*
X216166266Y-83498906D01*
X216204361Y-83432240D01*
X216242457Y-83398906D01*
X216318647Y-83365573D01*
X216509123Y-83365573D01*
X216585314Y-83398906D01*
X216623409Y-83432240D01*
X216661504Y-83498906D01*
X216661504Y-83698906D01*
X216623409Y-83765573D01*
X216585314Y-83798906D01*
X215861504Y-83132240D02*
X215861504Y-82698906D01*
X216166266Y-82932240D01*
X216166266Y-82832240D01*
X216204361Y-82765573D01*
X216242457Y-82732240D01*
X216318647Y-82698906D01*
X216509123Y-82698906D01*
X216585314Y-82732240D01*
X216623409Y-82765573D01*
X216661504Y-82832240D01*
X216661504Y-83032240D01*
X216623409Y-83098906D01*
X216585314Y-83132240D01*
X219042784Y-84432240D02*
X218242784Y-84432240D01*
X218242784Y-84265573D01*
X218280880Y-84165573D01*
X218357070Y-84098906D01*
X218433260Y-84065573D01*
X218585641Y-84032240D01*
X218699927Y-84032240D01*
X218852308Y-84065573D01*
X218928499Y-84098906D01*
X219004689Y-84165573D01*
X219042784Y-84265573D01*
X219042784Y-84432240D01*
X218242784Y-83798906D02*
X218242784Y-83365573D01*
X218547546Y-83598906D01*
X218547546Y-83498906D01*
X218585641Y-83432240D01*
X218623737Y-83398906D01*
X218699927Y-83365573D01*
X218890403Y-83365573D01*
X218966594Y-83398906D01*
X219004689Y-83432240D01*
X219042784Y-83498906D01*
X219042784Y-83698906D01*
X219004689Y-83765573D01*
X218966594Y-83798906D01*
X218509451Y-82765573D02*
X219042784Y-82765573D01*
X218204689Y-82932240D02*
X218776118Y-83098906D01*
X218776118Y-82665573D01*
X254761984Y-84432240D02*
X253961984Y-84432240D01*
X253961984Y-84265573D01*
X254000080Y-84165573D01*
X254076270Y-84098906D01*
X254152460Y-84065573D01*
X254304841Y-84032240D01*
X254419127Y-84032240D01*
X254571508Y-84065573D01*
X254647699Y-84098906D01*
X254723889Y-84165573D01*
X254761984Y-84265573D01*
X254761984Y-84432240D01*
X253961984Y-83798906D02*
X253961984Y-83365573D01*
X254266746Y-83598906D01*
X254266746Y-83498906D01*
X254304841Y-83432240D01*
X254342937Y-83398906D01*
X254419127Y-83365573D01*
X254609603Y-83365573D01*
X254685794Y-83398906D01*
X254723889Y-83432240D01*
X254761984Y-83498906D01*
X254761984Y-83698906D01*
X254723889Y-83765573D01*
X254685794Y-83798906D01*
X253961984Y-82732240D02*
X253961984Y-83065573D01*
X254342937Y-83098906D01*
X254304841Y-83065573D01*
X254266746Y-82998906D01*
X254266746Y-82832240D01*
X254304841Y-82765573D01*
X254342937Y-82732240D01*
X254419127Y-82698906D01*
X254609603Y-82698906D01*
X254685794Y-82732240D01*
X254723889Y-82765573D01*
X254761984Y-82832240D01*
X254761984Y-82998906D01*
X254723889Y-83065573D01*
X254685794Y-83098906D01*
X257143264Y-84432240D02*
X256343264Y-84432240D01*
X256343264Y-84265573D01*
X256381360Y-84165573D01*
X256457550Y-84098906D01*
X256533740Y-84065573D01*
X256686121Y-84032240D01*
X256800407Y-84032240D01*
X256952788Y-84065573D01*
X257028979Y-84098906D01*
X257105169Y-84165573D01*
X257143264Y-84265573D01*
X257143264Y-84432240D01*
X256343264Y-83798906D02*
X256343264Y-83365573D01*
X256648026Y-83598906D01*
X256648026Y-83498906D01*
X256686121Y-83432240D01*
X256724217Y-83398906D01*
X256800407Y-83365573D01*
X256990883Y-83365573D01*
X257067074Y-83398906D01*
X257105169Y-83432240D01*
X257143264Y-83498906D01*
X257143264Y-83698906D01*
X257105169Y-83765573D01*
X257067074Y-83798906D01*
X256343264Y-82765573D02*
X256343264Y-82898906D01*
X256381360Y-82965573D01*
X256419455Y-82998906D01*
X256533740Y-83065573D01*
X256686121Y-83098906D01*
X256990883Y-83098906D01*
X257067074Y-83065573D01*
X257105169Y-83032240D01*
X257143264Y-82965573D01*
X257143264Y-82832240D01*
X257105169Y-82765573D01*
X257067074Y-82732240D01*
X256990883Y-82698906D01*
X256800407Y-82698906D01*
X256724217Y-82732240D01*
X256686121Y-82765573D01*
X256648026Y-82832240D01*
X256648026Y-82965573D01*
X256686121Y-83032240D01*
X256724217Y-83065573D01*
X256800407Y-83098906D01*
X64259584Y-103482480D02*
X63459584Y-103482480D01*
X63459584Y-103315813D01*
X63497680Y-103215813D01*
X63573870Y-103149146D01*
X63650060Y-103115813D01*
X63802441Y-103082480D01*
X63916727Y-103082480D01*
X64069108Y-103115813D01*
X64145299Y-103149146D01*
X64221489Y-103215813D01*
X64259584Y-103315813D01*
X64259584Y-103482480D01*
X63459584Y-102849146D02*
X63459584Y-102415813D01*
X63764346Y-102649146D01*
X63764346Y-102549146D01*
X63802441Y-102482480D01*
X63840537Y-102449146D01*
X63916727Y-102415813D01*
X64107203Y-102415813D01*
X64183394Y-102449146D01*
X64221489Y-102482480D01*
X64259584Y-102549146D01*
X64259584Y-102749146D01*
X64221489Y-102815813D01*
X64183394Y-102849146D01*
X63459584Y-102182480D02*
X63459584Y-101715813D01*
X64259584Y-102015813D01*
X66640864Y-103482480D02*
X65840864Y-103482480D01*
X65840864Y-103315813D01*
X65878960Y-103215813D01*
X65955150Y-103149146D01*
X66031340Y-103115813D01*
X66183721Y-103082480D01*
X66298007Y-103082480D01*
X66450388Y-103115813D01*
X66526579Y-103149146D01*
X66602769Y-103215813D01*
X66640864Y-103315813D01*
X66640864Y-103482480D01*
X65840864Y-102849146D02*
X65840864Y-102415813D01*
X66145626Y-102649146D01*
X66145626Y-102549146D01*
X66183721Y-102482480D01*
X66221817Y-102449146D01*
X66298007Y-102415813D01*
X66488483Y-102415813D01*
X66564674Y-102449146D01*
X66602769Y-102482480D01*
X66640864Y-102549146D01*
X66640864Y-102749146D01*
X66602769Y-102815813D01*
X66564674Y-102849146D01*
X66183721Y-102015813D02*
X66145626Y-102082480D01*
X66107531Y-102115813D01*
X66031340Y-102149146D01*
X65993245Y-102149146D01*
X65917055Y-102115813D01*
X65878960Y-102082480D01*
X65840864Y-102015813D01*
X65840864Y-101882480D01*
X65878960Y-101815813D01*
X65917055Y-101782480D01*
X65993245Y-101749146D01*
X66031340Y-101749146D01*
X66107531Y-101782480D01*
X66145626Y-101815813D01*
X66183721Y-101882480D01*
X66183721Y-102015813D01*
X66221817Y-102082480D01*
X66259912Y-102115813D01*
X66336102Y-102149146D01*
X66488483Y-102149146D01*
X66564674Y-102115813D01*
X66602769Y-102082480D01*
X66640864Y-102015813D01*
X66640864Y-101882480D01*
X66602769Y-101815813D01*
X66564674Y-101782480D01*
X66488483Y-101749146D01*
X66336102Y-101749146D01*
X66259912Y-101782480D01*
X66221817Y-101815813D01*
X66183721Y-101882480D01*
X102360064Y-103482480D02*
X101560064Y-103482480D01*
X101560064Y-103315813D01*
X101598160Y-103215813D01*
X101674350Y-103149146D01*
X101750540Y-103115813D01*
X101902921Y-103082480D01*
X102017207Y-103082480D01*
X102169588Y-103115813D01*
X102245779Y-103149146D01*
X102321969Y-103215813D01*
X102360064Y-103315813D01*
X102360064Y-103482480D01*
X101560064Y-102849146D02*
X101560064Y-102415813D01*
X101864826Y-102649146D01*
X101864826Y-102549146D01*
X101902921Y-102482480D01*
X101941017Y-102449146D01*
X102017207Y-102415813D01*
X102207683Y-102415813D01*
X102283874Y-102449146D01*
X102321969Y-102482480D01*
X102360064Y-102549146D01*
X102360064Y-102749146D01*
X102321969Y-102815813D01*
X102283874Y-102849146D01*
X102360064Y-102082480D02*
X102360064Y-101949146D01*
X102321969Y-101882480D01*
X102283874Y-101849146D01*
X102169588Y-101782480D01*
X102017207Y-101749146D01*
X101712445Y-101749146D01*
X101636255Y-101782480D01*
X101598160Y-101815813D01*
X101560064Y-101882480D01*
X101560064Y-102015813D01*
X101598160Y-102082480D01*
X101636255Y-102115813D01*
X101712445Y-102149146D01*
X101902921Y-102149146D01*
X101979112Y-102115813D01*
X102017207Y-102082480D01*
X102055302Y-102015813D01*
X102055302Y-101882480D01*
X102017207Y-101815813D01*
X101979112Y-101782480D01*
X101902921Y-101749146D01*
X104741344Y-103482480D02*
X103941344Y-103482480D01*
X103941344Y-103315813D01*
X103979440Y-103215813D01*
X104055630Y-103149146D01*
X104131820Y-103115813D01*
X104284201Y-103082480D01*
X104398487Y-103082480D01*
X104550868Y-103115813D01*
X104627059Y-103149146D01*
X104703249Y-103215813D01*
X104741344Y-103315813D01*
X104741344Y-103482480D01*
X104208011Y-102482480D02*
X104741344Y-102482480D01*
X103903249Y-102649146D02*
X104474678Y-102815813D01*
X104474678Y-102382480D01*
X103941344Y-101982480D02*
X103941344Y-101915813D01*
X103979440Y-101849146D01*
X104017535Y-101815813D01*
X104093725Y-101782480D01*
X104246106Y-101749146D01*
X104436582Y-101749146D01*
X104588963Y-101782480D01*
X104665154Y-101815813D01*
X104703249Y-101849146D01*
X104741344Y-101915813D01*
X104741344Y-101982480D01*
X104703249Y-102049146D01*
X104665154Y-102082480D01*
X104588963Y-102115813D01*
X104436582Y-102149146D01*
X104246106Y-102149146D01*
X104093725Y-102115813D01*
X104017535Y-102082480D01*
X103979440Y-102049146D01*
X103941344Y-101982480D01*
X140460544Y-103482480D02*
X139660544Y-103482480D01*
X139660544Y-103315813D01*
X139698640Y-103215813D01*
X139774830Y-103149146D01*
X139851020Y-103115813D01*
X140003401Y-103082480D01*
X140117687Y-103082480D01*
X140270068Y-103115813D01*
X140346259Y-103149146D01*
X140422449Y-103215813D01*
X140460544Y-103315813D01*
X140460544Y-103482480D01*
X139927211Y-102482480D02*
X140460544Y-102482480D01*
X139622449Y-102649146D02*
X140193878Y-102815813D01*
X140193878Y-102382480D01*
X140460544Y-101749146D02*
X140460544Y-102149146D01*
X140460544Y-101949146D02*
X139660544Y-101949146D01*
X139774830Y-102015813D01*
X139851020Y-102082480D01*
X139889116Y-102149146D01*
X142841824Y-103482480D02*
X142041824Y-103482480D01*
X142041824Y-103315813D01*
X142079920Y-103215813D01*
X142156110Y-103149146D01*
X142232300Y-103115813D01*
X142384681Y-103082480D01*
X142498967Y-103082480D01*
X142651348Y-103115813D01*
X142727539Y-103149146D01*
X142803729Y-103215813D01*
X142841824Y-103315813D01*
X142841824Y-103482480D01*
X142308491Y-102482480D02*
X142841824Y-102482480D01*
X142003729Y-102649146D02*
X142575158Y-102815813D01*
X142575158Y-102382480D01*
X142118015Y-102149146D02*
X142079920Y-102115813D01*
X142041824Y-102049146D01*
X142041824Y-101882480D01*
X142079920Y-101815813D01*
X142118015Y-101782480D01*
X142194205Y-101749146D01*
X142270396Y-101749146D01*
X142384681Y-101782480D01*
X142841824Y-102182480D01*
X142841824Y-101749146D01*
X180942304Y-103482480D02*
X180142304Y-103482480D01*
X180142304Y-103315813D01*
X180180400Y-103215813D01*
X180256590Y-103149146D01*
X180332780Y-103115813D01*
X180485161Y-103082480D01*
X180599447Y-103082480D01*
X180751828Y-103115813D01*
X180828019Y-103149146D01*
X180904209Y-103215813D01*
X180942304Y-103315813D01*
X180942304Y-103482480D01*
X180408971Y-102482480D02*
X180942304Y-102482480D01*
X180104209Y-102649146D02*
X180675638Y-102815813D01*
X180675638Y-102382480D01*
X180408971Y-101815813D02*
X180942304Y-101815813D01*
X180104209Y-101982480D02*
X180675638Y-102149146D01*
X180675638Y-101715813D01*
X216661504Y-103481250D02*
X215861504Y-103481250D01*
X215861504Y-103314583D01*
X215899600Y-103214583D01*
X215975790Y-103147916D01*
X216051980Y-103114583D01*
X216204361Y-103081250D01*
X216318647Y-103081250D01*
X216471028Y-103114583D01*
X216547219Y-103147916D01*
X216623409Y-103214583D01*
X216661504Y-103314583D01*
X216661504Y-103481250D01*
X216128171Y-102481250D02*
X216661504Y-102481250D01*
X215823409Y-102647916D02*
X216394838Y-102814583D01*
X216394838Y-102381250D01*
X215861504Y-101781250D02*
X215861504Y-102114583D01*
X216242457Y-102147916D01*
X216204361Y-102114583D01*
X216166266Y-102047916D01*
X216166266Y-101881250D01*
X216204361Y-101814583D01*
X216242457Y-101781250D01*
X216318647Y-101747916D01*
X216509123Y-101747916D01*
X216585314Y-101781250D01*
X216623409Y-101814583D01*
X216661504Y-101881250D01*
X216661504Y-102047916D01*
X216623409Y-102114583D01*
X216585314Y-102147916D01*
X219042784Y-103481250D02*
X218242784Y-103481250D01*
X218242784Y-103314583D01*
X218280880Y-103214583D01*
X218357070Y-103147916D01*
X218433260Y-103114583D01*
X218585641Y-103081250D01*
X218699927Y-103081250D01*
X218852308Y-103114583D01*
X218928499Y-103147916D01*
X219004689Y-103214583D01*
X219042784Y-103314583D01*
X219042784Y-103481250D01*
X218509451Y-102481250D02*
X219042784Y-102481250D01*
X218204689Y-102647916D02*
X218776118Y-102814583D01*
X218776118Y-102381250D01*
X218242784Y-101814583D02*
X218242784Y-101947916D01*
X218280880Y-102014583D01*
X218318975Y-102047916D01*
X218433260Y-102114583D01*
X218585641Y-102147916D01*
X218890403Y-102147916D01*
X218966594Y-102114583D01*
X219004689Y-102081250D01*
X219042784Y-102014583D01*
X219042784Y-101881250D01*
X219004689Y-101814583D01*
X218966594Y-101781250D01*
X218890403Y-101747916D01*
X218699927Y-101747916D01*
X218623737Y-101781250D01*
X218585641Y-101814583D01*
X218547546Y-101881250D01*
X218547546Y-102014583D01*
X218585641Y-102081250D01*
X218623737Y-102114583D01*
X218699927Y-102147916D01*
X254761984Y-103482480D02*
X253961984Y-103482480D01*
X253961984Y-103315813D01*
X254000080Y-103215813D01*
X254076270Y-103149146D01*
X254152460Y-103115813D01*
X254304841Y-103082480D01*
X254419127Y-103082480D01*
X254571508Y-103115813D01*
X254647699Y-103149146D01*
X254723889Y-103215813D01*
X254761984Y-103315813D01*
X254761984Y-103482480D01*
X254228651Y-102482480D02*
X254761984Y-102482480D01*
X253923889Y-102649146D02*
X254495318Y-102815813D01*
X254495318Y-102382480D01*
X253961984Y-102182480D02*
X253961984Y-101715813D01*
X254761984Y-102015813D01*
X257143264Y-103482480D02*
X256343264Y-103482480D01*
X256343264Y-103315813D01*
X256381360Y-103215813D01*
X256457550Y-103149146D01*
X256533740Y-103115813D01*
X256686121Y-103082480D01*
X256800407Y-103082480D01*
X256952788Y-103115813D01*
X257028979Y-103149146D01*
X257105169Y-103215813D01*
X257143264Y-103315813D01*
X257143264Y-103482480D01*
X256609931Y-102482480D02*
X257143264Y-102482480D01*
X256305169Y-102649146D02*
X256876598Y-102815813D01*
X256876598Y-102382480D01*
X256686121Y-102015813D02*
X256648026Y-102082480D01*
X256609931Y-102115813D01*
X256533740Y-102149146D01*
X256495645Y-102149146D01*
X256419455Y-102115813D01*
X256381360Y-102082480D01*
X256343264Y-102015813D01*
X256343264Y-101882480D01*
X256381360Y-101815813D01*
X256419455Y-101782480D01*
X256495645Y-101749146D01*
X256533740Y-101749146D01*
X256609931Y-101782480D01*
X256648026Y-101815813D01*
X256686121Y-101882480D01*
X256686121Y-102015813D01*
X256724217Y-102082480D01*
X256762312Y-102115813D01*
X256838502Y-102149146D01*
X256990883Y-102149146D01*
X257067074Y-102115813D01*
X257105169Y-102082480D01*
X257143264Y-102015813D01*
X257143264Y-101882480D01*
X257105169Y-101815813D01*
X257067074Y-101782480D01*
X256990883Y-101749146D01*
X256838502Y-101749146D01*
X256762312Y-101782480D01*
X256724217Y-101815813D01*
X256686121Y-101882480D01*
M02*
