M48
METRIC
T1C0.250
T2C0.600
T3C0.762
T4C0.900
T5C1.092
T6C1.470
T7C2.200
%
G90
G05
T1
X78.422Y-58.25
X97.472Y-58.222
X116.522Y-58.25
X135.572Y-58.25
T3
X122.25Y-40.71
X122.25Y-43.25
X122.25Y-45.79
X122.25Y-48.33
T4
X101.998Y-60.532
X101.998Y-68.532
X254.4Y-79.582
X254.4Y-87.582
X104.379Y-79.582
X104.379Y-87.582
X104.379Y-60.532
X104.379Y-68.532
X142.48Y-60.531
X142.48Y-68.531
X63.898Y-98.632
X63.898Y-106.632
X178.199Y-98.632
X178.199Y-106.632
X140.099Y-41.482
X140.099Y-49.482
X216.3Y-98.631
X216.3Y-106.631
X178.199Y-41.422
X178.199Y-49.422
X140.099Y-60.531
X140.099Y-68.531
X66.279Y-98.632
X66.279Y-106.632
X256.781Y-79.582
X256.781Y-87.582
X142.48Y-41.482
X142.48Y-49.482
X218.681Y-98.631
X218.681Y-106.631
X216.3Y-41.482
X216.3Y-49.482
X140.099Y-79.582
X140.099Y-87.582
X101.998Y-98.632
X101.998Y-106.632
X256.781Y-60.531
X256.781Y-68.531
X180.58Y-41.422
X180.58Y-49.422
X142.48Y-79.581
X142.48Y-87.581
X256.781Y-98.632
X256.781Y-106.632
X218.681Y-41.482
X218.681Y-49.482
X63.898Y-79.582
X63.898Y-87.582
X254.4Y-98.632
X254.4Y-106.632
X254.4Y-41.482
X254.4Y-49.482
X63.897Y-41.481
X63.897Y-49.481
X104.379Y-98.632
X104.379Y-106.632
X178.199Y-60.531
X178.199Y-68.531
X218.681Y-60.531
X218.681Y-68.531
X66.279Y-79.582
X66.279Y-87.582
X256.781Y-41.481
X256.781Y-49.481
X178.199Y-79.582
X178.199Y-87.582
X140.099Y-98.632
X140.099Y-106.632
X66.279Y-41.482
X66.279Y-49.482
X180.58Y-79.582
X180.58Y-87.582
X142.48Y-98.632
X142.48Y-106.632
X180.58Y-60.532
X180.58Y-68.532
X101.998Y-40.732
X101.998Y-48.732
X101.998Y-79.582
X101.998Y-87.582
X63.898Y-60.531
X63.898Y-68.531
X216.3Y-79.582
X216.3Y-87.582
X216.3Y-60.501
X216.3Y-68.501
X66.279Y-60.532
X66.279Y-68.532
X180.58Y-98.632
X180.58Y-106.632
X254.4Y-60.532
X254.4Y-68.532
X218.681Y-79.582
X218.681Y-87.582
X104.379Y-40.732
X104.379Y-48.732
T5
X149.542Y-36.83
X149.542Y-52.07
X152.082Y-36.83
X152.082Y-52.07
X154.623Y-36.83
X154.623Y-52.07
X157.162Y-36.83
X157.162Y-52.07
X159.702Y-36.83
X159.702Y-52.07
X162.243Y-36.83
X162.243Y-52.07
X164.782Y-36.83
X164.782Y-52.07
X167.322Y-36.83
X167.322Y-52.07
X169.862Y-36.83
X169.862Y-52.07
X172.403Y-36.83
X172.403Y-52.07
X174.942Y-36.83
X174.942Y-52.07
X177.482Y-36.83
X177.482Y-52.07
T6
X262.572Y-49.53
X268.923Y-46.99
X72.072Y-106.68
X78.422Y-104.14
X205.422Y-106.68
X211.772Y-104.14
X167.322Y-87.63
X173.672Y-85.09
X205.422Y-87.63
X211.772Y-85.09
X129.222Y-49.53
X135.572Y-46.99
X205.422Y-49.53
X211.772Y-46.99
X53.023Y-68.58
X59.372Y-66.04
X148.272Y-68.58
X154.623Y-66.04
X205.422Y-68.58
X211.772Y-66.04
X91.123Y-106.68
X97.472Y-104.14
X91.123Y-87.63
X97.472Y-85.09
X224.472Y-106.68
X230.822Y-104.14
X262.572Y-68.58
X268.923Y-66.04
X224.472Y-87.63
X230.822Y-85.09
X148.272Y-49.53
X154.623Y-46.99
X110.172Y-87.63
X116.522Y-85.09
X243.522Y-87.63
X249.873Y-85.09
X224.472Y-68.58
X230.822Y-66.04
X110.172Y-106.68
X116.522Y-104.14
X243.522Y-106.68
X249.873Y-104.14
X53.023Y-87.63
X59.372Y-85.09
X72.072Y-68.58
X78.422Y-66.04
X167.322Y-49.53
X173.672Y-46.99
X72.072Y-49.53
X78.422Y-46.99
X148.272Y-106.68
X154.623Y-104.14
X129.222Y-106.68
X135.572Y-104.14
X224.472Y-49.53
X230.822Y-46.99
X262.572Y-106.68
X268.923Y-104.14
X53.023Y-49.53
X59.372Y-46.99
X91.123Y-68.58
X97.472Y-66.04
X262.572Y-87.63
X268.923Y-85.09
X167.322Y-106.68
X173.672Y-104.14
X129.222Y-87.63
X135.572Y-85.09
X110.172Y-68.58
X116.522Y-66.04
X72.072Y-87.63
X78.422Y-85.09
X91.123Y-49.53
X97.472Y-46.99
X243.522Y-49.53
X249.873Y-46.99
X186.373Y-49.53
X192.722Y-46.99
X167.322Y-68.58
X173.672Y-66.04
X53.023Y-106.68
X59.372Y-104.14
X186.373Y-106.68
X192.722Y-104.14
X148.272Y-87.63
X154.623Y-85.09
X243.522Y-68.58
X249.873Y-66.04
X129.222Y-68.58
X135.572Y-66.04
X186.373Y-87.63
X192.722Y-85.09
X110.172Y-49.53
X116.522Y-46.99
X186.373Y-68.58
X192.722Y-66.04
T7
X65.087Y-73.025
X103.188Y-53.975
X103.188Y-92.075
X217.487Y-53.975
X217.206Y-91.881
X255.587Y-73.025
T2
G00X79.837Y-34.409
M15
G01X79.837Y-35.009
M16
G05
G00X79.837Y-38.359
M15
G01X79.837Y-39.459
M16
G05
G00X88.438Y-34.409
M15
G01X88.438Y-35.009
M16
G05
G00X88.438Y-38.359
M15
G01X88.438Y-39.459
M16
G05
T0
M30
