G04 #@! TF.GenerationSoftware,KiCad,Pcbnew,(5.1.2-1)-1*
G04 #@! TF.CreationDate,2020-05-18T19:43:29-05:00*
G04 #@! TF.ProjectId,therick_THT,74686572-6963-46b5-9f54-48542e6b6963,rev?*
G04 #@! TF.SameCoordinates,Original*
G04 #@! TF.FileFunction,Legend,Top*
G04 #@! TF.FilePolarity,Positive*
%FSLAX46Y46*%
G04 Gerber Fmt 4.6, Leading zero omitted, Abs format (unit mm)*
G04 Created by KiCad (PCBNEW (5.1.2-1)-1) date 2020-05-18 19:43:29*
%MOMM*%
%LPD*%
G04 APERTURE LIST*
%ADD10C,0.150000*%
%ADD11C,0.010000*%
%ADD12C,0.381000*%
G04 APERTURE END LIST*
D10*
X149288500Y-40640000D02*
X144208500Y-40640000D01*
X149288500Y-48006000D02*
X149288500Y-40640000D01*
X144208500Y-48006000D02*
X149288500Y-48006000D01*
X144208500Y-40640000D02*
X144208500Y-48006000D01*
D11*
G36*
X246878929Y-59871428D02*
G01*
X246881883Y-61543072D01*
X246890337Y-63097105D01*
X246903677Y-64497210D01*
X246921290Y-65707067D01*
X246942564Y-66690357D01*
X246966883Y-67410760D01*
X246993636Y-67831957D01*
X247015000Y-67929645D01*
X247162057Y-67800144D01*
X247539354Y-67432063D01*
X248124923Y-66847698D01*
X248896799Y-66069348D01*
X249833016Y-65119310D01*
X250911606Y-64019882D01*
X252110604Y-62793361D01*
X253408042Y-61462045D01*
X254781956Y-60048231D01*
X254952500Y-59872461D01*
X262753929Y-51830632D01*
X266926119Y-51814244D01*
X271098309Y-51797857D01*
X261859067Y-61038431D01*
X260091316Y-62807420D01*
X258564187Y-64338443D01*
X257260940Y-65649331D01*
X256164837Y-66757913D01*
X255259138Y-67682019D01*
X254527105Y-68439478D01*
X253951999Y-69048120D01*
X253517080Y-69525775D01*
X253205610Y-69890271D01*
X253000850Y-70159440D01*
X252886061Y-70351109D01*
X252844503Y-70483109D01*
X252859438Y-70573270D01*
X252879020Y-70603564D01*
X253033989Y-70792180D01*
X253402394Y-71237760D01*
X253965841Y-71918126D01*
X254705938Y-72811099D01*
X255604289Y-73894502D01*
X256642502Y-75146157D01*
X257802182Y-76543884D01*
X259064936Y-78065507D01*
X260412370Y-79688848D01*
X261826091Y-81391727D01*
X262048137Y-81659161D01*
X263466767Y-83368415D01*
X264818951Y-84998908D01*
X266086638Y-86528793D01*
X267251776Y-87936226D01*
X268296314Y-89199360D01*
X269202200Y-90296349D01*
X269951383Y-91205346D01*
X270525810Y-91904507D01*
X270907431Y-92371985D01*
X271078194Y-92585934D01*
X271084916Y-92595456D01*
X271021949Y-92666034D01*
X270717863Y-92720196D01*
X270146768Y-92759258D01*
X269282777Y-92784539D01*
X268100001Y-92797356D01*
X267073565Y-92799619D01*
X262935357Y-92798523D01*
X255597068Y-83728190D01*
X254323599Y-82156205D01*
X253116862Y-80670585D01*
X251996232Y-79294925D01*
X250981086Y-78052819D01*
X250090798Y-76967863D01*
X249344744Y-76063651D01*
X248762299Y-75363777D01*
X248362838Y-74891836D01*
X248165738Y-74671423D01*
X248148730Y-74657857D01*
X247967746Y-74776834D01*
X247636660Y-75077818D01*
X247458805Y-75256137D01*
X246878929Y-75854417D01*
X246878929Y-92800714D01*
X240710357Y-92800714D01*
X240710357Y-51797857D01*
X246878929Y-51797857D01*
X246878929Y-59871428D01*
X246878929Y-59871428D01*
G37*
X246878929Y-59871428D02*
X246881883Y-61543072D01*
X246890337Y-63097105D01*
X246903677Y-64497210D01*
X246921290Y-65707067D01*
X246942564Y-66690357D01*
X246966883Y-67410760D01*
X246993636Y-67831957D01*
X247015000Y-67929645D01*
X247162057Y-67800144D01*
X247539354Y-67432063D01*
X248124923Y-66847698D01*
X248896799Y-66069348D01*
X249833016Y-65119310D01*
X250911606Y-64019882D01*
X252110604Y-62793361D01*
X253408042Y-61462045D01*
X254781956Y-60048231D01*
X254952500Y-59872461D01*
X262753929Y-51830632D01*
X266926119Y-51814244D01*
X271098309Y-51797857D01*
X261859067Y-61038431D01*
X260091316Y-62807420D01*
X258564187Y-64338443D01*
X257260940Y-65649331D01*
X256164837Y-66757913D01*
X255259138Y-67682019D01*
X254527105Y-68439478D01*
X253951999Y-69048120D01*
X253517080Y-69525775D01*
X253205610Y-69890271D01*
X253000850Y-70159440D01*
X252886061Y-70351109D01*
X252844503Y-70483109D01*
X252859438Y-70573270D01*
X252879020Y-70603564D01*
X253033989Y-70792180D01*
X253402394Y-71237760D01*
X253965841Y-71918126D01*
X254705938Y-72811099D01*
X255604289Y-73894502D01*
X256642502Y-75146157D01*
X257802182Y-76543884D01*
X259064936Y-78065507D01*
X260412370Y-79688848D01*
X261826091Y-81391727D01*
X262048137Y-81659161D01*
X263466767Y-83368415D01*
X264818951Y-84998908D01*
X266086638Y-86528793D01*
X267251776Y-87936226D01*
X268296314Y-89199360D01*
X269202200Y-90296349D01*
X269951383Y-91205346D01*
X270525810Y-91904507D01*
X270907431Y-92371985D01*
X271078194Y-92585934D01*
X271084916Y-92595456D01*
X271021949Y-92666034D01*
X270717863Y-92720196D01*
X270146768Y-92759258D01*
X269282777Y-92784539D01*
X268100001Y-92797356D01*
X267073565Y-92799619D01*
X262935357Y-92798523D01*
X255597068Y-83728190D01*
X254323599Y-82156205D01*
X253116862Y-80670585D01*
X251996232Y-79294925D01*
X250981086Y-78052819D01*
X250090798Y-76967863D01*
X249344744Y-76063651D01*
X248762299Y-75363777D01*
X248362838Y-74891836D01*
X248165738Y-74671423D01*
X248148730Y-74657857D01*
X247967746Y-74776834D01*
X247636660Y-75077818D01*
X247458805Y-75256137D01*
X246878929Y-75854417D01*
X246878929Y-92800714D01*
X240710357Y-92800714D01*
X240710357Y-51797857D01*
X246878929Y-51797857D01*
X246878929Y-59871428D01*
G36*
X191543214Y-92800714D02*
G01*
X185374643Y-92800714D01*
X185374643Y-51797857D01*
X191543214Y-51797857D01*
X191543214Y-92800714D01*
X191543214Y-92800714D01*
G37*
X191543214Y-92800714D02*
X185374643Y-92800714D01*
X185374643Y-51797857D01*
X191543214Y-51797857D01*
X191543214Y-92800714D01*
G36*
X157480000Y-51798368D02*
G01*
X159468920Y-51808496D01*
X161148034Y-51841475D01*
X162569932Y-51901871D01*
X163787203Y-51994249D01*
X164852438Y-52123172D01*
X165818226Y-52293207D01*
X166737157Y-52508917D01*
X167226908Y-52644405D01*
X169220046Y-53389894D01*
X170959515Y-54391749D01*
X172435426Y-55637572D01*
X173637889Y-57114960D01*
X174557016Y-58811512D01*
X175182916Y-60714828D01*
X175505700Y-62812505D01*
X175521766Y-63046156D01*
X175485329Y-65148491D01*
X175125665Y-67142798D01*
X174459534Y-68999212D01*
X173503693Y-70687868D01*
X172274904Y-72178898D01*
X170789926Y-73442438D01*
X169144209Y-74411127D01*
X168444051Y-74725047D01*
X167787792Y-74980484D01*
X167309674Y-75125505D01*
X167284566Y-75130515D01*
X166881007Y-75252169D01*
X166689877Y-75400195D01*
X166687500Y-75416142D01*
X166791311Y-75590574D01*
X167090262Y-76031838D01*
X167565626Y-76713631D01*
X168198678Y-77609653D01*
X168970693Y-78693600D01*
X169862945Y-79939172D01*
X170856708Y-81320066D01*
X171933258Y-82809980D01*
X172937744Y-84195237D01*
X179187989Y-92800714D01*
X175341673Y-92791417D01*
X171495357Y-92782119D01*
X165702821Y-84445702D01*
X164461140Y-82659461D01*
X163408538Y-81148419D01*
X162527363Y-79889566D01*
X161799964Y-78859894D01*
X161208690Y-78036394D01*
X160735888Y-77396057D01*
X160363908Y-76915874D01*
X160075098Y-76572836D01*
X159851806Y-76343933D01*
X159676380Y-76206158D01*
X159531170Y-76136501D01*
X159398524Y-76111953D01*
X159307464Y-76109286D01*
X158704643Y-76109286D01*
X158704643Y-92800714D01*
X152536072Y-92800714D01*
X152536072Y-64014047D01*
X158704643Y-64014047D01*
X158708367Y-65505646D01*
X158718957Y-66882056D01*
X158735538Y-68101229D01*
X158757238Y-69121115D01*
X158783183Y-69899667D01*
X158812498Y-70394835D01*
X158840714Y-70563125D01*
X159082684Y-70617914D01*
X159607283Y-70633276D01*
X160337033Y-70614359D01*
X161194454Y-70566313D01*
X162102068Y-70494288D01*
X162982396Y-70403432D01*
X163757958Y-70298895D01*
X164285192Y-70201276D01*
X165860441Y-69695647D01*
X167168292Y-68951237D01*
X168203684Y-67971686D01*
X168904593Y-66879521D01*
X169090144Y-66455784D01*
X169211158Y-66024714D01*
X169280741Y-65493615D01*
X169311995Y-64769793D01*
X169318214Y-63953571D01*
X169311339Y-63025644D01*
X169280520Y-62366379D01*
X169210466Y-61881686D01*
X169085887Y-61477475D01*
X168891493Y-61059654D01*
X168828205Y-60938276D01*
X168082703Y-59884015D01*
X167062284Y-59033558D01*
X165759813Y-58384032D01*
X164168159Y-57932565D01*
X162280186Y-57676283D01*
X160564286Y-57609901D01*
X158704643Y-57603571D01*
X158704643Y-64014047D01*
X152536072Y-64014047D01*
X152536072Y-51797857D01*
X157480000Y-51798368D01*
X157480000Y-51798368D01*
G37*
X157480000Y-51798368D02*
X159468920Y-51808496D01*
X161148034Y-51841475D01*
X162569932Y-51901871D01*
X163787203Y-51994249D01*
X164852438Y-52123172D01*
X165818226Y-52293207D01*
X166737157Y-52508917D01*
X167226908Y-52644405D01*
X169220046Y-53389894D01*
X170959515Y-54391749D01*
X172435426Y-55637572D01*
X173637889Y-57114960D01*
X174557016Y-58811512D01*
X175182916Y-60714828D01*
X175505700Y-62812505D01*
X175521766Y-63046156D01*
X175485329Y-65148491D01*
X175125665Y-67142798D01*
X174459534Y-68999212D01*
X173503693Y-70687868D01*
X172274904Y-72178898D01*
X170789926Y-73442438D01*
X169144209Y-74411127D01*
X168444051Y-74725047D01*
X167787792Y-74980484D01*
X167309674Y-75125505D01*
X167284566Y-75130515D01*
X166881007Y-75252169D01*
X166689877Y-75400195D01*
X166687500Y-75416142D01*
X166791311Y-75590574D01*
X167090262Y-76031838D01*
X167565626Y-76713631D01*
X168198678Y-77609653D01*
X168970693Y-78693600D01*
X169862945Y-79939172D01*
X170856708Y-81320066D01*
X171933258Y-82809980D01*
X172937744Y-84195237D01*
X179187989Y-92800714D01*
X175341673Y-92791417D01*
X171495357Y-92782119D01*
X165702821Y-84445702D01*
X164461140Y-82659461D01*
X163408538Y-81148419D01*
X162527363Y-79889566D01*
X161799964Y-78859894D01*
X161208690Y-78036394D01*
X160735888Y-77396057D01*
X160363908Y-76915874D01*
X160075098Y-76572836D01*
X159851806Y-76343933D01*
X159676380Y-76206158D01*
X159531170Y-76136501D01*
X159398524Y-76111953D01*
X159307464Y-76109286D01*
X158704643Y-76109286D01*
X158704643Y-92800714D01*
X152536072Y-92800714D01*
X152536072Y-64014047D01*
X158704643Y-64014047D01*
X158708367Y-65505646D01*
X158718957Y-66882056D01*
X158735538Y-68101229D01*
X158757238Y-69121115D01*
X158783183Y-69899667D01*
X158812498Y-70394835D01*
X158840714Y-70563125D01*
X159082684Y-70617914D01*
X159607283Y-70633276D01*
X160337033Y-70614359D01*
X161194454Y-70566313D01*
X162102068Y-70494288D01*
X162982396Y-70403432D01*
X163757958Y-70298895D01*
X164285192Y-70201276D01*
X165860441Y-69695647D01*
X167168292Y-68951237D01*
X168203684Y-67971686D01*
X168904593Y-66879521D01*
X169090144Y-66455784D01*
X169211158Y-66024714D01*
X169280741Y-65493615D01*
X169311995Y-64769793D01*
X169318214Y-63953571D01*
X169311339Y-63025644D01*
X169280520Y-62366379D01*
X169210466Y-61881686D01*
X169085887Y-61477475D01*
X168891493Y-61059654D01*
X168828205Y-60938276D01*
X168082703Y-59884015D01*
X167062284Y-59033558D01*
X165759813Y-58384032D01*
X164168159Y-57932565D01*
X162280186Y-57676283D01*
X160564286Y-57609901D01*
X158704643Y-57603571D01*
X158704643Y-64014047D01*
X152536072Y-64014047D01*
X152536072Y-51797857D01*
X157480000Y-51798368D01*
G36*
X144553214Y-57603571D02*
G01*
X128043214Y-57603571D01*
X128043214Y-67400714D01*
X144008929Y-67400714D01*
X144008929Y-73202614D01*
X136071429Y-73249878D01*
X128133929Y-73297143D01*
X128086390Y-80146071D01*
X128038851Y-86995000D01*
X144553214Y-86995000D01*
X144553214Y-92800714D01*
X121874643Y-92800714D01*
X121874643Y-51797857D01*
X144553214Y-51797857D01*
X144553214Y-57603571D01*
X144553214Y-57603571D01*
G37*
X144553214Y-57603571D02*
X128043214Y-57603571D01*
X128043214Y-67400714D01*
X144008929Y-67400714D01*
X144008929Y-73202614D01*
X136071429Y-73249878D01*
X128133929Y-73297143D01*
X128086390Y-80146071D01*
X128038851Y-86995000D01*
X144553214Y-86995000D01*
X144553214Y-92800714D01*
X121874643Y-92800714D01*
X121874643Y-51797857D01*
X144553214Y-51797857D01*
X144553214Y-57603571D01*
G36*
X88128929Y-67763571D02*
G01*
X105908929Y-67763571D01*
X105908929Y-51797857D01*
X112077500Y-51797857D01*
X112077500Y-92800714D01*
X105908929Y-92800714D01*
X105908929Y-73750714D01*
X88128929Y-73750714D01*
X88128929Y-92800714D01*
X81960357Y-92800714D01*
X81960357Y-51797857D01*
X88128929Y-51797857D01*
X88128929Y-67763571D01*
X88128929Y-67763571D01*
G37*
X88128929Y-67763571D02*
X105908929Y-67763571D01*
X105908929Y-51797857D01*
X112077500Y-51797857D01*
X112077500Y-92800714D01*
X105908929Y-92800714D01*
X105908929Y-73750714D01*
X88128929Y-73750714D01*
X88128929Y-92800714D01*
X81960357Y-92800714D01*
X81960357Y-51797857D01*
X88128929Y-51797857D01*
X88128929Y-67763571D01*
G36*
X76336072Y-57603571D02*
G01*
X67083214Y-57603571D01*
X67083214Y-92800714D01*
X60733214Y-92800714D01*
X60733214Y-57603571D01*
X51298929Y-57603571D01*
X51298929Y-51797857D01*
X76336072Y-51797857D01*
X76336072Y-57603571D01*
X76336072Y-57603571D01*
G37*
X76336072Y-57603571D02*
X67083214Y-57603571D01*
X67083214Y-92800714D01*
X60733214Y-92800714D01*
X60733214Y-57603571D01*
X51298929Y-57603571D01*
X51298929Y-51797857D01*
X76336072Y-51797857D01*
X76336072Y-57603571D01*
G36*
X224299595Y-51199986D02*
G01*
X226855646Y-51755919D01*
X227375357Y-51913559D01*
X227934427Y-52116896D01*
X228699620Y-52428197D01*
X229550431Y-52797384D01*
X230051429Y-53025637D01*
X231820357Y-53848317D01*
X231820357Y-61266908D01*
X230958572Y-60616043D01*
X228829407Y-59201255D01*
X226640374Y-58117660D01*
X224414520Y-57367484D01*
X222174895Y-56952953D01*
X219944548Y-56876292D01*
X217746529Y-57139727D01*
X215603887Y-57745482D01*
X213539672Y-58695784D01*
X213184380Y-58899949D01*
X211852620Y-59837582D01*
X210522207Y-61044887D01*
X209270344Y-62436695D01*
X208174238Y-63927841D01*
X207369718Y-65314286D01*
X206583789Y-67258891D01*
X206062395Y-69379256D01*
X205811687Y-71596379D01*
X205837817Y-73831261D01*
X206146935Y-76004900D01*
X206446753Y-77168607D01*
X207230511Y-79154148D01*
X208324288Y-81041141D01*
X209681806Y-82775948D01*
X211256784Y-84304932D01*
X213002941Y-85574454D01*
X214312500Y-86284797D01*
X215465026Y-86793710D01*
X216484115Y-87158244D01*
X217476250Y-87400393D01*
X218547916Y-87542148D01*
X219805594Y-87605504D01*
X220753214Y-87615065D01*
X222133121Y-87586868D01*
X223351537Y-87487424D01*
X224465031Y-87294453D01*
X225530170Y-86985677D01*
X226603522Y-86538817D01*
X227741653Y-85931594D01*
X229001132Y-85141729D01*
X230438526Y-84146943D01*
X231481750Y-83389656D01*
X231594979Y-83320330D01*
X231679681Y-83330341D01*
X231739989Y-83462472D01*
X231780037Y-83759505D01*
X231803960Y-84264221D01*
X231815892Y-85019403D01*
X231819965Y-86067833D01*
X231820357Y-86893925D01*
X231820357Y-90647109D01*
X230323572Y-91348291D01*
X227687045Y-92389294D01*
X224946363Y-93101038D01*
X222147833Y-93477061D01*
X219337762Y-93510899D01*
X216796126Y-93236609D01*
X214222465Y-92622764D01*
X211758677Y-91665603D01*
X209415718Y-90370923D01*
X207204546Y-88744523D01*
X205686670Y-87357857D01*
X203923345Y-85411523D01*
X202484519Y-83387462D01*
X201332032Y-81219971D01*
X200427726Y-78843350D01*
X200109652Y-77755527D01*
X199941768Y-77101090D01*
X199818964Y-76517591D01*
X199734076Y-75927316D01*
X199679941Y-75252552D01*
X199649395Y-74415583D01*
X199635274Y-73338697D01*
X199631780Y-72571428D01*
X199647493Y-70933251D01*
X199715340Y-69564903D01*
X199850688Y-68375225D01*
X200068900Y-67273057D01*
X200385341Y-66167239D01*
X200815378Y-64966613D01*
X200987689Y-64526902D01*
X201999583Y-62397171D01*
X203304655Y-60302255D01*
X204843064Y-58316207D01*
X206554966Y-56513079D01*
X208380518Y-54966926D01*
X209155714Y-54419312D01*
X211403876Y-53137193D01*
X213829808Y-52144024D01*
X216382929Y-51446762D01*
X219012655Y-51052364D01*
X221668404Y-50967787D01*
X224299595Y-51199986D01*
X224299595Y-51199986D01*
G37*
X224299595Y-51199986D02*
X226855646Y-51755919D01*
X227375357Y-51913559D01*
X227934427Y-52116896D01*
X228699620Y-52428197D01*
X229550431Y-52797384D01*
X230051429Y-53025637D01*
X231820357Y-53848317D01*
X231820357Y-61266908D01*
X230958572Y-60616043D01*
X228829407Y-59201255D01*
X226640374Y-58117660D01*
X224414520Y-57367484D01*
X222174895Y-56952953D01*
X219944548Y-56876292D01*
X217746529Y-57139727D01*
X215603887Y-57745482D01*
X213539672Y-58695784D01*
X213184380Y-58899949D01*
X211852620Y-59837582D01*
X210522207Y-61044887D01*
X209270344Y-62436695D01*
X208174238Y-63927841D01*
X207369718Y-65314286D01*
X206583789Y-67258891D01*
X206062395Y-69379256D01*
X205811687Y-71596379D01*
X205837817Y-73831261D01*
X206146935Y-76004900D01*
X206446753Y-77168607D01*
X207230511Y-79154148D01*
X208324288Y-81041141D01*
X209681806Y-82775948D01*
X211256784Y-84304932D01*
X213002941Y-85574454D01*
X214312500Y-86284797D01*
X215465026Y-86793710D01*
X216484115Y-87158244D01*
X217476250Y-87400393D01*
X218547916Y-87542148D01*
X219805594Y-87605504D01*
X220753214Y-87615065D01*
X222133121Y-87586868D01*
X223351537Y-87487424D01*
X224465031Y-87294453D01*
X225530170Y-86985677D01*
X226603522Y-86538817D01*
X227741653Y-85931594D01*
X229001132Y-85141729D01*
X230438526Y-84146943D01*
X231481750Y-83389656D01*
X231594979Y-83320330D01*
X231679681Y-83330341D01*
X231739989Y-83462472D01*
X231780037Y-83759505D01*
X231803960Y-84264221D01*
X231815892Y-85019403D01*
X231819965Y-86067833D01*
X231820357Y-86893925D01*
X231820357Y-90647109D01*
X230323572Y-91348291D01*
X227687045Y-92389294D01*
X224946363Y-93101038D01*
X222147833Y-93477061D01*
X219337762Y-93510899D01*
X216796126Y-93236609D01*
X214222465Y-92622764D01*
X211758677Y-91665603D01*
X209415718Y-90370923D01*
X207204546Y-88744523D01*
X205686670Y-87357857D01*
X203923345Y-85411523D01*
X202484519Y-83387462D01*
X201332032Y-81219971D01*
X200427726Y-78843350D01*
X200109652Y-77755527D01*
X199941768Y-77101090D01*
X199818964Y-76517591D01*
X199734076Y-75927316D01*
X199679941Y-75252552D01*
X199649395Y-74415583D01*
X199635274Y-73338697D01*
X199631780Y-72571428D01*
X199647493Y-70933251D01*
X199715340Y-69564903D01*
X199850688Y-68375225D01*
X200068900Y-67273057D01*
X200385341Y-66167239D01*
X200815378Y-64966613D01*
X200987689Y-64526902D01*
X201999583Y-62397171D01*
X203304655Y-60302255D01*
X204843064Y-58316207D01*
X206554966Y-56513079D01*
X208380518Y-54966926D01*
X209155714Y-54419312D01*
X211403876Y-53137193D01*
X213829808Y-52144024D01*
X216382929Y-51446762D01*
X219012655Y-51052364D01*
X221668404Y-50967787D01*
X224299595Y-51199986D01*
D12*
X100012500Y-40878125D02*
X102552500Y-40878125D01*
X100012500Y-38338125D02*
X100012500Y-40878125D01*
D10*
G36*
X87617865Y-44627155D02*
G01*
X87617865Y-44727155D01*
X87517865Y-44727155D01*
X87517865Y-44627155D01*
X87617865Y-44627155D01*
G37*
X87617865Y-44627155D02*
X87617865Y-44727155D01*
X87517865Y-44727155D01*
X87517865Y-44627155D01*
X87617865Y-44627155D01*
G36*
X87417865Y-44227155D02*
G01*
X87417865Y-45027155D01*
X87317865Y-45027155D01*
X87317865Y-44227155D01*
X87417865Y-44227155D01*
G37*
X87417865Y-44227155D02*
X87417865Y-45027155D01*
X87317865Y-45027155D01*
X87317865Y-44227155D01*
X87417865Y-44227155D01*
G36*
X87817865Y-44827155D02*
G01*
X87817865Y-45027155D01*
X87717865Y-45027155D01*
X87717865Y-44827155D01*
X87817865Y-44827155D01*
G37*
X87817865Y-44827155D02*
X87817865Y-45027155D01*
X87717865Y-45027155D01*
X87717865Y-44827155D01*
X87817865Y-44827155D01*
G36*
X87817865Y-44227155D02*
G01*
X87817865Y-44527155D01*
X87717865Y-44527155D01*
X87717865Y-44227155D01*
X87817865Y-44227155D01*
G37*
X87817865Y-44227155D02*
X87817865Y-44527155D01*
X87717865Y-44527155D01*
X87717865Y-44227155D01*
X87817865Y-44227155D01*
G36*
X87817865Y-44227155D02*
G01*
X87817865Y-44327155D01*
X87317865Y-44327155D01*
X87317865Y-44227155D01*
X87817865Y-44227155D01*
G37*
X87817865Y-44227155D02*
X87817865Y-44327155D01*
X87317865Y-44327155D01*
X87317865Y-44227155D01*
X87817865Y-44227155D01*
D12*
X84772500Y-68818125D02*
X84772500Y-35798125D01*
X102552500Y-68818125D02*
X84772500Y-68818125D01*
X102552500Y-35798125D02*
X102552500Y-68818125D01*
X84772500Y-35798125D02*
X102552500Y-35798125D01*
X100012500Y-38338125D02*
X102552500Y-38338125D01*
D10*
X64658875Y-42369750D02*
X63134875Y-42369750D01*
X64658875Y-45925750D02*
X64658875Y-41861750D01*
X63134875Y-45925750D02*
X64658875Y-45925750D01*
X63134875Y-41861750D02*
X63134875Y-45925750D01*
X63134875Y-45925750D02*
X63134875Y-41861750D01*
X64658875Y-41861750D02*
X63134875Y-41861750D01*
X143241920Y-63007250D02*
X141717920Y-63007250D01*
X143241920Y-66563250D02*
X143241920Y-62499250D01*
X141717920Y-66563250D02*
X143241920Y-66563250D01*
X141717920Y-62499250D02*
X141717920Y-66563250D01*
X141717920Y-66563250D02*
X141717920Y-62499250D01*
X143241920Y-62499250D02*
X141717920Y-62499250D01*
X217061600Y-43449760D02*
X215537600Y-43449760D01*
X215537600Y-47513760D02*
X215537600Y-43449760D01*
X215537600Y-43449760D02*
X215537600Y-47513760D01*
X215537600Y-47513760D02*
X217061600Y-47513760D01*
X217061600Y-47513760D02*
X217061600Y-43449760D01*
X217061600Y-43957760D02*
X215537600Y-43957760D01*
X219442880Y-43449760D02*
X217918880Y-43449760D01*
X217918880Y-47513760D02*
X217918880Y-43449760D01*
X217918880Y-43449760D02*
X217918880Y-47513760D01*
X217918880Y-47513760D02*
X219442880Y-47513760D01*
X219442880Y-47513760D02*
X219442880Y-43449760D01*
X219442880Y-43957760D02*
X217918880Y-43957760D01*
X178961120Y-100600480D02*
X177437120Y-100600480D01*
X177437120Y-104664480D02*
X177437120Y-100600480D01*
X177437120Y-100600480D02*
X177437120Y-104664480D01*
X177437120Y-104664480D02*
X178961120Y-104664480D01*
X178961120Y-104664480D02*
X178961120Y-100600480D01*
X178961120Y-101108480D02*
X177437120Y-101108480D01*
X219442880Y-62499250D02*
X217918880Y-62499250D01*
X217918880Y-66563250D02*
X217918880Y-62499250D01*
X217918880Y-62499250D02*
X217918880Y-66563250D01*
X217918880Y-66563250D02*
X219442880Y-66563250D01*
X219442880Y-66563250D02*
X219442880Y-62499250D01*
X219442880Y-63007250D02*
X217918880Y-63007250D01*
X67040960Y-41862260D02*
X65516960Y-41862260D01*
X65516960Y-45926260D02*
X65516960Y-41862260D01*
X65516960Y-41862260D02*
X65516960Y-45926260D01*
X65516960Y-45926260D02*
X67040960Y-45926260D01*
X67040960Y-45926260D02*
X67040960Y-41862260D01*
X67040960Y-42370260D02*
X65516960Y-42370260D01*
X121810160Y-43096635D02*
X120286160Y-43096635D01*
X120286160Y-47160635D02*
X120286160Y-43096635D01*
X120286160Y-43096635D02*
X120286160Y-47160635D01*
X120286160Y-47160635D02*
X121810160Y-47160635D01*
X121810160Y-47160635D02*
X121810160Y-43096635D01*
X121810160Y-43604635D02*
X120286160Y-43604635D01*
X124191440Y-43096635D02*
X122667440Y-43096635D01*
X122667440Y-47160635D02*
X122667440Y-43096635D01*
X122667440Y-43096635D02*
X122667440Y-47160635D01*
X122667440Y-47160635D02*
X124191440Y-47160635D01*
X124191440Y-47160635D02*
X124191440Y-43096635D01*
X124191440Y-43604635D02*
X122667440Y-43604635D01*
X140860640Y-43449760D02*
X139336640Y-43449760D01*
X139336640Y-47513760D02*
X139336640Y-43449760D01*
X139336640Y-43449760D02*
X139336640Y-47513760D01*
X139336640Y-47513760D02*
X140860640Y-47513760D01*
X140860640Y-47513760D02*
X140860640Y-43449760D01*
X140860640Y-43957760D02*
X139336640Y-43957760D01*
X143241920Y-43449760D02*
X141717920Y-43449760D01*
X141717920Y-47513760D02*
X141717920Y-43449760D01*
X141717920Y-43449760D02*
X141717920Y-47513760D01*
X141717920Y-47513760D02*
X143241920Y-47513760D01*
X143241920Y-47513760D02*
X143241920Y-43449760D01*
X143241920Y-43957760D02*
X141717920Y-43957760D01*
X178961120Y-43390400D02*
X177437120Y-43390400D01*
X177437120Y-47454400D02*
X177437120Y-43390400D01*
X177437120Y-43390400D02*
X177437120Y-47454400D01*
X177437120Y-47454400D02*
X178961120Y-47454400D01*
X178961120Y-47454400D02*
X178961120Y-43390400D01*
X178961120Y-43898400D02*
X177437120Y-43898400D01*
X181342400Y-43390400D02*
X179818400Y-43390400D01*
X179818400Y-47454400D02*
X179818400Y-43390400D01*
X179818400Y-43390400D02*
X179818400Y-47454400D01*
X179818400Y-47454400D02*
X181342400Y-47454400D01*
X181342400Y-47454400D02*
X181342400Y-43390400D01*
X181342400Y-43898400D02*
X179818400Y-43898400D01*
X255162080Y-43449760D02*
X253638080Y-43449760D01*
X253638080Y-47513760D02*
X253638080Y-43449760D01*
X253638080Y-43449760D02*
X253638080Y-47513760D01*
X253638080Y-47513760D02*
X255162080Y-47513760D01*
X255162080Y-47513760D02*
X255162080Y-43449760D01*
X255162080Y-43957760D02*
X253638080Y-43957760D01*
X257543360Y-43449250D02*
X256019360Y-43449250D01*
X256019360Y-47513250D02*
X256019360Y-43449250D01*
X256019360Y-43449250D02*
X256019360Y-47513250D01*
X256019360Y-47513250D02*
X257543360Y-47513250D01*
X257543360Y-47513250D02*
X257543360Y-43449250D01*
X257543360Y-43957250D02*
X256019360Y-43957250D01*
X64659680Y-62594500D02*
X63135680Y-62594500D01*
X63135680Y-66658500D02*
X63135680Y-62594500D01*
X63135680Y-62594500D02*
X63135680Y-66658500D01*
X63135680Y-66658500D02*
X64659680Y-66658500D01*
X64659680Y-66658500D02*
X64659680Y-62594500D01*
X64659680Y-63102500D02*
X63135680Y-63102500D01*
X67040960Y-62595250D02*
X65516960Y-62595250D01*
X65516960Y-66659250D02*
X65516960Y-62595250D01*
X65516960Y-62595250D02*
X65516960Y-66659250D01*
X65516960Y-66659250D02*
X67040960Y-66659250D01*
X67040960Y-66659250D02*
X67040960Y-62595250D01*
X67040960Y-63103250D02*
X65516960Y-63103250D01*
X121810160Y-62515875D02*
X120286160Y-62515875D01*
X120286160Y-66579875D02*
X120286160Y-62515875D01*
X120286160Y-62515875D02*
X120286160Y-66579875D01*
X120286160Y-66579875D02*
X121810160Y-66579875D01*
X121810160Y-66579875D02*
X121810160Y-62515875D01*
X121810160Y-63023875D02*
X120286160Y-63023875D01*
X124191440Y-62515875D02*
X122667440Y-62515875D01*
X122667440Y-66579875D02*
X122667440Y-62515875D01*
X122667440Y-62515875D02*
X122667440Y-66579875D01*
X122667440Y-66579875D02*
X124191440Y-66579875D01*
X124191440Y-66579875D02*
X124191440Y-62515875D01*
X124191440Y-63023875D02*
X122667440Y-63023875D01*
X140860640Y-62499250D02*
X139336640Y-62499250D01*
X139336640Y-66563250D02*
X139336640Y-62499250D01*
X139336640Y-62499250D02*
X139336640Y-66563250D01*
X139336640Y-66563250D02*
X140860640Y-66563250D01*
X140860640Y-66563250D02*
X140860640Y-62499250D01*
X140860640Y-63007250D02*
X139336640Y-63007250D01*
X178961120Y-62499250D02*
X177437120Y-62499250D01*
X177437120Y-66563250D02*
X177437120Y-62499250D01*
X177437120Y-62499250D02*
X177437120Y-66563250D01*
X177437120Y-66563250D02*
X178961120Y-66563250D01*
X178961120Y-66563250D02*
X178961120Y-62499250D01*
X178961120Y-63007250D02*
X177437120Y-63007250D01*
X181342400Y-62500000D02*
X179818400Y-62500000D01*
X179818400Y-66564000D02*
X179818400Y-62500000D01*
X179818400Y-62500000D02*
X179818400Y-66564000D01*
X179818400Y-66564000D02*
X181342400Y-66564000D01*
X181342400Y-66564000D02*
X181342400Y-62500000D01*
X181342400Y-63008000D02*
X179818400Y-63008000D01*
X217061600Y-62468800D02*
X215537600Y-62468800D01*
X215537600Y-66532800D02*
X215537600Y-62468800D01*
X215537600Y-62468800D02*
X215537600Y-66532800D01*
X215537600Y-66532800D02*
X217061600Y-66532800D01*
X217061600Y-66532800D02*
X217061600Y-62468800D01*
X217061600Y-62976800D02*
X215537600Y-62976800D01*
X255162080Y-62500000D02*
X253638080Y-62500000D01*
X253638080Y-66564000D02*
X253638080Y-62500000D01*
X253638080Y-62500000D02*
X253638080Y-66564000D01*
X253638080Y-66564000D02*
X255162080Y-66564000D01*
X255162080Y-66564000D02*
X255162080Y-62500000D01*
X255162080Y-63008000D02*
X253638080Y-63008000D01*
X257543360Y-62499250D02*
X256019360Y-62499250D01*
X256019360Y-66563250D02*
X256019360Y-62499250D01*
X256019360Y-62499250D02*
X256019360Y-66563250D01*
X256019360Y-66563250D02*
X257543360Y-66563250D01*
X257543360Y-66563250D02*
X257543360Y-62499250D01*
X257543360Y-63007250D02*
X256019360Y-63007250D01*
X64659680Y-81518490D02*
X63135680Y-81518490D01*
X63135680Y-85582490D02*
X63135680Y-81518490D01*
X63135680Y-81518490D02*
X63135680Y-85582490D01*
X63135680Y-85582490D02*
X64659680Y-85582490D01*
X64659680Y-85582490D02*
X64659680Y-81518490D01*
X64659680Y-82026490D02*
X63135680Y-82026490D01*
X67040960Y-81518490D02*
X65516960Y-81518490D01*
X65516960Y-85582490D02*
X65516960Y-81518490D01*
X65516960Y-81518490D02*
X65516960Y-85582490D01*
X65516960Y-85582490D02*
X67040960Y-85582490D01*
X67040960Y-85582490D02*
X67040960Y-81518490D01*
X67040960Y-82026490D02*
X65516960Y-82026490D01*
X102760160Y-81550240D02*
X101236160Y-81550240D01*
X101236160Y-85614240D02*
X101236160Y-81550240D01*
X101236160Y-81550240D02*
X101236160Y-85614240D01*
X101236160Y-85614240D02*
X102760160Y-85614240D01*
X102760160Y-85614240D02*
X102760160Y-81550240D01*
X102760160Y-82058240D02*
X101236160Y-82058240D01*
X105141440Y-81550240D02*
X103617440Y-81550240D01*
X103617440Y-85614240D02*
X103617440Y-81550240D01*
X103617440Y-81550240D02*
X103617440Y-85614240D01*
X103617440Y-85614240D02*
X105141440Y-85614240D01*
X105141440Y-85614240D02*
X105141440Y-81550240D01*
X105141440Y-82058240D02*
X103617440Y-82058240D01*
X140860640Y-81550240D02*
X139336640Y-81550240D01*
X139336640Y-85614240D02*
X139336640Y-81550240D01*
X139336640Y-81550240D02*
X139336640Y-85614240D01*
X139336640Y-85614240D02*
X140860640Y-85614240D01*
X140860640Y-85614240D02*
X140860640Y-81550240D01*
X140860640Y-82058240D02*
X139336640Y-82058240D01*
X143241920Y-81549250D02*
X141717920Y-81549250D01*
X141717920Y-85613250D02*
X141717920Y-81549250D01*
X141717920Y-81549250D02*
X141717920Y-85613250D01*
X141717920Y-85613250D02*
X143241920Y-85613250D01*
X143241920Y-85613250D02*
X143241920Y-81549250D01*
X143241920Y-82057250D02*
X141717920Y-82057250D01*
X178961120Y-81550240D02*
X177437120Y-81550240D01*
X177437120Y-85614240D02*
X177437120Y-81550240D01*
X177437120Y-81550240D02*
X177437120Y-85614240D01*
X177437120Y-85614240D02*
X178961120Y-85614240D01*
X178961120Y-85614240D02*
X178961120Y-81550240D01*
X178961120Y-82058240D02*
X177437120Y-82058240D01*
X181342400Y-81550240D02*
X179818400Y-81550240D01*
X179818400Y-85614240D02*
X179818400Y-81550240D01*
X179818400Y-81550240D02*
X179818400Y-85614240D01*
X179818400Y-85614240D02*
X181342400Y-85614240D01*
X181342400Y-85614240D02*
X181342400Y-81550240D01*
X181342400Y-82058240D02*
X179818400Y-82058240D01*
X217061600Y-81550240D02*
X215537600Y-81550240D01*
X215537600Y-85614240D02*
X215537600Y-81550240D01*
X215537600Y-81550240D02*
X215537600Y-85614240D01*
X215537600Y-85614240D02*
X217061600Y-85614240D01*
X217061600Y-85614240D02*
X217061600Y-81550240D01*
X217061600Y-82058240D02*
X215537600Y-82058240D01*
X219442880Y-81550240D02*
X217918880Y-81550240D01*
X217918880Y-85614240D02*
X217918880Y-81550240D01*
X217918880Y-81550240D02*
X217918880Y-85614240D01*
X217918880Y-85614240D02*
X219442880Y-85614240D01*
X219442880Y-85614240D02*
X219442880Y-81550240D01*
X219442880Y-82058240D02*
X217918880Y-82058240D01*
X255162080Y-81550240D02*
X253638080Y-81550240D01*
X253638080Y-85614240D02*
X253638080Y-81550240D01*
X253638080Y-81550240D02*
X253638080Y-85614240D01*
X253638080Y-85614240D02*
X255162080Y-85614240D01*
X255162080Y-85614240D02*
X255162080Y-81550240D01*
X255162080Y-82058240D02*
X253638080Y-82058240D01*
X257543360Y-81550240D02*
X256019360Y-81550240D01*
X256019360Y-85614240D02*
X256019360Y-81550240D01*
X256019360Y-81550240D02*
X256019360Y-85614240D01*
X256019360Y-85614240D02*
X257543360Y-85614240D01*
X257543360Y-85614240D02*
X257543360Y-81550240D01*
X257543360Y-82058240D02*
X256019360Y-82058240D01*
X64659680Y-100600480D02*
X63135680Y-100600480D01*
X63135680Y-104664480D02*
X63135680Y-100600480D01*
X63135680Y-100600480D02*
X63135680Y-104664480D01*
X63135680Y-104664480D02*
X64659680Y-104664480D01*
X64659680Y-104664480D02*
X64659680Y-100600480D01*
X64659680Y-101108480D02*
X63135680Y-101108480D01*
X67040960Y-100600480D02*
X65516960Y-100600480D01*
X65516960Y-104664480D02*
X65516960Y-100600480D01*
X65516960Y-100600480D02*
X65516960Y-104664480D01*
X65516960Y-104664480D02*
X67040960Y-104664480D01*
X67040960Y-104664480D02*
X67040960Y-100600480D01*
X67040960Y-101108480D02*
X65516960Y-101108480D01*
X102760160Y-100600480D02*
X101236160Y-100600480D01*
X101236160Y-104664480D02*
X101236160Y-100600480D01*
X101236160Y-100600480D02*
X101236160Y-104664480D01*
X101236160Y-104664480D02*
X102760160Y-104664480D01*
X102760160Y-104664480D02*
X102760160Y-100600480D01*
X102760160Y-101108480D02*
X101236160Y-101108480D01*
X105141440Y-100600480D02*
X103617440Y-100600480D01*
X103617440Y-104664480D02*
X103617440Y-100600480D01*
X103617440Y-100600480D02*
X103617440Y-104664480D01*
X103617440Y-104664480D02*
X105141440Y-104664480D01*
X105141440Y-104664480D02*
X105141440Y-100600480D01*
X105141440Y-101108480D02*
X103617440Y-101108480D01*
X140860640Y-100600480D02*
X139336640Y-100600480D01*
X139336640Y-104664480D02*
X139336640Y-100600480D01*
X139336640Y-100600480D02*
X139336640Y-104664480D01*
X139336640Y-104664480D02*
X140860640Y-104664480D01*
X140860640Y-104664480D02*
X140860640Y-100600480D01*
X140860640Y-101108480D02*
X139336640Y-101108480D01*
X143241920Y-100600480D02*
X141717920Y-100600480D01*
X141717920Y-104664480D02*
X141717920Y-100600480D01*
X141717920Y-100600480D02*
X141717920Y-104664480D01*
X141717920Y-104664480D02*
X143241920Y-104664480D01*
X143241920Y-104664480D02*
X143241920Y-100600480D01*
X143241920Y-101108480D02*
X141717920Y-101108480D01*
X181342400Y-100600480D02*
X179818400Y-100600480D01*
X179818400Y-104664480D02*
X179818400Y-100600480D01*
X179818400Y-100600480D02*
X179818400Y-104664480D01*
X179818400Y-104664480D02*
X181342400Y-104664480D01*
X181342400Y-104664480D02*
X181342400Y-100600480D01*
X181342400Y-101108480D02*
X179818400Y-101108480D01*
X217061600Y-100599250D02*
X215537600Y-100599250D01*
X215537600Y-104663250D02*
X215537600Y-100599250D01*
X215537600Y-100599250D02*
X215537600Y-104663250D01*
X215537600Y-104663250D02*
X217061600Y-104663250D01*
X217061600Y-104663250D02*
X217061600Y-100599250D01*
X217061600Y-101107250D02*
X215537600Y-101107250D01*
X219442880Y-100599250D02*
X217918880Y-100599250D01*
X217918880Y-104663250D02*
X217918880Y-100599250D01*
X217918880Y-100599250D02*
X217918880Y-104663250D01*
X217918880Y-104663250D02*
X219442880Y-104663250D01*
X219442880Y-104663250D02*
X219442880Y-100599250D01*
X219442880Y-101107250D02*
X217918880Y-101107250D01*
X255162080Y-100600480D02*
X253638080Y-100600480D01*
X253638080Y-104664480D02*
X253638080Y-100600480D01*
X253638080Y-100600480D02*
X253638080Y-104664480D01*
X253638080Y-104664480D02*
X255162080Y-104664480D01*
X255162080Y-104664480D02*
X255162080Y-100600480D01*
X255162080Y-101108480D02*
X253638080Y-101108480D01*
X257543360Y-100600480D02*
X256019360Y-100600480D01*
X256019360Y-104664480D02*
X256019360Y-100600480D01*
X256019360Y-100600480D02*
X256019360Y-104664480D01*
X256019360Y-104664480D02*
X257543360Y-104664480D01*
X257543360Y-104664480D02*
X257543360Y-100600480D01*
X257543360Y-101108480D02*
X256019360Y-101108480D01*
X98533023Y-42510029D02*
X98533023Y-41710029D01*
X98723500Y-41710029D01*
X98837785Y-41748125D01*
X98913976Y-41824315D01*
X98952071Y-41900505D01*
X98990166Y-42052886D01*
X98990166Y-42167172D01*
X98952071Y-42319553D01*
X98913976Y-42395744D01*
X98837785Y-42471934D01*
X98723500Y-42510029D01*
X98533023Y-42510029D01*
X99294928Y-41786220D02*
X99333023Y-41748125D01*
X99409214Y-41710029D01*
X99599690Y-41710029D01*
X99675880Y-41748125D01*
X99713976Y-41786220D01*
X99752071Y-41862410D01*
X99752071Y-41938601D01*
X99713976Y-42052886D01*
X99256833Y-42510029D01*
X99752071Y-42510029D01*
X98533023Y-52670029D02*
X98533023Y-51870029D01*
X98723500Y-51870029D01*
X98837785Y-51908125D01*
X98913976Y-51984315D01*
X98952071Y-52060505D01*
X98990166Y-52212886D01*
X98990166Y-52327172D01*
X98952071Y-52479553D01*
X98913976Y-52555744D01*
X98837785Y-52631934D01*
X98723500Y-52670029D01*
X98533023Y-52670029D01*
X99485404Y-51870029D02*
X99561595Y-51870029D01*
X99637785Y-51908125D01*
X99675880Y-51946220D01*
X99713976Y-52022410D01*
X99752071Y-52174791D01*
X99752071Y-52365267D01*
X99713976Y-52517648D01*
X99675880Y-52593839D01*
X99637785Y-52631934D01*
X99561595Y-52670029D01*
X99485404Y-52670029D01*
X99409214Y-52631934D01*
X99371119Y-52593839D01*
X99333023Y-52517648D01*
X99294928Y-52365267D01*
X99294928Y-52174791D01*
X99333023Y-52022410D01*
X99371119Y-51946220D01*
X99409214Y-51908125D01*
X99485404Y-51870029D01*
X98533023Y-50130029D02*
X98533023Y-49330029D01*
X98723500Y-49330029D01*
X98837785Y-49368125D01*
X98913976Y-49444315D01*
X98952071Y-49520505D01*
X98990166Y-49672886D01*
X98990166Y-49787172D01*
X98952071Y-49939553D01*
X98913976Y-50015744D01*
X98837785Y-50091934D01*
X98723500Y-50130029D01*
X98533023Y-50130029D01*
X99752071Y-50130029D02*
X99294928Y-50130029D01*
X99523500Y-50130029D02*
X99523500Y-49330029D01*
X99447309Y-49444315D01*
X99371119Y-49520505D01*
X99294928Y-49558601D01*
X98513976Y-46828125D02*
X98437785Y-46790029D01*
X98323500Y-46790029D01*
X98209214Y-46828125D01*
X98133023Y-46904315D01*
X98094928Y-46980505D01*
X98056833Y-47132886D01*
X98056833Y-47247172D01*
X98094928Y-47399553D01*
X98133023Y-47475744D01*
X98209214Y-47551934D01*
X98323500Y-47590029D01*
X98399690Y-47590029D01*
X98513976Y-47551934D01*
X98552071Y-47513839D01*
X98552071Y-47247172D01*
X98399690Y-47247172D01*
X98894928Y-47590029D02*
X98894928Y-46790029D01*
X99352071Y-47590029D01*
X99352071Y-46790029D01*
X99733023Y-47590029D02*
X99733023Y-46790029D01*
X99923500Y-46790029D01*
X100037785Y-46828125D01*
X100113976Y-46904315D01*
X100152071Y-46980505D01*
X100190166Y-47132886D01*
X100190166Y-47247172D01*
X100152071Y-47399553D01*
X100113976Y-47475744D01*
X100037785Y-47551934D01*
X99923500Y-47590029D01*
X99733023Y-47590029D01*
X98513976Y-44288125D02*
X98437785Y-44250029D01*
X98323500Y-44250029D01*
X98209214Y-44288125D01*
X98133023Y-44364315D01*
X98094928Y-44440505D01*
X98056833Y-44592886D01*
X98056833Y-44707172D01*
X98094928Y-44859553D01*
X98133023Y-44935744D01*
X98209214Y-45011934D01*
X98323500Y-45050029D01*
X98399690Y-45050029D01*
X98513976Y-45011934D01*
X98552071Y-44973839D01*
X98552071Y-44707172D01*
X98399690Y-44707172D01*
X98894928Y-45050029D02*
X98894928Y-44250029D01*
X99352071Y-45050029D01*
X99352071Y-44250029D01*
X99733023Y-45050029D02*
X99733023Y-44250029D01*
X99923500Y-44250029D01*
X100037785Y-44288125D01*
X100113976Y-44364315D01*
X100152071Y-44440505D01*
X100190166Y-44592886D01*
X100190166Y-44707172D01*
X100152071Y-44859553D01*
X100113976Y-44935744D01*
X100037785Y-45011934D01*
X99923500Y-45050029D01*
X99733023Y-45050029D01*
X98533023Y-55210029D02*
X98533023Y-54410029D01*
X98723500Y-54410029D01*
X98837785Y-54448125D01*
X98913976Y-54524315D01*
X98952071Y-54600505D01*
X98990166Y-54752886D01*
X98990166Y-54867172D01*
X98952071Y-55019553D01*
X98913976Y-55095744D01*
X98837785Y-55171934D01*
X98723500Y-55210029D01*
X98533023Y-55210029D01*
X99675880Y-54676696D02*
X99675880Y-55210029D01*
X99485404Y-54371934D02*
X99294928Y-54943363D01*
X99790166Y-54943363D01*
X98990166Y-57673839D02*
X98952071Y-57711934D01*
X98837785Y-57750029D01*
X98761595Y-57750029D01*
X98647309Y-57711934D01*
X98571119Y-57635744D01*
X98533023Y-57559553D01*
X98494928Y-57407172D01*
X98494928Y-57292886D01*
X98533023Y-57140505D01*
X98571119Y-57064315D01*
X98647309Y-56988125D01*
X98761595Y-56950029D01*
X98837785Y-56950029D01*
X98952071Y-56988125D01*
X98990166Y-57026220D01*
X99675880Y-56950029D02*
X99523500Y-56950029D01*
X99447309Y-56988125D01*
X99409214Y-57026220D01*
X99333023Y-57140505D01*
X99294928Y-57292886D01*
X99294928Y-57597648D01*
X99333023Y-57673839D01*
X99371119Y-57711934D01*
X99447309Y-57750029D01*
X99599690Y-57750029D01*
X99675880Y-57711934D01*
X99713976Y-57673839D01*
X99752071Y-57597648D01*
X99752071Y-57407172D01*
X99713976Y-57330982D01*
X99675880Y-57292886D01*
X99599690Y-57254791D01*
X99447309Y-57254791D01*
X99371119Y-57292886D01*
X99333023Y-57330982D01*
X99294928Y-57407172D01*
X98533023Y-60290029D02*
X98533023Y-59490029D01*
X98723500Y-59490029D01*
X98837785Y-59528125D01*
X98913976Y-59604315D01*
X98952071Y-59680505D01*
X98990166Y-59832886D01*
X98990166Y-59947172D01*
X98952071Y-60099553D01*
X98913976Y-60175744D01*
X98837785Y-60251934D01*
X98723500Y-60290029D01*
X98533023Y-60290029D01*
X99256833Y-59490029D02*
X99790166Y-59490029D01*
X99447309Y-60290029D01*
X98571119Y-62410982D02*
X98837785Y-62410982D01*
X98952071Y-62830029D02*
X98571119Y-62830029D01*
X98571119Y-62030029D01*
X98952071Y-62030029D01*
X99637785Y-62030029D02*
X99485404Y-62030029D01*
X99409214Y-62068125D01*
X99371119Y-62106220D01*
X99294928Y-62220505D01*
X99256833Y-62372886D01*
X99256833Y-62677648D01*
X99294928Y-62753839D01*
X99333023Y-62791934D01*
X99409214Y-62830029D01*
X99561595Y-62830029D01*
X99637785Y-62791934D01*
X99675880Y-62753839D01*
X99713976Y-62677648D01*
X99713976Y-62487172D01*
X99675880Y-62410982D01*
X99637785Y-62372886D01*
X99561595Y-62334791D01*
X99409214Y-62334791D01*
X99333023Y-62372886D01*
X99294928Y-62410982D01*
X99256833Y-62487172D01*
X98799690Y-64950982D02*
X98913976Y-64989077D01*
X98952071Y-65027172D01*
X98990166Y-65103363D01*
X98990166Y-65217648D01*
X98952071Y-65293839D01*
X98913976Y-65331934D01*
X98837785Y-65370029D01*
X98533023Y-65370029D01*
X98533023Y-64570029D01*
X98799690Y-64570029D01*
X98875880Y-64608125D01*
X98913976Y-64646220D01*
X98952071Y-64722410D01*
X98952071Y-64798601D01*
X98913976Y-64874791D01*
X98875880Y-64912886D01*
X98799690Y-64950982D01*
X98533023Y-64950982D01*
X99675880Y-64836696D02*
X99675880Y-65370029D01*
X99485404Y-64531934D02*
X99294928Y-65103363D01*
X99790166Y-65103363D01*
X98799690Y-67490982D02*
X98913976Y-67529077D01*
X98952071Y-67567172D01*
X98990166Y-67643363D01*
X98990166Y-67757648D01*
X98952071Y-67833839D01*
X98913976Y-67871934D01*
X98837785Y-67910029D01*
X98533023Y-67910029D01*
X98533023Y-67110029D01*
X98799690Y-67110029D01*
X98875880Y-67148125D01*
X98913976Y-67186220D01*
X98952071Y-67262410D01*
X98952071Y-67338601D01*
X98913976Y-67414791D01*
X98875880Y-67452886D01*
X98799690Y-67490982D01*
X98533023Y-67490982D01*
X99713976Y-67110029D02*
X99333023Y-67110029D01*
X99294928Y-67490982D01*
X99333023Y-67452886D01*
X99409214Y-67414791D01*
X99599690Y-67414791D01*
X99675880Y-67452886D01*
X99713976Y-67490982D01*
X99752071Y-67567172D01*
X99752071Y-67757648D01*
X99713976Y-67833839D01*
X99675880Y-67871934D01*
X99599690Y-67910029D01*
X99409214Y-67910029D01*
X99333023Y-67871934D01*
X99294928Y-67833839D01*
X87877690Y-67490982D02*
X87991976Y-67529077D01*
X88030071Y-67567172D01*
X88068166Y-67643363D01*
X88068166Y-67757648D01*
X88030071Y-67833839D01*
X87991976Y-67871934D01*
X87915785Y-67910029D01*
X87611023Y-67910029D01*
X87611023Y-67110029D01*
X87877690Y-67110029D01*
X87953880Y-67148125D01*
X87991976Y-67186220D01*
X88030071Y-67262410D01*
X88030071Y-67338601D01*
X87991976Y-67414791D01*
X87953880Y-67452886D01*
X87877690Y-67490982D01*
X87611023Y-67490982D01*
X88753880Y-67110029D02*
X88601500Y-67110029D01*
X88525309Y-67148125D01*
X88487214Y-67186220D01*
X88411023Y-67300505D01*
X88372928Y-67452886D01*
X88372928Y-67757648D01*
X88411023Y-67833839D01*
X88449119Y-67871934D01*
X88525309Y-67910029D01*
X88677690Y-67910029D01*
X88753880Y-67871934D01*
X88791976Y-67833839D01*
X88830071Y-67757648D01*
X88830071Y-67567172D01*
X88791976Y-67490982D01*
X88753880Y-67452886D01*
X88677690Y-67414791D01*
X88525309Y-67414791D01*
X88449119Y-67452886D01*
X88411023Y-67490982D01*
X88372928Y-67567172D01*
X87877690Y-62410982D02*
X87991976Y-62449077D01*
X88030071Y-62487172D01*
X88068166Y-62563363D01*
X88068166Y-62677648D01*
X88030071Y-62753839D01*
X87991976Y-62791934D01*
X87915785Y-62830029D01*
X87611023Y-62830029D01*
X87611023Y-62030029D01*
X87877690Y-62030029D01*
X87953880Y-62068125D01*
X87991976Y-62106220D01*
X88030071Y-62182410D01*
X88030071Y-62258601D01*
X87991976Y-62334791D01*
X87953880Y-62372886D01*
X87877690Y-62410982D01*
X87611023Y-62410982D01*
X88334833Y-62030029D02*
X88830071Y-62030029D01*
X88563404Y-62334791D01*
X88677690Y-62334791D01*
X88753880Y-62372886D01*
X88791976Y-62410982D01*
X88830071Y-62487172D01*
X88830071Y-62677648D01*
X88791976Y-62753839D01*
X88753880Y-62791934D01*
X88677690Y-62830029D01*
X88449119Y-62830029D01*
X88372928Y-62791934D01*
X88334833Y-62753839D01*
X87877690Y-59870982D02*
X87991976Y-59909077D01*
X88030071Y-59947172D01*
X88068166Y-60023363D01*
X88068166Y-60137648D01*
X88030071Y-60213839D01*
X87991976Y-60251934D01*
X87915785Y-60290029D01*
X87611023Y-60290029D01*
X87611023Y-59490029D01*
X87877690Y-59490029D01*
X87953880Y-59528125D01*
X87991976Y-59566220D01*
X88030071Y-59642410D01*
X88030071Y-59718601D01*
X87991976Y-59794791D01*
X87953880Y-59832886D01*
X87877690Y-59870982D01*
X87611023Y-59870982D01*
X88830071Y-60290029D02*
X88372928Y-60290029D01*
X88601500Y-60290029D02*
X88601500Y-59490029D01*
X88525309Y-59604315D01*
X88449119Y-59680505D01*
X88372928Y-59718601D01*
X87934833Y-49710982D02*
X87668166Y-49710982D01*
X87668166Y-50130029D02*
X87668166Y-49330029D01*
X88049119Y-49330029D01*
X88696738Y-49596696D02*
X88696738Y-50130029D01*
X88506261Y-49291934D02*
X88315785Y-49863363D01*
X88811023Y-49863363D01*
X87134833Y-46790029D02*
X87401500Y-47590029D01*
X87668166Y-46790029D01*
X88391976Y-47513839D02*
X88353880Y-47551934D01*
X88239595Y-47590029D01*
X88163404Y-47590029D01*
X88049119Y-47551934D01*
X87972928Y-47475744D01*
X87934833Y-47399553D01*
X87896738Y-47247172D01*
X87896738Y-47132886D01*
X87934833Y-46980505D01*
X87972928Y-46904315D01*
X88049119Y-46828125D01*
X88163404Y-46790029D01*
X88239595Y-46790029D01*
X88353880Y-46828125D01*
X88391976Y-46866220D01*
X89191976Y-47513839D02*
X89153880Y-47551934D01*
X89039595Y-47590029D01*
X88963404Y-47590029D01*
X88849119Y-47551934D01*
X88772928Y-47475744D01*
X88734833Y-47399553D01*
X88696738Y-47247172D01*
X88696738Y-47132886D01*
X88734833Y-46980505D01*
X88772928Y-46904315D01*
X88849119Y-46828125D01*
X88963404Y-46790029D01*
X89039595Y-46790029D01*
X89153880Y-46828125D01*
X89191976Y-46866220D01*
X87591976Y-41748125D02*
X87515785Y-41710029D01*
X87401500Y-41710029D01*
X87287214Y-41748125D01*
X87211023Y-41824315D01*
X87172928Y-41900505D01*
X87134833Y-42052886D01*
X87134833Y-42167172D01*
X87172928Y-42319553D01*
X87211023Y-42395744D01*
X87287214Y-42471934D01*
X87401500Y-42510029D01*
X87477690Y-42510029D01*
X87591976Y-42471934D01*
X87630071Y-42433839D01*
X87630071Y-42167172D01*
X87477690Y-42167172D01*
X87972928Y-42510029D02*
X87972928Y-41710029D01*
X88430071Y-42510029D01*
X88430071Y-41710029D01*
X88811023Y-42510029D02*
X88811023Y-41710029D01*
X89001500Y-41710029D01*
X89115785Y-41748125D01*
X89191976Y-41824315D01*
X89230071Y-41900505D01*
X89268166Y-42052886D01*
X89268166Y-42167172D01*
X89230071Y-42319553D01*
X89191976Y-42395744D01*
X89115785Y-42471934D01*
X89001500Y-42510029D01*
X88811023Y-42510029D01*
X87649119Y-39970029D02*
X87382452Y-39589077D01*
X87191976Y-39970029D02*
X87191976Y-39170029D01*
X87496738Y-39170029D01*
X87572928Y-39208125D01*
X87611023Y-39246220D01*
X87649119Y-39322410D01*
X87649119Y-39436696D01*
X87611023Y-39512886D01*
X87572928Y-39550982D01*
X87496738Y-39589077D01*
X87191976Y-39589077D01*
X87953880Y-39741458D02*
X88334833Y-39741458D01*
X87877690Y-39970029D02*
X88144357Y-39170029D01*
X88411023Y-39970029D01*
X88601500Y-39170029D02*
X88791976Y-39970029D01*
X88944357Y-39398601D01*
X89096738Y-39970029D01*
X89287214Y-39170029D01*
X87934833Y-52250982D02*
X87668166Y-52250982D01*
X87668166Y-52670029D02*
X87668166Y-51870029D01*
X88049119Y-51870029D01*
X88734833Y-51870029D02*
X88353880Y-51870029D01*
X88315785Y-52250982D01*
X88353880Y-52212886D01*
X88430071Y-52174791D01*
X88620547Y-52174791D01*
X88696738Y-52212886D01*
X88734833Y-52250982D01*
X88772928Y-52327172D01*
X88772928Y-52517648D01*
X88734833Y-52593839D01*
X88696738Y-52631934D01*
X88620547Y-52670029D01*
X88430071Y-52670029D01*
X88353880Y-52631934D01*
X88315785Y-52593839D01*
X87934833Y-54790982D02*
X87668166Y-54790982D01*
X87668166Y-55210029D02*
X87668166Y-54410029D01*
X88049119Y-54410029D01*
X88696738Y-54410029D02*
X88544357Y-54410029D01*
X88468166Y-54448125D01*
X88430071Y-54486220D01*
X88353880Y-54600505D01*
X88315785Y-54752886D01*
X88315785Y-55057648D01*
X88353880Y-55133839D01*
X88391976Y-55171934D01*
X88468166Y-55210029D01*
X88620547Y-55210029D01*
X88696738Y-55171934D01*
X88734833Y-55133839D01*
X88772928Y-55057648D01*
X88772928Y-54867172D01*
X88734833Y-54790982D01*
X88696738Y-54752886D01*
X88620547Y-54714791D01*
X88468166Y-54714791D01*
X88391976Y-54752886D01*
X88353880Y-54790982D01*
X88315785Y-54867172D01*
X87934833Y-57330982D02*
X87668166Y-57330982D01*
X87668166Y-57750029D02*
X87668166Y-56950029D01*
X88049119Y-56950029D01*
X88277690Y-56950029D02*
X88811023Y-56950029D01*
X88468166Y-57750029D01*
X87877690Y-64950982D02*
X87991976Y-64989077D01*
X88030071Y-65027172D01*
X88068166Y-65103363D01*
X88068166Y-65217648D01*
X88030071Y-65293839D01*
X87991976Y-65331934D01*
X87915785Y-65370029D01*
X87611023Y-65370029D01*
X87611023Y-64570029D01*
X87877690Y-64570029D01*
X87953880Y-64608125D01*
X87991976Y-64646220D01*
X88030071Y-64722410D01*
X88030071Y-64798601D01*
X87991976Y-64874791D01*
X87953880Y-64912886D01*
X87877690Y-64950982D01*
X87611023Y-64950982D01*
X88372928Y-64646220D02*
X88411023Y-64608125D01*
X88487214Y-64570029D01*
X88677690Y-64570029D01*
X88753880Y-64608125D01*
X88791976Y-64646220D01*
X88830071Y-64722410D01*
X88830071Y-64798601D01*
X88791976Y-64912886D01*
X88334833Y-65370029D01*
X88830071Y-65370029D01*
X95043895Y-39170029D02*
X95501038Y-39170029D01*
X95272467Y-39970029D02*
X95272467Y-39170029D01*
X95691514Y-39170029D02*
X96224848Y-39970029D01*
X96224848Y-39170029D02*
X95691514Y-39970029D01*
X96681991Y-39170029D02*
X96758181Y-39170029D01*
X96834372Y-39208125D01*
X96872467Y-39246220D01*
X96910562Y-39322410D01*
X96948657Y-39474791D01*
X96948657Y-39665267D01*
X96910562Y-39817648D01*
X96872467Y-39893839D01*
X96834372Y-39931934D01*
X96758181Y-39970029D01*
X96681991Y-39970029D01*
X96605800Y-39931934D01*
X96567705Y-39893839D01*
X96529610Y-39817648D01*
X96491514Y-39665267D01*
X96491514Y-39474791D01*
X96529610Y-39322410D01*
X96567705Y-39246220D01*
X96605800Y-39208125D01*
X96681991Y-39170029D01*
X97862943Y-39131934D02*
X97177229Y-40160505D01*
X98129610Y-39970029D02*
X98129610Y-39170029D01*
X98320086Y-39170029D01*
X98434372Y-39208125D01*
X98510562Y-39284315D01*
X98548657Y-39360505D01*
X98586752Y-39512886D01*
X98586752Y-39627172D01*
X98548657Y-39779553D01*
X98510562Y-39855744D01*
X98434372Y-39931934D01*
X98320086Y-39970029D01*
X98129610Y-39970029D01*
X98853419Y-39170029D02*
X99348657Y-39170029D01*
X99081991Y-39474791D01*
X99196276Y-39474791D01*
X99272467Y-39512886D01*
X99310562Y-39550982D01*
X99348657Y-39627172D01*
X99348657Y-39817648D01*
X99310562Y-39893839D01*
X99272467Y-39931934D01*
X99196276Y-39970029D01*
X98967705Y-39970029D01*
X98891514Y-39931934D01*
X98853419Y-39893839D01*
X88089166Y-44991934D02*
X88203452Y-45030029D01*
X88393928Y-45030029D01*
X88470119Y-44991934D01*
X88508214Y-44953839D01*
X88546309Y-44877648D01*
X88546309Y-44801458D01*
X88508214Y-44725267D01*
X88470119Y-44687172D01*
X88393928Y-44649077D01*
X88241547Y-44610982D01*
X88165357Y-44572886D01*
X88127261Y-44534791D01*
X88089166Y-44458601D01*
X88089166Y-44382410D01*
X88127261Y-44306220D01*
X88165357Y-44268125D01*
X88241547Y-44230029D01*
X88432023Y-44230029D01*
X88546309Y-44268125D01*
X88774880Y-44230029D02*
X89232023Y-44230029D01*
X89003452Y-45030029D02*
X89003452Y-44230029D01*
X64258779Y-44410416D02*
X63458779Y-44410416D01*
X63458779Y-44243750D01*
X63496875Y-44143750D01*
X63573065Y-44077083D01*
X63649255Y-44043750D01*
X63801636Y-44010416D01*
X63915922Y-44010416D01*
X64068303Y-44043750D01*
X64144494Y-44077083D01*
X64220684Y-44143750D01*
X64258779Y-44243750D01*
X64258779Y-44410416D01*
X64258779Y-43343750D02*
X64258779Y-43743750D01*
X64258779Y-43543750D02*
X63458779Y-43543750D01*
X63573065Y-43610416D01*
X63649255Y-43677083D01*
X63687351Y-43743750D01*
X142841824Y-65381250D02*
X142041824Y-65381250D01*
X142041824Y-65214583D01*
X142079920Y-65114583D01*
X142156110Y-65047916D01*
X142232300Y-65014583D01*
X142384681Y-64981250D01*
X142498967Y-64981250D01*
X142651348Y-65014583D01*
X142727539Y-65047916D01*
X142803729Y-65114583D01*
X142841824Y-65214583D01*
X142841824Y-65381250D01*
X142841824Y-64314583D02*
X142841824Y-64714583D01*
X142841824Y-64514583D02*
X142041824Y-64514583D01*
X142156110Y-64581250D01*
X142232300Y-64647916D01*
X142270396Y-64714583D01*
X142384681Y-63914583D02*
X142346586Y-63981250D01*
X142308491Y-64014583D01*
X142232300Y-64047916D01*
X142194205Y-64047916D01*
X142118015Y-64014583D01*
X142079920Y-63981250D01*
X142041824Y-63914583D01*
X142041824Y-63781250D01*
X142079920Y-63714583D01*
X142118015Y-63681250D01*
X142194205Y-63647916D01*
X142232300Y-63647916D01*
X142308491Y-63681250D01*
X142346586Y-63714583D01*
X142384681Y-63781250D01*
X142384681Y-63914583D01*
X142422777Y-63981250D01*
X142460872Y-64014583D01*
X142537062Y-64047916D01*
X142689443Y-64047916D01*
X142765634Y-64014583D01*
X142803729Y-63981250D01*
X142841824Y-63914583D01*
X142841824Y-63781250D01*
X142803729Y-63714583D01*
X142765634Y-63681250D01*
X142689443Y-63647916D01*
X142537062Y-63647916D01*
X142460872Y-63681250D01*
X142422777Y-63714583D01*
X142384681Y-63781250D01*
X216661504Y-45998426D02*
X215861504Y-45998426D01*
X215861504Y-45831760D01*
X215899600Y-45731760D01*
X215975790Y-45665093D01*
X216051980Y-45631760D01*
X216204361Y-45598426D01*
X216318647Y-45598426D01*
X216471028Y-45631760D01*
X216547219Y-45665093D01*
X216623409Y-45731760D01*
X216661504Y-45831760D01*
X216661504Y-45998426D01*
X216661504Y-45265093D02*
X216661504Y-45131760D01*
X216623409Y-45065093D01*
X216585314Y-45031760D01*
X216471028Y-44965093D01*
X216318647Y-44931760D01*
X216013885Y-44931760D01*
X215937695Y-44965093D01*
X215899600Y-44998426D01*
X215861504Y-45065093D01*
X215861504Y-45198426D01*
X215899600Y-45265093D01*
X215937695Y-45298426D01*
X216013885Y-45331760D01*
X216204361Y-45331760D01*
X216280552Y-45298426D01*
X216318647Y-45265093D01*
X216356742Y-45198426D01*
X216356742Y-45065093D01*
X216318647Y-44998426D01*
X216280552Y-44965093D01*
X216204361Y-44931760D01*
X219042784Y-46331760D02*
X218242784Y-46331760D01*
X218242784Y-46165093D01*
X218280880Y-46065093D01*
X218357070Y-45998426D01*
X218433260Y-45965093D01*
X218585641Y-45931760D01*
X218699927Y-45931760D01*
X218852308Y-45965093D01*
X218928499Y-45998426D01*
X219004689Y-46065093D01*
X219042784Y-46165093D01*
X219042784Y-46331760D01*
X219042784Y-45265093D02*
X219042784Y-45665093D01*
X219042784Y-45465093D02*
X218242784Y-45465093D01*
X218357070Y-45531760D01*
X218433260Y-45598426D01*
X218471356Y-45665093D01*
X218242784Y-44831760D02*
X218242784Y-44765093D01*
X218280880Y-44698426D01*
X218318975Y-44665093D01*
X218395165Y-44631760D01*
X218547546Y-44598426D01*
X218738022Y-44598426D01*
X218890403Y-44631760D01*
X218966594Y-44665093D01*
X219004689Y-44698426D01*
X219042784Y-44765093D01*
X219042784Y-44831760D01*
X219004689Y-44898426D01*
X218966594Y-44931760D01*
X218890403Y-44965093D01*
X218738022Y-44998426D01*
X218547546Y-44998426D01*
X218395165Y-44965093D01*
X218318975Y-44931760D01*
X218280880Y-44898426D01*
X218242784Y-44831760D01*
X178561024Y-103482480D02*
X177761024Y-103482480D01*
X177761024Y-103315813D01*
X177799120Y-103215813D01*
X177875310Y-103149146D01*
X177951500Y-103115813D01*
X178103881Y-103082480D01*
X178218167Y-103082480D01*
X178370548Y-103115813D01*
X178446739Y-103149146D01*
X178522929Y-103215813D01*
X178561024Y-103315813D01*
X178561024Y-103482480D01*
X178027691Y-102482480D02*
X178561024Y-102482480D01*
X177722929Y-102649146D02*
X178294358Y-102815813D01*
X178294358Y-102382480D01*
X177761024Y-102182480D02*
X177761024Y-101749146D01*
X178065786Y-101982480D01*
X178065786Y-101882480D01*
X178103881Y-101815813D01*
X178141977Y-101782480D01*
X178218167Y-101749146D01*
X178408643Y-101749146D01*
X178484834Y-101782480D01*
X178522929Y-101815813D01*
X178561024Y-101882480D01*
X178561024Y-102082480D01*
X178522929Y-102149146D01*
X178484834Y-102182480D01*
X219042784Y-65381250D02*
X218242784Y-65381250D01*
X218242784Y-65214583D01*
X218280880Y-65114583D01*
X218357070Y-65047916D01*
X218433260Y-65014583D01*
X218585641Y-64981250D01*
X218699927Y-64981250D01*
X218852308Y-65014583D01*
X218928499Y-65047916D01*
X219004689Y-65114583D01*
X219042784Y-65214583D01*
X219042784Y-65381250D01*
X218318975Y-64714583D02*
X218280880Y-64681250D01*
X218242784Y-64614583D01*
X218242784Y-64447916D01*
X218280880Y-64381250D01*
X218318975Y-64347916D01*
X218395165Y-64314583D01*
X218471356Y-64314583D01*
X218585641Y-64347916D01*
X219042784Y-64747916D01*
X219042784Y-64314583D01*
X218318975Y-64047916D02*
X218280880Y-64014583D01*
X218242784Y-63947916D01*
X218242784Y-63781250D01*
X218280880Y-63714583D01*
X218318975Y-63681250D01*
X218395165Y-63647916D01*
X218471356Y-63647916D01*
X218585641Y-63681250D01*
X219042784Y-64081250D01*
X219042784Y-63647916D01*
X66640864Y-44410926D02*
X65840864Y-44410926D01*
X65840864Y-44244260D01*
X65878960Y-44144260D01*
X65955150Y-44077593D01*
X66031340Y-44044260D01*
X66183721Y-44010926D01*
X66298007Y-44010926D01*
X66450388Y-44044260D01*
X66526579Y-44077593D01*
X66602769Y-44144260D01*
X66640864Y-44244260D01*
X66640864Y-44410926D01*
X65917055Y-43744260D02*
X65878960Y-43710926D01*
X65840864Y-43644260D01*
X65840864Y-43477593D01*
X65878960Y-43410926D01*
X65917055Y-43377593D01*
X65993245Y-43344260D01*
X66069436Y-43344260D01*
X66183721Y-43377593D01*
X66640864Y-43777593D01*
X66640864Y-43344260D01*
X121410064Y-45645301D02*
X120610064Y-45645301D01*
X120610064Y-45478635D01*
X120648160Y-45378635D01*
X120724350Y-45311968D01*
X120800540Y-45278635D01*
X120952921Y-45245301D01*
X121067207Y-45245301D01*
X121219588Y-45278635D01*
X121295779Y-45311968D01*
X121371969Y-45378635D01*
X121410064Y-45478635D01*
X121410064Y-45645301D01*
X120610064Y-45011968D02*
X120610064Y-44578635D01*
X120914826Y-44811968D01*
X120914826Y-44711968D01*
X120952921Y-44645301D01*
X120991017Y-44611968D01*
X121067207Y-44578635D01*
X121257683Y-44578635D01*
X121333874Y-44611968D01*
X121371969Y-44645301D01*
X121410064Y-44711968D01*
X121410064Y-44911968D01*
X121371969Y-44978635D01*
X121333874Y-45011968D01*
X123791344Y-45645301D02*
X122991344Y-45645301D01*
X122991344Y-45478635D01*
X123029440Y-45378635D01*
X123105630Y-45311968D01*
X123181820Y-45278635D01*
X123334201Y-45245301D01*
X123448487Y-45245301D01*
X123600868Y-45278635D01*
X123677059Y-45311968D01*
X123753249Y-45378635D01*
X123791344Y-45478635D01*
X123791344Y-45645301D01*
X123258011Y-44645301D02*
X123791344Y-44645301D01*
X122953249Y-44811968D02*
X123524678Y-44978635D01*
X123524678Y-44545301D01*
X140460544Y-45998426D02*
X139660544Y-45998426D01*
X139660544Y-45831760D01*
X139698640Y-45731760D01*
X139774830Y-45665093D01*
X139851020Y-45631760D01*
X140003401Y-45598426D01*
X140117687Y-45598426D01*
X140270068Y-45631760D01*
X140346259Y-45665093D01*
X140422449Y-45731760D01*
X140460544Y-45831760D01*
X140460544Y-45998426D01*
X139660544Y-44965093D02*
X139660544Y-45298426D01*
X140041497Y-45331760D01*
X140003401Y-45298426D01*
X139965306Y-45231760D01*
X139965306Y-45065093D01*
X140003401Y-44998426D01*
X140041497Y-44965093D01*
X140117687Y-44931760D01*
X140308163Y-44931760D01*
X140384354Y-44965093D01*
X140422449Y-44998426D01*
X140460544Y-45065093D01*
X140460544Y-45231760D01*
X140422449Y-45298426D01*
X140384354Y-45331760D01*
X142841824Y-45998426D02*
X142041824Y-45998426D01*
X142041824Y-45831760D01*
X142079920Y-45731760D01*
X142156110Y-45665093D01*
X142232300Y-45631760D01*
X142384681Y-45598426D01*
X142498967Y-45598426D01*
X142651348Y-45631760D01*
X142727539Y-45665093D01*
X142803729Y-45731760D01*
X142841824Y-45831760D01*
X142841824Y-45998426D01*
X142041824Y-44998426D02*
X142041824Y-45131760D01*
X142079920Y-45198426D01*
X142118015Y-45231760D01*
X142232300Y-45298426D01*
X142384681Y-45331760D01*
X142689443Y-45331760D01*
X142765634Y-45298426D01*
X142803729Y-45265093D01*
X142841824Y-45198426D01*
X142841824Y-45065093D01*
X142803729Y-44998426D01*
X142765634Y-44965093D01*
X142689443Y-44931760D01*
X142498967Y-44931760D01*
X142422777Y-44965093D01*
X142384681Y-44998426D01*
X142346586Y-45065093D01*
X142346586Y-45198426D01*
X142384681Y-45265093D01*
X142422777Y-45298426D01*
X142498967Y-45331760D01*
X178561024Y-45939066D02*
X177761024Y-45939066D01*
X177761024Y-45772400D01*
X177799120Y-45672400D01*
X177875310Y-45605733D01*
X177951500Y-45572400D01*
X178103881Y-45539066D01*
X178218167Y-45539066D01*
X178370548Y-45572400D01*
X178446739Y-45605733D01*
X178522929Y-45672400D01*
X178561024Y-45772400D01*
X178561024Y-45939066D01*
X177761024Y-45305733D02*
X177761024Y-44839066D01*
X178561024Y-45139066D01*
X180942304Y-45939066D02*
X180142304Y-45939066D01*
X180142304Y-45772400D01*
X180180400Y-45672400D01*
X180256590Y-45605733D01*
X180332780Y-45572400D01*
X180485161Y-45539066D01*
X180599447Y-45539066D01*
X180751828Y-45572400D01*
X180828019Y-45605733D01*
X180904209Y-45672400D01*
X180942304Y-45772400D01*
X180942304Y-45939066D01*
X180485161Y-45139066D02*
X180447066Y-45205733D01*
X180408971Y-45239066D01*
X180332780Y-45272400D01*
X180294685Y-45272400D01*
X180218495Y-45239066D01*
X180180400Y-45205733D01*
X180142304Y-45139066D01*
X180142304Y-45005733D01*
X180180400Y-44939066D01*
X180218495Y-44905733D01*
X180294685Y-44872400D01*
X180332780Y-44872400D01*
X180408971Y-44905733D01*
X180447066Y-44939066D01*
X180485161Y-45005733D01*
X180485161Y-45139066D01*
X180523257Y-45205733D01*
X180561352Y-45239066D01*
X180637542Y-45272400D01*
X180789923Y-45272400D01*
X180866114Y-45239066D01*
X180904209Y-45205733D01*
X180942304Y-45139066D01*
X180942304Y-45005733D01*
X180904209Y-44939066D01*
X180866114Y-44905733D01*
X180789923Y-44872400D01*
X180637542Y-44872400D01*
X180561352Y-44905733D01*
X180523257Y-44939066D01*
X180485161Y-45005733D01*
X254761984Y-46331760D02*
X253961984Y-46331760D01*
X253961984Y-46165093D01*
X254000080Y-46065093D01*
X254076270Y-45998426D01*
X254152460Y-45965093D01*
X254304841Y-45931760D01*
X254419127Y-45931760D01*
X254571508Y-45965093D01*
X254647699Y-45998426D01*
X254723889Y-46065093D01*
X254761984Y-46165093D01*
X254761984Y-46331760D01*
X254761984Y-45265093D02*
X254761984Y-45665093D01*
X254761984Y-45465093D02*
X253961984Y-45465093D01*
X254076270Y-45531760D01*
X254152460Y-45598426D01*
X254190556Y-45665093D01*
X254761984Y-44598426D02*
X254761984Y-44998426D01*
X254761984Y-44798426D02*
X253961984Y-44798426D01*
X254076270Y-44865093D01*
X254152460Y-44931760D01*
X254190556Y-44998426D01*
X257143264Y-46331250D02*
X256343264Y-46331250D01*
X256343264Y-46164583D01*
X256381360Y-46064583D01*
X256457550Y-45997916D01*
X256533740Y-45964583D01*
X256686121Y-45931250D01*
X256800407Y-45931250D01*
X256952788Y-45964583D01*
X257028979Y-45997916D01*
X257105169Y-46064583D01*
X257143264Y-46164583D01*
X257143264Y-46331250D01*
X257143264Y-45264583D02*
X257143264Y-45664583D01*
X257143264Y-45464583D02*
X256343264Y-45464583D01*
X256457550Y-45531250D01*
X256533740Y-45597916D01*
X256571836Y-45664583D01*
X256419455Y-44997916D02*
X256381360Y-44964583D01*
X256343264Y-44897916D01*
X256343264Y-44731250D01*
X256381360Y-44664583D01*
X256419455Y-44631250D01*
X256495645Y-44597916D01*
X256571836Y-44597916D01*
X256686121Y-44631250D01*
X257143264Y-45031250D01*
X257143264Y-44597916D01*
X64259584Y-65476500D02*
X63459584Y-65476500D01*
X63459584Y-65309833D01*
X63497680Y-65209833D01*
X63573870Y-65143166D01*
X63650060Y-65109833D01*
X63802441Y-65076500D01*
X63916727Y-65076500D01*
X64069108Y-65109833D01*
X64145299Y-65143166D01*
X64221489Y-65209833D01*
X64259584Y-65309833D01*
X64259584Y-65476500D01*
X64259584Y-64409833D02*
X64259584Y-64809833D01*
X64259584Y-64609833D02*
X63459584Y-64609833D01*
X63573870Y-64676500D01*
X63650060Y-64743166D01*
X63688156Y-64809833D01*
X63459584Y-64176500D02*
X63459584Y-63743166D01*
X63764346Y-63976500D01*
X63764346Y-63876500D01*
X63802441Y-63809833D01*
X63840537Y-63776500D01*
X63916727Y-63743166D01*
X64107203Y-63743166D01*
X64183394Y-63776500D01*
X64221489Y-63809833D01*
X64259584Y-63876500D01*
X64259584Y-64076500D01*
X64221489Y-64143166D01*
X64183394Y-64176500D01*
X66640864Y-65477250D02*
X65840864Y-65477250D01*
X65840864Y-65310583D01*
X65878960Y-65210583D01*
X65955150Y-65143916D01*
X66031340Y-65110583D01*
X66183721Y-65077250D01*
X66298007Y-65077250D01*
X66450388Y-65110583D01*
X66526579Y-65143916D01*
X66602769Y-65210583D01*
X66640864Y-65310583D01*
X66640864Y-65477250D01*
X66640864Y-64410583D02*
X66640864Y-64810583D01*
X66640864Y-64610583D02*
X65840864Y-64610583D01*
X65955150Y-64677250D01*
X66031340Y-64743916D01*
X66069436Y-64810583D01*
X66107531Y-63810583D02*
X66640864Y-63810583D01*
X65802769Y-63977250D02*
X66374198Y-64143916D01*
X66374198Y-63710583D01*
X121410064Y-65397875D02*
X120610064Y-65397875D01*
X120610064Y-65231208D01*
X120648160Y-65131208D01*
X120724350Y-65064541D01*
X120800540Y-65031208D01*
X120952921Y-64997875D01*
X121067207Y-64997875D01*
X121219588Y-65031208D01*
X121295779Y-65064541D01*
X121371969Y-65131208D01*
X121410064Y-65231208D01*
X121410064Y-65397875D01*
X121410064Y-64331208D02*
X121410064Y-64731208D01*
X121410064Y-64531208D02*
X120610064Y-64531208D01*
X120724350Y-64597875D01*
X120800540Y-64664541D01*
X120838636Y-64731208D01*
X120610064Y-63697875D02*
X120610064Y-64031208D01*
X120991017Y-64064541D01*
X120952921Y-64031208D01*
X120914826Y-63964541D01*
X120914826Y-63797875D01*
X120952921Y-63731208D01*
X120991017Y-63697875D01*
X121067207Y-63664541D01*
X121257683Y-63664541D01*
X121333874Y-63697875D01*
X121371969Y-63731208D01*
X121410064Y-63797875D01*
X121410064Y-63964541D01*
X121371969Y-64031208D01*
X121333874Y-64064541D01*
X123791344Y-65397875D02*
X122991344Y-65397875D01*
X122991344Y-65231208D01*
X123029440Y-65131208D01*
X123105630Y-65064541D01*
X123181820Y-65031208D01*
X123334201Y-64997875D01*
X123448487Y-64997875D01*
X123600868Y-65031208D01*
X123677059Y-65064541D01*
X123753249Y-65131208D01*
X123791344Y-65231208D01*
X123791344Y-65397875D01*
X123791344Y-64331208D02*
X123791344Y-64731208D01*
X123791344Y-64531208D02*
X122991344Y-64531208D01*
X123105630Y-64597875D01*
X123181820Y-64664541D01*
X123219916Y-64731208D01*
X122991344Y-63731208D02*
X122991344Y-63864541D01*
X123029440Y-63931208D01*
X123067535Y-63964541D01*
X123181820Y-64031208D01*
X123334201Y-64064541D01*
X123638963Y-64064541D01*
X123715154Y-64031208D01*
X123753249Y-63997875D01*
X123791344Y-63931208D01*
X123791344Y-63797875D01*
X123753249Y-63731208D01*
X123715154Y-63697875D01*
X123638963Y-63664541D01*
X123448487Y-63664541D01*
X123372297Y-63697875D01*
X123334201Y-63731208D01*
X123296106Y-63797875D01*
X123296106Y-63931208D01*
X123334201Y-63997875D01*
X123372297Y-64031208D01*
X123448487Y-64064541D01*
X140460544Y-65381250D02*
X139660544Y-65381250D01*
X139660544Y-65214583D01*
X139698640Y-65114583D01*
X139774830Y-65047916D01*
X139851020Y-65014583D01*
X140003401Y-64981250D01*
X140117687Y-64981250D01*
X140270068Y-65014583D01*
X140346259Y-65047916D01*
X140422449Y-65114583D01*
X140460544Y-65214583D01*
X140460544Y-65381250D01*
X140460544Y-64314583D02*
X140460544Y-64714583D01*
X140460544Y-64514583D02*
X139660544Y-64514583D01*
X139774830Y-64581250D01*
X139851020Y-64647916D01*
X139889116Y-64714583D01*
X139660544Y-64081250D02*
X139660544Y-63614583D01*
X140460544Y-63914583D01*
X178561024Y-65381250D02*
X177761024Y-65381250D01*
X177761024Y-65214583D01*
X177799120Y-65114583D01*
X177875310Y-65047916D01*
X177951500Y-65014583D01*
X178103881Y-64981250D01*
X178218167Y-64981250D01*
X178370548Y-65014583D01*
X178446739Y-65047916D01*
X178522929Y-65114583D01*
X178561024Y-65214583D01*
X178561024Y-65381250D01*
X178561024Y-64314583D02*
X178561024Y-64714583D01*
X178561024Y-64514583D02*
X177761024Y-64514583D01*
X177875310Y-64581250D01*
X177951500Y-64647916D01*
X177989596Y-64714583D01*
X178561024Y-63981250D02*
X178561024Y-63847916D01*
X178522929Y-63781250D01*
X178484834Y-63747916D01*
X178370548Y-63681250D01*
X178218167Y-63647916D01*
X177913405Y-63647916D01*
X177837215Y-63681250D01*
X177799120Y-63714583D01*
X177761024Y-63781250D01*
X177761024Y-63914583D01*
X177799120Y-63981250D01*
X177837215Y-64014583D01*
X177913405Y-64047916D01*
X178103881Y-64047916D01*
X178180072Y-64014583D01*
X178218167Y-63981250D01*
X178256262Y-63914583D01*
X178256262Y-63781250D01*
X178218167Y-63714583D01*
X178180072Y-63681250D01*
X178103881Y-63647916D01*
X180942304Y-65382000D02*
X180142304Y-65382000D01*
X180142304Y-65215333D01*
X180180400Y-65115333D01*
X180256590Y-65048666D01*
X180332780Y-65015333D01*
X180485161Y-64982000D01*
X180599447Y-64982000D01*
X180751828Y-65015333D01*
X180828019Y-65048666D01*
X180904209Y-65115333D01*
X180942304Y-65215333D01*
X180942304Y-65382000D01*
X180218495Y-64715333D02*
X180180400Y-64682000D01*
X180142304Y-64615333D01*
X180142304Y-64448666D01*
X180180400Y-64382000D01*
X180218495Y-64348666D01*
X180294685Y-64315333D01*
X180370876Y-64315333D01*
X180485161Y-64348666D01*
X180942304Y-64748666D01*
X180942304Y-64315333D01*
X180142304Y-63882000D02*
X180142304Y-63815333D01*
X180180400Y-63748666D01*
X180218495Y-63715333D01*
X180294685Y-63682000D01*
X180447066Y-63648666D01*
X180637542Y-63648666D01*
X180789923Y-63682000D01*
X180866114Y-63715333D01*
X180904209Y-63748666D01*
X180942304Y-63815333D01*
X180942304Y-63882000D01*
X180904209Y-63948666D01*
X180866114Y-63982000D01*
X180789923Y-64015333D01*
X180637542Y-64048666D01*
X180447066Y-64048666D01*
X180294685Y-64015333D01*
X180218495Y-63982000D01*
X180180400Y-63948666D01*
X180142304Y-63882000D01*
X216661504Y-65350800D02*
X215861504Y-65350800D01*
X215861504Y-65184133D01*
X215899600Y-65084133D01*
X215975790Y-65017466D01*
X216051980Y-64984133D01*
X216204361Y-64950800D01*
X216318647Y-64950800D01*
X216471028Y-64984133D01*
X216547219Y-65017466D01*
X216623409Y-65084133D01*
X216661504Y-65184133D01*
X216661504Y-65350800D01*
X215937695Y-64684133D02*
X215899600Y-64650800D01*
X215861504Y-64584133D01*
X215861504Y-64417466D01*
X215899600Y-64350800D01*
X215937695Y-64317466D01*
X216013885Y-64284133D01*
X216090076Y-64284133D01*
X216204361Y-64317466D01*
X216661504Y-64717466D01*
X216661504Y-64284133D01*
X216661504Y-63617466D02*
X216661504Y-64017466D01*
X216661504Y-63817466D02*
X215861504Y-63817466D01*
X215975790Y-63884133D01*
X216051980Y-63950800D01*
X216090076Y-64017466D01*
X254761984Y-65382000D02*
X253961984Y-65382000D01*
X253961984Y-65215333D01*
X254000080Y-65115333D01*
X254076270Y-65048666D01*
X254152460Y-65015333D01*
X254304841Y-64982000D01*
X254419127Y-64982000D01*
X254571508Y-65015333D01*
X254647699Y-65048666D01*
X254723889Y-65115333D01*
X254761984Y-65215333D01*
X254761984Y-65382000D01*
X254038175Y-64715333D02*
X254000080Y-64682000D01*
X253961984Y-64615333D01*
X253961984Y-64448666D01*
X254000080Y-64382000D01*
X254038175Y-64348666D01*
X254114365Y-64315333D01*
X254190556Y-64315333D01*
X254304841Y-64348666D01*
X254761984Y-64748666D01*
X254761984Y-64315333D01*
X253961984Y-64082000D02*
X253961984Y-63648666D01*
X254266746Y-63882000D01*
X254266746Y-63782000D01*
X254304841Y-63715333D01*
X254342937Y-63682000D01*
X254419127Y-63648666D01*
X254609603Y-63648666D01*
X254685794Y-63682000D01*
X254723889Y-63715333D01*
X254761984Y-63782000D01*
X254761984Y-63982000D01*
X254723889Y-64048666D01*
X254685794Y-64082000D01*
X257143264Y-65381250D02*
X256343264Y-65381250D01*
X256343264Y-65214583D01*
X256381360Y-65114583D01*
X256457550Y-65047916D01*
X256533740Y-65014583D01*
X256686121Y-64981250D01*
X256800407Y-64981250D01*
X256952788Y-65014583D01*
X257028979Y-65047916D01*
X257105169Y-65114583D01*
X257143264Y-65214583D01*
X257143264Y-65381250D01*
X256419455Y-64714583D02*
X256381360Y-64681250D01*
X256343264Y-64614583D01*
X256343264Y-64447916D01*
X256381360Y-64381250D01*
X256419455Y-64347916D01*
X256495645Y-64314583D01*
X256571836Y-64314583D01*
X256686121Y-64347916D01*
X257143264Y-64747916D01*
X257143264Y-64314583D01*
X256609931Y-63714583D02*
X257143264Y-63714583D01*
X256305169Y-63881250D02*
X256876598Y-64047916D01*
X256876598Y-63614583D01*
X64259584Y-84400490D02*
X63459584Y-84400490D01*
X63459584Y-84233823D01*
X63497680Y-84133823D01*
X63573870Y-84067156D01*
X63650060Y-84033823D01*
X63802441Y-84000490D01*
X63916727Y-84000490D01*
X64069108Y-84033823D01*
X64145299Y-84067156D01*
X64221489Y-84133823D01*
X64259584Y-84233823D01*
X64259584Y-84400490D01*
X63535775Y-83733823D02*
X63497680Y-83700490D01*
X63459584Y-83633823D01*
X63459584Y-83467156D01*
X63497680Y-83400490D01*
X63535775Y-83367156D01*
X63611965Y-83333823D01*
X63688156Y-83333823D01*
X63802441Y-83367156D01*
X64259584Y-83767156D01*
X64259584Y-83333823D01*
X63459584Y-82700490D02*
X63459584Y-83033823D01*
X63840537Y-83067156D01*
X63802441Y-83033823D01*
X63764346Y-82967156D01*
X63764346Y-82800490D01*
X63802441Y-82733823D01*
X63840537Y-82700490D01*
X63916727Y-82667156D01*
X64107203Y-82667156D01*
X64183394Y-82700490D01*
X64221489Y-82733823D01*
X64259584Y-82800490D01*
X64259584Y-82967156D01*
X64221489Y-83033823D01*
X64183394Y-83067156D01*
X66640864Y-84400490D02*
X65840864Y-84400490D01*
X65840864Y-84233823D01*
X65878960Y-84133823D01*
X65955150Y-84067156D01*
X66031340Y-84033823D01*
X66183721Y-84000490D01*
X66298007Y-84000490D01*
X66450388Y-84033823D01*
X66526579Y-84067156D01*
X66602769Y-84133823D01*
X66640864Y-84233823D01*
X66640864Y-84400490D01*
X65917055Y-83733823D02*
X65878960Y-83700490D01*
X65840864Y-83633823D01*
X65840864Y-83467156D01*
X65878960Y-83400490D01*
X65917055Y-83367156D01*
X65993245Y-83333823D01*
X66069436Y-83333823D01*
X66183721Y-83367156D01*
X66640864Y-83767156D01*
X66640864Y-83333823D01*
X65840864Y-82733823D02*
X65840864Y-82867156D01*
X65878960Y-82933823D01*
X65917055Y-82967156D01*
X66031340Y-83033823D01*
X66183721Y-83067156D01*
X66488483Y-83067156D01*
X66564674Y-83033823D01*
X66602769Y-83000490D01*
X66640864Y-82933823D01*
X66640864Y-82800490D01*
X66602769Y-82733823D01*
X66564674Y-82700490D01*
X66488483Y-82667156D01*
X66298007Y-82667156D01*
X66221817Y-82700490D01*
X66183721Y-82733823D01*
X66145626Y-82800490D01*
X66145626Y-82933823D01*
X66183721Y-83000490D01*
X66221817Y-83033823D01*
X66298007Y-83067156D01*
X102360064Y-84432240D02*
X101560064Y-84432240D01*
X101560064Y-84265573D01*
X101598160Y-84165573D01*
X101674350Y-84098906D01*
X101750540Y-84065573D01*
X101902921Y-84032240D01*
X102017207Y-84032240D01*
X102169588Y-84065573D01*
X102245779Y-84098906D01*
X102321969Y-84165573D01*
X102360064Y-84265573D01*
X102360064Y-84432240D01*
X101636255Y-83765573D02*
X101598160Y-83732240D01*
X101560064Y-83665573D01*
X101560064Y-83498906D01*
X101598160Y-83432240D01*
X101636255Y-83398906D01*
X101712445Y-83365573D01*
X101788636Y-83365573D01*
X101902921Y-83398906D01*
X102360064Y-83798906D01*
X102360064Y-83365573D01*
X101560064Y-83132240D02*
X101560064Y-82665573D01*
X102360064Y-82965573D01*
X104741344Y-84432240D02*
X103941344Y-84432240D01*
X103941344Y-84265573D01*
X103979440Y-84165573D01*
X104055630Y-84098906D01*
X104131820Y-84065573D01*
X104284201Y-84032240D01*
X104398487Y-84032240D01*
X104550868Y-84065573D01*
X104627059Y-84098906D01*
X104703249Y-84165573D01*
X104741344Y-84265573D01*
X104741344Y-84432240D01*
X104017535Y-83765573D02*
X103979440Y-83732240D01*
X103941344Y-83665573D01*
X103941344Y-83498906D01*
X103979440Y-83432240D01*
X104017535Y-83398906D01*
X104093725Y-83365573D01*
X104169916Y-83365573D01*
X104284201Y-83398906D01*
X104741344Y-83798906D01*
X104741344Y-83365573D01*
X104284201Y-82965573D02*
X104246106Y-83032240D01*
X104208011Y-83065573D01*
X104131820Y-83098906D01*
X104093725Y-83098906D01*
X104017535Y-83065573D01*
X103979440Y-83032240D01*
X103941344Y-82965573D01*
X103941344Y-82832240D01*
X103979440Y-82765573D01*
X104017535Y-82732240D01*
X104093725Y-82698906D01*
X104131820Y-82698906D01*
X104208011Y-82732240D01*
X104246106Y-82765573D01*
X104284201Y-82832240D01*
X104284201Y-82965573D01*
X104322297Y-83032240D01*
X104360392Y-83065573D01*
X104436582Y-83098906D01*
X104588963Y-83098906D01*
X104665154Y-83065573D01*
X104703249Y-83032240D01*
X104741344Y-82965573D01*
X104741344Y-82832240D01*
X104703249Y-82765573D01*
X104665154Y-82732240D01*
X104588963Y-82698906D01*
X104436582Y-82698906D01*
X104360392Y-82732240D01*
X104322297Y-82765573D01*
X104284201Y-82832240D01*
X140460544Y-84432240D02*
X139660544Y-84432240D01*
X139660544Y-84265573D01*
X139698640Y-84165573D01*
X139774830Y-84098906D01*
X139851020Y-84065573D01*
X140003401Y-84032240D01*
X140117687Y-84032240D01*
X140270068Y-84065573D01*
X140346259Y-84098906D01*
X140422449Y-84165573D01*
X140460544Y-84265573D01*
X140460544Y-84432240D01*
X139736735Y-83765573D02*
X139698640Y-83732240D01*
X139660544Y-83665573D01*
X139660544Y-83498906D01*
X139698640Y-83432240D01*
X139736735Y-83398906D01*
X139812925Y-83365573D01*
X139889116Y-83365573D01*
X140003401Y-83398906D01*
X140460544Y-83798906D01*
X140460544Y-83365573D01*
X140460544Y-83032240D02*
X140460544Y-82898906D01*
X140422449Y-82832240D01*
X140384354Y-82798906D01*
X140270068Y-82732240D01*
X140117687Y-82698906D01*
X139812925Y-82698906D01*
X139736735Y-82732240D01*
X139698640Y-82765573D01*
X139660544Y-82832240D01*
X139660544Y-82965573D01*
X139698640Y-83032240D01*
X139736735Y-83065573D01*
X139812925Y-83098906D01*
X140003401Y-83098906D01*
X140079592Y-83065573D01*
X140117687Y-83032240D01*
X140155782Y-82965573D01*
X140155782Y-82832240D01*
X140117687Y-82765573D01*
X140079592Y-82732240D01*
X140003401Y-82698906D01*
X142841824Y-84431250D02*
X142041824Y-84431250D01*
X142041824Y-84264583D01*
X142079920Y-84164583D01*
X142156110Y-84097916D01*
X142232300Y-84064583D01*
X142384681Y-84031250D01*
X142498967Y-84031250D01*
X142651348Y-84064583D01*
X142727539Y-84097916D01*
X142803729Y-84164583D01*
X142841824Y-84264583D01*
X142841824Y-84431250D01*
X142041824Y-83797916D02*
X142041824Y-83364583D01*
X142346586Y-83597916D01*
X142346586Y-83497916D01*
X142384681Y-83431250D01*
X142422777Y-83397916D01*
X142498967Y-83364583D01*
X142689443Y-83364583D01*
X142765634Y-83397916D01*
X142803729Y-83431250D01*
X142841824Y-83497916D01*
X142841824Y-83697916D01*
X142803729Y-83764583D01*
X142765634Y-83797916D01*
X142041824Y-82931250D02*
X142041824Y-82864583D01*
X142079920Y-82797916D01*
X142118015Y-82764583D01*
X142194205Y-82731250D01*
X142346586Y-82697916D01*
X142537062Y-82697916D01*
X142689443Y-82731250D01*
X142765634Y-82764583D01*
X142803729Y-82797916D01*
X142841824Y-82864583D01*
X142841824Y-82931250D01*
X142803729Y-82997916D01*
X142765634Y-83031250D01*
X142689443Y-83064583D01*
X142537062Y-83097916D01*
X142346586Y-83097916D01*
X142194205Y-83064583D01*
X142118015Y-83031250D01*
X142079920Y-82997916D01*
X142041824Y-82931250D01*
X178561024Y-84432240D02*
X177761024Y-84432240D01*
X177761024Y-84265573D01*
X177799120Y-84165573D01*
X177875310Y-84098906D01*
X177951500Y-84065573D01*
X178103881Y-84032240D01*
X178218167Y-84032240D01*
X178370548Y-84065573D01*
X178446739Y-84098906D01*
X178522929Y-84165573D01*
X178561024Y-84265573D01*
X178561024Y-84432240D01*
X177761024Y-83798906D02*
X177761024Y-83365573D01*
X178065786Y-83598906D01*
X178065786Y-83498906D01*
X178103881Y-83432240D01*
X178141977Y-83398906D01*
X178218167Y-83365573D01*
X178408643Y-83365573D01*
X178484834Y-83398906D01*
X178522929Y-83432240D01*
X178561024Y-83498906D01*
X178561024Y-83698906D01*
X178522929Y-83765573D01*
X178484834Y-83798906D01*
X178561024Y-82698906D02*
X178561024Y-83098906D01*
X178561024Y-82898906D02*
X177761024Y-82898906D01*
X177875310Y-82965573D01*
X177951500Y-83032240D01*
X177989596Y-83098906D01*
X180942304Y-84432240D02*
X180142304Y-84432240D01*
X180142304Y-84265573D01*
X180180400Y-84165573D01*
X180256590Y-84098906D01*
X180332780Y-84065573D01*
X180485161Y-84032240D01*
X180599447Y-84032240D01*
X180751828Y-84065573D01*
X180828019Y-84098906D01*
X180904209Y-84165573D01*
X180942304Y-84265573D01*
X180942304Y-84432240D01*
X180142304Y-83798906D02*
X180142304Y-83365573D01*
X180447066Y-83598906D01*
X180447066Y-83498906D01*
X180485161Y-83432240D01*
X180523257Y-83398906D01*
X180599447Y-83365573D01*
X180789923Y-83365573D01*
X180866114Y-83398906D01*
X180904209Y-83432240D01*
X180942304Y-83498906D01*
X180942304Y-83698906D01*
X180904209Y-83765573D01*
X180866114Y-83798906D01*
X180218495Y-83098906D02*
X180180400Y-83065573D01*
X180142304Y-82998906D01*
X180142304Y-82832240D01*
X180180400Y-82765573D01*
X180218495Y-82732240D01*
X180294685Y-82698906D01*
X180370876Y-82698906D01*
X180485161Y-82732240D01*
X180942304Y-83132240D01*
X180942304Y-82698906D01*
X216661504Y-84432240D02*
X215861504Y-84432240D01*
X215861504Y-84265573D01*
X215899600Y-84165573D01*
X215975790Y-84098906D01*
X216051980Y-84065573D01*
X216204361Y-84032240D01*
X216318647Y-84032240D01*
X216471028Y-84065573D01*
X216547219Y-84098906D01*
X216623409Y-84165573D01*
X216661504Y-84265573D01*
X216661504Y-84432240D01*
X215861504Y-83798906D02*
X215861504Y-83365573D01*
X216166266Y-83598906D01*
X216166266Y-83498906D01*
X216204361Y-83432240D01*
X216242457Y-83398906D01*
X216318647Y-83365573D01*
X216509123Y-83365573D01*
X216585314Y-83398906D01*
X216623409Y-83432240D01*
X216661504Y-83498906D01*
X216661504Y-83698906D01*
X216623409Y-83765573D01*
X216585314Y-83798906D01*
X215861504Y-83132240D02*
X215861504Y-82698906D01*
X216166266Y-82932240D01*
X216166266Y-82832240D01*
X216204361Y-82765573D01*
X216242457Y-82732240D01*
X216318647Y-82698906D01*
X216509123Y-82698906D01*
X216585314Y-82732240D01*
X216623409Y-82765573D01*
X216661504Y-82832240D01*
X216661504Y-83032240D01*
X216623409Y-83098906D01*
X216585314Y-83132240D01*
X219042784Y-84432240D02*
X218242784Y-84432240D01*
X218242784Y-84265573D01*
X218280880Y-84165573D01*
X218357070Y-84098906D01*
X218433260Y-84065573D01*
X218585641Y-84032240D01*
X218699927Y-84032240D01*
X218852308Y-84065573D01*
X218928499Y-84098906D01*
X219004689Y-84165573D01*
X219042784Y-84265573D01*
X219042784Y-84432240D01*
X218242784Y-83798906D02*
X218242784Y-83365573D01*
X218547546Y-83598906D01*
X218547546Y-83498906D01*
X218585641Y-83432240D01*
X218623737Y-83398906D01*
X218699927Y-83365573D01*
X218890403Y-83365573D01*
X218966594Y-83398906D01*
X219004689Y-83432240D01*
X219042784Y-83498906D01*
X219042784Y-83698906D01*
X219004689Y-83765573D01*
X218966594Y-83798906D01*
X218509451Y-82765573D02*
X219042784Y-82765573D01*
X218204689Y-82932240D02*
X218776118Y-83098906D01*
X218776118Y-82665573D01*
X254761984Y-84432240D02*
X253961984Y-84432240D01*
X253961984Y-84265573D01*
X254000080Y-84165573D01*
X254076270Y-84098906D01*
X254152460Y-84065573D01*
X254304841Y-84032240D01*
X254419127Y-84032240D01*
X254571508Y-84065573D01*
X254647699Y-84098906D01*
X254723889Y-84165573D01*
X254761984Y-84265573D01*
X254761984Y-84432240D01*
X253961984Y-83798906D02*
X253961984Y-83365573D01*
X254266746Y-83598906D01*
X254266746Y-83498906D01*
X254304841Y-83432240D01*
X254342937Y-83398906D01*
X254419127Y-83365573D01*
X254609603Y-83365573D01*
X254685794Y-83398906D01*
X254723889Y-83432240D01*
X254761984Y-83498906D01*
X254761984Y-83698906D01*
X254723889Y-83765573D01*
X254685794Y-83798906D01*
X253961984Y-82732240D02*
X253961984Y-83065573D01*
X254342937Y-83098906D01*
X254304841Y-83065573D01*
X254266746Y-82998906D01*
X254266746Y-82832240D01*
X254304841Y-82765573D01*
X254342937Y-82732240D01*
X254419127Y-82698906D01*
X254609603Y-82698906D01*
X254685794Y-82732240D01*
X254723889Y-82765573D01*
X254761984Y-82832240D01*
X254761984Y-82998906D01*
X254723889Y-83065573D01*
X254685794Y-83098906D01*
X257143264Y-84432240D02*
X256343264Y-84432240D01*
X256343264Y-84265573D01*
X256381360Y-84165573D01*
X256457550Y-84098906D01*
X256533740Y-84065573D01*
X256686121Y-84032240D01*
X256800407Y-84032240D01*
X256952788Y-84065573D01*
X257028979Y-84098906D01*
X257105169Y-84165573D01*
X257143264Y-84265573D01*
X257143264Y-84432240D01*
X256343264Y-83798906D02*
X256343264Y-83365573D01*
X256648026Y-83598906D01*
X256648026Y-83498906D01*
X256686121Y-83432240D01*
X256724217Y-83398906D01*
X256800407Y-83365573D01*
X256990883Y-83365573D01*
X257067074Y-83398906D01*
X257105169Y-83432240D01*
X257143264Y-83498906D01*
X257143264Y-83698906D01*
X257105169Y-83765573D01*
X257067074Y-83798906D01*
X256343264Y-82765573D02*
X256343264Y-82898906D01*
X256381360Y-82965573D01*
X256419455Y-82998906D01*
X256533740Y-83065573D01*
X256686121Y-83098906D01*
X256990883Y-83098906D01*
X257067074Y-83065573D01*
X257105169Y-83032240D01*
X257143264Y-82965573D01*
X257143264Y-82832240D01*
X257105169Y-82765573D01*
X257067074Y-82732240D01*
X256990883Y-82698906D01*
X256800407Y-82698906D01*
X256724217Y-82732240D01*
X256686121Y-82765573D01*
X256648026Y-82832240D01*
X256648026Y-82965573D01*
X256686121Y-83032240D01*
X256724217Y-83065573D01*
X256800407Y-83098906D01*
X64259584Y-103482480D02*
X63459584Y-103482480D01*
X63459584Y-103315813D01*
X63497680Y-103215813D01*
X63573870Y-103149146D01*
X63650060Y-103115813D01*
X63802441Y-103082480D01*
X63916727Y-103082480D01*
X64069108Y-103115813D01*
X64145299Y-103149146D01*
X64221489Y-103215813D01*
X64259584Y-103315813D01*
X64259584Y-103482480D01*
X63459584Y-102849146D02*
X63459584Y-102415813D01*
X63764346Y-102649146D01*
X63764346Y-102549146D01*
X63802441Y-102482480D01*
X63840537Y-102449146D01*
X63916727Y-102415813D01*
X64107203Y-102415813D01*
X64183394Y-102449146D01*
X64221489Y-102482480D01*
X64259584Y-102549146D01*
X64259584Y-102749146D01*
X64221489Y-102815813D01*
X64183394Y-102849146D01*
X63459584Y-102182480D02*
X63459584Y-101715813D01*
X64259584Y-102015813D01*
X66640864Y-103482480D02*
X65840864Y-103482480D01*
X65840864Y-103315813D01*
X65878960Y-103215813D01*
X65955150Y-103149146D01*
X66031340Y-103115813D01*
X66183721Y-103082480D01*
X66298007Y-103082480D01*
X66450388Y-103115813D01*
X66526579Y-103149146D01*
X66602769Y-103215813D01*
X66640864Y-103315813D01*
X66640864Y-103482480D01*
X65840864Y-102849146D02*
X65840864Y-102415813D01*
X66145626Y-102649146D01*
X66145626Y-102549146D01*
X66183721Y-102482480D01*
X66221817Y-102449146D01*
X66298007Y-102415813D01*
X66488483Y-102415813D01*
X66564674Y-102449146D01*
X66602769Y-102482480D01*
X66640864Y-102549146D01*
X66640864Y-102749146D01*
X66602769Y-102815813D01*
X66564674Y-102849146D01*
X66183721Y-102015813D02*
X66145626Y-102082480D01*
X66107531Y-102115813D01*
X66031340Y-102149146D01*
X65993245Y-102149146D01*
X65917055Y-102115813D01*
X65878960Y-102082480D01*
X65840864Y-102015813D01*
X65840864Y-101882480D01*
X65878960Y-101815813D01*
X65917055Y-101782480D01*
X65993245Y-101749146D01*
X66031340Y-101749146D01*
X66107531Y-101782480D01*
X66145626Y-101815813D01*
X66183721Y-101882480D01*
X66183721Y-102015813D01*
X66221817Y-102082480D01*
X66259912Y-102115813D01*
X66336102Y-102149146D01*
X66488483Y-102149146D01*
X66564674Y-102115813D01*
X66602769Y-102082480D01*
X66640864Y-102015813D01*
X66640864Y-101882480D01*
X66602769Y-101815813D01*
X66564674Y-101782480D01*
X66488483Y-101749146D01*
X66336102Y-101749146D01*
X66259912Y-101782480D01*
X66221817Y-101815813D01*
X66183721Y-101882480D01*
X102360064Y-103482480D02*
X101560064Y-103482480D01*
X101560064Y-103315813D01*
X101598160Y-103215813D01*
X101674350Y-103149146D01*
X101750540Y-103115813D01*
X101902921Y-103082480D01*
X102017207Y-103082480D01*
X102169588Y-103115813D01*
X102245779Y-103149146D01*
X102321969Y-103215813D01*
X102360064Y-103315813D01*
X102360064Y-103482480D01*
X101560064Y-102849146D02*
X101560064Y-102415813D01*
X101864826Y-102649146D01*
X101864826Y-102549146D01*
X101902921Y-102482480D01*
X101941017Y-102449146D01*
X102017207Y-102415813D01*
X102207683Y-102415813D01*
X102283874Y-102449146D01*
X102321969Y-102482480D01*
X102360064Y-102549146D01*
X102360064Y-102749146D01*
X102321969Y-102815813D01*
X102283874Y-102849146D01*
X102360064Y-102082480D02*
X102360064Y-101949146D01*
X102321969Y-101882480D01*
X102283874Y-101849146D01*
X102169588Y-101782480D01*
X102017207Y-101749146D01*
X101712445Y-101749146D01*
X101636255Y-101782480D01*
X101598160Y-101815813D01*
X101560064Y-101882480D01*
X101560064Y-102015813D01*
X101598160Y-102082480D01*
X101636255Y-102115813D01*
X101712445Y-102149146D01*
X101902921Y-102149146D01*
X101979112Y-102115813D01*
X102017207Y-102082480D01*
X102055302Y-102015813D01*
X102055302Y-101882480D01*
X102017207Y-101815813D01*
X101979112Y-101782480D01*
X101902921Y-101749146D01*
X104741344Y-103482480D02*
X103941344Y-103482480D01*
X103941344Y-103315813D01*
X103979440Y-103215813D01*
X104055630Y-103149146D01*
X104131820Y-103115813D01*
X104284201Y-103082480D01*
X104398487Y-103082480D01*
X104550868Y-103115813D01*
X104627059Y-103149146D01*
X104703249Y-103215813D01*
X104741344Y-103315813D01*
X104741344Y-103482480D01*
X104208011Y-102482480D02*
X104741344Y-102482480D01*
X103903249Y-102649146D02*
X104474678Y-102815813D01*
X104474678Y-102382480D01*
X103941344Y-101982480D02*
X103941344Y-101915813D01*
X103979440Y-101849146D01*
X104017535Y-101815813D01*
X104093725Y-101782480D01*
X104246106Y-101749146D01*
X104436582Y-101749146D01*
X104588963Y-101782480D01*
X104665154Y-101815813D01*
X104703249Y-101849146D01*
X104741344Y-101915813D01*
X104741344Y-101982480D01*
X104703249Y-102049146D01*
X104665154Y-102082480D01*
X104588963Y-102115813D01*
X104436582Y-102149146D01*
X104246106Y-102149146D01*
X104093725Y-102115813D01*
X104017535Y-102082480D01*
X103979440Y-102049146D01*
X103941344Y-101982480D01*
X140460544Y-103482480D02*
X139660544Y-103482480D01*
X139660544Y-103315813D01*
X139698640Y-103215813D01*
X139774830Y-103149146D01*
X139851020Y-103115813D01*
X140003401Y-103082480D01*
X140117687Y-103082480D01*
X140270068Y-103115813D01*
X140346259Y-103149146D01*
X140422449Y-103215813D01*
X140460544Y-103315813D01*
X140460544Y-103482480D01*
X139927211Y-102482480D02*
X140460544Y-102482480D01*
X139622449Y-102649146D02*
X140193878Y-102815813D01*
X140193878Y-102382480D01*
X140460544Y-101749146D02*
X140460544Y-102149146D01*
X140460544Y-101949146D02*
X139660544Y-101949146D01*
X139774830Y-102015813D01*
X139851020Y-102082480D01*
X139889116Y-102149146D01*
X142841824Y-103482480D02*
X142041824Y-103482480D01*
X142041824Y-103315813D01*
X142079920Y-103215813D01*
X142156110Y-103149146D01*
X142232300Y-103115813D01*
X142384681Y-103082480D01*
X142498967Y-103082480D01*
X142651348Y-103115813D01*
X142727539Y-103149146D01*
X142803729Y-103215813D01*
X142841824Y-103315813D01*
X142841824Y-103482480D01*
X142308491Y-102482480D02*
X142841824Y-102482480D01*
X142003729Y-102649146D02*
X142575158Y-102815813D01*
X142575158Y-102382480D01*
X142118015Y-102149146D02*
X142079920Y-102115813D01*
X142041824Y-102049146D01*
X142041824Y-101882480D01*
X142079920Y-101815813D01*
X142118015Y-101782480D01*
X142194205Y-101749146D01*
X142270396Y-101749146D01*
X142384681Y-101782480D01*
X142841824Y-102182480D01*
X142841824Y-101749146D01*
X180942304Y-103482480D02*
X180142304Y-103482480D01*
X180142304Y-103315813D01*
X180180400Y-103215813D01*
X180256590Y-103149146D01*
X180332780Y-103115813D01*
X180485161Y-103082480D01*
X180599447Y-103082480D01*
X180751828Y-103115813D01*
X180828019Y-103149146D01*
X180904209Y-103215813D01*
X180942304Y-103315813D01*
X180942304Y-103482480D01*
X180408971Y-102482480D02*
X180942304Y-102482480D01*
X180104209Y-102649146D02*
X180675638Y-102815813D01*
X180675638Y-102382480D01*
X180408971Y-101815813D02*
X180942304Y-101815813D01*
X180104209Y-101982480D02*
X180675638Y-102149146D01*
X180675638Y-101715813D01*
X216661504Y-103481250D02*
X215861504Y-103481250D01*
X215861504Y-103314583D01*
X215899600Y-103214583D01*
X215975790Y-103147916D01*
X216051980Y-103114583D01*
X216204361Y-103081250D01*
X216318647Y-103081250D01*
X216471028Y-103114583D01*
X216547219Y-103147916D01*
X216623409Y-103214583D01*
X216661504Y-103314583D01*
X216661504Y-103481250D01*
X216128171Y-102481250D02*
X216661504Y-102481250D01*
X215823409Y-102647916D02*
X216394838Y-102814583D01*
X216394838Y-102381250D01*
X215861504Y-101781250D02*
X215861504Y-102114583D01*
X216242457Y-102147916D01*
X216204361Y-102114583D01*
X216166266Y-102047916D01*
X216166266Y-101881250D01*
X216204361Y-101814583D01*
X216242457Y-101781250D01*
X216318647Y-101747916D01*
X216509123Y-101747916D01*
X216585314Y-101781250D01*
X216623409Y-101814583D01*
X216661504Y-101881250D01*
X216661504Y-102047916D01*
X216623409Y-102114583D01*
X216585314Y-102147916D01*
X219042784Y-103481250D02*
X218242784Y-103481250D01*
X218242784Y-103314583D01*
X218280880Y-103214583D01*
X218357070Y-103147916D01*
X218433260Y-103114583D01*
X218585641Y-103081250D01*
X218699927Y-103081250D01*
X218852308Y-103114583D01*
X218928499Y-103147916D01*
X219004689Y-103214583D01*
X219042784Y-103314583D01*
X219042784Y-103481250D01*
X218509451Y-102481250D02*
X219042784Y-102481250D01*
X218204689Y-102647916D02*
X218776118Y-102814583D01*
X218776118Y-102381250D01*
X218242784Y-101814583D02*
X218242784Y-101947916D01*
X218280880Y-102014583D01*
X218318975Y-102047916D01*
X218433260Y-102114583D01*
X218585641Y-102147916D01*
X218890403Y-102147916D01*
X218966594Y-102114583D01*
X219004689Y-102081250D01*
X219042784Y-102014583D01*
X219042784Y-101881250D01*
X219004689Y-101814583D01*
X218966594Y-101781250D01*
X218890403Y-101747916D01*
X218699927Y-101747916D01*
X218623737Y-101781250D01*
X218585641Y-101814583D01*
X218547546Y-101881250D01*
X218547546Y-102014583D01*
X218585641Y-102081250D01*
X218623737Y-102114583D01*
X218699927Y-102147916D01*
X254761984Y-103482480D02*
X253961984Y-103482480D01*
X253961984Y-103315813D01*
X254000080Y-103215813D01*
X254076270Y-103149146D01*
X254152460Y-103115813D01*
X254304841Y-103082480D01*
X254419127Y-103082480D01*
X254571508Y-103115813D01*
X254647699Y-103149146D01*
X254723889Y-103215813D01*
X254761984Y-103315813D01*
X254761984Y-103482480D01*
X254228651Y-102482480D02*
X254761984Y-102482480D01*
X253923889Y-102649146D02*
X254495318Y-102815813D01*
X254495318Y-102382480D01*
X253961984Y-102182480D02*
X253961984Y-101715813D01*
X254761984Y-102015813D01*
X257143264Y-103482480D02*
X256343264Y-103482480D01*
X256343264Y-103315813D01*
X256381360Y-103215813D01*
X256457550Y-103149146D01*
X256533740Y-103115813D01*
X256686121Y-103082480D01*
X256800407Y-103082480D01*
X256952788Y-103115813D01*
X257028979Y-103149146D01*
X257105169Y-103215813D01*
X257143264Y-103315813D01*
X257143264Y-103482480D01*
X256609931Y-102482480D02*
X257143264Y-102482480D01*
X256305169Y-102649146D02*
X256876598Y-102815813D01*
X256876598Y-102382480D01*
X256686121Y-102015813D02*
X256648026Y-102082480D01*
X256609931Y-102115813D01*
X256533740Y-102149146D01*
X256495645Y-102149146D01*
X256419455Y-102115813D01*
X256381360Y-102082480D01*
X256343264Y-102015813D01*
X256343264Y-101882480D01*
X256381360Y-101815813D01*
X256419455Y-101782480D01*
X256495645Y-101749146D01*
X256533740Y-101749146D01*
X256609931Y-101782480D01*
X256648026Y-101815813D01*
X256686121Y-101882480D01*
X256686121Y-102015813D01*
X256724217Y-102082480D01*
X256762312Y-102115813D01*
X256838502Y-102149146D01*
X256990883Y-102149146D01*
X257067074Y-102115813D01*
X257105169Y-102082480D01*
X257143264Y-102015813D01*
X257143264Y-101882480D01*
X257105169Y-101815813D01*
X257067074Y-101782480D01*
X256990883Y-101749146D01*
X256838502Y-101749146D01*
X256762312Y-101782480D01*
X256724217Y-101815813D01*
X256686121Y-101882480D01*
M02*
