M48
METRIC
T1C1.702
T2C3.988
%
G90
G05
T1
X145.758Y-82.563
X155.918Y-82.563
X126.708Y-63.513
X136.868Y-63.513
X260.058Y-63.513
X270.218Y-63.513
X221.958Y-63.513
X232.118Y-63.513
X221.958Y-44.463
X232.118Y-44.463
X164.808Y-63.513
X174.968Y-63.513
X107.658Y-82.563
X117.818Y-82.563
X50.508Y-101.613
X60.668Y-101.613
X126.708Y-82.563
X136.868Y-82.563
X126.708Y-44.463
X136.868Y-44.463
X145.758Y-101.613
X155.918Y-101.613
X241.008Y-82.563
X251.168Y-82.563
X202.908Y-82.563
X213.068Y-82.563
X183.858Y-82.563
X194.018Y-82.563
X202.908Y-44.463
X213.068Y-44.463
X164.808Y-82.563
X174.968Y-82.563
X88.608Y-101.613
X98.768Y-101.613
X69.558Y-82.563
X79.718Y-82.563
X260.058Y-44.463
X270.218Y-44.463
X183.858Y-44.463
X194.018Y-44.463
X221.958Y-101.613
X232.118Y-101.613
X69.558Y-63.513
X79.718Y-63.513
X50.508Y-63.513
X60.668Y-63.513
X69.558Y-101.613
X79.718Y-101.613
X221.958Y-82.563
X232.118Y-82.563
X88.608Y-63.513
X98.768Y-63.513
X50.508Y-82.563
X60.668Y-82.563
X183.858Y-63.513
X194.018Y-63.513
X88.608Y-82.563
X98.768Y-82.563
X260.058Y-101.613
X270.218Y-101.613
X202.908Y-101.613
X213.068Y-101.613
X107.658Y-44.463
X117.818Y-44.463
X69.558Y-44.463
X79.718Y-44.463
X164.808Y-44.463
X174.968Y-44.463
X107.658Y-63.513
X117.818Y-63.513
X145.758Y-44.463
X155.918Y-44.463
X260.058Y-82.563
X270.218Y-82.563
X50.508Y-44.463
X60.668Y-44.463
X145.758Y-63.513
X155.918Y-63.513
X107.658Y-101.613
X117.818Y-101.613
X241.008Y-44.463
X251.168Y-44.463
X241.008Y-101.613
X251.168Y-101.613
X183.858Y-101.613
X194.018Y-101.613
X88.608Y-44.463
X98.768Y-44.463
X164.808Y-101.613
X174.968Y-101.613
X241.008Y-63.513
X251.168Y-63.513
X202.908Y-63.513
X213.068Y-63.513
X126.708Y-101.613
X136.868Y-101.613
T2
X265.138Y-101.613
X207.988Y-101.613
X112.738Y-44.463
X74.638Y-44.463
X169.888Y-44.463
X112.738Y-63.513
X150.838Y-44.463
X265.138Y-82.563
X55.588Y-44.463
X150.838Y-63.513
X112.738Y-101.613
X246.088Y-44.463
X246.088Y-101.613
X188.938Y-101.613
X93.688Y-44.463
X169.888Y-101.613
X246.088Y-63.513
X207.988Y-63.513
X131.788Y-101.613
X150.838Y-82.563
X131.788Y-63.513
X265.138Y-63.513
X227.038Y-63.513
X227.038Y-44.463
X169.888Y-63.513
X112.738Y-82.563
X55.588Y-101.613
X131.788Y-82.563
X131.788Y-44.463
X150.838Y-101.613
X246.088Y-82.563
X207.988Y-82.563
X188.938Y-82.563
X207.988Y-44.463
X169.888Y-82.563
X93.688Y-101.613
X74.638Y-82.563
X265.138Y-44.463
X188.938Y-44.463
X227.038Y-101.613
X74.638Y-63.513
X55.588Y-63.513
X74.638Y-101.613
X227.038Y-82.563
X93.688Y-63.513
X55.588Y-82.563
X188.938Y-63.513
X93.688Y-82.563
T0
M30
