M48
METRIC
T1C0.250
T2C0.900
T3C1.092
T4C1.525
T5C2.200
%
G90
G05
T1
X108.928Y-78.101
X127.978Y-77.749
X185.128Y-77.241
T2
X140.099Y-60.531
X140.099Y-68.531
X140.099Y-98.632
X140.099Y-106.632
X256.781Y-98.632
X256.781Y-106.632
X142.48Y-98.632
X142.48Y-106.632
X178.199Y-98.632
X178.199Y-106.632
X101.998Y-79.582
X101.998Y-87.582
X180.58Y-41.422
X180.58Y-49.422
X218.681Y-79.582
X218.681Y-87.582
X218.681Y-60.531
X218.681Y-68.531
X254.4Y-41.482
X254.4Y-49.482
X254.4Y-79.582
X254.4Y-87.582
X180.58Y-98.632
X180.58Y-106.632
X178.199Y-60.531
X178.199Y-68.531
X256.781Y-41.481
X256.781Y-49.481
X66.279Y-39.894
X66.279Y-47.894
X104.379Y-79.582
X104.379Y-87.582
X256.781Y-79.582
X256.781Y-87.582
X216.3Y-41.482
X216.3Y-49.482
X180.58Y-60.532
X180.58Y-68.532
X121.048Y-41.129
X121.048Y-49.129
X218.681Y-41.482
X218.681Y-49.482
X140.099Y-79.582
X140.099Y-87.582
X63.898Y-60.627
X63.898Y-68.626
X63.898Y-98.632
X63.898Y-106.632
X216.3Y-60.501
X216.3Y-68.501
X216.3Y-98.631
X216.3Y-106.631
X123.429Y-41.129
X123.429Y-49.129
X142.48Y-79.581
X142.48Y-87.581
X66.279Y-60.627
X66.279Y-68.627
X66.279Y-98.632
X66.279Y-106.632
X254.4Y-60.532
X254.4Y-68.532
X218.681Y-98.631
X218.681Y-106.631
X101.998Y-98.632
X101.998Y-106.632
X142.48Y-60.531
X142.48Y-68.531
X256.781Y-60.531
X256.781Y-68.531
X140.099Y-41.482
X140.099Y-49.482
X178.199Y-79.582
X178.199Y-87.582
X121.048Y-60.548
X121.048Y-68.548
X63.898Y-79.55
X63.898Y-87.55
X254.4Y-98.632
X254.4Y-106.632
X142.48Y-41.482
X142.48Y-49.482
X180.58Y-79.582
X180.58Y-87.582
X123.429Y-60.548
X123.429Y-68.548
X104.379Y-98.632
X104.379Y-106.632
X66.279Y-79.55
X66.279Y-87.55
X63.897Y-39.894
X63.897Y-47.894
X178.199Y-41.422
X178.199Y-49.422
X216.3Y-79.582
X216.3Y-87.582
T3
X86.042Y-39.608
X86.042Y-42.148
X86.042Y-44.688
X86.042Y-47.228
X86.042Y-49.768
X86.042Y-52.308
X86.042Y-54.848
X86.042Y-57.388
X86.042Y-59.928
X86.042Y-62.468
X86.042Y-65.008
X86.042Y-67.548
X101.282Y-39.608
X101.282Y-42.148
X101.282Y-44.688
X101.282Y-47.228
X101.282Y-49.768
X101.282Y-52.308
X101.282Y-54.848
X101.282Y-57.388
X101.282Y-59.928
X101.282Y-62.468
X101.282Y-65.008
X101.282Y-67.548
T4
X108.928Y-66.053
X115.278Y-68.593
X147.028Y-47.003
X153.378Y-49.543
X261.328Y-85.103
X267.678Y-87.643
X51.778Y-47.003
X58.128Y-49.543
X147.028Y-66.053
X153.378Y-68.593
X108.928Y-104.153
X115.278Y-106.693
X242.278Y-47.003
X248.628Y-49.543
X242.278Y-104.153
X248.628Y-106.693
X185.128Y-104.153
X191.478Y-106.693
X89.878Y-47.003
X96.228Y-49.543
X166.078Y-104.153
X172.428Y-106.693
X242.278Y-66.053
X248.628Y-68.593
X204.178Y-66.053
X210.528Y-68.593
X127.978Y-104.153
X134.328Y-106.693
X147.028Y-85.103
X153.378Y-87.643
X127.978Y-66.053
X134.328Y-68.593
X261.328Y-66.053
X267.678Y-68.593
X223.228Y-66.053
X229.578Y-68.593
X223.228Y-47.003
X229.578Y-49.543
X166.078Y-66.053
X172.428Y-68.593
X108.928Y-85.103
X115.278Y-87.643
X51.778Y-104.153
X58.128Y-106.693
X127.978Y-85.103
X134.328Y-87.643
X127.978Y-47.003
X134.328Y-49.543
X147.028Y-104.153
X153.378Y-106.693
X242.278Y-85.103
X248.628Y-87.643
X204.178Y-85.103
X210.528Y-87.643
X185.128Y-85.103
X191.478Y-87.643
X204.178Y-47.003
X210.528Y-49.543
X166.078Y-85.103
X172.428Y-87.643
X89.878Y-104.153
X96.228Y-106.693
X70.828Y-85.103
X77.178Y-87.643
X261.328Y-47.003
X267.678Y-49.543
X185.128Y-47.003
X191.478Y-49.543
X223.228Y-104.153
X229.578Y-106.693
X70.828Y-66.053
X77.178Y-68.593
X51.778Y-66.053
X58.128Y-68.593
X70.828Y-104.153
X77.178Y-106.693
X223.228Y-85.103
X229.578Y-87.643
X89.878Y-66.053
X96.228Y-68.593
X51.778Y-85.103
X58.128Y-87.643
X185.128Y-66.053
X191.478Y-68.593
X89.878Y-85.103
X96.228Y-87.643
X261.328Y-104.153
X267.678Y-106.693
X204.178Y-104.153
X210.528Y-106.693
X108.928Y-47.003
X115.278Y-49.543
X70.828Y-47.003
X77.178Y-49.543
X166.078Y-47.003
X172.428Y-49.543
T5
X65.087Y-53.975
X65.087Y-92.869
X122.237Y-53.975
X122.237Y-92.075
X198.438Y-53.975
X255.587Y-92.075
X198.438Y-92.869
X255.587Y-53.975
T0
M30
