G04 #@! TF.GenerationSoftware,KiCad,Pcbnew,(5.1.2-1)-1*
G04 #@! TF.CreationDate,2020-05-18T19:47:47-05:00*
G04 #@! TF.ProjectId,therick_top_plate,74686572-6963-46b5-9f74-6f705f706c61,rev?*
G04 #@! TF.SameCoordinates,Original*
G04 #@! TF.FileFunction,Soldermask,Bot*
G04 #@! TF.FilePolarity,Negative*
%FSLAX46Y46*%
G04 Gerber Fmt 4.6, Leading zero omitted, Abs format (unit mm)*
G04 Created by KiCad (PCBNEW (5.1.2-1)-1) date 2020-05-18 19:47:47*
%MOMM*%
%LPD*%
G04 APERTURE LIST*
%ADD10C,0.100000*%
G04 APERTURE END LIST*
D10*
G36*
X256036403Y-89818213D02*
G01*
X256258677Y-89862426D01*
X256677432Y-90035880D01*
X257054302Y-90287696D01*
X257374804Y-90608198D01*
X257626620Y-90985068D01*
X257800074Y-91403823D01*
X257800074Y-91403824D01*
X257880922Y-91810271D01*
X257888500Y-91848371D01*
X257888500Y-92301629D01*
X257800074Y-92746177D01*
X257626620Y-93164932D01*
X257374804Y-93541802D01*
X257054302Y-93862304D01*
X256677432Y-94114120D01*
X256258677Y-94287574D01*
X256036403Y-94331787D01*
X255814130Y-94376000D01*
X255360870Y-94376000D01*
X255138597Y-94331787D01*
X254916323Y-94287574D01*
X254497568Y-94114120D01*
X254120698Y-93862304D01*
X253800196Y-93541802D01*
X253548380Y-93164932D01*
X253374926Y-92746177D01*
X253286500Y-92301629D01*
X253286500Y-91848371D01*
X253294079Y-91810271D01*
X253374926Y-91403824D01*
X253374926Y-91403823D01*
X253548380Y-90985068D01*
X253800196Y-90608198D01*
X254120698Y-90287696D01*
X254497568Y-90035880D01*
X254916323Y-89862426D01*
X255138597Y-89818213D01*
X255360870Y-89774000D01*
X255814130Y-89774000D01*
X256036403Y-89818213D01*
X256036403Y-89818213D01*
G37*
G36*
X122686403Y-89818213D02*
G01*
X122908677Y-89862426D01*
X123327432Y-90035880D01*
X123704302Y-90287696D01*
X124024804Y-90608198D01*
X124276620Y-90985068D01*
X124450074Y-91403823D01*
X124450074Y-91403824D01*
X124530922Y-91810271D01*
X124538500Y-91848371D01*
X124538500Y-92301629D01*
X124450074Y-92746177D01*
X124276620Y-93164932D01*
X124024804Y-93541802D01*
X123704302Y-93862304D01*
X123327432Y-94114120D01*
X122908677Y-94287574D01*
X122686403Y-94331787D01*
X122464130Y-94376000D01*
X122010870Y-94376000D01*
X121788597Y-94331787D01*
X121566323Y-94287574D01*
X121147568Y-94114120D01*
X120770698Y-93862304D01*
X120450196Y-93541802D01*
X120198380Y-93164932D01*
X120024926Y-92746177D01*
X119936500Y-92301629D01*
X119936500Y-91848371D01*
X119944079Y-91810271D01*
X120024926Y-91403824D01*
X120024926Y-91403823D01*
X120198380Y-90985068D01*
X120450196Y-90608198D01*
X120770698Y-90287696D01*
X121147568Y-90035880D01*
X121566323Y-89862426D01*
X121788597Y-89818213D01*
X122010870Y-89774000D01*
X122464130Y-89774000D01*
X122686403Y-89818213D01*
X122686403Y-89818213D01*
G37*
G36*
X65536403Y-89818213D02*
G01*
X65758677Y-89862426D01*
X66177432Y-90035880D01*
X66554302Y-90287696D01*
X66874804Y-90608198D01*
X67126620Y-90985068D01*
X67300074Y-91403823D01*
X67300074Y-91403824D01*
X67380922Y-91810271D01*
X67388500Y-91848371D01*
X67388500Y-92301629D01*
X67300074Y-92746177D01*
X67126620Y-93164932D01*
X66874804Y-93541802D01*
X66554302Y-93862304D01*
X66177432Y-94114120D01*
X65758677Y-94287574D01*
X65536403Y-94331787D01*
X65314130Y-94376000D01*
X64860870Y-94376000D01*
X64638597Y-94331787D01*
X64416323Y-94287574D01*
X63997568Y-94114120D01*
X63620698Y-93862304D01*
X63300196Y-93541802D01*
X63048380Y-93164932D01*
X62874926Y-92746177D01*
X62786500Y-92301629D01*
X62786500Y-91848371D01*
X62794079Y-91810271D01*
X62874926Y-91403824D01*
X62874926Y-91403823D01*
X63048380Y-90985068D01*
X63300196Y-90608198D01*
X63620698Y-90287696D01*
X63997568Y-90035880D01*
X64416323Y-89862426D01*
X64638597Y-89818213D01*
X64860870Y-89774000D01*
X65314130Y-89774000D01*
X65536403Y-89818213D01*
X65536403Y-89818213D01*
G37*
G36*
X198855671Y-89774000D02*
G01*
X199108677Y-89824326D01*
X199527432Y-89997780D01*
X199904302Y-90249596D01*
X200224804Y-90570098D01*
X200476620Y-90946968D01*
X200650074Y-91365723D01*
X200657653Y-91403824D01*
X200738500Y-91810270D01*
X200738500Y-92263530D01*
X200730921Y-92301630D01*
X200650074Y-92708077D01*
X200476620Y-93126832D01*
X200224804Y-93503702D01*
X199904302Y-93824204D01*
X199527432Y-94076020D01*
X199108677Y-94249474D01*
X198917135Y-94287574D01*
X198664130Y-94337900D01*
X198210870Y-94337900D01*
X197957865Y-94287574D01*
X197766323Y-94249474D01*
X197347568Y-94076020D01*
X196970698Y-93824204D01*
X196650196Y-93503702D01*
X196398380Y-93126832D01*
X196224926Y-92708077D01*
X196144079Y-92301630D01*
X196136500Y-92263530D01*
X196136500Y-91810270D01*
X196217347Y-91403824D01*
X196224926Y-91365723D01*
X196398380Y-90946968D01*
X196650196Y-90570098D01*
X196970698Y-90249596D01*
X197347568Y-89997780D01*
X197766323Y-89824326D01*
X198019329Y-89774000D01*
X198210870Y-89735900D01*
X198664130Y-89735900D01*
X198855671Y-89774000D01*
X198855671Y-89774000D01*
G37*
G36*
X256036403Y-51718213D02*
G01*
X256258677Y-51762426D01*
X256677432Y-51935880D01*
X257054302Y-52187696D01*
X257374804Y-52508198D01*
X257626620Y-52885068D01*
X257800074Y-53303823D01*
X257888500Y-53748371D01*
X257888500Y-54201629D01*
X257800074Y-54646177D01*
X257626620Y-55064932D01*
X257374804Y-55441802D01*
X257054302Y-55762304D01*
X256677432Y-56014120D01*
X256258677Y-56187574D01*
X256036403Y-56231787D01*
X255814130Y-56276000D01*
X255360870Y-56276000D01*
X255138597Y-56231787D01*
X254916323Y-56187574D01*
X254497568Y-56014120D01*
X254120698Y-55762304D01*
X253800196Y-55441802D01*
X253548380Y-55064932D01*
X253374926Y-54646177D01*
X253286500Y-54201629D01*
X253286500Y-53748371D01*
X253374926Y-53303823D01*
X253548380Y-52885068D01*
X253800196Y-52508198D01*
X254120698Y-52187696D01*
X254497568Y-51935880D01*
X254916323Y-51762426D01*
X255138597Y-51718213D01*
X255360870Y-51674000D01*
X255814130Y-51674000D01*
X256036403Y-51718213D01*
X256036403Y-51718213D01*
G37*
G36*
X198886403Y-51718213D02*
G01*
X199108677Y-51762426D01*
X199527432Y-51935880D01*
X199904302Y-52187696D01*
X200224804Y-52508198D01*
X200476620Y-52885068D01*
X200650074Y-53303823D01*
X200738500Y-53748371D01*
X200738500Y-54201629D01*
X200650074Y-54646177D01*
X200476620Y-55064932D01*
X200224804Y-55441802D01*
X199904302Y-55762304D01*
X199527432Y-56014120D01*
X199108677Y-56187574D01*
X198886403Y-56231787D01*
X198664130Y-56276000D01*
X198210870Y-56276000D01*
X197988597Y-56231787D01*
X197766323Y-56187574D01*
X197347568Y-56014120D01*
X196970698Y-55762304D01*
X196650196Y-55441802D01*
X196398380Y-55064932D01*
X196224926Y-54646177D01*
X196136500Y-54201629D01*
X196136500Y-53748371D01*
X196224926Y-53303823D01*
X196398380Y-52885068D01*
X196650196Y-52508198D01*
X196970698Y-52187696D01*
X197347568Y-51935880D01*
X197766323Y-51762426D01*
X197988597Y-51718213D01*
X198210870Y-51674000D01*
X198664130Y-51674000D01*
X198886403Y-51718213D01*
X198886403Y-51718213D01*
G37*
G36*
X122686403Y-51718213D02*
G01*
X122908677Y-51762426D01*
X123327432Y-51935880D01*
X123704302Y-52187696D01*
X124024804Y-52508198D01*
X124276620Y-52885068D01*
X124450074Y-53303823D01*
X124538500Y-53748371D01*
X124538500Y-54201629D01*
X124450074Y-54646177D01*
X124276620Y-55064932D01*
X124024804Y-55441802D01*
X123704302Y-55762304D01*
X123327432Y-56014120D01*
X122908677Y-56187574D01*
X122686403Y-56231787D01*
X122464130Y-56276000D01*
X122010870Y-56276000D01*
X121788597Y-56231787D01*
X121566323Y-56187574D01*
X121147568Y-56014120D01*
X120770698Y-55762304D01*
X120450196Y-55441802D01*
X120198380Y-55064932D01*
X120024926Y-54646177D01*
X119936500Y-54201629D01*
X119936500Y-53748371D01*
X120024926Y-53303823D01*
X120198380Y-52885068D01*
X120450196Y-52508198D01*
X120770698Y-52187696D01*
X121147568Y-51935880D01*
X121566323Y-51762426D01*
X121788597Y-51718213D01*
X122010870Y-51674000D01*
X122464130Y-51674000D01*
X122686403Y-51718213D01*
X122686403Y-51718213D01*
G37*
G36*
X65536403Y-51718213D02*
G01*
X65758677Y-51762426D01*
X66177432Y-51935880D01*
X66554302Y-52187696D01*
X66874804Y-52508198D01*
X67126620Y-52885068D01*
X67300074Y-53303823D01*
X67388500Y-53748371D01*
X67388500Y-54201629D01*
X67300074Y-54646177D01*
X67126620Y-55064932D01*
X66874804Y-55441802D01*
X66554302Y-55762304D01*
X66177432Y-56014120D01*
X65758677Y-56187574D01*
X65536403Y-56231787D01*
X65314130Y-56276000D01*
X64860870Y-56276000D01*
X64638597Y-56231787D01*
X64416323Y-56187574D01*
X63997568Y-56014120D01*
X63620698Y-55762304D01*
X63300196Y-55441802D01*
X63048380Y-55064932D01*
X62874926Y-54646177D01*
X62786500Y-54201629D01*
X62786500Y-53748371D01*
X62874926Y-53303823D01*
X63048380Y-52885068D01*
X63300196Y-52508198D01*
X63620698Y-52187696D01*
X63997568Y-51935880D01*
X64416323Y-51762426D01*
X64638597Y-51718213D01*
X64860870Y-51674000D01*
X65314130Y-51674000D01*
X65536403Y-51718213D01*
X65536403Y-51718213D01*
G37*
M02*
