G04 #@! TF.GenerationSoftware,KiCad,Pcbnew,(5.1.2-1)-1*
G04 #@! TF.CreationDate,2020-05-18T20:01:50-05:00*
G04 #@! TF.ProjectId,therick_bottom_plate,74686572-6963-46b5-9f62-6f74746f6d5f,rev?*
G04 #@! TF.SameCoordinates,Original*
G04 #@! TF.FileFunction,Legend,Top*
G04 #@! TF.FilePolarity,Positive*
%FSLAX46Y46*%
G04 Gerber Fmt 4.6, Leading zero omitted, Abs format (unit mm)*
G04 Created by KiCad (PCBNEW (5.1.2-1)-1) date 2020-05-18 20:01:50*
%MOMM*%
%LPD*%
G04 APERTURE LIST*
%ADD10C,0.200000*%
%ADD11C,0.010000*%
G04 APERTURE END LIST*
D10*
X78363690Y-91390476D02*
X78363690Y-92283333D01*
X78304166Y-92461904D01*
X78185119Y-92580952D01*
X78006547Y-92640476D01*
X77887500Y-92640476D01*
X79554166Y-92640476D02*
X78958928Y-92640476D01*
X78958928Y-91390476D01*
X80685119Y-92521428D02*
X80625595Y-92580952D01*
X80447023Y-92640476D01*
X80327976Y-92640476D01*
X80149404Y-92580952D01*
X80030357Y-92461904D01*
X79970833Y-92342857D01*
X79911309Y-92104761D01*
X79911309Y-91926190D01*
X79970833Y-91688095D01*
X80030357Y-91569047D01*
X80149404Y-91450000D01*
X80327976Y-91390476D01*
X80447023Y-91390476D01*
X80625595Y-91450000D01*
X80685119Y-91509523D01*
X81577976Y-91390476D02*
X81577976Y-92283333D01*
X81518452Y-92461904D01*
X81399404Y-92580952D01*
X81220833Y-92640476D01*
X81101785Y-92640476D01*
X82768452Y-92640476D02*
X82173214Y-92640476D01*
X82173214Y-91390476D01*
X83899404Y-92521428D02*
X83839880Y-92580952D01*
X83661309Y-92640476D01*
X83542261Y-92640476D01*
X83363690Y-92580952D01*
X83244642Y-92461904D01*
X83185119Y-92342857D01*
X83125595Y-92104761D01*
X83125595Y-91926190D01*
X83185119Y-91688095D01*
X83244642Y-91569047D01*
X83363690Y-91450000D01*
X83542261Y-91390476D01*
X83661309Y-91390476D01*
X83839880Y-91450000D01*
X83899404Y-91509523D01*
X84792261Y-91390476D02*
X84792261Y-92283333D01*
X84732738Y-92461904D01*
X84613690Y-92580952D01*
X84435119Y-92640476D01*
X84316071Y-92640476D01*
X85982738Y-92640476D02*
X85387500Y-92640476D01*
X85387500Y-91390476D01*
X87113690Y-92521428D02*
X87054166Y-92580952D01*
X86875595Y-92640476D01*
X86756547Y-92640476D01*
X86577976Y-92580952D01*
X86458928Y-92461904D01*
X86399404Y-92342857D01*
X86339880Y-92104761D01*
X86339880Y-91926190D01*
X86399404Y-91688095D01*
X86458928Y-91569047D01*
X86577976Y-91450000D01*
X86756547Y-91390476D01*
X86875595Y-91390476D01*
X87054166Y-91450000D01*
X87113690Y-91509523D01*
X88006547Y-91390476D02*
X88006547Y-92283333D01*
X87947023Y-92461904D01*
X87827976Y-92580952D01*
X87649404Y-92640476D01*
X87530357Y-92640476D01*
X89197023Y-92640476D02*
X88601785Y-92640476D01*
X88601785Y-91390476D01*
X90327976Y-92521428D02*
X90268452Y-92580952D01*
X90089880Y-92640476D01*
X89970833Y-92640476D01*
X89792261Y-92580952D01*
X89673214Y-92461904D01*
X89613690Y-92342857D01*
X89554166Y-92104761D01*
X89554166Y-91926190D01*
X89613690Y-91688095D01*
X89673214Y-91569047D01*
X89792261Y-91450000D01*
X89970833Y-91390476D01*
X90089880Y-91390476D01*
X90268452Y-91450000D01*
X90327976Y-91509523D01*
D11*
G36*
X246878929Y-59474553D02*
G01*
X246881883Y-61146197D01*
X246890337Y-62700230D01*
X246903677Y-64100335D01*
X246921290Y-65310192D01*
X246942564Y-66293482D01*
X246966883Y-67013885D01*
X246993636Y-67435082D01*
X247015000Y-67532770D01*
X247162057Y-67403269D01*
X247539354Y-67035188D01*
X248124923Y-66450823D01*
X248896799Y-65672473D01*
X249833016Y-64722435D01*
X250911606Y-63623007D01*
X252110604Y-62396486D01*
X253408042Y-61065170D01*
X254781956Y-59651356D01*
X254952500Y-59475586D01*
X262753929Y-51433757D01*
X266926119Y-51417369D01*
X271098309Y-51400982D01*
X261859067Y-60641556D01*
X260091316Y-62410545D01*
X258564187Y-63941568D01*
X257260940Y-65252456D01*
X256164837Y-66361038D01*
X255259138Y-67285144D01*
X254527105Y-68042603D01*
X253951999Y-68651245D01*
X253517080Y-69128900D01*
X253205610Y-69493396D01*
X253000850Y-69762565D01*
X252886061Y-69954234D01*
X252844503Y-70086234D01*
X252859438Y-70176395D01*
X252879020Y-70206689D01*
X253033989Y-70395305D01*
X253402394Y-70840885D01*
X253965841Y-71521251D01*
X254705938Y-72414224D01*
X255604289Y-73497627D01*
X256642502Y-74749282D01*
X257802182Y-76147009D01*
X259064936Y-77668632D01*
X260412370Y-79291973D01*
X261826091Y-80994852D01*
X262048137Y-81262286D01*
X263466767Y-82971540D01*
X264818951Y-84602033D01*
X266086638Y-86131918D01*
X267251776Y-87539351D01*
X268296314Y-88802485D01*
X269202200Y-89899474D01*
X269951383Y-90808471D01*
X270525810Y-91507632D01*
X270907431Y-91975110D01*
X271078194Y-92189059D01*
X271084916Y-92198581D01*
X271021949Y-92269159D01*
X270717863Y-92323321D01*
X270146768Y-92362383D01*
X269282777Y-92387664D01*
X268100001Y-92400481D01*
X267073565Y-92402744D01*
X262935357Y-92401648D01*
X255597068Y-83331315D01*
X254323599Y-81759330D01*
X253116862Y-80273710D01*
X251996232Y-78898050D01*
X250981086Y-77655944D01*
X250090798Y-76570988D01*
X249344744Y-75666776D01*
X248762299Y-74966902D01*
X248362838Y-74494961D01*
X248165738Y-74274548D01*
X248148730Y-74260982D01*
X247967746Y-74379959D01*
X247636660Y-74680943D01*
X247458805Y-74859262D01*
X246878929Y-75457542D01*
X246878929Y-92403839D01*
X240710357Y-92403839D01*
X240710357Y-51400982D01*
X246878929Y-51400982D01*
X246878929Y-59474553D01*
X246878929Y-59474553D01*
G37*
X246878929Y-59474553D02*
X246881883Y-61146197D01*
X246890337Y-62700230D01*
X246903677Y-64100335D01*
X246921290Y-65310192D01*
X246942564Y-66293482D01*
X246966883Y-67013885D01*
X246993636Y-67435082D01*
X247015000Y-67532770D01*
X247162057Y-67403269D01*
X247539354Y-67035188D01*
X248124923Y-66450823D01*
X248896799Y-65672473D01*
X249833016Y-64722435D01*
X250911606Y-63623007D01*
X252110604Y-62396486D01*
X253408042Y-61065170D01*
X254781956Y-59651356D01*
X254952500Y-59475586D01*
X262753929Y-51433757D01*
X266926119Y-51417369D01*
X271098309Y-51400982D01*
X261859067Y-60641556D01*
X260091316Y-62410545D01*
X258564187Y-63941568D01*
X257260940Y-65252456D01*
X256164837Y-66361038D01*
X255259138Y-67285144D01*
X254527105Y-68042603D01*
X253951999Y-68651245D01*
X253517080Y-69128900D01*
X253205610Y-69493396D01*
X253000850Y-69762565D01*
X252886061Y-69954234D01*
X252844503Y-70086234D01*
X252859438Y-70176395D01*
X252879020Y-70206689D01*
X253033989Y-70395305D01*
X253402394Y-70840885D01*
X253965841Y-71521251D01*
X254705938Y-72414224D01*
X255604289Y-73497627D01*
X256642502Y-74749282D01*
X257802182Y-76147009D01*
X259064936Y-77668632D01*
X260412370Y-79291973D01*
X261826091Y-80994852D01*
X262048137Y-81262286D01*
X263466767Y-82971540D01*
X264818951Y-84602033D01*
X266086638Y-86131918D01*
X267251776Y-87539351D01*
X268296314Y-88802485D01*
X269202200Y-89899474D01*
X269951383Y-90808471D01*
X270525810Y-91507632D01*
X270907431Y-91975110D01*
X271078194Y-92189059D01*
X271084916Y-92198581D01*
X271021949Y-92269159D01*
X270717863Y-92323321D01*
X270146768Y-92362383D01*
X269282777Y-92387664D01*
X268100001Y-92400481D01*
X267073565Y-92402744D01*
X262935357Y-92401648D01*
X255597068Y-83331315D01*
X254323599Y-81759330D01*
X253116862Y-80273710D01*
X251996232Y-78898050D01*
X250981086Y-77655944D01*
X250090798Y-76570988D01*
X249344744Y-75666776D01*
X248762299Y-74966902D01*
X248362838Y-74494961D01*
X248165738Y-74274548D01*
X248148730Y-74260982D01*
X247967746Y-74379959D01*
X247636660Y-74680943D01*
X247458805Y-74859262D01*
X246878929Y-75457542D01*
X246878929Y-92403839D01*
X240710357Y-92403839D01*
X240710357Y-51400982D01*
X246878929Y-51400982D01*
X246878929Y-59474553D01*
G36*
X191543214Y-92403839D02*
G01*
X185374643Y-92403839D01*
X185374643Y-51400982D01*
X191543214Y-51400982D01*
X191543214Y-92403839D01*
X191543214Y-92403839D01*
G37*
X191543214Y-92403839D02*
X185374643Y-92403839D01*
X185374643Y-51400982D01*
X191543214Y-51400982D01*
X191543214Y-92403839D01*
G36*
X157480000Y-51401493D02*
G01*
X159468920Y-51411621D01*
X161148034Y-51444600D01*
X162569932Y-51504996D01*
X163787203Y-51597374D01*
X164852438Y-51726297D01*
X165818226Y-51896332D01*
X166737157Y-52112042D01*
X167226908Y-52247530D01*
X169220046Y-52993019D01*
X170959515Y-53994874D01*
X172435426Y-55240697D01*
X173637889Y-56718085D01*
X174557016Y-58414637D01*
X175182916Y-60317953D01*
X175505700Y-62415630D01*
X175521766Y-62649281D01*
X175485329Y-64751616D01*
X175125665Y-66745923D01*
X174459534Y-68602337D01*
X173503693Y-70290993D01*
X172274904Y-71782023D01*
X170789926Y-73045563D01*
X169144209Y-74014252D01*
X168444051Y-74328172D01*
X167787792Y-74583609D01*
X167309674Y-74728630D01*
X167284566Y-74733640D01*
X166881007Y-74855294D01*
X166689877Y-75003320D01*
X166687500Y-75019267D01*
X166791311Y-75193699D01*
X167090262Y-75634963D01*
X167565626Y-76316756D01*
X168198678Y-77212778D01*
X168970693Y-78296725D01*
X169862945Y-79542297D01*
X170856708Y-80923191D01*
X171933258Y-82413105D01*
X172937744Y-83798362D01*
X179187989Y-92403839D01*
X175341673Y-92394542D01*
X171495357Y-92385244D01*
X165702821Y-84048827D01*
X164461140Y-82262586D01*
X163408538Y-80751544D01*
X162527363Y-79492691D01*
X161799964Y-78463019D01*
X161208690Y-77639519D01*
X160735888Y-76999182D01*
X160363908Y-76518999D01*
X160075098Y-76175961D01*
X159851806Y-75947058D01*
X159676380Y-75809283D01*
X159531170Y-75739626D01*
X159398524Y-75715078D01*
X159307464Y-75712411D01*
X158704643Y-75712411D01*
X158704643Y-92403839D01*
X152536072Y-92403839D01*
X152536072Y-63617172D01*
X158704643Y-63617172D01*
X158708367Y-65108771D01*
X158718957Y-66485181D01*
X158735538Y-67704354D01*
X158757238Y-68724240D01*
X158783183Y-69502792D01*
X158812498Y-69997960D01*
X158840714Y-70166250D01*
X159082684Y-70221039D01*
X159607283Y-70236401D01*
X160337033Y-70217484D01*
X161194454Y-70169438D01*
X162102068Y-70097413D01*
X162982396Y-70006557D01*
X163757958Y-69902020D01*
X164285192Y-69804401D01*
X165860441Y-69298772D01*
X167168292Y-68554362D01*
X168203684Y-67574811D01*
X168904593Y-66482646D01*
X169090144Y-66058909D01*
X169211158Y-65627839D01*
X169280741Y-65096740D01*
X169311995Y-64372918D01*
X169318214Y-63556696D01*
X169311339Y-62628769D01*
X169280520Y-61969504D01*
X169210466Y-61484811D01*
X169085887Y-61080600D01*
X168891493Y-60662779D01*
X168828205Y-60541401D01*
X168082703Y-59487140D01*
X167062284Y-58636683D01*
X165759813Y-57987157D01*
X164168159Y-57535690D01*
X162280186Y-57279408D01*
X160564286Y-57213026D01*
X158704643Y-57206696D01*
X158704643Y-63617172D01*
X152536072Y-63617172D01*
X152536072Y-51400982D01*
X157480000Y-51401493D01*
X157480000Y-51401493D01*
G37*
X157480000Y-51401493D02*
X159468920Y-51411621D01*
X161148034Y-51444600D01*
X162569932Y-51504996D01*
X163787203Y-51597374D01*
X164852438Y-51726297D01*
X165818226Y-51896332D01*
X166737157Y-52112042D01*
X167226908Y-52247530D01*
X169220046Y-52993019D01*
X170959515Y-53994874D01*
X172435426Y-55240697D01*
X173637889Y-56718085D01*
X174557016Y-58414637D01*
X175182916Y-60317953D01*
X175505700Y-62415630D01*
X175521766Y-62649281D01*
X175485329Y-64751616D01*
X175125665Y-66745923D01*
X174459534Y-68602337D01*
X173503693Y-70290993D01*
X172274904Y-71782023D01*
X170789926Y-73045563D01*
X169144209Y-74014252D01*
X168444051Y-74328172D01*
X167787792Y-74583609D01*
X167309674Y-74728630D01*
X167284566Y-74733640D01*
X166881007Y-74855294D01*
X166689877Y-75003320D01*
X166687500Y-75019267D01*
X166791311Y-75193699D01*
X167090262Y-75634963D01*
X167565626Y-76316756D01*
X168198678Y-77212778D01*
X168970693Y-78296725D01*
X169862945Y-79542297D01*
X170856708Y-80923191D01*
X171933258Y-82413105D01*
X172937744Y-83798362D01*
X179187989Y-92403839D01*
X175341673Y-92394542D01*
X171495357Y-92385244D01*
X165702821Y-84048827D01*
X164461140Y-82262586D01*
X163408538Y-80751544D01*
X162527363Y-79492691D01*
X161799964Y-78463019D01*
X161208690Y-77639519D01*
X160735888Y-76999182D01*
X160363908Y-76518999D01*
X160075098Y-76175961D01*
X159851806Y-75947058D01*
X159676380Y-75809283D01*
X159531170Y-75739626D01*
X159398524Y-75715078D01*
X159307464Y-75712411D01*
X158704643Y-75712411D01*
X158704643Y-92403839D01*
X152536072Y-92403839D01*
X152536072Y-63617172D01*
X158704643Y-63617172D01*
X158708367Y-65108771D01*
X158718957Y-66485181D01*
X158735538Y-67704354D01*
X158757238Y-68724240D01*
X158783183Y-69502792D01*
X158812498Y-69997960D01*
X158840714Y-70166250D01*
X159082684Y-70221039D01*
X159607283Y-70236401D01*
X160337033Y-70217484D01*
X161194454Y-70169438D01*
X162102068Y-70097413D01*
X162982396Y-70006557D01*
X163757958Y-69902020D01*
X164285192Y-69804401D01*
X165860441Y-69298772D01*
X167168292Y-68554362D01*
X168203684Y-67574811D01*
X168904593Y-66482646D01*
X169090144Y-66058909D01*
X169211158Y-65627839D01*
X169280741Y-65096740D01*
X169311995Y-64372918D01*
X169318214Y-63556696D01*
X169311339Y-62628769D01*
X169280520Y-61969504D01*
X169210466Y-61484811D01*
X169085887Y-61080600D01*
X168891493Y-60662779D01*
X168828205Y-60541401D01*
X168082703Y-59487140D01*
X167062284Y-58636683D01*
X165759813Y-57987157D01*
X164168159Y-57535690D01*
X162280186Y-57279408D01*
X160564286Y-57213026D01*
X158704643Y-57206696D01*
X158704643Y-63617172D01*
X152536072Y-63617172D01*
X152536072Y-51400982D01*
X157480000Y-51401493D01*
G36*
X144553214Y-57206696D02*
G01*
X128043214Y-57206696D01*
X128043214Y-67003839D01*
X144008929Y-67003839D01*
X144008929Y-72805739D01*
X136071429Y-72853003D01*
X128133929Y-72900268D01*
X128086390Y-79749196D01*
X128038851Y-86598125D01*
X144553214Y-86598125D01*
X144553214Y-92403839D01*
X121874643Y-92403839D01*
X121874643Y-51400982D01*
X144553214Y-51400982D01*
X144553214Y-57206696D01*
X144553214Y-57206696D01*
G37*
X144553214Y-57206696D02*
X128043214Y-57206696D01*
X128043214Y-67003839D01*
X144008929Y-67003839D01*
X144008929Y-72805739D01*
X136071429Y-72853003D01*
X128133929Y-72900268D01*
X128086390Y-79749196D01*
X128038851Y-86598125D01*
X144553214Y-86598125D01*
X144553214Y-92403839D01*
X121874643Y-92403839D01*
X121874643Y-51400982D01*
X144553214Y-51400982D01*
X144553214Y-57206696D01*
G36*
X88128929Y-67366696D02*
G01*
X105908929Y-67366696D01*
X105908929Y-51400982D01*
X112077500Y-51400982D01*
X112077500Y-92403839D01*
X105908929Y-92403839D01*
X105908929Y-73353839D01*
X88128929Y-73353839D01*
X88128929Y-92403839D01*
X81960357Y-92403839D01*
X81960357Y-51400982D01*
X88128929Y-51400982D01*
X88128929Y-67366696D01*
X88128929Y-67366696D01*
G37*
X88128929Y-67366696D02*
X105908929Y-67366696D01*
X105908929Y-51400982D01*
X112077500Y-51400982D01*
X112077500Y-92403839D01*
X105908929Y-92403839D01*
X105908929Y-73353839D01*
X88128929Y-73353839D01*
X88128929Y-92403839D01*
X81960357Y-92403839D01*
X81960357Y-51400982D01*
X88128929Y-51400982D01*
X88128929Y-67366696D01*
G36*
X76336072Y-57206696D02*
G01*
X67083214Y-57206696D01*
X67083214Y-92403839D01*
X60733214Y-92403839D01*
X60733214Y-57206696D01*
X51298929Y-57206696D01*
X51298929Y-51400982D01*
X76336072Y-51400982D01*
X76336072Y-57206696D01*
X76336072Y-57206696D01*
G37*
X76336072Y-57206696D02*
X67083214Y-57206696D01*
X67083214Y-92403839D01*
X60733214Y-92403839D01*
X60733214Y-57206696D01*
X51298929Y-57206696D01*
X51298929Y-51400982D01*
X76336072Y-51400982D01*
X76336072Y-57206696D01*
G36*
X224299595Y-50803111D02*
G01*
X226855646Y-51359044D01*
X227375357Y-51516684D01*
X227934427Y-51720021D01*
X228699620Y-52031322D01*
X229550431Y-52400509D01*
X230051429Y-52628762D01*
X231820357Y-53451442D01*
X231820357Y-60870033D01*
X230958572Y-60219168D01*
X228829407Y-58804380D01*
X226640374Y-57720785D01*
X224414520Y-56970609D01*
X222174895Y-56556078D01*
X219944548Y-56479417D01*
X217746529Y-56742852D01*
X215603887Y-57348607D01*
X213539672Y-58298909D01*
X213184380Y-58503074D01*
X211852620Y-59440707D01*
X210522207Y-60648012D01*
X209270344Y-62039820D01*
X208174238Y-63530966D01*
X207369718Y-64917411D01*
X206583789Y-66862016D01*
X206062395Y-68982381D01*
X205811687Y-71199504D01*
X205837817Y-73434386D01*
X206146935Y-75608025D01*
X206446753Y-76771732D01*
X207230511Y-78757273D01*
X208324288Y-80644266D01*
X209681806Y-82379073D01*
X211256784Y-83908057D01*
X213002941Y-85177579D01*
X214312500Y-85887922D01*
X215465026Y-86396835D01*
X216484115Y-86761369D01*
X217476250Y-87003518D01*
X218547916Y-87145273D01*
X219805594Y-87208629D01*
X220753214Y-87218190D01*
X222133121Y-87189993D01*
X223351537Y-87090549D01*
X224465031Y-86897578D01*
X225530170Y-86588802D01*
X226603522Y-86141942D01*
X227741653Y-85534719D01*
X229001132Y-84744854D01*
X230438526Y-83750068D01*
X231481750Y-82992781D01*
X231594979Y-82923455D01*
X231679681Y-82933466D01*
X231739989Y-83065597D01*
X231780037Y-83362630D01*
X231803960Y-83867346D01*
X231815892Y-84622528D01*
X231819965Y-85670958D01*
X231820357Y-86497050D01*
X231820357Y-90250234D01*
X230323572Y-90951416D01*
X227687045Y-91992419D01*
X224946363Y-92704163D01*
X222147833Y-93080186D01*
X219337762Y-93114024D01*
X216796126Y-92839734D01*
X214222465Y-92225889D01*
X211758677Y-91268728D01*
X209415718Y-89974048D01*
X207204546Y-88347648D01*
X205686670Y-86960982D01*
X203923345Y-85014648D01*
X202484519Y-82990587D01*
X201332032Y-80823096D01*
X200427726Y-78446475D01*
X200109652Y-77358652D01*
X199941768Y-76704215D01*
X199818964Y-76120716D01*
X199734076Y-75530441D01*
X199679941Y-74855677D01*
X199649395Y-74018708D01*
X199635274Y-72941822D01*
X199631780Y-72174553D01*
X199647493Y-70536376D01*
X199715340Y-69168028D01*
X199850688Y-67978350D01*
X200068900Y-66876182D01*
X200385341Y-65770364D01*
X200815378Y-64569738D01*
X200987689Y-64130027D01*
X201999583Y-62000296D01*
X203304655Y-59905380D01*
X204843064Y-57919332D01*
X206554966Y-56116204D01*
X208380518Y-54570051D01*
X209155714Y-54022437D01*
X211403876Y-52740318D01*
X213829808Y-51747149D01*
X216382929Y-51049887D01*
X219012655Y-50655489D01*
X221668404Y-50570912D01*
X224299595Y-50803111D01*
X224299595Y-50803111D01*
G37*
X224299595Y-50803111D02*
X226855646Y-51359044D01*
X227375357Y-51516684D01*
X227934427Y-51720021D01*
X228699620Y-52031322D01*
X229550431Y-52400509D01*
X230051429Y-52628762D01*
X231820357Y-53451442D01*
X231820357Y-60870033D01*
X230958572Y-60219168D01*
X228829407Y-58804380D01*
X226640374Y-57720785D01*
X224414520Y-56970609D01*
X222174895Y-56556078D01*
X219944548Y-56479417D01*
X217746529Y-56742852D01*
X215603887Y-57348607D01*
X213539672Y-58298909D01*
X213184380Y-58503074D01*
X211852620Y-59440707D01*
X210522207Y-60648012D01*
X209270344Y-62039820D01*
X208174238Y-63530966D01*
X207369718Y-64917411D01*
X206583789Y-66862016D01*
X206062395Y-68982381D01*
X205811687Y-71199504D01*
X205837817Y-73434386D01*
X206146935Y-75608025D01*
X206446753Y-76771732D01*
X207230511Y-78757273D01*
X208324288Y-80644266D01*
X209681806Y-82379073D01*
X211256784Y-83908057D01*
X213002941Y-85177579D01*
X214312500Y-85887922D01*
X215465026Y-86396835D01*
X216484115Y-86761369D01*
X217476250Y-87003518D01*
X218547916Y-87145273D01*
X219805594Y-87208629D01*
X220753214Y-87218190D01*
X222133121Y-87189993D01*
X223351537Y-87090549D01*
X224465031Y-86897578D01*
X225530170Y-86588802D01*
X226603522Y-86141942D01*
X227741653Y-85534719D01*
X229001132Y-84744854D01*
X230438526Y-83750068D01*
X231481750Y-82992781D01*
X231594979Y-82923455D01*
X231679681Y-82933466D01*
X231739989Y-83065597D01*
X231780037Y-83362630D01*
X231803960Y-83867346D01*
X231815892Y-84622528D01*
X231819965Y-85670958D01*
X231820357Y-86497050D01*
X231820357Y-90250234D01*
X230323572Y-90951416D01*
X227687045Y-91992419D01*
X224946363Y-92704163D01*
X222147833Y-93080186D01*
X219337762Y-93114024D01*
X216796126Y-92839734D01*
X214222465Y-92225889D01*
X211758677Y-91268728D01*
X209415718Y-89974048D01*
X207204546Y-88347648D01*
X205686670Y-86960982D01*
X203923345Y-85014648D01*
X202484519Y-82990587D01*
X201332032Y-80823096D01*
X200427726Y-78446475D01*
X200109652Y-77358652D01*
X199941768Y-76704215D01*
X199818964Y-76120716D01*
X199734076Y-75530441D01*
X199679941Y-74855677D01*
X199649395Y-74018708D01*
X199635274Y-72941822D01*
X199631780Y-72174553D01*
X199647493Y-70536376D01*
X199715340Y-69168028D01*
X199850688Y-67978350D01*
X200068900Y-66876182D01*
X200385341Y-65770364D01*
X200815378Y-64569738D01*
X200987689Y-64130027D01*
X201999583Y-62000296D01*
X203304655Y-59905380D01*
X204843064Y-57919332D01*
X206554966Y-56116204D01*
X208380518Y-54570051D01*
X209155714Y-54022437D01*
X211403876Y-52740318D01*
X213829808Y-51747149D01*
X216382929Y-51049887D01*
X219012655Y-50655489D01*
X221668404Y-50570912D01*
X224299595Y-50803111D01*
M02*
