G04 #@! TF.GenerationSoftware,KiCad,Pcbnew,(5.1.2-1)-1*
G04 #@! TF.CreationDate,2019-11-15T22:05:34-06:00*
G04 #@! TF.ProjectId,therick_bottom_plate,74686572-6963-46b5-9f62-6f74746f6d5f,rev?*
G04 #@! TF.SameCoordinates,Original*
G04 #@! TF.FileFunction,Legend,Bot*
G04 #@! TF.FilePolarity,Positive*
%FSLAX46Y46*%
G04 Gerber Fmt 4.6, Leading zero omitted, Abs format (unit mm)*
G04 Created by KiCad (PCBNEW (5.1.2-1)-1) date 2019-11-15 22:05:34*
%MOMM*%
%LPD*%
G04 APERTURE LIST*
%ADD10C,0.250000*%
%ADD11C,0.010000*%
G04 APERTURE END LIST*
D10*
X217904761Y-108571428D02*
X217142857Y-108571428D01*
X217619047Y-107904761D02*
X217619047Y-109619047D01*
X217523809Y-109809523D01*
X217333333Y-109904761D01*
X217142857Y-109904761D01*
X216476190Y-109904761D02*
X216476190Y-107904761D01*
X215619047Y-109904761D02*
X215619047Y-108857142D01*
X215714285Y-108666666D01*
X215904761Y-108571428D01*
X216190476Y-108571428D01*
X216380952Y-108666666D01*
X216476190Y-108761904D01*
X213904761Y-109809523D02*
X214095238Y-109904761D01*
X214476190Y-109904761D01*
X214666666Y-109809523D01*
X214761904Y-109619047D01*
X214761904Y-108857142D01*
X214666666Y-108666666D01*
X214476190Y-108571428D01*
X214095238Y-108571428D01*
X213904761Y-108666666D01*
X213809523Y-108857142D01*
X213809523Y-109047619D01*
X214761904Y-109238095D01*
X212952380Y-109904761D02*
X212952380Y-108571428D01*
X212952380Y-108952380D02*
X212857142Y-108761904D01*
X212761904Y-108666666D01*
X212571428Y-108571428D01*
X212380952Y-108571428D01*
X211714285Y-109904761D02*
X211714285Y-108571428D01*
X211714285Y-107904761D02*
X211809523Y-108000000D01*
X211714285Y-108095238D01*
X211619047Y-108000000D01*
X211714285Y-107904761D01*
X211714285Y-108095238D01*
X209904761Y-109809523D02*
X210095238Y-109904761D01*
X210476190Y-109904761D01*
X210666666Y-109809523D01*
X210761904Y-109714285D01*
X210857142Y-109523809D01*
X210857142Y-108952380D01*
X210761904Y-108761904D01*
X210666666Y-108666666D01*
X210476190Y-108571428D01*
X210095238Y-108571428D01*
X209904761Y-108666666D01*
X209047619Y-109904761D02*
X209047619Y-107904761D01*
X208857142Y-109142857D02*
X208285714Y-109904761D01*
X208285714Y-108571428D02*
X209047619Y-109333333D01*
D11*
G36*
X230984652Y-59971124D02*
G01*
X230706528Y-60244082D01*
X230820537Y-60534325D01*
X230870489Y-60654338D01*
X230925110Y-60745142D01*
X231002761Y-60813283D01*
X231121798Y-60865305D01*
X231300581Y-60907756D01*
X231557467Y-60947179D01*
X231910815Y-60990122D01*
X232186649Y-61021414D01*
X232884103Y-61119629D01*
X233611689Y-61257601D01*
X234344215Y-61428258D01*
X235056487Y-61624529D01*
X235723312Y-61839342D01*
X236319499Y-62065625D01*
X236819854Y-62296308D01*
X236920500Y-62350222D01*
X237597658Y-62683375D01*
X238391380Y-62999153D01*
X239292025Y-63294350D01*
X240289948Y-63565761D01*
X241206750Y-63775213D01*
X241578300Y-63847275D01*
X241968008Y-63909650D01*
X242394824Y-63964317D01*
X242877699Y-64013256D01*
X243435581Y-64058445D01*
X244087421Y-64101862D01*
X244643891Y-64134151D01*
X245350532Y-64173201D01*
X245576549Y-63974756D01*
X245802566Y-63776310D01*
X245670251Y-63552054D01*
X245608846Y-63453294D01*
X245544687Y-63377426D01*
X245457186Y-63314953D01*
X245325758Y-63256377D01*
X245129814Y-63192202D01*
X244848768Y-63112931D01*
X244536107Y-63028863D01*
X244058887Y-62918713D01*
X243498397Y-62822389D01*
X242836374Y-62736925D01*
X242550905Y-62706323D01*
X242070542Y-62654628D01*
X241684674Y-62605487D01*
X241361081Y-62552977D01*
X241067540Y-62491177D01*
X240771830Y-62414167D01*
X240463338Y-62322691D01*
X240089201Y-62200585D01*
X239694645Y-62060394D01*
X239328360Y-61920025D01*
X239055683Y-61804981D01*
X238864897Y-61723537D01*
X238571936Y-61605075D01*
X238193899Y-61456207D01*
X237747881Y-61283546D01*
X237250980Y-61093704D01*
X236720293Y-60893292D01*
X236172916Y-60688922D01*
X236098808Y-60661440D01*
X233721366Y-59780507D01*
X232492071Y-59739337D01*
X231262775Y-59698167D01*
X230984652Y-59971124D01*
X230984652Y-59971124D01*
G37*
X230984652Y-59971124D02*
X230706528Y-60244082D01*
X230820537Y-60534325D01*
X230870489Y-60654338D01*
X230925110Y-60745142D01*
X231002761Y-60813283D01*
X231121798Y-60865305D01*
X231300581Y-60907756D01*
X231557467Y-60947179D01*
X231910815Y-60990122D01*
X232186649Y-61021414D01*
X232884103Y-61119629D01*
X233611689Y-61257601D01*
X234344215Y-61428258D01*
X235056487Y-61624529D01*
X235723312Y-61839342D01*
X236319499Y-62065625D01*
X236819854Y-62296308D01*
X236920500Y-62350222D01*
X237597658Y-62683375D01*
X238391380Y-62999153D01*
X239292025Y-63294350D01*
X240289948Y-63565761D01*
X241206750Y-63775213D01*
X241578300Y-63847275D01*
X241968008Y-63909650D01*
X242394824Y-63964317D01*
X242877699Y-64013256D01*
X243435581Y-64058445D01*
X244087421Y-64101862D01*
X244643891Y-64134151D01*
X245350532Y-64173201D01*
X245576549Y-63974756D01*
X245802566Y-63776310D01*
X245670251Y-63552054D01*
X245608846Y-63453294D01*
X245544687Y-63377426D01*
X245457186Y-63314953D01*
X245325758Y-63256377D01*
X245129814Y-63192202D01*
X244848768Y-63112931D01*
X244536107Y-63028863D01*
X244058887Y-62918713D01*
X243498397Y-62822389D01*
X242836374Y-62736925D01*
X242550905Y-62706323D01*
X242070542Y-62654628D01*
X241684674Y-62605487D01*
X241361081Y-62552977D01*
X241067540Y-62491177D01*
X240771830Y-62414167D01*
X240463338Y-62322691D01*
X240089201Y-62200585D01*
X239694645Y-62060394D01*
X239328360Y-61920025D01*
X239055683Y-61804981D01*
X238864897Y-61723537D01*
X238571936Y-61605075D01*
X238193899Y-61456207D01*
X237747881Y-61283546D01*
X237250980Y-61093704D01*
X236720293Y-60893292D01*
X236172916Y-60688922D01*
X236098808Y-60661440D01*
X233721366Y-59780507D01*
X232492071Y-59739337D01*
X231262775Y-59698167D01*
X230984652Y-59971124D01*
G36*
X236956153Y-42522196D02*
G01*
X236920500Y-42544092D01*
X236905967Y-42610634D01*
X236864245Y-42788825D01*
X236798157Y-43066909D01*
X236710524Y-43433133D01*
X236604166Y-43875742D01*
X236481904Y-44382980D01*
X236346559Y-44943092D01*
X236200952Y-45544325D01*
X236159647Y-45714647D01*
X235398793Y-48851108D01*
X234302272Y-51363508D01*
X234035418Y-51970469D01*
X233795330Y-52507574D01*
X233585638Y-52967108D01*
X233409971Y-53341353D01*
X233271959Y-53622593D01*
X233175233Y-53803114D01*
X233123422Y-53875199D01*
X233120165Y-53876203D01*
X233051458Y-53848237D01*
X232878111Y-53767092D01*
X232608747Y-53637046D01*
X232251987Y-53462373D01*
X231816454Y-53247349D01*
X231310770Y-52996249D01*
X230743556Y-52713348D01*
X230123435Y-52402921D01*
X229459029Y-52069244D01*
X228758960Y-51716593D01*
X228434313Y-51552707D01*
X227595096Y-51129127D01*
X226862176Y-50760061D01*
X226228744Y-50442264D01*
X225687990Y-50172494D01*
X225233105Y-49947506D01*
X224857279Y-49764055D01*
X224553704Y-49618899D01*
X224315570Y-49508792D01*
X224136068Y-49430492D01*
X224008389Y-49380753D01*
X223925723Y-49356332D01*
X223881260Y-49353985D01*
X223868193Y-49370468D01*
X223869189Y-49377832D01*
X223915527Y-49578490D01*
X223983409Y-49878513D01*
X224070424Y-50266900D01*
X224174162Y-50732648D01*
X224292211Y-51264755D01*
X224422160Y-51852219D01*
X224561597Y-52484038D01*
X224708111Y-53149210D01*
X224859291Y-53836732D01*
X225012725Y-54535603D01*
X225166003Y-55234821D01*
X225316714Y-55923383D01*
X225462445Y-56590288D01*
X225600785Y-57224533D01*
X225729325Y-57815116D01*
X225845651Y-58351035D01*
X225947353Y-58821288D01*
X226032020Y-59214873D01*
X226097240Y-59520787D01*
X226140602Y-59728029D01*
X226159695Y-59825597D01*
X226160324Y-59831842D01*
X226095666Y-59845541D01*
X225917626Y-59877373D01*
X225638218Y-59925331D01*
X225269453Y-59987408D01*
X224823343Y-60061598D01*
X224311900Y-60145895D01*
X223747137Y-60238291D01*
X223141065Y-60336780D01*
X223027319Y-60355194D01*
X219913970Y-60858889D01*
X218638235Y-61414468D01*
X218266580Y-61577770D01*
X217937576Y-61725100D01*
X217667923Y-61848751D01*
X217474318Y-61941017D01*
X217373462Y-61994189D01*
X217362767Y-62003149D01*
X217419975Y-62032724D01*
X217582255Y-62101484D01*
X217835791Y-62203956D01*
X218166764Y-62334666D01*
X218561357Y-62488143D01*
X219005753Y-62658914D01*
X219335843Y-62784592D01*
X221308652Y-63532935D01*
X222605826Y-64647514D01*
X222948608Y-64943592D01*
X223257412Y-65213289D01*
X223519745Y-65445453D01*
X223723114Y-65628932D01*
X223855024Y-65752573D01*
X223902983Y-65805225D01*
X223903000Y-65805463D01*
X223848911Y-65845251D01*
X223695961Y-65935895D01*
X223458127Y-66069974D01*
X223149386Y-66240064D01*
X222783716Y-66438741D01*
X222375093Y-66658583D01*
X221937493Y-66892165D01*
X221484895Y-67132066D01*
X221031275Y-67370860D01*
X220590611Y-67601126D01*
X220176878Y-67815440D01*
X219804054Y-68006378D01*
X219486117Y-68166517D01*
X219237042Y-68288434D01*
X219156375Y-68326434D01*
X218897247Y-68450318D01*
X218687058Y-68558342D01*
X218548976Y-68638087D01*
X218505500Y-68675274D01*
X218555586Y-68720738D01*
X218699026Y-68832184D01*
X218925594Y-69002107D01*
X219225066Y-69223004D01*
X219587215Y-69487368D01*
X220001817Y-69787697D01*
X220458646Y-70116485D01*
X220886750Y-70422890D01*
X221372436Y-70771075D01*
X221824824Y-71098189D01*
X222233677Y-71396627D01*
X222588758Y-71658784D01*
X222879831Y-71877058D01*
X223096660Y-72043844D01*
X223229006Y-72151539D01*
X223267460Y-72191321D01*
X223233536Y-72257911D01*
X223137044Y-72418529D01*
X222985533Y-72661316D01*
X222786552Y-72974409D01*
X222547652Y-73345950D01*
X222276380Y-73764076D01*
X221980288Y-74216928D01*
X221910291Y-74323500D01*
X221610762Y-74780463D01*
X221335153Y-75203462D01*
X221090852Y-75580969D01*
X220885244Y-75901454D01*
X220725717Y-76153390D01*
X220619657Y-76325248D01*
X220574450Y-76405501D01*
X220573491Y-76409868D01*
X220637780Y-76428331D01*
X220812441Y-76471199D01*
X221083871Y-76535320D01*
X221438467Y-76617544D01*
X221862626Y-76714720D01*
X222342746Y-76823698D01*
X222865224Y-76941327D01*
X222952678Y-76960927D01*
X223480840Y-77079662D01*
X223968947Y-77190238D01*
X224403378Y-77289504D01*
X224770512Y-77374313D01*
X225056727Y-77441512D01*
X225248402Y-77487953D01*
X225331915Y-77510486D01*
X225334334Y-77511666D01*
X225324987Y-77576648D01*
X225286552Y-77746579D01*
X225223396Y-78003895D01*
X225139884Y-78331030D01*
X225040381Y-78710419D01*
X224982500Y-78927250D01*
X224875920Y-79326615D01*
X224782244Y-79682344D01*
X224705955Y-79977027D01*
X224651533Y-80193256D01*
X224623458Y-80313621D01*
X224620809Y-80332612D01*
X224683885Y-80323810D01*
X224844492Y-80290317D01*
X225076957Y-80238248D01*
X225355603Y-80173721D01*
X225654756Y-80102853D01*
X225948742Y-80031761D01*
X226211885Y-79966562D01*
X226418511Y-79913373D01*
X226542946Y-79878311D01*
X226567132Y-79868898D01*
X226566339Y-79798799D01*
X226526396Y-79661035D01*
X226518295Y-79639201D01*
X226485942Y-79519856D01*
X226437283Y-79295513D01*
X226376262Y-78986548D01*
X226306824Y-78613339D01*
X226232913Y-78196261D01*
X226187788Y-77931816D01*
X226092876Y-77346808D01*
X226022752Y-76863396D01*
X225974847Y-76459157D01*
X225946594Y-76111668D01*
X225935425Y-75798506D01*
X225935000Y-75724373D01*
X225935000Y-75020362D01*
X225077750Y-74384696D01*
X224794594Y-74173646D01*
X224550877Y-73989926D01*
X224363319Y-73846305D01*
X224248636Y-73755555D01*
X224220500Y-73729818D01*
X224212223Y-73663048D01*
X224189809Y-73497096D01*
X224156885Y-73258530D01*
X224125038Y-73030550D01*
X224029575Y-72350494D01*
X224606550Y-71621793D01*
X224851329Y-71318203D01*
X225047519Y-71092594D01*
X225221230Y-70920239D01*
X225398573Y-70776410D01*
X225605658Y-70636379D01*
X225726100Y-70561534D01*
X225963236Y-70407506D01*
X226159920Y-70262786D01*
X226289340Y-70148002D01*
X226323644Y-70101863D01*
X226353419Y-70004491D01*
X226406297Y-69802894D01*
X226477432Y-69516736D01*
X226561978Y-69165677D01*
X226655087Y-68769380D01*
X226699586Y-68576750D01*
X226842289Y-67960631D01*
X226982657Y-67363952D01*
X227117549Y-66799360D01*
X227243825Y-66279504D01*
X227358344Y-65817033D01*
X227457966Y-65424596D01*
X227539550Y-65114840D01*
X227599954Y-64900414D01*
X227636039Y-64793967D01*
X227640928Y-64785670D01*
X227702842Y-64804792D01*
X227833429Y-64894024D01*
X228008944Y-65036369D01*
X228087476Y-65105327D01*
X228493443Y-65469563D01*
X228435408Y-66152653D01*
X228377374Y-66835744D01*
X228754595Y-67660067D01*
X229131816Y-68484391D01*
X230475250Y-69731901D01*
X231764494Y-69887550D01*
X233053737Y-70043199D01*
X234128437Y-69595724D01*
X235203136Y-69148250D01*
X235737979Y-68452958D01*
X236069738Y-67995135D01*
X236315775Y-67592599D01*
X236480587Y-67246458D01*
X236575855Y-67014124D01*
X236652403Y-66831318D01*
X236698283Y-66726410D01*
X236705423Y-66712544D01*
X236770872Y-66714221D01*
X236920805Y-66742817D01*
X237049630Y-66773682D01*
X237376766Y-66857524D01*
X237328982Y-67494887D01*
X237306971Y-67784686D01*
X237294135Y-67999434D01*
X237294274Y-68170774D01*
X237311193Y-68330350D01*
X237348692Y-68509805D01*
X237410574Y-68740781D01*
X237500641Y-69054922D01*
X237527784Y-69149384D01*
X237764181Y-69973750D01*
X238260109Y-70516373D01*
X238756036Y-71058996D01*
X239886143Y-71569432D01*
X241016250Y-72079869D01*
X242032250Y-72008148D01*
X243048250Y-71936428D01*
X243715000Y-71477465D01*
X244022632Y-71259174D01*
X244257738Y-71071180D01*
X244456679Y-70878598D01*
X244655818Y-70646548D01*
X244868318Y-70371063D01*
X245100643Y-70051146D01*
X245270602Y-69785544D01*
X245400501Y-69533913D01*
X245512646Y-69255913D01*
X245560889Y-69118437D01*
X245649176Y-68861922D01*
X245722395Y-68654504D01*
X245771015Y-68522886D01*
X245785073Y-68490414D01*
X245847792Y-68500622D01*
X245984956Y-68552951D01*
X246058472Y-68585664D01*
X246232001Y-68689584D01*
X246290804Y-68784797D01*
X246288851Y-68799000D01*
X246253995Y-68948260D01*
X246199591Y-69200352D01*
X246130045Y-69533385D01*
X246049761Y-69925470D01*
X245963146Y-70354717D01*
X245874604Y-70799236D01*
X245788542Y-71237139D01*
X245709365Y-71646535D01*
X245641478Y-72005535D01*
X245618991Y-72127286D01*
X245542682Y-72539019D01*
X245462820Y-72961322D01*
X245386828Y-73355496D01*
X245322129Y-73682840D01*
X245296194Y-73810036D01*
X245170048Y-74418750D01*
X245704762Y-74926750D01*
X245950267Y-75166291D01*
X246123439Y-75356354D01*
X246248522Y-75529933D01*
X246349763Y-75720018D01*
X246436500Y-75922475D01*
X246633523Y-76410200D01*
X246421064Y-77001975D01*
X246208604Y-77593750D01*
X245540952Y-78081431D01*
X245262594Y-78282573D01*
X245056355Y-78421695D01*
X244892701Y-78512911D01*
X244742099Y-78570332D01*
X244575014Y-78608070D01*
X244375391Y-78638366D01*
X244136266Y-78676465D01*
X243948778Y-78715377D01*
X243846218Y-78747943D01*
X243838011Y-78753934D01*
X243801474Y-78829213D01*
X243732636Y-78997848D01*
X243641900Y-79233588D01*
X243555375Y-79467000D01*
X243341305Y-80007685D01*
X243083407Y-80584335D01*
X242796979Y-81167531D01*
X242497321Y-81727853D01*
X242199731Y-82235884D01*
X241919511Y-82662204D01*
X241830237Y-82784203D01*
X241650913Y-83024304D01*
X241506009Y-83224681D01*
X241409411Y-83365655D01*
X241375007Y-83427548D01*
X241375494Y-83428611D01*
X241435222Y-83466684D01*
X241578191Y-83556730D01*
X241779969Y-83683380D01*
X241919956Y-83771082D01*
X242442661Y-84098345D01*
X242548283Y-83735297D01*
X242606811Y-83532804D01*
X242689346Y-83245518D01*
X242785172Y-82910809D01*
X242883575Y-82566045D01*
X242889073Y-82546750D01*
X243001585Y-82174573D01*
X243097339Y-81904860D01*
X243173246Y-81745581D01*
X243215750Y-81703293D01*
X243297188Y-81718443D01*
X243482879Y-81770036D01*
X243757009Y-81853132D01*
X244103762Y-81962795D01*
X244507323Y-82094086D01*
X244951876Y-82242068D01*
X245082117Y-82286015D01*
X245531180Y-82437180D01*
X245939732Y-82573144D01*
X246292760Y-82689036D01*
X246575253Y-82779985D01*
X246772199Y-82841121D01*
X246868585Y-82867571D01*
X246875686Y-82867981D01*
X246876949Y-82802742D01*
X246871714Y-82628561D01*
X246860910Y-82363278D01*
X246845463Y-82024733D01*
X246826302Y-81630767D01*
X246804353Y-81199220D01*
X246780545Y-80747932D01*
X246755806Y-80294745D01*
X246731062Y-79857497D01*
X246707241Y-79454030D01*
X246685272Y-79102184D01*
X246666081Y-78819799D01*
X246663066Y-78778698D01*
X246623654Y-78249146D01*
X249017250Y-78336832D01*
X250446000Y-78005074D01*
X250855495Y-77908529D01*
X251223657Y-77818947D01*
X251532384Y-77740962D01*
X251763571Y-77679204D01*
X251899113Y-77638308D01*
X251926466Y-77626267D01*
X251893377Y-77576701D01*
X251771104Y-77465579D01*
X251574160Y-77304668D01*
X251317056Y-77105737D01*
X251014303Y-76880554D01*
X250942216Y-76828082D01*
X250443207Y-76466030D01*
X250034425Y-76167630D01*
X249703356Y-75921877D01*
X249437489Y-75717767D01*
X249224310Y-75544296D01*
X249051306Y-75390459D01*
X248905964Y-75245251D01*
X248775771Y-75097669D01*
X248648215Y-74936708D01*
X248510782Y-74751363D01*
X248387906Y-74581720D01*
X248194780Y-74308944D01*
X248033704Y-74070673D01*
X247917241Y-73886360D01*
X247857955Y-73775456D01*
X247853419Y-73754212D01*
X247909641Y-73709004D01*
X248062467Y-73602856D01*
X248301206Y-73442779D01*
X248615168Y-73235785D01*
X248993664Y-72988885D01*
X249426004Y-72709090D01*
X249901499Y-72403411D01*
X250350750Y-72116270D01*
X251011675Y-71696692D01*
X251586506Y-71336165D01*
X252094809Y-71023273D01*
X252556147Y-70746602D01*
X252990087Y-70494735D01*
X253416192Y-70256258D01*
X253854026Y-70019756D01*
X254323155Y-69773812D01*
X254680433Y-69590027D01*
X255124505Y-69362027D01*
X255529136Y-69152476D01*
X255881274Y-68968275D01*
X256167868Y-68816325D01*
X256375867Y-68703526D01*
X256492221Y-68636779D01*
X256512497Y-68621329D01*
X256446050Y-68618215D01*
X256269307Y-68620109D01*
X255998851Y-68626551D01*
X255651268Y-68637084D01*
X255243143Y-68651251D01*
X254791061Y-68668595D01*
X254772350Y-68669346D01*
X253053322Y-68738482D01*
X251273411Y-67519045D01*
X250852950Y-67229830D01*
X250467900Y-66962757D01*
X250130337Y-66726371D01*
X249852334Y-66529223D01*
X249645966Y-66379858D01*
X249523308Y-66286826D01*
X249493500Y-66259008D01*
X249537321Y-66208053D01*
X249663425Y-66075916D01*
X249863776Y-65870699D01*
X250130337Y-65600500D01*
X250455072Y-65273420D01*
X250829943Y-64897560D01*
X251246915Y-64481020D01*
X251697950Y-64031900D01*
X252049436Y-63682828D01*
X253389184Y-62353750D01*
X246462472Y-62353750D01*
X246409172Y-64385750D01*
X246396019Y-64917946D01*
X246384569Y-65441396D01*
X246375199Y-65933949D01*
X246368282Y-66373450D01*
X246364194Y-66737749D01*
X246363308Y-67004692D01*
X246363795Y-67068625D01*
X246364780Y-67338765D01*
X246361184Y-67554144D01*
X246353717Y-67688216D01*
X246346342Y-67719500D01*
X246283862Y-67687973D01*
X246146238Y-67605806D01*
X245985336Y-67504799D01*
X245838048Y-67405224D01*
X245726518Y-67308149D01*
X245632006Y-67187095D01*
X245535771Y-67015585D01*
X245419076Y-66767139D01*
X245344058Y-66598685D01*
X245038411Y-65907272D01*
X244170331Y-65609320D01*
X243567917Y-65415722D01*
X242847824Y-65207556D01*
X242018279Y-64986870D01*
X241087510Y-64755712D01*
X240063747Y-64516131D01*
X238955216Y-64270176D01*
X237867273Y-64039966D01*
X237234941Y-63907211D01*
X236561557Y-63762573D01*
X235876252Y-63612529D01*
X235208157Y-63463556D01*
X234586404Y-63322130D01*
X234040124Y-63194728D01*
X233724958Y-63119002D01*
X233266439Y-63009222D01*
X232837400Y-62910658D01*
X232456507Y-62827271D01*
X232142425Y-62763025D01*
X231913818Y-62721882D01*
X231789352Y-62707805D01*
X231788208Y-62707824D01*
X231637407Y-62719964D01*
X231393753Y-62749644D01*
X231089496Y-62792555D01*
X230756891Y-62844391D01*
X230718470Y-62850699D01*
X229882190Y-62988750D01*
X229392967Y-63544375D01*
X229192049Y-63763668D01*
X229013616Y-63942147D01*
X228877914Y-64060586D01*
X228807819Y-64100000D01*
X228672771Y-64088260D01*
X228481793Y-64058205D01*
X228272191Y-64017580D01*
X228081268Y-63974131D01*
X227946329Y-63935603D01*
X227903500Y-63912235D01*
X227922707Y-63842080D01*
X227975917Y-63672105D01*
X228056516Y-63422818D01*
X228157890Y-63114730D01*
X228246683Y-62848128D01*
X228357662Y-62523622D01*
X228461518Y-62240645D01*
X228568758Y-61977000D01*
X228689890Y-61710490D01*
X228835423Y-61418919D01*
X229015865Y-61080090D01*
X229241723Y-60671805D01*
X229463139Y-60278542D01*
X229696482Y-59867261D01*
X229914879Y-59484889D01*
X230108986Y-59147586D01*
X230269460Y-58871510D01*
X230386957Y-58672819D01*
X230452132Y-58567672D01*
X230454233Y-58564607D01*
X230532309Y-58488316D01*
X230701029Y-58348056D01*
X230947649Y-58153608D01*
X231259424Y-57914759D01*
X231623610Y-57641292D01*
X232027462Y-57342991D01*
X232379207Y-57086769D01*
X234186361Y-55778575D01*
X238251457Y-55015749D01*
X239665604Y-55267110D01*
X241079750Y-55518470D01*
X241974204Y-55983360D01*
X242512647Y-56284395D01*
X242994366Y-56603616D01*
X243445687Y-56962671D01*
X243892935Y-57383204D01*
X244362438Y-57886862D01*
X244547609Y-58099250D01*
X245060360Y-58760561D01*
X245483584Y-59453592D01*
X245830576Y-60204453D01*
X246114631Y-61039251D01*
X246196863Y-61337750D01*
X246462472Y-62353750D01*
X253389184Y-62353750D01*
X254605371Y-61147250D01*
X256431735Y-59915091D01*
X256857538Y-59626672D01*
X257246742Y-59360823D01*
X257587558Y-59125771D01*
X257868194Y-58929742D01*
X258076860Y-58780962D01*
X258201767Y-58687657D01*
X258233299Y-58658131D01*
X258166483Y-58655090D01*
X257986675Y-58657067D01*
X257707767Y-58663647D01*
X257343652Y-58674411D01*
X256908220Y-58688945D01*
X256415364Y-58706830D01*
X255878976Y-58727651D01*
X255771874Y-58731961D01*
X253335250Y-58830593D01*
X250890500Y-58513519D01*
X250216724Y-58426127D01*
X249658097Y-58353406D01*
X249203836Y-58293583D01*
X248843161Y-58244886D01*
X248565289Y-58205539D01*
X248359438Y-58173772D01*
X248214827Y-58147809D01*
X248120674Y-58125878D01*
X248066196Y-58106205D01*
X248040613Y-58087018D01*
X248033141Y-58066542D01*
X248033000Y-58043544D01*
X248053968Y-57970495D01*
X248114360Y-57788730D01*
X248210408Y-57508966D01*
X248338344Y-57141916D01*
X248494399Y-56698295D01*
X248674807Y-56188818D01*
X248875799Y-55624200D01*
X249093606Y-55015156D01*
X249304555Y-54427718D01*
X250576109Y-50893593D01*
X250798573Y-48248731D01*
X250845681Y-47683568D01*
X250888561Y-47159211D01*
X250926197Y-46688829D01*
X250957573Y-46285595D01*
X250981674Y-45962679D01*
X250997483Y-45733253D01*
X251003985Y-45610489D01*
X251003393Y-45593194D01*
X250956982Y-45635044D01*
X250831253Y-45759066D01*
X250635179Y-45956144D01*
X250377732Y-46217162D01*
X250067885Y-46533000D01*
X249714611Y-46894544D01*
X249326882Y-47292674D01*
X249024011Y-47604500D01*
X247062272Y-49626480D01*
X244549393Y-51316529D01*
X244042380Y-51656672D01*
X243565558Y-51974922D01*
X243129649Y-52264240D01*
X242745374Y-52517586D01*
X242423455Y-52727919D01*
X242174614Y-52888199D01*
X242009574Y-52991388D01*
X241939133Y-53030425D01*
X241904803Y-53006925D01*
X241845378Y-52921129D01*
X241757836Y-52766840D01*
X241639154Y-52537856D01*
X241486311Y-52227978D01*
X241296286Y-51831007D01*
X241066056Y-51340743D01*
X240792601Y-50750987D01*
X240472898Y-50055538D01*
X240224534Y-49512511D01*
X239868752Y-48733231D01*
X239560715Y-48057971D01*
X239295401Y-47475234D01*
X239067789Y-46973521D01*
X238872856Y-46541334D01*
X238705582Y-46167174D01*
X238560943Y-45839544D01*
X238433918Y-45546944D01*
X238319485Y-45277878D01*
X238212623Y-45020845D01*
X238108309Y-44764349D01*
X238001522Y-44496890D01*
X237887240Y-44206971D01*
X237760441Y-43883093D01*
X237713948Y-43764124D01*
X237549530Y-43346080D01*
X237422475Y-43032155D01*
X237325267Y-42807666D01*
X237250391Y-42657925D01*
X237190333Y-42568247D01*
X237137578Y-42523945D01*
X237084610Y-42510334D01*
X237072203Y-42510000D01*
X236956153Y-42522196D01*
X236956153Y-42522196D01*
G37*
X236956153Y-42522196D02*
X236920500Y-42544092D01*
X236905967Y-42610634D01*
X236864245Y-42788825D01*
X236798157Y-43066909D01*
X236710524Y-43433133D01*
X236604166Y-43875742D01*
X236481904Y-44382980D01*
X236346559Y-44943092D01*
X236200952Y-45544325D01*
X236159647Y-45714647D01*
X235398793Y-48851108D01*
X234302272Y-51363508D01*
X234035418Y-51970469D01*
X233795330Y-52507574D01*
X233585638Y-52967108D01*
X233409971Y-53341353D01*
X233271959Y-53622593D01*
X233175233Y-53803114D01*
X233123422Y-53875199D01*
X233120165Y-53876203D01*
X233051458Y-53848237D01*
X232878111Y-53767092D01*
X232608747Y-53637046D01*
X232251987Y-53462373D01*
X231816454Y-53247349D01*
X231310770Y-52996249D01*
X230743556Y-52713348D01*
X230123435Y-52402921D01*
X229459029Y-52069244D01*
X228758960Y-51716593D01*
X228434313Y-51552707D01*
X227595096Y-51129127D01*
X226862176Y-50760061D01*
X226228744Y-50442264D01*
X225687990Y-50172494D01*
X225233105Y-49947506D01*
X224857279Y-49764055D01*
X224553704Y-49618899D01*
X224315570Y-49508792D01*
X224136068Y-49430492D01*
X224008389Y-49380753D01*
X223925723Y-49356332D01*
X223881260Y-49353985D01*
X223868193Y-49370468D01*
X223869189Y-49377832D01*
X223915527Y-49578490D01*
X223983409Y-49878513D01*
X224070424Y-50266900D01*
X224174162Y-50732648D01*
X224292211Y-51264755D01*
X224422160Y-51852219D01*
X224561597Y-52484038D01*
X224708111Y-53149210D01*
X224859291Y-53836732D01*
X225012725Y-54535603D01*
X225166003Y-55234821D01*
X225316714Y-55923383D01*
X225462445Y-56590288D01*
X225600785Y-57224533D01*
X225729325Y-57815116D01*
X225845651Y-58351035D01*
X225947353Y-58821288D01*
X226032020Y-59214873D01*
X226097240Y-59520787D01*
X226140602Y-59728029D01*
X226159695Y-59825597D01*
X226160324Y-59831842D01*
X226095666Y-59845541D01*
X225917626Y-59877373D01*
X225638218Y-59925331D01*
X225269453Y-59987408D01*
X224823343Y-60061598D01*
X224311900Y-60145895D01*
X223747137Y-60238291D01*
X223141065Y-60336780D01*
X223027319Y-60355194D01*
X219913970Y-60858889D01*
X218638235Y-61414468D01*
X218266580Y-61577770D01*
X217937576Y-61725100D01*
X217667923Y-61848751D01*
X217474318Y-61941017D01*
X217373462Y-61994189D01*
X217362767Y-62003149D01*
X217419975Y-62032724D01*
X217582255Y-62101484D01*
X217835791Y-62203956D01*
X218166764Y-62334666D01*
X218561357Y-62488143D01*
X219005753Y-62658914D01*
X219335843Y-62784592D01*
X221308652Y-63532935D01*
X222605826Y-64647514D01*
X222948608Y-64943592D01*
X223257412Y-65213289D01*
X223519745Y-65445453D01*
X223723114Y-65628932D01*
X223855024Y-65752573D01*
X223902983Y-65805225D01*
X223903000Y-65805463D01*
X223848911Y-65845251D01*
X223695961Y-65935895D01*
X223458127Y-66069974D01*
X223149386Y-66240064D01*
X222783716Y-66438741D01*
X222375093Y-66658583D01*
X221937493Y-66892165D01*
X221484895Y-67132066D01*
X221031275Y-67370860D01*
X220590611Y-67601126D01*
X220176878Y-67815440D01*
X219804054Y-68006378D01*
X219486117Y-68166517D01*
X219237042Y-68288434D01*
X219156375Y-68326434D01*
X218897247Y-68450318D01*
X218687058Y-68558342D01*
X218548976Y-68638087D01*
X218505500Y-68675274D01*
X218555586Y-68720738D01*
X218699026Y-68832184D01*
X218925594Y-69002107D01*
X219225066Y-69223004D01*
X219587215Y-69487368D01*
X220001817Y-69787697D01*
X220458646Y-70116485D01*
X220886750Y-70422890D01*
X221372436Y-70771075D01*
X221824824Y-71098189D01*
X222233677Y-71396627D01*
X222588758Y-71658784D01*
X222879831Y-71877058D01*
X223096660Y-72043844D01*
X223229006Y-72151539D01*
X223267460Y-72191321D01*
X223233536Y-72257911D01*
X223137044Y-72418529D01*
X222985533Y-72661316D01*
X222786552Y-72974409D01*
X222547652Y-73345950D01*
X222276380Y-73764076D01*
X221980288Y-74216928D01*
X221910291Y-74323500D01*
X221610762Y-74780463D01*
X221335153Y-75203462D01*
X221090852Y-75580969D01*
X220885244Y-75901454D01*
X220725717Y-76153390D01*
X220619657Y-76325248D01*
X220574450Y-76405501D01*
X220573491Y-76409868D01*
X220637780Y-76428331D01*
X220812441Y-76471199D01*
X221083871Y-76535320D01*
X221438467Y-76617544D01*
X221862626Y-76714720D01*
X222342746Y-76823698D01*
X222865224Y-76941327D01*
X222952678Y-76960927D01*
X223480840Y-77079662D01*
X223968947Y-77190238D01*
X224403378Y-77289504D01*
X224770512Y-77374313D01*
X225056727Y-77441512D01*
X225248402Y-77487953D01*
X225331915Y-77510486D01*
X225334334Y-77511666D01*
X225324987Y-77576648D01*
X225286552Y-77746579D01*
X225223396Y-78003895D01*
X225139884Y-78331030D01*
X225040381Y-78710419D01*
X224982500Y-78927250D01*
X224875920Y-79326615D01*
X224782244Y-79682344D01*
X224705955Y-79977027D01*
X224651533Y-80193256D01*
X224623458Y-80313621D01*
X224620809Y-80332612D01*
X224683885Y-80323810D01*
X224844492Y-80290317D01*
X225076957Y-80238248D01*
X225355603Y-80173721D01*
X225654756Y-80102853D01*
X225948742Y-80031761D01*
X226211885Y-79966562D01*
X226418511Y-79913373D01*
X226542946Y-79878311D01*
X226567132Y-79868898D01*
X226566339Y-79798799D01*
X226526396Y-79661035D01*
X226518295Y-79639201D01*
X226485942Y-79519856D01*
X226437283Y-79295513D01*
X226376262Y-78986548D01*
X226306824Y-78613339D01*
X226232913Y-78196261D01*
X226187788Y-77931816D01*
X226092876Y-77346808D01*
X226022752Y-76863396D01*
X225974847Y-76459157D01*
X225946594Y-76111668D01*
X225935425Y-75798506D01*
X225935000Y-75724373D01*
X225935000Y-75020362D01*
X225077750Y-74384696D01*
X224794594Y-74173646D01*
X224550877Y-73989926D01*
X224363319Y-73846305D01*
X224248636Y-73755555D01*
X224220500Y-73729818D01*
X224212223Y-73663048D01*
X224189809Y-73497096D01*
X224156885Y-73258530D01*
X224125038Y-73030550D01*
X224029575Y-72350494D01*
X224606550Y-71621793D01*
X224851329Y-71318203D01*
X225047519Y-71092594D01*
X225221230Y-70920239D01*
X225398573Y-70776410D01*
X225605658Y-70636379D01*
X225726100Y-70561534D01*
X225963236Y-70407506D01*
X226159920Y-70262786D01*
X226289340Y-70148002D01*
X226323644Y-70101863D01*
X226353419Y-70004491D01*
X226406297Y-69802894D01*
X226477432Y-69516736D01*
X226561978Y-69165677D01*
X226655087Y-68769380D01*
X226699586Y-68576750D01*
X226842289Y-67960631D01*
X226982657Y-67363952D01*
X227117549Y-66799360D01*
X227243825Y-66279504D01*
X227358344Y-65817033D01*
X227457966Y-65424596D01*
X227539550Y-65114840D01*
X227599954Y-64900414D01*
X227636039Y-64793967D01*
X227640928Y-64785670D01*
X227702842Y-64804792D01*
X227833429Y-64894024D01*
X228008944Y-65036369D01*
X228087476Y-65105327D01*
X228493443Y-65469563D01*
X228435408Y-66152653D01*
X228377374Y-66835744D01*
X228754595Y-67660067D01*
X229131816Y-68484391D01*
X230475250Y-69731901D01*
X231764494Y-69887550D01*
X233053737Y-70043199D01*
X234128437Y-69595724D01*
X235203136Y-69148250D01*
X235737979Y-68452958D01*
X236069738Y-67995135D01*
X236315775Y-67592599D01*
X236480587Y-67246458D01*
X236575855Y-67014124D01*
X236652403Y-66831318D01*
X236698283Y-66726410D01*
X236705423Y-66712544D01*
X236770872Y-66714221D01*
X236920805Y-66742817D01*
X237049630Y-66773682D01*
X237376766Y-66857524D01*
X237328982Y-67494887D01*
X237306971Y-67784686D01*
X237294135Y-67999434D01*
X237294274Y-68170774D01*
X237311193Y-68330350D01*
X237348692Y-68509805D01*
X237410574Y-68740781D01*
X237500641Y-69054922D01*
X237527784Y-69149384D01*
X237764181Y-69973750D01*
X238260109Y-70516373D01*
X238756036Y-71058996D01*
X239886143Y-71569432D01*
X241016250Y-72079869D01*
X242032250Y-72008148D01*
X243048250Y-71936428D01*
X243715000Y-71477465D01*
X244022632Y-71259174D01*
X244257738Y-71071180D01*
X244456679Y-70878598D01*
X244655818Y-70646548D01*
X244868318Y-70371063D01*
X245100643Y-70051146D01*
X245270602Y-69785544D01*
X245400501Y-69533913D01*
X245512646Y-69255913D01*
X245560889Y-69118437D01*
X245649176Y-68861922D01*
X245722395Y-68654504D01*
X245771015Y-68522886D01*
X245785073Y-68490414D01*
X245847792Y-68500622D01*
X245984956Y-68552951D01*
X246058472Y-68585664D01*
X246232001Y-68689584D01*
X246290804Y-68784797D01*
X246288851Y-68799000D01*
X246253995Y-68948260D01*
X246199591Y-69200352D01*
X246130045Y-69533385D01*
X246049761Y-69925470D01*
X245963146Y-70354717D01*
X245874604Y-70799236D01*
X245788542Y-71237139D01*
X245709365Y-71646535D01*
X245641478Y-72005535D01*
X245618991Y-72127286D01*
X245542682Y-72539019D01*
X245462820Y-72961322D01*
X245386828Y-73355496D01*
X245322129Y-73682840D01*
X245296194Y-73810036D01*
X245170048Y-74418750D01*
X245704762Y-74926750D01*
X245950267Y-75166291D01*
X246123439Y-75356354D01*
X246248522Y-75529933D01*
X246349763Y-75720018D01*
X246436500Y-75922475D01*
X246633523Y-76410200D01*
X246421064Y-77001975D01*
X246208604Y-77593750D01*
X245540952Y-78081431D01*
X245262594Y-78282573D01*
X245056355Y-78421695D01*
X244892701Y-78512911D01*
X244742099Y-78570332D01*
X244575014Y-78608070D01*
X244375391Y-78638366D01*
X244136266Y-78676465D01*
X243948778Y-78715377D01*
X243846218Y-78747943D01*
X243838011Y-78753934D01*
X243801474Y-78829213D01*
X243732636Y-78997848D01*
X243641900Y-79233588D01*
X243555375Y-79467000D01*
X243341305Y-80007685D01*
X243083407Y-80584335D01*
X242796979Y-81167531D01*
X242497321Y-81727853D01*
X242199731Y-82235884D01*
X241919511Y-82662204D01*
X241830237Y-82784203D01*
X241650913Y-83024304D01*
X241506009Y-83224681D01*
X241409411Y-83365655D01*
X241375007Y-83427548D01*
X241375494Y-83428611D01*
X241435222Y-83466684D01*
X241578191Y-83556730D01*
X241779969Y-83683380D01*
X241919956Y-83771082D01*
X242442661Y-84098345D01*
X242548283Y-83735297D01*
X242606811Y-83532804D01*
X242689346Y-83245518D01*
X242785172Y-82910809D01*
X242883575Y-82566045D01*
X242889073Y-82546750D01*
X243001585Y-82174573D01*
X243097339Y-81904860D01*
X243173246Y-81745581D01*
X243215750Y-81703293D01*
X243297188Y-81718443D01*
X243482879Y-81770036D01*
X243757009Y-81853132D01*
X244103762Y-81962795D01*
X244507323Y-82094086D01*
X244951876Y-82242068D01*
X245082117Y-82286015D01*
X245531180Y-82437180D01*
X245939732Y-82573144D01*
X246292760Y-82689036D01*
X246575253Y-82779985D01*
X246772199Y-82841121D01*
X246868585Y-82867571D01*
X246875686Y-82867981D01*
X246876949Y-82802742D01*
X246871714Y-82628561D01*
X246860910Y-82363278D01*
X246845463Y-82024733D01*
X246826302Y-81630767D01*
X246804353Y-81199220D01*
X246780545Y-80747932D01*
X246755806Y-80294745D01*
X246731062Y-79857497D01*
X246707241Y-79454030D01*
X246685272Y-79102184D01*
X246666081Y-78819799D01*
X246663066Y-78778698D01*
X246623654Y-78249146D01*
X249017250Y-78336832D01*
X250446000Y-78005074D01*
X250855495Y-77908529D01*
X251223657Y-77818947D01*
X251532384Y-77740962D01*
X251763571Y-77679204D01*
X251899113Y-77638308D01*
X251926466Y-77626267D01*
X251893377Y-77576701D01*
X251771104Y-77465579D01*
X251574160Y-77304668D01*
X251317056Y-77105737D01*
X251014303Y-76880554D01*
X250942216Y-76828082D01*
X250443207Y-76466030D01*
X250034425Y-76167630D01*
X249703356Y-75921877D01*
X249437489Y-75717767D01*
X249224310Y-75544296D01*
X249051306Y-75390459D01*
X248905964Y-75245251D01*
X248775771Y-75097669D01*
X248648215Y-74936708D01*
X248510782Y-74751363D01*
X248387906Y-74581720D01*
X248194780Y-74308944D01*
X248033704Y-74070673D01*
X247917241Y-73886360D01*
X247857955Y-73775456D01*
X247853419Y-73754212D01*
X247909641Y-73709004D01*
X248062467Y-73602856D01*
X248301206Y-73442779D01*
X248615168Y-73235785D01*
X248993664Y-72988885D01*
X249426004Y-72709090D01*
X249901499Y-72403411D01*
X250350750Y-72116270D01*
X251011675Y-71696692D01*
X251586506Y-71336165D01*
X252094809Y-71023273D01*
X252556147Y-70746602D01*
X252990087Y-70494735D01*
X253416192Y-70256258D01*
X253854026Y-70019756D01*
X254323155Y-69773812D01*
X254680433Y-69590027D01*
X255124505Y-69362027D01*
X255529136Y-69152476D01*
X255881274Y-68968275D01*
X256167868Y-68816325D01*
X256375867Y-68703526D01*
X256492221Y-68636779D01*
X256512497Y-68621329D01*
X256446050Y-68618215D01*
X256269307Y-68620109D01*
X255998851Y-68626551D01*
X255651268Y-68637084D01*
X255243143Y-68651251D01*
X254791061Y-68668595D01*
X254772350Y-68669346D01*
X253053322Y-68738482D01*
X251273411Y-67519045D01*
X250852950Y-67229830D01*
X250467900Y-66962757D01*
X250130337Y-66726371D01*
X249852334Y-66529223D01*
X249645966Y-66379858D01*
X249523308Y-66286826D01*
X249493500Y-66259008D01*
X249537321Y-66208053D01*
X249663425Y-66075916D01*
X249863776Y-65870699D01*
X250130337Y-65600500D01*
X250455072Y-65273420D01*
X250829943Y-64897560D01*
X251246915Y-64481020D01*
X251697950Y-64031900D01*
X252049436Y-63682828D01*
X253389184Y-62353750D01*
X246462472Y-62353750D01*
X246409172Y-64385750D01*
X246396019Y-64917946D01*
X246384569Y-65441396D01*
X246375199Y-65933949D01*
X246368282Y-66373450D01*
X246364194Y-66737749D01*
X246363308Y-67004692D01*
X246363795Y-67068625D01*
X246364780Y-67338765D01*
X246361184Y-67554144D01*
X246353717Y-67688216D01*
X246346342Y-67719500D01*
X246283862Y-67687973D01*
X246146238Y-67605806D01*
X245985336Y-67504799D01*
X245838048Y-67405224D01*
X245726518Y-67308149D01*
X245632006Y-67187095D01*
X245535771Y-67015585D01*
X245419076Y-66767139D01*
X245344058Y-66598685D01*
X245038411Y-65907272D01*
X244170331Y-65609320D01*
X243567917Y-65415722D01*
X242847824Y-65207556D01*
X242018279Y-64986870D01*
X241087510Y-64755712D01*
X240063747Y-64516131D01*
X238955216Y-64270176D01*
X237867273Y-64039966D01*
X237234941Y-63907211D01*
X236561557Y-63762573D01*
X235876252Y-63612529D01*
X235208157Y-63463556D01*
X234586404Y-63322130D01*
X234040124Y-63194728D01*
X233724958Y-63119002D01*
X233266439Y-63009222D01*
X232837400Y-62910658D01*
X232456507Y-62827271D01*
X232142425Y-62763025D01*
X231913818Y-62721882D01*
X231789352Y-62707805D01*
X231788208Y-62707824D01*
X231637407Y-62719964D01*
X231393753Y-62749644D01*
X231089496Y-62792555D01*
X230756891Y-62844391D01*
X230718470Y-62850699D01*
X229882190Y-62988750D01*
X229392967Y-63544375D01*
X229192049Y-63763668D01*
X229013616Y-63942147D01*
X228877914Y-64060586D01*
X228807819Y-64100000D01*
X228672771Y-64088260D01*
X228481793Y-64058205D01*
X228272191Y-64017580D01*
X228081268Y-63974131D01*
X227946329Y-63935603D01*
X227903500Y-63912235D01*
X227922707Y-63842080D01*
X227975917Y-63672105D01*
X228056516Y-63422818D01*
X228157890Y-63114730D01*
X228246683Y-62848128D01*
X228357662Y-62523622D01*
X228461518Y-62240645D01*
X228568758Y-61977000D01*
X228689890Y-61710490D01*
X228835423Y-61418919D01*
X229015865Y-61080090D01*
X229241723Y-60671805D01*
X229463139Y-60278542D01*
X229696482Y-59867261D01*
X229914879Y-59484889D01*
X230108986Y-59147586D01*
X230269460Y-58871510D01*
X230386957Y-58672819D01*
X230452132Y-58567672D01*
X230454233Y-58564607D01*
X230532309Y-58488316D01*
X230701029Y-58348056D01*
X230947649Y-58153608D01*
X231259424Y-57914759D01*
X231623610Y-57641292D01*
X232027462Y-57342991D01*
X232379207Y-57086769D01*
X234186361Y-55778575D01*
X238251457Y-55015749D01*
X239665604Y-55267110D01*
X241079750Y-55518470D01*
X241974204Y-55983360D01*
X242512647Y-56284395D01*
X242994366Y-56603616D01*
X243445687Y-56962671D01*
X243892935Y-57383204D01*
X244362438Y-57886862D01*
X244547609Y-58099250D01*
X245060360Y-58760561D01*
X245483584Y-59453592D01*
X245830576Y-60204453D01*
X246114631Y-61039251D01*
X246196863Y-61337750D01*
X246462472Y-62353750D01*
X253389184Y-62353750D01*
X254605371Y-61147250D01*
X256431735Y-59915091D01*
X256857538Y-59626672D01*
X257246742Y-59360823D01*
X257587558Y-59125771D01*
X257868194Y-58929742D01*
X258076860Y-58780962D01*
X258201767Y-58687657D01*
X258233299Y-58658131D01*
X258166483Y-58655090D01*
X257986675Y-58657067D01*
X257707767Y-58663647D01*
X257343652Y-58674411D01*
X256908220Y-58688945D01*
X256415364Y-58706830D01*
X255878976Y-58727651D01*
X255771874Y-58731961D01*
X253335250Y-58830593D01*
X250890500Y-58513519D01*
X250216724Y-58426127D01*
X249658097Y-58353406D01*
X249203836Y-58293583D01*
X248843161Y-58244886D01*
X248565289Y-58205539D01*
X248359438Y-58173772D01*
X248214827Y-58147809D01*
X248120674Y-58125878D01*
X248066196Y-58106205D01*
X248040613Y-58087018D01*
X248033141Y-58066542D01*
X248033000Y-58043544D01*
X248053968Y-57970495D01*
X248114360Y-57788730D01*
X248210408Y-57508966D01*
X248338344Y-57141916D01*
X248494399Y-56698295D01*
X248674807Y-56188818D01*
X248875799Y-55624200D01*
X249093606Y-55015156D01*
X249304555Y-54427718D01*
X250576109Y-50893593D01*
X250798573Y-48248731D01*
X250845681Y-47683568D01*
X250888561Y-47159211D01*
X250926197Y-46688829D01*
X250957573Y-46285595D01*
X250981674Y-45962679D01*
X250997483Y-45733253D01*
X251003985Y-45610489D01*
X251003393Y-45593194D01*
X250956982Y-45635044D01*
X250831253Y-45759066D01*
X250635179Y-45956144D01*
X250377732Y-46217162D01*
X250067885Y-46533000D01*
X249714611Y-46894544D01*
X249326882Y-47292674D01*
X249024011Y-47604500D01*
X247062272Y-49626480D01*
X244549393Y-51316529D01*
X244042380Y-51656672D01*
X243565558Y-51974922D01*
X243129649Y-52264240D01*
X242745374Y-52517586D01*
X242423455Y-52727919D01*
X242174614Y-52888199D01*
X242009574Y-52991388D01*
X241939133Y-53030425D01*
X241904803Y-53006925D01*
X241845378Y-52921129D01*
X241757836Y-52766840D01*
X241639154Y-52537856D01*
X241486311Y-52227978D01*
X241296286Y-51831007D01*
X241066056Y-51340743D01*
X240792601Y-50750987D01*
X240472898Y-50055538D01*
X240224534Y-49512511D01*
X239868752Y-48733231D01*
X239560715Y-48057971D01*
X239295401Y-47475234D01*
X239067789Y-46973521D01*
X238872856Y-46541334D01*
X238705582Y-46167174D01*
X238560943Y-45839544D01*
X238433918Y-45546944D01*
X238319485Y-45277878D01*
X238212623Y-45020845D01*
X238108309Y-44764349D01*
X238001522Y-44496890D01*
X237887240Y-44206971D01*
X237760441Y-43883093D01*
X237713948Y-43764124D01*
X237549530Y-43346080D01*
X237422475Y-43032155D01*
X237325267Y-42807666D01*
X237250391Y-42657925D01*
X237190333Y-42568247D01*
X237137578Y-42523945D01*
X237084610Y-42510334D01*
X237072203Y-42510000D01*
X236956153Y-42522196D01*
G36*
X237429225Y-87764189D02*
G01*
X237417546Y-87786614D01*
X237353622Y-87822391D01*
X237184506Y-87890142D01*
X236926287Y-87984164D01*
X236595056Y-88098759D01*
X236206904Y-88228224D01*
X235795978Y-88361109D01*
X234195950Y-88870990D01*
X232462600Y-88416289D01*
X232013235Y-88297022D01*
X231604944Y-88186001D01*
X231253615Y-88087759D01*
X230975140Y-88006830D01*
X230785408Y-87947750D01*
X230700310Y-87915051D01*
X230697500Y-87912625D01*
X230632706Y-87922250D01*
X230461025Y-87970209D01*
X230195250Y-88052341D01*
X229848174Y-88164488D01*
X229432591Y-88302490D01*
X228961293Y-88462187D01*
X228447074Y-88639420D01*
X228236201Y-88712904D01*
X225806652Y-89562146D01*
X224521451Y-90366816D01*
X224156487Y-90596204D01*
X223825085Y-90806171D01*
X223543274Y-90986427D01*
X223327078Y-91126684D01*
X223192526Y-91216652D01*
X223156802Y-91242959D01*
X223115803Y-91329500D01*
X223060172Y-91515363D01*
X222996709Y-91774689D01*
X222932217Y-92081623D01*
X222921468Y-92137591D01*
X222827075Y-92638615D01*
X222713884Y-93243794D01*
X222584132Y-93940919D01*
X222440055Y-94717782D01*
X222283889Y-95562175D01*
X222117870Y-96461889D01*
X221944234Y-97404716D01*
X221765217Y-98378446D01*
X221583056Y-99370872D01*
X221399986Y-100369786D01*
X221218245Y-101362977D01*
X221040066Y-102338239D01*
X220867688Y-103283362D01*
X220703346Y-104186139D01*
X220549277Y-105034360D01*
X220407715Y-105815817D01*
X220280899Y-106518302D01*
X220171063Y-107129606D01*
X220080443Y-107637521D01*
X220025823Y-107946750D01*
X219921964Y-108537400D01*
X219823880Y-109093033D01*
X219733933Y-109600418D01*
X219654488Y-110046326D01*
X219587906Y-110417528D01*
X219536550Y-110700792D01*
X219502784Y-110882890D01*
X219489954Y-110947125D01*
X219455581Y-111090000D01*
X222409541Y-111090000D01*
X223008395Y-111089068D01*
X223566562Y-111086399D01*
X224071578Y-111082182D01*
X224510979Y-111076605D01*
X224872300Y-111069859D01*
X225143077Y-111062131D01*
X225310845Y-111053612D01*
X225363500Y-111045193D01*
X225343588Y-110974067D01*
X225288067Y-110801991D01*
X225203266Y-110547889D01*
X225095510Y-110230688D01*
X224971127Y-109869313D01*
X224950751Y-109810517D01*
X224823884Y-109440337D01*
X224712812Y-109107736D01*
X224623936Y-108832588D01*
X224563659Y-108634769D01*
X224538382Y-108534154D01*
X224538001Y-108529105D01*
X224579575Y-108464581D01*
X224698554Y-108316486D01*
X224886320Y-108094680D01*
X225134258Y-107809026D01*
X225433751Y-107469382D01*
X225776183Y-107085610D01*
X226152936Y-106667571D01*
X226458875Y-106330868D01*
X226855929Y-105894755D01*
X227225820Y-105487226D01*
X227559902Y-105117896D01*
X227849531Y-104796382D01*
X228086061Y-104532298D01*
X228260847Y-104335260D01*
X228365243Y-104214885D01*
X228392230Y-104180460D01*
X228347083Y-104132467D01*
X228213058Y-104014679D01*
X228000949Y-103835999D01*
X227721555Y-103605333D01*
X227385670Y-103331587D01*
X227004093Y-103023665D01*
X226587618Y-102690472D01*
X226534855Y-102648455D01*
X226113815Y-102311032D01*
X225725898Y-101995719D01*
X225382031Y-101711737D01*
X225093140Y-101468306D01*
X224870153Y-101274644D01*
X224723996Y-101139972D01*
X224665598Y-101073509D01*
X224665000Y-101070767D01*
X224685159Y-100996809D01*
X224743355Y-100812974D01*
X224836172Y-100529432D01*
X224960194Y-100156349D01*
X225112003Y-99703895D01*
X225288182Y-99182236D01*
X225485314Y-98601541D01*
X225699983Y-97971978D01*
X225928770Y-97303714D01*
X226032076Y-97002811D01*
X227399152Y-93024250D01*
X228810201Y-90902458D01*
X229184653Y-90340020D01*
X229495369Y-89875033D01*
X229748448Y-89498871D01*
X229949988Y-89202908D01*
X230106087Y-88978516D01*
X230222843Y-88817072D01*
X230306354Y-88709948D01*
X230362719Y-88648518D01*
X230398035Y-88624157D01*
X230418139Y-88627971D01*
X230418039Y-88694078D01*
X230408342Y-88873614D01*
X230389995Y-89153450D01*
X230363944Y-89520453D01*
X230331136Y-89961492D01*
X230292518Y-90463437D01*
X230249037Y-91013154D01*
X230222213Y-91345620D01*
X230178498Y-91909561D01*
X230130162Y-92579099D01*
X230078550Y-93332969D01*
X230025006Y-94149909D01*
X229970876Y-95008654D01*
X229917504Y-95887941D01*
X229866236Y-96766507D01*
X229818415Y-97623088D01*
X229782689Y-98294750D01*
X229732765Y-99274267D01*
X229690185Y-100151938D01*
X229654194Y-100952165D01*
X229624040Y-101699356D01*
X229598969Y-102417913D01*
X229578227Y-103132244D01*
X229561062Y-103866752D01*
X229546720Y-104645843D01*
X229534448Y-105493922D01*
X229523492Y-106435395D01*
X229519548Y-106819625D01*
X229476987Y-111090000D01*
X238762000Y-111090000D01*
X238761826Y-110502625D01*
X238759812Y-110318732D01*
X238754113Y-110023522D01*
X238745133Y-109632611D01*
X238733277Y-109161615D01*
X238718951Y-108626150D01*
X238702558Y-108041833D01*
X238684503Y-107424280D01*
X238667609Y-106867250D01*
X238646333Y-106169301D01*
X238622505Y-105373013D01*
X238596956Y-104507002D01*
X238570514Y-103599883D01*
X238544010Y-102680272D01*
X238518275Y-101776785D01*
X238494137Y-100918038D01*
X238475136Y-100231500D01*
X238450774Y-99419962D01*
X238420268Y-98526755D01*
X238384895Y-97582632D01*
X238345930Y-96618344D01*
X238304653Y-95664646D01*
X238262338Y-94752289D01*
X238220265Y-93912027D01*
X238188254Y-93323239D01*
X237999802Y-90002728D01*
X237708262Y-88984670D01*
X237613503Y-88644732D01*
X237535888Y-88348670D01*
X237480491Y-88117350D01*
X237452387Y-87971637D01*
X237452057Y-87931277D01*
X237516122Y-87952437D01*
X237654148Y-88051812D01*
X237851500Y-88216625D01*
X238093540Y-88434098D01*
X238365632Y-88691456D01*
X238653138Y-88975921D01*
X238679976Y-89003135D01*
X239137702Y-89468250D01*
X241267601Y-95134171D01*
X241572361Y-95945766D01*
X241864083Y-96724354D01*
X242139690Y-97461626D01*
X242396105Y-98149270D01*
X242630251Y-98778977D01*
X242839049Y-99342436D01*
X243019422Y-99831338D01*
X243168293Y-100237372D01*
X243282584Y-100552229D01*
X243359218Y-100767597D01*
X243395117Y-100875168D01*
X243397500Y-100885560D01*
X243351230Y-100945641D01*
X243219566Y-101078825D01*
X243013231Y-101275204D01*
X242742947Y-101524870D01*
X242419438Y-101817915D01*
X242053426Y-102144432D01*
X241667125Y-102484463D01*
X241270556Y-102832543D01*
X240905974Y-103154916D01*
X240584063Y-103441953D01*
X240315505Y-103684027D01*
X240110981Y-103871510D01*
X239981175Y-103994774D01*
X239936750Y-104043998D01*
X239983377Y-104098744D01*
X240111211Y-104216764D01*
X240302183Y-104382124D01*
X240538225Y-104578894D01*
X240608227Y-104636062D01*
X241279704Y-105182025D01*
X241480755Y-105834137D01*
X241681806Y-106486250D01*
X242603153Y-107305694D01*
X242904340Y-107579179D01*
X243160076Y-107822405D01*
X243357339Y-108022211D01*
X243483106Y-108165434D01*
X243524500Y-108236901D01*
X243508396Y-108321551D01*
X243464049Y-108506345D01*
X243397409Y-108769116D01*
X243314428Y-109087699D01*
X243221054Y-109439927D01*
X243123240Y-109803634D01*
X243026934Y-110156653D01*
X242938087Y-110476819D01*
X242862650Y-110741964D01*
X242806572Y-110929922D01*
X242781228Y-111005788D01*
X242792800Y-111024964D01*
X242849511Y-111041122D01*
X242960445Y-111054496D01*
X243134690Y-111065323D01*
X243381331Y-111073839D01*
X243709455Y-111080279D01*
X244128147Y-111084879D01*
X244646493Y-111087875D01*
X245273580Y-111089504D01*
X246018495Y-111089999D01*
X246025957Y-111090000D01*
X246765816Y-111089595D01*
X247388315Y-111088201D01*
X247903091Y-111085552D01*
X248319781Y-111081381D01*
X248648022Y-111075418D01*
X248897452Y-111067398D01*
X249077707Y-111057053D01*
X249198427Y-111044115D01*
X249269246Y-111028317D01*
X249299804Y-111009391D01*
X249303000Y-110999076D01*
X249291178Y-110908661D01*
X249256786Y-110703417D01*
X249201435Y-110391684D01*
X249126736Y-109981805D01*
X249034300Y-109482121D01*
X248925738Y-108900973D01*
X248802661Y-108246702D01*
X248666680Y-107527651D01*
X248519406Y-106752160D01*
X248362451Y-105928571D01*
X248197424Y-105065226D01*
X248025937Y-104170466D01*
X247849601Y-103252632D01*
X247670027Y-102320066D01*
X247488826Y-101381109D01*
X247307610Y-100444103D01*
X247127988Y-99517390D01*
X246951572Y-98609310D01*
X246779974Y-97728205D01*
X246614804Y-96882417D01*
X246457672Y-96080286D01*
X246310191Y-95330156D01*
X246173971Y-94640366D01*
X246050623Y-94019259D01*
X245941758Y-93475175D01*
X245848987Y-93016457D01*
X245773921Y-92651446D01*
X245718171Y-92388483D01*
X245683348Y-92235909D01*
X245672112Y-92199067D01*
X245603322Y-92152366D01*
X245436185Y-92046110D01*
X245180939Y-91886616D01*
X244847820Y-91680201D01*
X244447063Y-91433180D01*
X243988905Y-91151869D01*
X243483583Y-90842586D01*
X242941332Y-90511645D01*
X242637471Y-90326585D01*
X241947557Y-89907762D01*
X241353808Y-89549889D01*
X240844760Y-89246493D01*
X240408954Y-88991097D01*
X240034928Y-88777229D01*
X239711222Y-88598415D01*
X239426374Y-88448180D01*
X239168923Y-88320051D01*
X238927408Y-88207552D01*
X238742497Y-88126396D01*
X238288320Y-87939002D01*
X237937602Y-87811058D01*
X237682646Y-87740591D01*
X237515753Y-87725626D01*
X237429225Y-87764189D01*
X237429225Y-87764189D01*
G37*
X237429225Y-87764189D02*
X237417546Y-87786614D01*
X237353622Y-87822391D01*
X237184506Y-87890142D01*
X236926287Y-87984164D01*
X236595056Y-88098759D01*
X236206904Y-88228224D01*
X235795978Y-88361109D01*
X234195950Y-88870990D01*
X232462600Y-88416289D01*
X232013235Y-88297022D01*
X231604944Y-88186001D01*
X231253615Y-88087759D01*
X230975140Y-88006830D01*
X230785408Y-87947750D01*
X230700310Y-87915051D01*
X230697500Y-87912625D01*
X230632706Y-87922250D01*
X230461025Y-87970209D01*
X230195250Y-88052341D01*
X229848174Y-88164488D01*
X229432591Y-88302490D01*
X228961293Y-88462187D01*
X228447074Y-88639420D01*
X228236201Y-88712904D01*
X225806652Y-89562146D01*
X224521451Y-90366816D01*
X224156487Y-90596204D01*
X223825085Y-90806171D01*
X223543274Y-90986427D01*
X223327078Y-91126684D01*
X223192526Y-91216652D01*
X223156802Y-91242959D01*
X223115803Y-91329500D01*
X223060172Y-91515363D01*
X222996709Y-91774689D01*
X222932217Y-92081623D01*
X222921468Y-92137591D01*
X222827075Y-92638615D01*
X222713884Y-93243794D01*
X222584132Y-93940919D01*
X222440055Y-94717782D01*
X222283889Y-95562175D01*
X222117870Y-96461889D01*
X221944234Y-97404716D01*
X221765217Y-98378446D01*
X221583056Y-99370872D01*
X221399986Y-100369786D01*
X221218245Y-101362977D01*
X221040066Y-102338239D01*
X220867688Y-103283362D01*
X220703346Y-104186139D01*
X220549277Y-105034360D01*
X220407715Y-105815817D01*
X220280899Y-106518302D01*
X220171063Y-107129606D01*
X220080443Y-107637521D01*
X220025823Y-107946750D01*
X219921964Y-108537400D01*
X219823880Y-109093033D01*
X219733933Y-109600418D01*
X219654488Y-110046326D01*
X219587906Y-110417528D01*
X219536550Y-110700792D01*
X219502784Y-110882890D01*
X219489954Y-110947125D01*
X219455581Y-111090000D01*
X222409541Y-111090000D01*
X223008395Y-111089068D01*
X223566562Y-111086399D01*
X224071578Y-111082182D01*
X224510979Y-111076605D01*
X224872300Y-111069859D01*
X225143077Y-111062131D01*
X225310845Y-111053612D01*
X225363500Y-111045193D01*
X225343588Y-110974067D01*
X225288067Y-110801991D01*
X225203266Y-110547889D01*
X225095510Y-110230688D01*
X224971127Y-109869313D01*
X224950751Y-109810517D01*
X224823884Y-109440337D01*
X224712812Y-109107736D01*
X224623936Y-108832588D01*
X224563659Y-108634769D01*
X224538382Y-108534154D01*
X224538001Y-108529105D01*
X224579575Y-108464581D01*
X224698554Y-108316486D01*
X224886320Y-108094680D01*
X225134258Y-107809026D01*
X225433751Y-107469382D01*
X225776183Y-107085610D01*
X226152936Y-106667571D01*
X226458875Y-106330868D01*
X226855929Y-105894755D01*
X227225820Y-105487226D01*
X227559902Y-105117896D01*
X227849531Y-104796382D01*
X228086061Y-104532298D01*
X228260847Y-104335260D01*
X228365243Y-104214885D01*
X228392230Y-104180460D01*
X228347083Y-104132467D01*
X228213058Y-104014679D01*
X228000949Y-103835999D01*
X227721555Y-103605333D01*
X227385670Y-103331587D01*
X227004093Y-103023665D01*
X226587618Y-102690472D01*
X226534855Y-102648455D01*
X226113815Y-102311032D01*
X225725898Y-101995719D01*
X225382031Y-101711737D01*
X225093140Y-101468306D01*
X224870153Y-101274644D01*
X224723996Y-101139972D01*
X224665598Y-101073509D01*
X224665000Y-101070767D01*
X224685159Y-100996809D01*
X224743355Y-100812974D01*
X224836172Y-100529432D01*
X224960194Y-100156349D01*
X225112003Y-99703895D01*
X225288182Y-99182236D01*
X225485314Y-98601541D01*
X225699983Y-97971978D01*
X225928770Y-97303714D01*
X226032076Y-97002811D01*
X227399152Y-93024250D01*
X228810201Y-90902458D01*
X229184653Y-90340020D01*
X229495369Y-89875033D01*
X229748448Y-89498871D01*
X229949988Y-89202908D01*
X230106087Y-88978516D01*
X230222843Y-88817072D01*
X230306354Y-88709948D01*
X230362719Y-88648518D01*
X230398035Y-88624157D01*
X230418139Y-88627971D01*
X230418039Y-88694078D01*
X230408342Y-88873614D01*
X230389995Y-89153450D01*
X230363944Y-89520453D01*
X230331136Y-89961492D01*
X230292518Y-90463437D01*
X230249037Y-91013154D01*
X230222213Y-91345620D01*
X230178498Y-91909561D01*
X230130162Y-92579099D01*
X230078550Y-93332969D01*
X230025006Y-94149909D01*
X229970876Y-95008654D01*
X229917504Y-95887941D01*
X229866236Y-96766507D01*
X229818415Y-97623088D01*
X229782689Y-98294750D01*
X229732765Y-99274267D01*
X229690185Y-100151938D01*
X229654194Y-100952165D01*
X229624040Y-101699356D01*
X229598969Y-102417913D01*
X229578227Y-103132244D01*
X229561062Y-103866752D01*
X229546720Y-104645843D01*
X229534448Y-105493922D01*
X229523492Y-106435395D01*
X229519548Y-106819625D01*
X229476987Y-111090000D01*
X238762000Y-111090000D01*
X238761826Y-110502625D01*
X238759812Y-110318732D01*
X238754113Y-110023522D01*
X238745133Y-109632611D01*
X238733277Y-109161615D01*
X238718951Y-108626150D01*
X238702558Y-108041833D01*
X238684503Y-107424280D01*
X238667609Y-106867250D01*
X238646333Y-106169301D01*
X238622505Y-105373013D01*
X238596956Y-104507002D01*
X238570514Y-103599883D01*
X238544010Y-102680272D01*
X238518275Y-101776785D01*
X238494137Y-100918038D01*
X238475136Y-100231500D01*
X238450774Y-99419962D01*
X238420268Y-98526755D01*
X238384895Y-97582632D01*
X238345930Y-96618344D01*
X238304653Y-95664646D01*
X238262338Y-94752289D01*
X238220265Y-93912027D01*
X238188254Y-93323239D01*
X237999802Y-90002728D01*
X237708262Y-88984670D01*
X237613503Y-88644732D01*
X237535888Y-88348670D01*
X237480491Y-88117350D01*
X237452387Y-87971637D01*
X237452057Y-87931277D01*
X237516122Y-87952437D01*
X237654148Y-88051812D01*
X237851500Y-88216625D01*
X238093540Y-88434098D01*
X238365632Y-88691456D01*
X238653138Y-88975921D01*
X238679976Y-89003135D01*
X239137702Y-89468250D01*
X241267601Y-95134171D01*
X241572361Y-95945766D01*
X241864083Y-96724354D01*
X242139690Y-97461626D01*
X242396105Y-98149270D01*
X242630251Y-98778977D01*
X242839049Y-99342436D01*
X243019422Y-99831338D01*
X243168293Y-100237372D01*
X243282584Y-100552229D01*
X243359218Y-100767597D01*
X243395117Y-100875168D01*
X243397500Y-100885560D01*
X243351230Y-100945641D01*
X243219566Y-101078825D01*
X243013231Y-101275204D01*
X242742947Y-101524870D01*
X242419438Y-101817915D01*
X242053426Y-102144432D01*
X241667125Y-102484463D01*
X241270556Y-102832543D01*
X240905974Y-103154916D01*
X240584063Y-103441953D01*
X240315505Y-103684027D01*
X240110981Y-103871510D01*
X239981175Y-103994774D01*
X239936750Y-104043998D01*
X239983377Y-104098744D01*
X240111211Y-104216764D01*
X240302183Y-104382124D01*
X240538225Y-104578894D01*
X240608227Y-104636062D01*
X241279704Y-105182025D01*
X241480755Y-105834137D01*
X241681806Y-106486250D01*
X242603153Y-107305694D01*
X242904340Y-107579179D01*
X243160076Y-107822405D01*
X243357339Y-108022211D01*
X243483106Y-108165434D01*
X243524500Y-108236901D01*
X243508396Y-108321551D01*
X243464049Y-108506345D01*
X243397409Y-108769116D01*
X243314428Y-109087699D01*
X243221054Y-109439927D01*
X243123240Y-109803634D01*
X243026934Y-110156653D01*
X242938087Y-110476819D01*
X242862650Y-110741964D01*
X242806572Y-110929922D01*
X242781228Y-111005788D01*
X242792800Y-111024964D01*
X242849511Y-111041122D01*
X242960445Y-111054496D01*
X243134690Y-111065323D01*
X243381331Y-111073839D01*
X243709455Y-111080279D01*
X244128147Y-111084879D01*
X244646493Y-111087875D01*
X245273580Y-111089504D01*
X246018495Y-111089999D01*
X246025957Y-111090000D01*
X246765816Y-111089595D01*
X247388315Y-111088201D01*
X247903091Y-111085552D01*
X248319781Y-111081381D01*
X248648022Y-111075418D01*
X248897452Y-111067398D01*
X249077707Y-111057053D01*
X249198427Y-111044115D01*
X249269246Y-111028317D01*
X249299804Y-111009391D01*
X249303000Y-110999076D01*
X249291178Y-110908661D01*
X249256786Y-110703417D01*
X249201435Y-110391684D01*
X249126736Y-109981805D01*
X249034300Y-109482121D01*
X248925738Y-108900973D01*
X248802661Y-108246702D01*
X248666680Y-107527651D01*
X248519406Y-106752160D01*
X248362451Y-105928571D01*
X248197424Y-105065226D01*
X248025937Y-104170466D01*
X247849601Y-103252632D01*
X247670027Y-102320066D01*
X247488826Y-101381109D01*
X247307610Y-100444103D01*
X247127988Y-99517390D01*
X246951572Y-98609310D01*
X246779974Y-97728205D01*
X246614804Y-96882417D01*
X246457672Y-96080286D01*
X246310191Y-95330156D01*
X246173971Y-94640366D01*
X246050623Y-94019259D01*
X245941758Y-93475175D01*
X245848987Y-93016457D01*
X245773921Y-92651446D01*
X245718171Y-92388483D01*
X245683348Y-92235909D01*
X245672112Y-92199067D01*
X245603322Y-92152366D01*
X245436185Y-92046110D01*
X245180939Y-91886616D01*
X244847820Y-91680201D01*
X244447063Y-91433180D01*
X243988905Y-91151869D01*
X243483583Y-90842586D01*
X242941332Y-90511645D01*
X242637471Y-90326585D01*
X241947557Y-89907762D01*
X241353808Y-89549889D01*
X240844760Y-89246493D01*
X240408954Y-88991097D01*
X240034928Y-88777229D01*
X239711222Y-88598415D01*
X239426374Y-88448180D01*
X239168923Y-88320051D01*
X238927408Y-88207552D01*
X238742497Y-88126396D01*
X238288320Y-87939002D01*
X237937602Y-87811058D01*
X237682646Y-87740591D01*
X237515753Y-87725626D01*
X237429225Y-87764189D01*
M02*
