G04 #@! TF.GenerationSoftware,KiCad,Pcbnew,(5.1.2-1)-1*
G04 #@! TF.CreationDate,2020-05-18T20:01:50-05:00*
G04 #@! TF.ProjectId,therick_bottom_plate,74686572-6963-46b5-9f62-6f74746f6d5f,rev?*
G04 #@! TF.SameCoordinates,Original*
G04 #@! TF.FileFunction,Legend,Bot*
G04 #@! TF.FilePolarity,Positive*
%FSLAX46Y46*%
G04 Gerber Fmt 4.6, Leading zero omitted, Abs format (unit mm)*
G04 Created by KiCad (PCBNEW (5.1.2-1)-1) date 2020-05-18 20:01:50*
%MOMM*%
%LPD*%
G04 APERTURE LIST*
%ADD10C,0.010000*%
G04 APERTURE END LIST*
D10*
G36*
X224362777Y-59371124D02*
G01*
X224084653Y-59644082D01*
X224198662Y-59934325D01*
X224248614Y-60054338D01*
X224303235Y-60145142D01*
X224380886Y-60213283D01*
X224499923Y-60265305D01*
X224678706Y-60307756D01*
X224935592Y-60347179D01*
X225288940Y-60390122D01*
X225564774Y-60421414D01*
X226262228Y-60519629D01*
X226989814Y-60657601D01*
X227722340Y-60828258D01*
X228434612Y-61024529D01*
X229101437Y-61239342D01*
X229697624Y-61465625D01*
X230197979Y-61696308D01*
X230298625Y-61750222D01*
X230975783Y-62083375D01*
X231769505Y-62399153D01*
X232670150Y-62694350D01*
X233668073Y-62965761D01*
X234584875Y-63175213D01*
X234956425Y-63247275D01*
X235346133Y-63309650D01*
X235772949Y-63364317D01*
X236255824Y-63413256D01*
X236813706Y-63458445D01*
X237465546Y-63501862D01*
X238022016Y-63534151D01*
X238728657Y-63573201D01*
X238954674Y-63374756D01*
X239180691Y-63176310D01*
X239048376Y-62952054D01*
X238986971Y-62853294D01*
X238922812Y-62777426D01*
X238835311Y-62714953D01*
X238703883Y-62656377D01*
X238507939Y-62592202D01*
X238226893Y-62512931D01*
X237914232Y-62428863D01*
X237437012Y-62318713D01*
X236876522Y-62222389D01*
X236214499Y-62136925D01*
X235929030Y-62106323D01*
X235448667Y-62054628D01*
X235062799Y-62005487D01*
X234739206Y-61952977D01*
X234445665Y-61891177D01*
X234149955Y-61814167D01*
X233841463Y-61722691D01*
X233467326Y-61600585D01*
X233072770Y-61460394D01*
X232706485Y-61320025D01*
X232433808Y-61204981D01*
X232243022Y-61123537D01*
X231950061Y-61005075D01*
X231572024Y-60856207D01*
X231126006Y-60683546D01*
X230629105Y-60493704D01*
X230098418Y-60293292D01*
X229551041Y-60088922D01*
X229476933Y-60061440D01*
X227099491Y-59180507D01*
X225870196Y-59139337D01*
X224640900Y-59098167D01*
X224362777Y-59371124D01*
X224362777Y-59371124D01*
G37*
X224362777Y-59371124D02*
X224084653Y-59644082D01*
X224198662Y-59934325D01*
X224248614Y-60054338D01*
X224303235Y-60145142D01*
X224380886Y-60213283D01*
X224499923Y-60265305D01*
X224678706Y-60307756D01*
X224935592Y-60347179D01*
X225288940Y-60390122D01*
X225564774Y-60421414D01*
X226262228Y-60519629D01*
X226989814Y-60657601D01*
X227722340Y-60828258D01*
X228434612Y-61024529D01*
X229101437Y-61239342D01*
X229697624Y-61465625D01*
X230197979Y-61696308D01*
X230298625Y-61750222D01*
X230975783Y-62083375D01*
X231769505Y-62399153D01*
X232670150Y-62694350D01*
X233668073Y-62965761D01*
X234584875Y-63175213D01*
X234956425Y-63247275D01*
X235346133Y-63309650D01*
X235772949Y-63364317D01*
X236255824Y-63413256D01*
X236813706Y-63458445D01*
X237465546Y-63501862D01*
X238022016Y-63534151D01*
X238728657Y-63573201D01*
X238954674Y-63374756D01*
X239180691Y-63176310D01*
X239048376Y-62952054D01*
X238986971Y-62853294D01*
X238922812Y-62777426D01*
X238835311Y-62714953D01*
X238703883Y-62656377D01*
X238507939Y-62592202D01*
X238226893Y-62512931D01*
X237914232Y-62428863D01*
X237437012Y-62318713D01*
X236876522Y-62222389D01*
X236214499Y-62136925D01*
X235929030Y-62106323D01*
X235448667Y-62054628D01*
X235062799Y-62005487D01*
X234739206Y-61952977D01*
X234445665Y-61891177D01*
X234149955Y-61814167D01*
X233841463Y-61722691D01*
X233467326Y-61600585D01*
X233072770Y-61460394D01*
X232706485Y-61320025D01*
X232433808Y-61204981D01*
X232243022Y-61123537D01*
X231950061Y-61005075D01*
X231572024Y-60856207D01*
X231126006Y-60683546D01*
X230629105Y-60493704D01*
X230098418Y-60293292D01*
X229551041Y-60088922D01*
X229476933Y-60061440D01*
X227099491Y-59180507D01*
X225870196Y-59139337D01*
X224640900Y-59098167D01*
X224362777Y-59371124D01*
G36*
X230334278Y-41922196D02*
G01*
X230298625Y-41944092D01*
X230284092Y-42010634D01*
X230242370Y-42188825D01*
X230176282Y-42466909D01*
X230088649Y-42833133D01*
X229982291Y-43275742D01*
X229860029Y-43782980D01*
X229724684Y-44343092D01*
X229579077Y-44944325D01*
X229537772Y-45114647D01*
X228776918Y-48251108D01*
X227680397Y-50763508D01*
X227413543Y-51370469D01*
X227173455Y-51907574D01*
X226963763Y-52367108D01*
X226788096Y-52741353D01*
X226650084Y-53022593D01*
X226553358Y-53203114D01*
X226501547Y-53275199D01*
X226498290Y-53276203D01*
X226429583Y-53248237D01*
X226256236Y-53167092D01*
X225986872Y-53037046D01*
X225630112Y-52862373D01*
X225194579Y-52647349D01*
X224688895Y-52396249D01*
X224121681Y-52113348D01*
X223501560Y-51802921D01*
X222837154Y-51469244D01*
X222137085Y-51116593D01*
X221812438Y-50952707D01*
X220973221Y-50529127D01*
X220240301Y-50160061D01*
X219606869Y-49842264D01*
X219066115Y-49572494D01*
X218611230Y-49347506D01*
X218235404Y-49164055D01*
X217931829Y-49018899D01*
X217693695Y-48908792D01*
X217514193Y-48830492D01*
X217386514Y-48780753D01*
X217303848Y-48756332D01*
X217259385Y-48753985D01*
X217246318Y-48770468D01*
X217247314Y-48777832D01*
X217293652Y-48978490D01*
X217361534Y-49278513D01*
X217448549Y-49666900D01*
X217552287Y-50132648D01*
X217670336Y-50664755D01*
X217800285Y-51252219D01*
X217939722Y-51884038D01*
X218086236Y-52549210D01*
X218237416Y-53236732D01*
X218390850Y-53935603D01*
X218544128Y-54634821D01*
X218694839Y-55323383D01*
X218840570Y-55990288D01*
X218978910Y-56624533D01*
X219107450Y-57215116D01*
X219223776Y-57751035D01*
X219325478Y-58221288D01*
X219410145Y-58614873D01*
X219475365Y-58920787D01*
X219518727Y-59128029D01*
X219537820Y-59225597D01*
X219538449Y-59231842D01*
X219473791Y-59245541D01*
X219295751Y-59277373D01*
X219016343Y-59325331D01*
X218647578Y-59387408D01*
X218201468Y-59461598D01*
X217690025Y-59545895D01*
X217125262Y-59638291D01*
X216519190Y-59736780D01*
X216405444Y-59755194D01*
X213292095Y-60258889D01*
X212016360Y-60814468D01*
X211644705Y-60977770D01*
X211315701Y-61125100D01*
X211046048Y-61248751D01*
X210852443Y-61341017D01*
X210751587Y-61394189D01*
X210740892Y-61403149D01*
X210798100Y-61432724D01*
X210960380Y-61501484D01*
X211213916Y-61603956D01*
X211544889Y-61734666D01*
X211939482Y-61888143D01*
X212383878Y-62058914D01*
X212713968Y-62184592D01*
X214686777Y-62932935D01*
X215983951Y-64047514D01*
X216326733Y-64343592D01*
X216635537Y-64613289D01*
X216897870Y-64845453D01*
X217101239Y-65028932D01*
X217233149Y-65152573D01*
X217281108Y-65205225D01*
X217281125Y-65205463D01*
X217227036Y-65245251D01*
X217074086Y-65335895D01*
X216836252Y-65469974D01*
X216527511Y-65640064D01*
X216161841Y-65838741D01*
X215753218Y-66058583D01*
X215315618Y-66292165D01*
X214863020Y-66532066D01*
X214409400Y-66770860D01*
X213968736Y-67001126D01*
X213555003Y-67215440D01*
X213182179Y-67406378D01*
X212864242Y-67566517D01*
X212615167Y-67688434D01*
X212534500Y-67726434D01*
X212275372Y-67850318D01*
X212065183Y-67958342D01*
X211927101Y-68038087D01*
X211883625Y-68075274D01*
X211933711Y-68120738D01*
X212077151Y-68232184D01*
X212303719Y-68402107D01*
X212603191Y-68623004D01*
X212965340Y-68887368D01*
X213379942Y-69187697D01*
X213836771Y-69516485D01*
X214264875Y-69822890D01*
X214750561Y-70171075D01*
X215202949Y-70498189D01*
X215611802Y-70796627D01*
X215966883Y-71058784D01*
X216257956Y-71277058D01*
X216474785Y-71443844D01*
X216607131Y-71551539D01*
X216645585Y-71591321D01*
X216611661Y-71657911D01*
X216515169Y-71818529D01*
X216363658Y-72061316D01*
X216164677Y-72374409D01*
X215925777Y-72745950D01*
X215654505Y-73164076D01*
X215358413Y-73616928D01*
X215288416Y-73723500D01*
X214988887Y-74180463D01*
X214713278Y-74603462D01*
X214468977Y-74980969D01*
X214263369Y-75301454D01*
X214103842Y-75553390D01*
X213997782Y-75725248D01*
X213952575Y-75805501D01*
X213951616Y-75809868D01*
X214015905Y-75828331D01*
X214190566Y-75871199D01*
X214461996Y-75935320D01*
X214816592Y-76017544D01*
X215240751Y-76114720D01*
X215720871Y-76223698D01*
X216243349Y-76341327D01*
X216330803Y-76360927D01*
X216858965Y-76479662D01*
X217347072Y-76590238D01*
X217781503Y-76689504D01*
X218148637Y-76774313D01*
X218434852Y-76841512D01*
X218626527Y-76887953D01*
X218710040Y-76910486D01*
X218712459Y-76911666D01*
X218703112Y-76976648D01*
X218664677Y-77146579D01*
X218601521Y-77403895D01*
X218518009Y-77731030D01*
X218418506Y-78110419D01*
X218360625Y-78327250D01*
X218254045Y-78726615D01*
X218160369Y-79082344D01*
X218084080Y-79377027D01*
X218029658Y-79593256D01*
X218001583Y-79713621D01*
X217998934Y-79732612D01*
X218062010Y-79723810D01*
X218222617Y-79690317D01*
X218455082Y-79638248D01*
X218733728Y-79573721D01*
X219032881Y-79502853D01*
X219326867Y-79431761D01*
X219590010Y-79366562D01*
X219796636Y-79313373D01*
X219921071Y-79278311D01*
X219945257Y-79268898D01*
X219944464Y-79198799D01*
X219904521Y-79061035D01*
X219896420Y-79039201D01*
X219864067Y-78919856D01*
X219815408Y-78695513D01*
X219754387Y-78386548D01*
X219684949Y-78013339D01*
X219611038Y-77596261D01*
X219565913Y-77331816D01*
X219471001Y-76746808D01*
X219400877Y-76263396D01*
X219352972Y-75859157D01*
X219324719Y-75511668D01*
X219313550Y-75198506D01*
X219313125Y-75124373D01*
X219313125Y-74420362D01*
X218455875Y-73784696D01*
X218172719Y-73573646D01*
X217929002Y-73389926D01*
X217741444Y-73246305D01*
X217626761Y-73155555D01*
X217598625Y-73129818D01*
X217590348Y-73063048D01*
X217567934Y-72897096D01*
X217535010Y-72658530D01*
X217503163Y-72430550D01*
X217407700Y-71750494D01*
X217984675Y-71021793D01*
X218229454Y-70718203D01*
X218425644Y-70492594D01*
X218599355Y-70320239D01*
X218776698Y-70176410D01*
X218983783Y-70036379D01*
X219104225Y-69961534D01*
X219341361Y-69807506D01*
X219538045Y-69662786D01*
X219667465Y-69548002D01*
X219701769Y-69501863D01*
X219731544Y-69404491D01*
X219784422Y-69202894D01*
X219855557Y-68916736D01*
X219940103Y-68565677D01*
X220033212Y-68169380D01*
X220077711Y-67976750D01*
X220220414Y-67360631D01*
X220360782Y-66763952D01*
X220495674Y-66199360D01*
X220621950Y-65679504D01*
X220736469Y-65217033D01*
X220836091Y-64824596D01*
X220917675Y-64514840D01*
X220978079Y-64300414D01*
X221014164Y-64193967D01*
X221019053Y-64185670D01*
X221080967Y-64204792D01*
X221211554Y-64294024D01*
X221387069Y-64436369D01*
X221465601Y-64505327D01*
X221871568Y-64869563D01*
X221813533Y-65552653D01*
X221755499Y-66235744D01*
X222132720Y-67060067D01*
X222509941Y-67884391D01*
X223853375Y-69131901D01*
X225142619Y-69287550D01*
X226431862Y-69443199D01*
X227506562Y-68995724D01*
X228581261Y-68548250D01*
X229116104Y-67852958D01*
X229447863Y-67395135D01*
X229693900Y-66992599D01*
X229858712Y-66646458D01*
X229953980Y-66414124D01*
X230030528Y-66231318D01*
X230076408Y-66126410D01*
X230083548Y-66112544D01*
X230148997Y-66114221D01*
X230298930Y-66142817D01*
X230427755Y-66173682D01*
X230754891Y-66257524D01*
X230707107Y-66894887D01*
X230685096Y-67184686D01*
X230672260Y-67399434D01*
X230672399Y-67570774D01*
X230689318Y-67730350D01*
X230726817Y-67909805D01*
X230788699Y-68140781D01*
X230878766Y-68454922D01*
X230905909Y-68549384D01*
X231142306Y-69373750D01*
X231638234Y-69916373D01*
X232134161Y-70458996D01*
X233264268Y-70969432D01*
X234394375Y-71479869D01*
X235410375Y-71408148D01*
X236426375Y-71336428D01*
X237093125Y-70877465D01*
X237400757Y-70659174D01*
X237635863Y-70471180D01*
X237834804Y-70278598D01*
X238033943Y-70046548D01*
X238246443Y-69771063D01*
X238478768Y-69451146D01*
X238648727Y-69185544D01*
X238778626Y-68933913D01*
X238890771Y-68655913D01*
X238939014Y-68518437D01*
X239027301Y-68261922D01*
X239100520Y-68054504D01*
X239149140Y-67922886D01*
X239163198Y-67890414D01*
X239225917Y-67900622D01*
X239363081Y-67952951D01*
X239436597Y-67985664D01*
X239610126Y-68089584D01*
X239668929Y-68184797D01*
X239666976Y-68199000D01*
X239632120Y-68348260D01*
X239577716Y-68600352D01*
X239508170Y-68933385D01*
X239427886Y-69325470D01*
X239341271Y-69754717D01*
X239252729Y-70199236D01*
X239166667Y-70637139D01*
X239087490Y-71046535D01*
X239019603Y-71405535D01*
X238997116Y-71527286D01*
X238920807Y-71939019D01*
X238840945Y-72361322D01*
X238764953Y-72755496D01*
X238700254Y-73082840D01*
X238674319Y-73210036D01*
X238548173Y-73818750D01*
X239082887Y-74326750D01*
X239328392Y-74566291D01*
X239501564Y-74756354D01*
X239626647Y-74929933D01*
X239727888Y-75120018D01*
X239814625Y-75322475D01*
X240011648Y-75810200D01*
X239799189Y-76401975D01*
X239586729Y-76993750D01*
X238919077Y-77481431D01*
X238640719Y-77682573D01*
X238434480Y-77821695D01*
X238270826Y-77912911D01*
X238120224Y-77970332D01*
X237953139Y-78008070D01*
X237753516Y-78038366D01*
X237514391Y-78076465D01*
X237326903Y-78115377D01*
X237224343Y-78147943D01*
X237216136Y-78153934D01*
X237179599Y-78229213D01*
X237110761Y-78397848D01*
X237020025Y-78633588D01*
X236933500Y-78867000D01*
X236719430Y-79407685D01*
X236461532Y-79984335D01*
X236175104Y-80567531D01*
X235875446Y-81127853D01*
X235577856Y-81635884D01*
X235297636Y-82062204D01*
X235208362Y-82184203D01*
X235029038Y-82424304D01*
X234884134Y-82624681D01*
X234787536Y-82765655D01*
X234753132Y-82827548D01*
X234753619Y-82828611D01*
X234813347Y-82866684D01*
X234956316Y-82956730D01*
X235158094Y-83083380D01*
X235298081Y-83171082D01*
X235820786Y-83498345D01*
X235926408Y-83135297D01*
X235984936Y-82932804D01*
X236067471Y-82645518D01*
X236163297Y-82310809D01*
X236261700Y-81966045D01*
X236267198Y-81946750D01*
X236379710Y-81574573D01*
X236475464Y-81304860D01*
X236551371Y-81145581D01*
X236593875Y-81103293D01*
X236675313Y-81118443D01*
X236861004Y-81170036D01*
X237135134Y-81253132D01*
X237481887Y-81362795D01*
X237885448Y-81494086D01*
X238330001Y-81642068D01*
X238460242Y-81686015D01*
X238909305Y-81837180D01*
X239317857Y-81973144D01*
X239670885Y-82089036D01*
X239953378Y-82179985D01*
X240150324Y-82241121D01*
X240246710Y-82267571D01*
X240253811Y-82267981D01*
X240255074Y-82202742D01*
X240249839Y-82028561D01*
X240239035Y-81763278D01*
X240223588Y-81424733D01*
X240204427Y-81030767D01*
X240182478Y-80599220D01*
X240158670Y-80147932D01*
X240133931Y-79694745D01*
X240109187Y-79257497D01*
X240085366Y-78854030D01*
X240063397Y-78502184D01*
X240044206Y-78219799D01*
X240041191Y-78178698D01*
X240001779Y-77649146D01*
X242395375Y-77736832D01*
X243824125Y-77405074D01*
X244233620Y-77308529D01*
X244601782Y-77218947D01*
X244910509Y-77140962D01*
X245141696Y-77079204D01*
X245277238Y-77038308D01*
X245304591Y-77026267D01*
X245271502Y-76976701D01*
X245149229Y-76865579D01*
X244952285Y-76704668D01*
X244695181Y-76505737D01*
X244392428Y-76280554D01*
X244320341Y-76228082D01*
X243821332Y-75866030D01*
X243412550Y-75567630D01*
X243081481Y-75321877D01*
X242815614Y-75117767D01*
X242602435Y-74944296D01*
X242429431Y-74790459D01*
X242284089Y-74645251D01*
X242153896Y-74497669D01*
X242026340Y-74336708D01*
X241888907Y-74151363D01*
X241766031Y-73981720D01*
X241572905Y-73708944D01*
X241411829Y-73470673D01*
X241295366Y-73286360D01*
X241236080Y-73175456D01*
X241231544Y-73154212D01*
X241287766Y-73109004D01*
X241440592Y-73002856D01*
X241679331Y-72842779D01*
X241993293Y-72635785D01*
X242371789Y-72388885D01*
X242804129Y-72109090D01*
X243279624Y-71803411D01*
X243728875Y-71516270D01*
X244389800Y-71096692D01*
X244964631Y-70736165D01*
X245472934Y-70423273D01*
X245934272Y-70146602D01*
X246368212Y-69894735D01*
X246794317Y-69656258D01*
X247232151Y-69419756D01*
X247701280Y-69173812D01*
X248058558Y-68990027D01*
X248502630Y-68762027D01*
X248907261Y-68552476D01*
X249259399Y-68368275D01*
X249545993Y-68216325D01*
X249753992Y-68103526D01*
X249870346Y-68036779D01*
X249890622Y-68021329D01*
X249824175Y-68018215D01*
X249647432Y-68020109D01*
X249376976Y-68026551D01*
X249029393Y-68037084D01*
X248621268Y-68051251D01*
X248169186Y-68068595D01*
X248150475Y-68069346D01*
X246431447Y-68138482D01*
X244651536Y-66919045D01*
X244231075Y-66629830D01*
X243846025Y-66362757D01*
X243508462Y-66126371D01*
X243230459Y-65929223D01*
X243024091Y-65779858D01*
X242901433Y-65686826D01*
X242871625Y-65659008D01*
X242915446Y-65608053D01*
X243041550Y-65475916D01*
X243241901Y-65270699D01*
X243508462Y-65000500D01*
X243833197Y-64673420D01*
X244208068Y-64297560D01*
X244625040Y-63881020D01*
X245076075Y-63431900D01*
X245427561Y-63082828D01*
X246767309Y-61753750D01*
X239840597Y-61753750D01*
X239787297Y-63785750D01*
X239774144Y-64317946D01*
X239762694Y-64841396D01*
X239753324Y-65333949D01*
X239746407Y-65773450D01*
X239742319Y-66137749D01*
X239741433Y-66404692D01*
X239741920Y-66468625D01*
X239742905Y-66738765D01*
X239739309Y-66954144D01*
X239731842Y-67088216D01*
X239724467Y-67119500D01*
X239661987Y-67087973D01*
X239524363Y-67005806D01*
X239363461Y-66904799D01*
X239216173Y-66805224D01*
X239104643Y-66708149D01*
X239010131Y-66587095D01*
X238913896Y-66415585D01*
X238797201Y-66167139D01*
X238722183Y-65998685D01*
X238416536Y-65307272D01*
X237548456Y-65009320D01*
X236946042Y-64815722D01*
X236225949Y-64607556D01*
X235396404Y-64386870D01*
X234465635Y-64155712D01*
X233441872Y-63916131D01*
X232333341Y-63670176D01*
X231245398Y-63439966D01*
X230613066Y-63307211D01*
X229939682Y-63162573D01*
X229254377Y-63012529D01*
X228586282Y-62863556D01*
X227964529Y-62722130D01*
X227418249Y-62594728D01*
X227103083Y-62519002D01*
X226644564Y-62409222D01*
X226215525Y-62310658D01*
X225834632Y-62227271D01*
X225520550Y-62163025D01*
X225291943Y-62121882D01*
X225167477Y-62107805D01*
X225166333Y-62107824D01*
X225015532Y-62119964D01*
X224771878Y-62149644D01*
X224467621Y-62192555D01*
X224135016Y-62244391D01*
X224096595Y-62250699D01*
X223260315Y-62388750D01*
X222771092Y-62944375D01*
X222570174Y-63163668D01*
X222391741Y-63342147D01*
X222256039Y-63460586D01*
X222185944Y-63500000D01*
X222050896Y-63488260D01*
X221859918Y-63458205D01*
X221650316Y-63417580D01*
X221459393Y-63374131D01*
X221324454Y-63335603D01*
X221281625Y-63312235D01*
X221300832Y-63242080D01*
X221354042Y-63072105D01*
X221434641Y-62822818D01*
X221536015Y-62514730D01*
X221624808Y-62248128D01*
X221735787Y-61923622D01*
X221839643Y-61640645D01*
X221946883Y-61377000D01*
X222068015Y-61110490D01*
X222213548Y-60818919D01*
X222393990Y-60480090D01*
X222619848Y-60071805D01*
X222841264Y-59678542D01*
X223074607Y-59267261D01*
X223293004Y-58884889D01*
X223487111Y-58547586D01*
X223647585Y-58271510D01*
X223765082Y-58072819D01*
X223830257Y-57967672D01*
X223832358Y-57964607D01*
X223910434Y-57888316D01*
X224079154Y-57748056D01*
X224325774Y-57553608D01*
X224637549Y-57314759D01*
X225001735Y-57041292D01*
X225405587Y-56742991D01*
X225757332Y-56486769D01*
X227564486Y-55178575D01*
X231629582Y-54415749D01*
X233043729Y-54667110D01*
X234457875Y-54918470D01*
X235352329Y-55383360D01*
X235890772Y-55684395D01*
X236372491Y-56003616D01*
X236823812Y-56362671D01*
X237271060Y-56783204D01*
X237740563Y-57286862D01*
X237925734Y-57499250D01*
X238438485Y-58160561D01*
X238861709Y-58853592D01*
X239208701Y-59604453D01*
X239492756Y-60439251D01*
X239574988Y-60737750D01*
X239840597Y-61753750D01*
X246767309Y-61753750D01*
X247983496Y-60547250D01*
X249809860Y-59315091D01*
X250235663Y-59026672D01*
X250624867Y-58760823D01*
X250965683Y-58525771D01*
X251246319Y-58329742D01*
X251454985Y-58180962D01*
X251579892Y-58087657D01*
X251611424Y-58058131D01*
X251544608Y-58055090D01*
X251364800Y-58057067D01*
X251085892Y-58063647D01*
X250721777Y-58074411D01*
X250286345Y-58088945D01*
X249793489Y-58106830D01*
X249257101Y-58127651D01*
X249149999Y-58131961D01*
X246713375Y-58230593D01*
X244268625Y-57913519D01*
X243594849Y-57826127D01*
X243036222Y-57753406D01*
X242581961Y-57693583D01*
X242221286Y-57644886D01*
X241943414Y-57605539D01*
X241737563Y-57573772D01*
X241592952Y-57547809D01*
X241498799Y-57525878D01*
X241444321Y-57506205D01*
X241418738Y-57487018D01*
X241411266Y-57466542D01*
X241411125Y-57443544D01*
X241432093Y-57370495D01*
X241492485Y-57188730D01*
X241588533Y-56908966D01*
X241716469Y-56541916D01*
X241872524Y-56098295D01*
X242052932Y-55588818D01*
X242253924Y-55024200D01*
X242471731Y-54415156D01*
X242682680Y-53827718D01*
X243954234Y-50293593D01*
X244176698Y-47648731D01*
X244223806Y-47083568D01*
X244266686Y-46559211D01*
X244304322Y-46088829D01*
X244335698Y-45685595D01*
X244359799Y-45362679D01*
X244375608Y-45133253D01*
X244382110Y-45010489D01*
X244381518Y-44993194D01*
X244335107Y-45035044D01*
X244209378Y-45159066D01*
X244013304Y-45356144D01*
X243755857Y-45617162D01*
X243446010Y-45933000D01*
X243092736Y-46294544D01*
X242705007Y-46692674D01*
X242402136Y-47004500D01*
X240440397Y-49026480D01*
X237927518Y-50716529D01*
X237420505Y-51056672D01*
X236943683Y-51374922D01*
X236507774Y-51664240D01*
X236123499Y-51917586D01*
X235801580Y-52127919D01*
X235552739Y-52288199D01*
X235387699Y-52391388D01*
X235317258Y-52430425D01*
X235282928Y-52406925D01*
X235223503Y-52321129D01*
X235135961Y-52166840D01*
X235017279Y-51937856D01*
X234864436Y-51627978D01*
X234674411Y-51231007D01*
X234444181Y-50740743D01*
X234170726Y-50150987D01*
X233851023Y-49455538D01*
X233602659Y-48912511D01*
X233246877Y-48133231D01*
X232938840Y-47457971D01*
X232673526Y-46875234D01*
X232445914Y-46373521D01*
X232250981Y-45941334D01*
X232083707Y-45567174D01*
X231939068Y-45239544D01*
X231812043Y-44946944D01*
X231697610Y-44677878D01*
X231590748Y-44420845D01*
X231486434Y-44164349D01*
X231379647Y-43896890D01*
X231265365Y-43606971D01*
X231138566Y-43283093D01*
X231092073Y-43164124D01*
X230927655Y-42746080D01*
X230800600Y-42432155D01*
X230703392Y-42207666D01*
X230628516Y-42057925D01*
X230568458Y-41968247D01*
X230515703Y-41923945D01*
X230462735Y-41910334D01*
X230450328Y-41910000D01*
X230334278Y-41922196D01*
X230334278Y-41922196D01*
G37*
X230334278Y-41922196D02*
X230298625Y-41944092D01*
X230284092Y-42010634D01*
X230242370Y-42188825D01*
X230176282Y-42466909D01*
X230088649Y-42833133D01*
X229982291Y-43275742D01*
X229860029Y-43782980D01*
X229724684Y-44343092D01*
X229579077Y-44944325D01*
X229537772Y-45114647D01*
X228776918Y-48251108D01*
X227680397Y-50763508D01*
X227413543Y-51370469D01*
X227173455Y-51907574D01*
X226963763Y-52367108D01*
X226788096Y-52741353D01*
X226650084Y-53022593D01*
X226553358Y-53203114D01*
X226501547Y-53275199D01*
X226498290Y-53276203D01*
X226429583Y-53248237D01*
X226256236Y-53167092D01*
X225986872Y-53037046D01*
X225630112Y-52862373D01*
X225194579Y-52647349D01*
X224688895Y-52396249D01*
X224121681Y-52113348D01*
X223501560Y-51802921D01*
X222837154Y-51469244D01*
X222137085Y-51116593D01*
X221812438Y-50952707D01*
X220973221Y-50529127D01*
X220240301Y-50160061D01*
X219606869Y-49842264D01*
X219066115Y-49572494D01*
X218611230Y-49347506D01*
X218235404Y-49164055D01*
X217931829Y-49018899D01*
X217693695Y-48908792D01*
X217514193Y-48830492D01*
X217386514Y-48780753D01*
X217303848Y-48756332D01*
X217259385Y-48753985D01*
X217246318Y-48770468D01*
X217247314Y-48777832D01*
X217293652Y-48978490D01*
X217361534Y-49278513D01*
X217448549Y-49666900D01*
X217552287Y-50132648D01*
X217670336Y-50664755D01*
X217800285Y-51252219D01*
X217939722Y-51884038D01*
X218086236Y-52549210D01*
X218237416Y-53236732D01*
X218390850Y-53935603D01*
X218544128Y-54634821D01*
X218694839Y-55323383D01*
X218840570Y-55990288D01*
X218978910Y-56624533D01*
X219107450Y-57215116D01*
X219223776Y-57751035D01*
X219325478Y-58221288D01*
X219410145Y-58614873D01*
X219475365Y-58920787D01*
X219518727Y-59128029D01*
X219537820Y-59225597D01*
X219538449Y-59231842D01*
X219473791Y-59245541D01*
X219295751Y-59277373D01*
X219016343Y-59325331D01*
X218647578Y-59387408D01*
X218201468Y-59461598D01*
X217690025Y-59545895D01*
X217125262Y-59638291D01*
X216519190Y-59736780D01*
X216405444Y-59755194D01*
X213292095Y-60258889D01*
X212016360Y-60814468D01*
X211644705Y-60977770D01*
X211315701Y-61125100D01*
X211046048Y-61248751D01*
X210852443Y-61341017D01*
X210751587Y-61394189D01*
X210740892Y-61403149D01*
X210798100Y-61432724D01*
X210960380Y-61501484D01*
X211213916Y-61603956D01*
X211544889Y-61734666D01*
X211939482Y-61888143D01*
X212383878Y-62058914D01*
X212713968Y-62184592D01*
X214686777Y-62932935D01*
X215983951Y-64047514D01*
X216326733Y-64343592D01*
X216635537Y-64613289D01*
X216897870Y-64845453D01*
X217101239Y-65028932D01*
X217233149Y-65152573D01*
X217281108Y-65205225D01*
X217281125Y-65205463D01*
X217227036Y-65245251D01*
X217074086Y-65335895D01*
X216836252Y-65469974D01*
X216527511Y-65640064D01*
X216161841Y-65838741D01*
X215753218Y-66058583D01*
X215315618Y-66292165D01*
X214863020Y-66532066D01*
X214409400Y-66770860D01*
X213968736Y-67001126D01*
X213555003Y-67215440D01*
X213182179Y-67406378D01*
X212864242Y-67566517D01*
X212615167Y-67688434D01*
X212534500Y-67726434D01*
X212275372Y-67850318D01*
X212065183Y-67958342D01*
X211927101Y-68038087D01*
X211883625Y-68075274D01*
X211933711Y-68120738D01*
X212077151Y-68232184D01*
X212303719Y-68402107D01*
X212603191Y-68623004D01*
X212965340Y-68887368D01*
X213379942Y-69187697D01*
X213836771Y-69516485D01*
X214264875Y-69822890D01*
X214750561Y-70171075D01*
X215202949Y-70498189D01*
X215611802Y-70796627D01*
X215966883Y-71058784D01*
X216257956Y-71277058D01*
X216474785Y-71443844D01*
X216607131Y-71551539D01*
X216645585Y-71591321D01*
X216611661Y-71657911D01*
X216515169Y-71818529D01*
X216363658Y-72061316D01*
X216164677Y-72374409D01*
X215925777Y-72745950D01*
X215654505Y-73164076D01*
X215358413Y-73616928D01*
X215288416Y-73723500D01*
X214988887Y-74180463D01*
X214713278Y-74603462D01*
X214468977Y-74980969D01*
X214263369Y-75301454D01*
X214103842Y-75553390D01*
X213997782Y-75725248D01*
X213952575Y-75805501D01*
X213951616Y-75809868D01*
X214015905Y-75828331D01*
X214190566Y-75871199D01*
X214461996Y-75935320D01*
X214816592Y-76017544D01*
X215240751Y-76114720D01*
X215720871Y-76223698D01*
X216243349Y-76341327D01*
X216330803Y-76360927D01*
X216858965Y-76479662D01*
X217347072Y-76590238D01*
X217781503Y-76689504D01*
X218148637Y-76774313D01*
X218434852Y-76841512D01*
X218626527Y-76887953D01*
X218710040Y-76910486D01*
X218712459Y-76911666D01*
X218703112Y-76976648D01*
X218664677Y-77146579D01*
X218601521Y-77403895D01*
X218518009Y-77731030D01*
X218418506Y-78110419D01*
X218360625Y-78327250D01*
X218254045Y-78726615D01*
X218160369Y-79082344D01*
X218084080Y-79377027D01*
X218029658Y-79593256D01*
X218001583Y-79713621D01*
X217998934Y-79732612D01*
X218062010Y-79723810D01*
X218222617Y-79690317D01*
X218455082Y-79638248D01*
X218733728Y-79573721D01*
X219032881Y-79502853D01*
X219326867Y-79431761D01*
X219590010Y-79366562D01*
X219796636Y-79313373D01*
X219921071Y-79278311D01*
X219945257Y-79268898D01*
X219944464Y-79198799D01*
X219904521Y-79061035D01*
X219896420Y-79039201D01*
X219864067Y-78919856D01*
X219815408Y-78695513D01*
X219754387Y-78386548D01*
X219684949Y-78013339D01*
X219611038Y-77596261D01*
X219565913Y-77331816D01*
X219471001Y-76746808D01*
X219400877Y-76263396D01*
X219352972Y-75859157D01*
X219324719Y-75511668D01*
X219313550Y-75198506D01*
X219313125Y-75124373D01*
X219313125Y-74420362D01*
X218455875Y-73784696D01*
X218172719Y-73573646D01*
X217929002Y-73389926D01*
X217741444Y-73246305D01*
X217626761Y-73155555D01*
X217598625Y-73129818D01*
X217590348Y-73063048D01*
X217567934Y-72897096D01*
X217535010Y-72658530D01*
X217503163Y-72430550D01*
X217407700Y-71750494D01*
X217984675Y-71021793D01*
X218229454Y-70718203D01*
X218425644Y-70492594D01*
X218599355Y-70320239D01*
X218776698Y-70176410D01*
X218983783Y-70036379D01*
X219104225Y-69961534D01*
X219341361Y-69807506D01*
X219538045Y-69662786D01*
X219667465Y-69548002D01*
X219701769Y-69501863D01*
X219731544Y-69404491D01*
X219784422Y-69202894D01*
X219855557Y-68916736D01*
X219940103Y-68565677D01*
X220033212Y-68169380D01*
X220077711Y-67976750D01*
X220220414Y-67360631D01*
X220360782Y-66763952D01*
X220495674Y-66199360D01*
X220621950Y-65679504D01*
X220736469Y-65217033D01*
X220836091Y-64824596D01*
X220917675Y-64514840D01*
X220978079Y-64300414D01*
X221014164Y-64193967D01*
X221019053Y-64185670D01*
X221080967Y-64204792D01*
X221211554Y-64294024D01*
X221387069Y-64436369D01*
X221465601Y-64505327D01*
X221871568Y-64869563D01*
X221813533Y-65552653D01*
X221755499Y-66235744D01*
X222132720Y-67060067D01*
X222509941Y-67884391D01*
X223853375Y-69131901D01*
X225142619Y-69287550D01*
X226431862Y-69443199D01*
X227506562Y-68995724D01*
X228581261Y-68548250D01*
X229116104Y-67852958D01*
X229447863Y-67395135D01*
X229693900Y-66992599D01*
X229858712Y-66646458D01*
X229953980Y-66414124D01*
X230030528Y-66231318D01*
X230076408Y-66126410D01*
X230083548Y-66112544D01*
X230148997Y-66114221D01*
X230298930Y-66142817D01*
X230427755Y-66173682D01*
X230754891Y-66257524D01*
X230707107Y-66894887D01*
X230685096Y-67184686D01*
X230672260Y-67399434D01*
X230672399Y-67570774D01*
X230689318Y-67730350D01*
X230726817Y-67909805D01*
X230788699Y-68140781D01*
X230878766Y-68454922D01*
X230905909Y-68549384D01*
X231142306Y-69373750D01*
X231638234Y-69916373D01*
X232134161Y-70458996D01*
X233264268Y-70969432D01*
X234394375Y-71479869D01*
X235410375Y-71408148D01*
X236426375Y-71336428D01*
X237093125Y-70877465D01*
X237400757Y-70659174D01*
X237635863Y-70471180D01*
X237834804Y-70278598D01*
X238033943Y-70046548D01*
X238246443Y-69771063D01*
X238478768Y-69451146D01*
X238648727Y-69185544D01*
X238778626Y-68933913D01*
X238890771Y-68655913D01*
X238939014Y-68518437D01*
X239027301Y-68261922D01*
X239100520Y-68054504D01*
X239149140Y-67922886D01*
X239163198Y-67890414D01*
X239225917Y-67900622D01*
X239363081Y-67952951D01*
X239436597Y-67985664D01*
X239610126Y-68089584D01*
X239668929Y-68184797D01*
X239666976Y-68199000D01*
X239632120Y-68348260D01*
X239577716Y-68600352D01*
X239508170Y-68933385D01*
X239427886Y-69325470D01*
X239341271Y-69754717D01*
X239252729Y-70199236D01*
X239166667Y-70637139D01*
X239087490Y-71046535D01*
X239019603Y-71405535D01*
X238997116Y-71527286D01*
X238920807Y-71939019D01*
X238840945Y-72361322D01*
X238764953Y-72755496D01*
X238700254Y-73082840D01*
X238674319Y-73210036D01*
X238548173Y-73818750D01*
X239082887Y-74326750D01*
X239328392Y-74566291D01*
X239501564Y-74756354D01*
X239626647Y-74929933D01*
X239727888Y-75120018D01*
X239814625Y-75322475D01*
X240011648Y-75810200D01*
X239799189Y-76401975D01*
X239586729Y-76993750D01*
X238919077Y-77481431D01*
X238640719Y-77682573D01*
X238434480Y-77821695D01*
X238270826Y-77912911D01*
X238120224Y-77970332D01*
X237953139Y-78008070D01*
X237753516Y-78038366D01*
X237514391Y-78076465D01*
X237326903Y-78115377D01*
X237224343Y-78147943D01*
X237216136Y-78153934D01*
X237179599Y-78229213D01*
X237110761Y-78397848D01*
X237020025Y-78633588D01*
X236933500Y-78867000D01*
X236719430Y-79407685D01*
X236461532Y-79984335D01*
X236175104Y-80567531D01*
X235875446Y-81127853D01*
X235577856Y-81635884D01*
X235297636Y-82062204D01*
X235208362Y-82184203D01*
X235029038Y-82424304D01*
X234884134Y-82624681D01*
X234787536Y-82765655D01*
X234753132Y-82827548D01*
X234753619Y-82828611D01*
X234813347Y-82866684D01*
X234956316Y-82956730D01*
X235158094Y-83083380D01*
X235298081Y-83171082D01*
X235820786Y-83498345D01*
X235926408Y-83135297D01*
X235984936Y-82932804D01*
X236067471Y-82645518D01*
X236163297Y-82310809D01*
X236261700Y-81966045D01*
X236267198Y-81946750D01*
X236379710Y-81574573D01*
X236475464Y-81304860D01*
X236551371Y-81145581D01*
X236593875Y-81103293D01*
X236675313Y-81118443D01*
X236861004Y-81170036D01*
X237135134Y-81253132D01*
X237481887Y-81362795D01*
X237885448Y-81494086D01*
X238330001Y-81642068D01*
X238460242Y-81686015D01*
X238909305Y-81837180D01*
X239317857Y-81973144D01*
X239670885Y-82089036D01*
X239953378Y-82179985D01*
X240150324Y-82241121D01*
X240246710Y-82267571D01*
X240253811Y-82267981D01*
X240255074Y-82202742D01*
X240249839Y-82028561D01*
X240239035Y-81763278D01*
X240223588Y-81424733D01*
X240204427Y-81030767D01*
X240182478Y-80599220D01*
X240158670Y-80147932D01*
X240133931Y-79694745D01*
X240109187Y-79257497D01*
X240085366Y-78854030D01*
X240063397Y-78502184D01*
X240044206Y-78219799D01*
X240041191Y-78178698D01*
X240001779Y-77649146D01*
X242395375Y-77736832D01*
X243824125Y-77405074D01*
X244233620Y-77308529D01*
X244601782Y-77218947D01*
X244910509Y-77140962D01*
X245141696Y-77079204D01*
X245277238Y-77038308D01*
X245304591Y-77026267D01*
X245271502Y-76976701D01*
X245149229Y-76865579D01*
X244952285Y-76704668D01*
X244695181Y-76505737D01*
X244392428Y-76280554D01*
X244320341Y-76228082D01*
X243821332Y-75866030D01*
X243412550Y-75567630D01*
X243081481Y-75321877D01*
X242815614Y-75117767D01*
X242602435Y-74944296D01*
X242429431Y-74790459D01*
X242284089Y-74645251D01*
X242153896Y-74497669D01*
X242026340Y-74336708D01*
X241888907Y-74151363D01*
X241766031Y-73981720D01*
X241572905Y-73708944D01*
X241411829Y-73470673D01*
X241295366Y-73286360D01*
X241236080Y-73175456D01*
X241231544Y-73154212D01*
X241287766Y-73109004D01*
X241440592Y-73002856D01*
X241679331Y-72842779D01*
X241993293Y-72635785D01*
X242371789Y-72388885D01*
X242804129Y-72109090D01*
X243279624Y-71803411D01*
X243728875Y-71516270D01*
X244389800Y-71096692D01*
X244964631Y-70736165D01*
X245472934Y-70423273D01*
X245934272Y-70146602D01*
X246368212Y-69894735D01*
X246794317Y-69656258D01*
X247232151Y-69419756D01*
X247701280Y-69173812D01*
X248058558Y-68990027D01*
X248502630Y-68762027D01*
X248907261Y-68552476D01*
X249259399Y-68368275D01*
X249545993Y-68216325D01*
X249753992Y-68103526D01*
X249870346Y-68036779D01*
X249890622Y-68021329D01*
X249824175Y-68018215D01*
X249647432Y-68020109D01*
X249376976Y-68026551D01*
X249029393Y-68037084D01*
X248621268Y-68051251D01*
X248169186Y-68068595D01*
X248150475Y-68069346D01*
X246431447Y-68138482D01*
X244651536Y-66919045D01*
X244231075Y-66629830D01*
X243846025Y-66362757D01*
X243508462Y-66126371D01*
X243230459Y-65929223D01*
X243024091Y-65779858D01*
X242901433Y-65686826D01*
X242871625Y-65659008D01*
X242915446Y-65608053D01*
X243041550Y-65475916D01*
X243241901Y-65270699D01*
X243508462Y-65000500D01*
X243833197Y-64673420D01*
X244208068Y-64297560D01*
X244625040Y-63881020D01*
X245076075Y-63431900D01*
X245427561Y-63082828D01*
X246767309Y-61753750D01*
X239840597Y-61753750D01*
X239787297Y-63785750D01*
X239774144Y-64317946D01*
X239762694Y-64841396D01*
X239753324Y-65333949D01*
X239746407Y-65773450D01*
X239742319Y-66137749D01*
X239741433Y-66404692D01*
X239741920Y-66468625D01*
X239742905Y-66738765D01*
X239739309Y-66954144D01*
X239731842Y-67088216D01*
X239724467Y-67119500D01*
X239661987Y-67087973D01*
X239524363Y-67005806D01*
X239363461Y-66904799D01*
X239216173Y-66805224D01*
X239104643Y-66708149D01*
X239010131Y-66587095D01*
X238913896Y-66415585D01*
X238797201Y-66167139D01*
X238722183Y-65998685D01*
X238416536Y-65307272D01*
X237548456Y-65009320D01*
X236946042Y-64815722D01*
X236225949Y-64607556D01*
X235396404Y-64386870D01*
X234465635Y-64155712D01*
X233441872Y-63916131D01*
X232333341Y-63670176D01*
X231245398Y-63439966D01*
X230613066Y-63307211D01*
X229939682Y-63162573D01*
X229254377Y-63012529D01*
X228586282Y-62863556D01*
X227964529Y-62722130D01*
X227418249Y-62594728D01*
X227103083Y-62519002D01*
X226644564Y-62409222D01*
X226215525Y-62310658D01*
X225834632Y-62227271D01*
X225520550Y-62163025D01*
X225291943Y-62121882D01*
X225167477Y-62107805D01*
X225166333Y-62107824D01*
X225015532Y-62119964D01*
X224771878Y-62149644D01*
X224467621Y-62192555D01*
X224135016Y-62244391D01*
X224096595Y-62250699D01*
X223260315Y-62388750D01*
X222771092Y-62944375D01*
X222570174Y-63163668D01*
X222391741Y-63342147D01*
X222256039Y-63460586D01*
X222185944Y-63500000D01*
X222050896Y-63488260D01*
X221859918Y-63458205D01*
X221650316Y-63417580D01*
X221459393Y-63374131D01*
X221324454Y-63335603D01*
X221281625Y-63312235D01*
X221300832Y-63242080D01*
X221354042Y-63072105D01*
X221434641Y-62822818D01*
X221536015Y-62514730D01*
X221624808Y-62248128D01*
X221735787Y-61923622D01*
X221839643Y-61640645D01*
X221946883Y-61377000D01*
X222068015Y-61110490D01*
X222213548Y-60818919D01*
X222393990Y-60480090D01*
X222619848Y-60071805D01*
X222841264Y-59678542D01*
X223074607Y-59267261D01*
X223293004Y-58884889D01*
X223487111Y-58547586D01*
X223647585Y-58271510D01*
X223765082Y-58072819D01*
X223830257Y-57967672D01*
X223832358Y-57964607D01*
X223910434Y-57888316D01*
X224079154Y-57748056D01*
X224325774Y-57553608D01*
X224637549Y-57314759D01*
X225001735Y-57041292D01*
X225405587Y-56742991D01*
X225757332Y-56486769D01*
X227564486Y-55178575D01*
X231629582Y-54415749D01*
X233043729Y-54667110D01*
X234457875Y-54918470D01*
X235352329Y-55383360D01*
X235890772Y-55684395D01*
X236372491Y-56003616D01*
X236823812Y-56362671D01*
X237271060Y-56783204D01*
X237740563Y-57286862D01*
X237925734Y-57499250D01*
X238438485Y-58160561D01*
X238861709Y-58853592D01*
X239208701Y-59604453D01*
X239492756Y-60439251D01*
X239574988Y-60737750D01*
X239840597Y-61753750D01*
X246767309Y-61753750D01*
X247983496Y-60547250D01*
X249809860Y-59315091D01*
X250235663Y-59026672D01*
X250624867Y-58760823D01*
X250965683Y-58525771D01*
X251246319Y-58329742D01*
X251454985Y-58180962D01*
X251579892Y-58087657D01*
X251611424Y-58058131D01*
X251544608Y-58055090D01*
X251364800Y-58057067D01*
X251085892Y-58063647D01*
X250721777Y-58074411D01*
X250286345Y-58088945D01*
X249793489Y-58106830D01*
X249257101Y-58127651D01*
X249149999Y-58131961D01*
X246713375Y-58230593D01*
X244268625Y-57913519D01*
X243594849Y-57826127D01*
X243036222Y-57753406D01*
X242581961Y-57693583D01*
X242221286Y-57644886D01*
X241943414Y-57605539D01*
X241737563Y-57573772D01*
X241592952Y-57547809D01*
X241498799Y-57525878D01*
X241444321Y-57506205D01*
X241418738Y-57487018D01*
X241411266Y-57466542D01*
X241411125Y-57443544D01*
X241432093Y-57370495D01*
X241492485Y-57188730D01*
X241588533Y-56908966D01*
X241716469Y-56541916D01*
X241872524Y-56098295D01*
X242052932Y-55588818D01*
X242253924Y-55024200D01*
X242471731Y-54415156D01*
X242682680Y-53827718D01*
X243954234Y-50293593D01*
X244176698Y-47648731D01*
X244223806Y-47083568D01*
X244266686Y-46559211D01*
X244304322Y-46088829D01*
X244335698Y-45685595D01*
X244359799Y-45362679D01*
X244375608Y-45133253D01*
X244382110Y-45010489D01*
X244381518Y-44993194D01*
X244335107Y-45035044D01*
X244209378Y-45159066D01*
X244013304Y-45356144D01*
X243755857Y-45617162D01*
X243446010Y-45933000D01*
X243092736Y-46294544D01*
X242705007Y-46692674D01*
X242402136Y-47004500D01*
X240440397Y-49026480D01*
X237927518Y-50716529D01*
X237420505Y-51056672D01*
X236943683Y-51374922D01*
X236507774Y-51664240D01*
X236123499Y-51917586D01*
X235801580Y-52127919D01*
X235552739Y-52288199D01*
X235387699Y-52391388D01*
X235317258Y-52430425D01*
X235282928Y-52406925D01*
X235223503Y-52321129D01*
X235135961Y-52166840D01*
X235017279Y-51937856D01*
X234864436Y-51627978D01*
X234674411Y-51231007D01*
X234444181Y-50740743D01*
X234170726Y-50150987D01*
X233851023Y-49455538D01*
X233602659Y-48912511D01*
X233246877Y-48133231D01*
X232938840Y-47457971D01*
X232673526Y-46875234D01*
X232445914Y-46373521D01*
X232250981Y-45941334D01*
X232083707Y-45567174D01*
X231939068Y-45239544D01*
X231812043Y-44946944D01*
X231697610Y-44677878D01*
X231590748Y-44420845D01*
X231486434Y-44164349D01*
X231379647Y-43896890D01*
X231265365Y-43606971D01*
X231138566Y-43283093D01*
X231092073Y-43164124D01*
X230927655Y-42746080D01*
X230800600Y-42432155D01*
X230703392Y-42207666D01*
X230628516Y-42057925D01*
X230568458Y-41968247D01*
X230515703Y-41923945D01*
X230462735Y-41910334D01*
X230450328Y-41910000D01*
X230334278Y-41922196D01*
G36*
X230807350Y-87164189D02*
G01*
X230795671Y-87186614D01*
X230731747Y-87222391D01*
X230562631Y-87290142D01*
X230304412Y-87384164D01*
X229973181Y-87498759D01*
X229585029Y-87628224D01*
X229174103Y-87761109D01*
X227574075Y-88270990D01*
X225840725Y-87816289D01*
X225391360Y-87697022D01*
X224983069Y-87586001D01*
X224631740Y-87487759D01*
X224353265Y-87406830D01*
X224163533Y-87347750D01*
X224078435Y-87315051D01*
X224075625Y-87312625D01*
X224010831Y-87322250D01*
X223839150Y-87370209D01*
X223573375Y-87452341D01*
X223226299Y-87564488D01*
X222810716Y-87702490D01*
X222339418Y-87862187D01*
X221825199Y-88039420D01*
X221614326Y-88112904D01*
X219184777Y-88962146D01*
X217899576Y-89766816D01*
X217534612Y-89996204D01*
X217203210Y-90206171D01*
X216921399Y-90386427D01*
X216705203Y-90526684D01*
X216570651Y-90616652D01*
X216534927Y-90642959D01*
X216493928Y-90729500D01*
X216438297Y-90915363D01*
X216374834Y-91174689D01*
X216310342Y-91481623D01*
X216299593Y-91537591D01*
X216205200Y-92038615D01*
X216092009Y-92643794D01*
X215962257Y-93340919D01*
X215818180Y-94117782D01*
X215662014Y-94962175D01*
X215495995Y-95861889D01*
X215322359Y-96804716D01*
X215143342Y-97778446D01*
X214961181Y-98770872D01*
X214778111Y-99769786D01*
X214596370Y-100762977D01*
X214418191Y-101738239D01*
X214245813Y-102683362D01*
X214081471Y-103586139D01*
X213927402Y-104434360D01*
X213785840Y-105215817D01*
X213659024Y-105918302D01*
X213549188Y-106529606D01*
X213458568Y-107037521D01*
X213403948Y-107346750D01*
X213300089Y-107937400D01*
X213202005Y-108493033D01*
X213112058Y-109000418D01*
X213032613Y-109446326D01*
X212966031Y-109817528D01*
X212914675Y-110100792D01*
X212880909Y-110282890D01*
X212868079Y-110347125D01*
X212833706Y-110490000D01*
X215787666Y-110490000D01*
X216386520Y-110489068D01*
X216944687Y-110486399D01*
X217449703Y-110482182D01*
X217889104Y-110476605D01*
X218250425Y-110469859D01*
X218521202Y-110462131D01*
X218688970Y-110453612D01*
X218741625Y-110445193D01*
X218721713Y-110374067D01*
X218666192Y-110201991D01*
X218581391Y-109947889D01*
X218473635Y-109630688D01*
X218349252Y-109269313D01*
X218328876Y-109210517D01*
X218202009Y-108840337D01*
X218090937Y-108507736D01*
X218002061Y-108232588D01*
X217941784Y-108034769D01*
X217916507Y-107934154D01*
X217916126Y-107929105D01*
X217957700Y-107864581D01*
X218076679Y-107716486D01*
X218264445Y-107494680D01*
X218512383Y-107209026D01*
X218811876Y-106869382D01*
X219154308Y-106485610D01*
X219531061Y-106067571D01*
X219837000Y-105730868D01*
X220234054Y-105294755D01*
X220603945Y-104887226D01*
X220938027Y-104517896D01*
X221227656Y-104196382D01*
X221464186Y-103932298D01*
X221638972Y-103735260D01*
X221743368Y-103614885D01*
X221770355Y-103580460D01*
X221725208Y-103532467D01*
X221591183Y-103414679D01*
X221379074Y-103235999D01*
X221099680Y-103005333D01*
X220763795Y-102731587D01*
X220382218Y-102423665D01*
X219965743Y-102090472D01*
X219912980Y-102048455D01*
X219491940Y-101711032D01*
X219104023Y-101395719D01*
X218760156Y-101111737D01*
X218471265Y-100868306D01*
X218248278Y-100674644D01*
X218102121Y-100539972D01*
X218043723Y-100473509D01*
X218043125Y-100470767D01*
X218063284Y-100396809D01*
X218121480Y-100212974D01*
X218214297Y-99929432D01*
X218338319Y-99556349D01*
X218490128Y-99103895D01*
X218666307Y-98582236D01*
X218863439Y-98001541D01*
X219078108Y-97371978D01*
X219306895Y-96703714D01*
X219410201Y-96402811D01*
X220777277Y-92424250D01*
X222188326Y-90302458D01*
X222562778Y-89740020D01*
X222873494Y-89275033D01*
X223126573Y-88898871D01*
X223328113Y-88602908D01*
X223484212Y-88378516D01*
X223600968Y-88217072D01*
X223684479Y-88109948D01*
X223740844Y-88048518D01*
X223776160Y-88024157D01*
X223796264Y-88027971D01*
X223796164Y-88094078D01*
X223786467Y-88273614D01*
X223768120Y-88553450D01*
X223742069Y-88920453D01*
X223709261Y-89361492D01*
X223670643Y-89863437D01*
X223627162Y-90413154D01*
X223600338Y-90745620D01*
X223556623Y-91309561D01*
X223508287Y-91979099D01*
X223456675Y-92732969D01*
X223403131Y-93549909D01*
X223349001Y-94408654D01*
X223295629Y-95287941D01*
X223244361Y-96166507D01*
X223196540Y-97023088D01*
X223160814Y-97694750D01*
X223110890Y-98674267D01*
X223068310Y-99551938D01*
X223032319Y-100352165D01*
X223002165Y-101099356D01*
X222977094Y-101817913D01*
X222956352Y-102532244D01*
X222939187Y-103266752D01*
X222924845Y-104045843D01*
X222912573Y-104893922D01*
X222901617Y-105835395D01*
X222897673Y-106219625D01*
X222855112Y-110490000D01*
X232140125Y-110490000D01*
X232139951Y-109902625D01*
X232137937Y-109718732D01*
X232132238Y-109423522D01*
X232123258Y-109032611D01*
X232111402Y-108561615D01*
X232097076Y-108026150D01*
X232080683Y-107441833D01*
X232062628Y-106824280D01*
X232045734Y-106267250D01*
X232024458Y-105569301D01*
X232000630Y-104773013D01*
X231975081Y-103907002D01*
X231948639Y-102999883D01*
X231922135Y-102080272D01*
X231896400Y-101176785D01*
X231872262Y-100318038D01*
X231853261Y-99631500D01*
X231828899Y-98819962D01*
X231798393Y-97926755D01*
X231763020Y-96982632D01*
X231724055Y-96018344D01*
X231682778Y-95064646D01*
X231640463Y-94152289D01*
X231598390Y-93312027D01*
X231566379Y-92723239D01*
X231377927Y-89402728D01*
X231086387Y-88384670D01*
X230991628Y-88044732D01*
X230914013Y-87748670D01*
X230858616Y-87517350D01*
X230830512Y-87371637D01*
X230830182Y-87331277D01*
X230894247Y-87352437D01*
X231032273Y-87451812D01*
X231229625Y-87616625D01*
X231471665Y-87834098D01*
X231743757Y-88091456D01*
X232031263Y-88375921D01*
X232058101Y-88403135D01*
X232515827Y-88868250D01*
X234645726Y-94534171D01*
X234950486Y-95345766D01*
X235242208Y-96124354D01*
X235517815Y-96861626D01*
X235774230Y-97549270D01*
X236008376Y-98178977D01*
X236217174Y-98742436D01*
X236397547Y-99231338D01*
X236546418Y-99637372D01*
X236660709Y-99952229D01*
X236737343Y-100167597D01*
X236773242Y-100275168D01*
X236775625Y-100285560D01*
X236729355Y-100345641D01*
X236597691Y-100478825D01*
X236391356Y-100675204D01*
X236121072Y-100924870D01*
X235797563Y-101217915D01*
X235431551Y-101544432D01*
X235045250Y-101884463D01*
X234648681Y-102232543D01*
X234284099Y-102554916D01*
X233962188Y-102841953D01*
X233693630Y-103084027D01*
X233489106Y-103271510D01*
X233359300Y-103394774D01*
X233314875Y-103443998D01*
X233361502Y-103498744D01*
X233489336Y-103616764D01*
X233680308Y-103782124D01*
X233916350Y-103978894D01*
X233986352Y-104036062D01*
X234657829Y-104582025D01*
X234858880Y-105234137D01*
X235059931Y-105886250D01*
X235981278Y-106705694D01*
X236282465Y-106979179D01*
X236538201Y-107222405D01*
X236735464Y-107422211D01*
X236861231Y-107565434D01*
X236902625Y-107636901D01*
X236886521Y-107721551D01*
X236842174Y-107906345D01*
X236775534Y-108169116D01*
X236692553Y-108487699D01*
X236599179Y-108839927D01*
X236501365Y-109203634D01*
X236405059Y-109556653D01*
X236316212Y-109876819D01*
X236240775Y-110141964D01*
X236184697Y-110329922D01*
X236159353Y-110405788D01*
X236170925Y-110424964D01*
X236227636Y-110441122D01*
X236338570Y-110454496D01*
X236512815Y-110465323D01*
X236759456Y-110473839D01*
X237087580Y-110480279D01*
X237506272Y-110484879D01*
X238024618Y-110487875D01*
X238651705Y-110489504D01*
X239396620Y-110489999D01*
X239404082Y-110490000D01*
X240143941Y-110489595D01*
X240766440Y-110488201D01*
X241281216Y-110485552D01*
X241697906Y-110481381D01*
X242026147Y-110475418D01*
X242275577Y-110467398D01*
X242455832Y-110457053D01*
X242576552Y-110444115D01*
X242647371Y-110428317D01*
X242677929Y-110409391D01*
X242681125Y-110399076D01*
X242669303Y-110308661D01*
X242634911Y-110103417D01*
X242579560Y-109791684D01*
X242504861Y-109381805D01*
X242412425Y-108882121D01*
X242303863Y-108300973D01*
X242180786Y-107646702D01*
X242044805Y-106927651D01*
X241897531Y-106152160D01*
X241740576Y-105328571D01*
X241575549Y-104465226D01*
X241404062Y-103570466D01*
X241227726Y-102652632D01*
X241048152Y-101720066D01*
X240866951Y-100781109D01*
X240685735Y-99844103D01*
X240506113Y-98917390D01*
X240329697Y-98009310D01*
X240158099Y-97128205D01*
X239992929Y-96282417D01*
X239835797Y-95480286D01*
X239688316Y-94730156D01*
X239552096Y-94040366D01*
X239428748Y-93419259D01*
X239319883Y-92875175D01*
X239227112Y-92416457D01*
X239152046Y-92051446D01*
X239096296Y-91788483D01*
X239061473Y-91635909D01*
X239050237Y-91599067D01*
X238981447Y-91552366D01*
X238814310Y-91446110D01*
X238559064Y-91286616D01*
X238225945Y-91080201D01*
X237825188Y-90833180D01*
X237367030Y-90551869D01*
X236861708Y-90242586D01*
X236319457Y-89911645D01*
X236015596Y-89726585D01*
X235325682Y-89307762D01*
X234731933Y-88949889D01*
X234222885Y-88646493D01*
X233787079Y-88391097D01*
X233413053Y-88177229D01*
X233089347Y-87998415D01*
X232804499Y-87848180D01*
X232547048Y-87720051D01*
X232305533Y-87607552D01*
X232120622Y-87526396D01*
X231666445Y-87339002D01*
X231315727Y-87211058D01*
X231060771Y-87140591D01*
X230893878Y-87125626D01*
X230807350Y-87164189D01*
X230807350Y-87164189D01*
G37*
X230807350Y-87164189D02*
X230795671Y-87186614D01*
X230731747Y-87222391D01*
X230562631Y-87290142D01*
X230304412Y-87384164D01*
X229973181Y-87498759D01*
X229585029Y-87628224D01*
X229174103Y-87761109D01*
X227574075Y-88270990D01*
X225840725Y-87816289D01*
X225391360Y-87697022D01*
X224983069Y-87586001D01*
X224631740Y-87487759D01*
X224353265Y-87406830D01*
X224163533Y-87347750D01*
X224078435Y-87315051D01*
X224075625Y-87312625D01*
X224010831Y-87322250D01*
X223839150Y-87370209D01*
X223573375Y-87452341D01*
X223226299Y-87564488D01*
X222810716Y-87702490D01*
X222339418Y-87862187D01*
X221825199Y-88039420D01*
X221614326Y-88112904D01*
X219184777Y-88962146D01*
X217899576Y-89766816D01*
X217534612Y-89996204D01*
X217203210Y-90206171D01*
X216921399Y-90386427D01*
X216705203Y-90526684D01*
X216570651Y-90616652D01*
X216534927Y-90642959D01*
X216493928Y-90729500D01*
X216438297Y-90915363D01*
X216374834Y-91174689D01*
X216310342Y-91481623D01*
X216299593Y-91537591D01*
X216205200Y-92038615D01*
X216092009Y-92643794D01*
X215962257Y-93340919D01*
X215818180Y-94117782D01*
X215662014Y-94962175D01*
X215495995Y-95861889D01*
X215322359Y-96804716D01*
X215143342Y-97778446D01*
X214961181Y-98770872D01*
X214778111Y-99769786D01*
X214596370Y-100762977D01*
X214418191Y-101738239D01*
X214245813Y-102683362D01*
X214081471Y-103586139D01*
X213927402Y-104434360D01*
X213785840Y-105215817D01*
X213659024Y-105918302D01*
X213549188Y-106529606D01*
X213458568Y-107037521D01*
X213403948Y-107346750D01*
X213300089Y-107937400D01*
X213202005Y-108493033D01*
X213112058Y-109000418D01*
X213032613Y-109446326D01*
X212966031Y-109817528D01*
X212914675Y-110100792D01*
X212880909Y-110282890D01*
X212868079Y-110347125D01*
X212833706Y-110490000D01*
X215787666Y-110490000D01*
X216386520Y-110489068D01*
X216944687Y-110486399D01*
X217449703Y-110482182D01*
X217889104Y-110476605D01*
X218250425Y-110469859D01*
X218521202Y-110462131D01*
X218688970Y-110453612D01*
X218741625Y-110445193D01*
X218721713Y-110374067D01*
X218666192Y-110201991D01*
X218581391Y-109947889D01*
X218473635Y-109630688D01*
X218349252Y-109269313D01*
X218328876Y-109210517D01*
X218202009Y-108840337D01*
X218090937Y-108507736D01*
X218002061Y-108232588D01*
X217941784Y-108034769D01*
X217916507Y-107934154D01*
X217916126Y-107929105D01*
X217957700Y-107864581D01*
X218076679Y-107716486D01*
X218264445Y-107494680D01*
X218512383Y-107209026D01*
X218811876Y-106869382D01*
X219154308Y-106485610D01*
X219531061Y-106067571D01*
X219837000Y-105730868D01*
X220234054Y-105294755D01*
X220603945Y-104887226D01*
X220938027Y-104517896D01*
X221227656Y-104196382D01*
X221464186Y-103932298D01*
X221638972Y-103735260D01*
X221743368Y-103614885D01*
X221770355Y-103580460D01*
X221725208Y-103532467D01*
X221591183Y-103414679D01*
X221379074Y-103235999D01*
X221099680Y-103005333D01*
X220763795Y-102731587D01*
X220382218Y-102423665D01*
X219965743Y-102090472D01*
X219912980Y-102048455D01*
X219491940Y-101711032D01*
X219104023Y-101395719D01*
X218760156Y-101111737D01*
X218471265Y-100868306D01*
X218248278Y-100674644D01*
X218102121Y-100539972D01*
X218043723Y-100473509D01*
X218043125Y-100470767D01*
X218063284Y-100396809D01*
X218121480Y-100212974D01*
X218214297Y-99929432D01*
X218338319Y-99556349D01*
X218490128Y-99103895D01*
X218666307Y-98582236D01*
X218863439Y-98001541D01*
X219078108Y-97371978D01*
X219306895Y-96703714D01*
X219410201Y-96402811D01*
X220777277Y-92424250D01*
X222188326Y-90302458D01*
X222562778Y-89740020D01*
X222873494Y-89275033D01*
X223126573Y-88898871D01*
X223328113Y-88602908D01*
X223484212Y-88378516D01*
X223600968Y-88217072D01*
X223684479Y-88109948D01*
X223740844Y-88048518D01*
X223776160Y-88024157D01*
X223796264Y-88027971D01*
X223796164Y-88094078D01*
X223786467Y-88273614D01*
X223768120Y-88553450D01*
X223742069Y-88920453D01*
X223709261Y-89361492D01*
X223670643Y-89863437D01*
X223627162Y-90413154D01*
X223600338Y-90745620D01*
X223556623Y-91309561D01*
X223508287Y-91979099D01*
X223456675Y-92732969D01*
X223403131Y-93549909D01*
X223349001Y-94408654D01*
X223295629Y-95287941D01*
X223244361Y-96166507D01*
X223196540Y-97023088D01*
X223160814Y-97694750D01*
X223110890Y-98674267D01*
X223068310Y-99551938D01*
X223032319Y-100352165D01*
X223002165Y-101099356D01*
X222977094Y-101817913D01*
X222956352Y-102532244D01*
X222939187Y-103266752D01*
X222924845Y-104045843D01*
X222912573Y-104893922D01*
X222901617Y-105835395D01*
X222897673Y-106219625D01*
X222855112Y-110490000D01*
X232140125Y-110490000D01*
X232139951Y-109902625D01*
X232137937Y-109718732D01*
X232132238Y-109423522D01*
X232123258Y-109032611D01*
X232111402Y-108561615D01*
X232097076Y-108026150D01*
X232080683Y-107441833D01*
X232062628Y-106824280D01*
X232045734Y-106267250D01*
X232024458Y-105569301D01*
X232000630Y-104773013D01*
X231975081Y-103907002D01*
X231948639Y-102999883D01*
X231922135Y-102080272D01*
X231896400Y-101176785D01*
X231872262Y-100318038D01*
X231853261Y-99631500D01*
X231828899Y-98819962D01*
X231798393Y-97926755D01*
X231763020Y-96982632D01*
X231724055Y-96018344D01*
X231682778Y-95064646D01*
X231640463Y-94152289D01*
X231598390Y-93312027D01*
X231566379Y-92723239D01*
X231377927Y-89402728D01*
X231086387Y-88384670D01*
X230991628Y-88044732D01*
X230914013Y-87748670D01*
X230858616Y-87517350D01*
X230830512Y-87371637D01*
X230830182Y-87331277D01*
X230894247Y-87352437D01*
X231032273Y-87451812D01*
X231229625Y-87616625D01*
X231471665Y-87834098D01*
X231743757Y-88091456D01*
X232031263Y-88375921D01*
X232058101Y-88403135D01*
X232515827Y-88868250D01*
X234645726Y-94534171D01*
X234950486Y-95345766D01*
X235242208Y-96124354D01*
X235517815Y-96861626D01*
X235774230Y-97549270D01*
X236008376Y-98178977D01*
X236217174Y-98742436D01*
X236397547Y-99231338D01*
X236546418Y-99637372D01*
X236660709Y-99952229D01*
X236737343Y-100167597D01*
X236773242Y-100275168D01*
X236775625Y-100285560D01*
X236729355Y-100345641D01*
X236597691Y-100478825D01*
X236391356Y-100675204D01*
X236121072Y-100924870D01*
X235797563Y-101217915D01*
X235431551Y-101544432D01*
X235045250Y-101884463D01*
X234648681Y-102232543D01*
X234284099Y-102554916D01*
X233962188Y-102841953D01*
X233693630Y-103084027D01*
X233489106Y-103271510D01*
X233359300Y-103394774D01*
X233314875Y-103443998D01*
X233361502Y-103498744D01*
X233489336Y-103616764D01*
X233680308Y-103782124D01*
X233916350Y-103978894D01*
X233986352Y-104036062D01*
X234657829Y-104582025D01*
X234858880Y-105234137D01*
X235059931Y-105886250D01*
X235981278Y-106705694D01*
X236282465Y-106979179D01*
X236538201Y-107222405D01*
X236735464Y-107422211D01*
X236861231Y-107565434D01*
X236902625Y-107636901D01*
X236886521Y-107721551D01*
X236842174Y-107906345D01*
X236775534Y-108169116D01*
X236692553Y-108487699D01*
X236599179Y-108839927D01*
X236501365Y-109203634D01*
X236405059Y-109556653D01*
X236316212Y-109876819D01*
X236240775Y-110141964D01*
X236184697Y-110329922D01*
X236159353Y-110405788D01*
X236170925Y-110424964D01*
X236227636Y-110441122D01*
X236338570Y-110454496D01*
X236512815Y-110465323D01*
X236759456Y-110473839D01*
X237087580Y-110480279D01*
X237506272Y-110484879D01*
X238024618Y-110487875D01*
X238651705Y-110489504D01*
X239396620Y-110489999D01*
X239404082Y-110490000D01*
X240143941Y-110489595D01*
X240766440Y-110488201D01*
X241281216Y-110485552D01*
X241697906Y-110481381D01*
X242026147Y-110475418D01*
X242275577Y-110467398D01*
X242455832Y-110457053D01*
X242576552Y-110444115D01*
X242647371Y-110428317D01*
X242677929Y-110409391D01*
X242681125Y-110399076D01*
X242669303Y-110308661D01*
X242634911Y-110103417D01*
X242579560Y-109791684D01*
X242504861Y-109381805D01*
X242412425Y-108882121D01*
X242303863Y-108300973D01*
X242180786Y-107646702D01*
X242044805Y-106927651D01*
X241897531Y-106152160D01*
X241740576Y-105328571D01*
X241575549Y-104465226D01*
X241404062Y-103570466D01*
X241227726Y-102652632D01*
X241048152Y-101720066D01*
X240866951Y-100781109D01*
X240685735Y-99844103D01*
X240506113Y-98917390D01*
X240329697Y-98009310D01*
X240158099Y-97128205D01*
X239992929Y-96282417D01*
X239835797Y-95480286D01*
X239688316Y-94730156D01*
X239552096Y-94040366D01*
X239428748Y-93419259D01*
X239319883Y-92875175D01*
X239227112Y-92416457D01*
X239152046Y-92051446D01*
X239096296Y-91788483D01*
X239061473Y-91635909D01*
X239050237Y-91599067D01*
X238981447Y-91552366D01*
X238814310Y-91446110D01*
X238559064Y-91286616D01*
X238225945Y-91080201D01*
X237825188Y-90833180D01*
X237367030Y-90551869D01*
X236861708Y-90242586D01*
X236319457Y-89911645D01*
X236015596Y-89726585D01*
X235325682Y-89307762D01*
X234731933Y-88949889D01*
X234222885Y-88646493D01*
X233787079Y-88391097D01*
X233413053Y-88177229D01*
X233089347Y-87998415D01*
X232804499Y-87848180D01*
X232547048Y-87720051D01*
X232305533Y-87607552D01*
X232120622Y-87526396D01*
X231666445Y-87339002D01*
X231315727Y-87211058D01*
X231060771Y-87140591D01*
X230893878Y-87125626D01*
X230807350Y-87164189D01*
M02*
