G04 #@! TF.GenerationSoftware,KiCad,Pcbnew,(5.1.2-1)-1*
G04 #@! TF.CreationDate,2019-11-27T15:24:53-06:00*
G04 #@! TF.ProjectId,therick_THT,74686572-6963-46b5-9f54-48542e6b6963,rev?*
G04 #@! TF.SameCoordinates,Original*
G04 #@! TF.FileFunction,Profile,NP*
%FSLAX46Y46*%
G04 Gerber Fmt 4.6, Leading zero omitted, Abs format (unit mm)*
G04 Created by KiCad (PCBNEW (5.1.2-1)-1) date 2019-11-27 15:24:53*
%MOMM*%
%LPD*%
G04 APERTURE LIST*
%ADD10C,0.050000*%
G04 APERTURE END LIST*
D10*
X79012125Y-34435000D02*
G75*
G02X79862183Y-33584942I850058J0D01*
G01*
X88412817Y-33584942D02*
G75*
G02X89262875Y-34435000I0J-850058D01*
G01*
X271859375Y-35718750D02*
G75*
G02X273843750Y-37703125I0J-1984375D01*
G01*
X273843750Y-108346875D02*
G75*
G02X271859375Y-110331250I-1984375J0D01*
G01*
X48815625Y-110331250D02*
G75*
G02X46831250Y-108346875I0J1984375D01*
G01*
X46831250Y-37703125D02*
G75*
G02X48815625Y-35718750I1984375J0D01*
G01*
X145256250Y-35321875D02*
G75*
G02X145653125Y-34925000I396875J0D01*
G01*
X145256250Y-35321875D02*
G75*
G02X144859375Y-35718750I-396875J0D01*
G01*
X178990625Y-34925000D02*
G75*
G02X179387500Y-35321875I0J-396875D01*
G01*
X179784375Y-35718750D02*
G75*
G02X179387500Y-35321875I0J396875D01*
G01*
X90056625Y-35718750D02*
G75*
G02X89262875Y-34925000I0J793750D01*
G01*
X79012125Y-34925000D02*
G75*
G02X78218375Y-35718750I-793750J0D01*
G01*
X79012125Y-34435000D02*
X79012125Y-34925000D01*
X88412817Y-33584942D02*
X79862183Y-33584942D01*
X89262875Y-34925000D02*
X89262875Y-34435000D01*
X144859375Y-35718750D02*
X90056625Y-35718750D01*
X178990625Y-34925000D02*
X145653125Y-34925000D01*
X271859375Y-35718750D02*
X179784375Y-35718750D01*
X273843750Y-108346875D02*
X273843750Y-37703125D01*
X48815625Y-110331250D02*
X271859375Y-110331250D01*
X46831250Y-37703125D02*
X46831250Y-108346875D01*
X78218375Y-35718750D02*
X48815625Y-35718750D01*
M02*
